<svg xmlns="http://www.w3.org/2000/svg" xmlns:xlink="http://www.w3.org/1999/xlink" contentStyleType="text/css" data-diagram-type="SEQUENCE" height="2079px" preserveAspectRatio="none" style="width:855px;height:2079px;background:#FFFFFF;" version="1.1" viewBox="0 0 855 2079" width="855px" zoomAndPan="magnify"><title>pSp3 protocol</title><defs><filter height="300%" id="f1jfn97axr6eqe" width="300%" x="-1" y="-1"><feGaussianBlur result="blurOut" stdDeviation="2"/><feColorMatrix in="blurOut" result="blurOut2" type="matrix" values="0 0 0 0 0 0 0 0 0 0 0 0 0 0 0 0 0 0 .4 0"/><feOffset dx="4" dy="4" in="blurOut2" result="blurOut3"/><feBlend in="SourceGraphic" in2="blurOut3" mode="normal"/></filter></defs><g><text fill="#000000" font-family="sans-serif" font-size="14" font-weight="bold" lengthAdjust="spacing" textLength="110.3115" x="370.1982" y="27.9951">pSp3 protocol</text><g><title>Local host</title><rect fill="#FFFFFF" filter="url(#f1jfn97axr6eqe)" height="25" style="stroke:#A80036;stroke-width:1;" width="10" x="241.6016" y="116.7266"/></g><g><title>Local host</title><rect fill="#FFFFFF" filter="url(#f1jfn97axr6eqe)" height="64.1328" style="stroke:#A80036;stroke-width:1;" width="10" x="241.6016" y="209.9922"/></g><g><title>Local host</title><rect fill="#FFFFFF" filter="url(#f1jfn97axr6eqe)" height="1204.8516" style="stroke:#A80036;stroke-width:1;" width="10" x="241.6016" y="648.4844"/></g><g><title>Local host</title><rect fill="#FFFFFF" filter="url(#f1jfn97axr6eqe)" height="106.2656" style="stroke:#A80036;stroke-width:1;" width="10" x="246.6016" y="939.6797"/></g><g><title>Local host</title><rect fill="#FFFFFF" filter="url(#f1jfn97axr6eqe)" height="406.4609" style="stroke:#A80036;stroke-width:1;" width="10" x="246.6016" y="1208.4766"/></g><g><title>Local host</title><rect fill="#FFFFFF" filter="url(#f1jfn97axr6eqe)" height="106.2656" style="stroke:#A80036;stroke-width:1;" width="10" x="246.6016" y="1686.0703"/></g><g><title>Local host</title><rect fill="#FFFFFF" filter="url(#f1jfn97axr6eqe)" height="25" style="stroke:#A80036;stroke-width:1;" width="10" x="241.6016" y="2022.7344"/></g><g><title>Remote host</title><rect fill="#FFFFFF" filter="url(#f1jfn97axr6eqe)" height="25" style="stroke:#A80036;stroke-width:1;" width="10" x="600.3584" y="439.9531"/></g><g><title>Remote host</title><rect fill="#FFFFFF" filter="url(#f1jfn97axr6eqe)" height="64.1328" style="stroke:#A80036;stroke-width:1;" width="10" x="600.3584" y="533.2188"/></g><g><title>Remote host</title><rect fill="#FFFFFF" filter="url(#f1jfn97axr6eqe)" height="1189.7188" style="stroke:#A80036;stroke-width:1;" width="10" x="600.3584" y="690.6172"/></g><g><title>Remote host</title><rect fill="#FFFFFF" filter="url(#f1jfn97axr6eqe)" height="91.1328" style="stroke:#A80036;stroke-width:1;" width="10" x="605.3584" y="981.8125"/></g><g><title>Remote host</title><rect fill="#FFFFFF" filter="url(#f1jfn97axr6eqe)" height="391.3281" style="stroke:#A80036;stroke-width:1;" width="10" x="605.3584" y="1250.6094"/></g><g><title>Remote host</title><rect fill="#FFFFFF" filter="url(#f1jfn97axr6eqe)" height="91.1328" style="stroke:#A80036;stroke-width:1;" width="10" x="605.3584" y="1728.2031"/></g><g><title>Remote host</title><rect fill="#FFFFFF" filter="url(#f1jfn97axr6eqe)" height="25" style="stroke:#A80036;stroke-width:1;" width="10" x="600.3584" y="1924.4688"/></g><rect fill="none" filter="url(#f1jfn97axr6eqe)" height="125.3984" style="stroke:#000000;stroke-width:2;" width="473.708" x="9" y="163.7266"/><rect fill="none" filter="url(#f1jfn97axr6eqe)" height="125.3984" style="stroke:#000000;stroke-width:2;" width="473.708" x="368" y="486.9531"/><rect fill="none" filter="url(#f1jfn97axr6eqe)" height="77.3984" style="stroke:#000000;stroke-width:2;" width="477.0176" x="192" y="710.6172"/><rect fill="none" filter="url(#f1jfn97axr6eqe)" height="77.3984" style="stroke:#000000;stroke-width:2;" width="477.0176" x="192" y="802.0156"/><rect fill="none" filter="url(#f1jfn97axr6eqe)" height="940.9219" style="stroke:#000000;stroke-width:2;" width="553.9766" x="172" y="893.4141"/><rect fill="none" filter="url(#f1jfn97axr6eqe)" height="77.3984" style="stroke:#000000;stroke-width:2;" width="477.0176" x="192" y="1094.9453"/><rect fill="none" filter="url(#f1jfn97axr6eqe)" height="77.3984" style="stroke:#000000;stroke-width:2;" width="477.0176" x="192" y="1309.7422"/><rect fill="none" filter="url(#f1jfn97axr6eqe)" height="77.3984" style="stroke:#000000;stroke-width:2;" width="477.0176" x="192" y="1479.4063"/><g><title>Local host</title><rect fill="#000000" fill-opacity="0.00000" height="1995.1406" width="8" x="242.6016" y="77.5938"/><line style="stroke:#A80036;stroke-width:1;stroke-dasharray:5,5;" x1="246" x2="246" y1="77.5938" y2="2072.7344"/></g><g><title>Remote host</title><rect fill="#000000" fill-opacity="0.00000" height="1674.5625" width="8" x="601.3584" y="398.1719"/><line style="stroke:#A80036;stroke-width:1;stroke-dasharray:5,5;" x1="604.6992" x2="604.6992" y1="398.1719" y2="2072.7344"/></g><g class="participant participant-head" data-participant="local"><rect fill="#FEFECE" filter="url(#f1jfn97axr6eqe)" height="30.2969" style="stroke:#A80036;stroke-width:1.5;" width="85.2031" x="202" y="42.2969"/><text fill="#000000" font-family="sans-serif" font-size="14" lengthAdjust="spacing" textLength="71.2031" x="209" y="62.292">Local host</text></g><g><title>Local host</title><rect fill="#FFFFFF" filter="url(#f1jfn97axr6eqe)" height="25" style="stroke:#A80036;stroke-width:1;" width="10" x="241.6016" y="116.7266"/></g><g><title>Local host</title><rect fill="#FFFFFF" filter="url(#f1jfn97axr6eqe)" height="64.1328" style="stroke:#A80036;stroke-width:1;" width="10" x="241.6016" y="209.9922"/></g><g><title>Local host</title><rect fill="#FFFFFF" filter="url(#f1jfn97axr6eqe)" height="1204.8516" style="stroke:#A80036;stroke-width:1;" width="10" x="241.6016" y="648.4844"/></g><g><title>Local host</title><rect fill="#FFFFFF" filter="url(#f1jfn97axr6eqe)" height="106.2656" style="stroke:#A80036;stroke-width:1;" width="10" x="246.6016" y="939.6797"/></g><g><title>Local host</title><rect fill="#FFFFFF" filter="url(#f1jfn97axr6eqe)" height="406.4609" style="stroke:#A80036;stroke-width:1;" width="10" x="246.6016" y="1208.4766"/></g><g><title>Local host</title><rect fill="#FFFFFF" filter="url(#f1jfn97axr6eqe)" height="106.2656" style="stroke:#A80036;stroke-width:1;" width="10" x="246.6016" y="1686.0703"/></g><g><title>Local host</title><rect fill="#FFFFFF" filter="url(#f1jfn97axr6eqe)" height="25" style="stroke:#A80036;stroke-width:1;" width="10" x="241.6016" y="2022.7344"/></g><g><title>Remote host</title><rect fill="#FFFFFF" filter="url(#f1jfn97axr6eqe)" height="25" style="stroke:#A80036;stroke-width:1;" width="10" x="600.3584" y="439.9531"/></g><g><title>Remote host</title><rect fill="#FFFFFF" filter="url(#f1jfn97axr6eqe)" height="64.1328" style="stroke:#A80036;stroke-width:1;" width="10" x="600.3584" y="533.2188"/></g><g><title>Remote host</title><rect fill="#FFFFFF" filter="url(#f1jfn97axr6eqe)" height="1189.7188" style="stroke:#A80036;stroke-width:1;" width="10" x="600.3584" y="690.6172"/></g><g><title>Remote host</title><rect fill="#FFFFFF" filter="url(#f1jfn97axr6eqe)" height="91.1328" style="stroke:#A80036;stroke-width:1;" width="10" x="605.3584" y="981.8125"/></g><g><title>Remote host</title><rect fill="#FFFFFF" filter="url(#f1jfn97axr6eqe)" height="391.3281" style="stroke:#A80036;stroke-width:1;" width="10" x="605.3584" y="1250.6094"/></g><g><title>Remote host</title><rect fill="#FFFFFF" filter="url(#f1jfn97axr6eqe)" height="91.1328" style="stroke:#A80036;stroke-width:1;" width="10" x="605.3584" y="1728.2031"/></g><g><title>Remote host</title><rect fill="#FFFFFF" filter="url(#f1jfn97axr6eqe)" height="25" style="stroke:#A80036;stroke-width:1;" width="10" x="600.3584" y="1924.4688"/></g><g class="message" data-participant-1="local" data-participant-2="local"><line style="stroke:#A80036;stroke-width:1;" x1="246.6016" x2="293.6016" y1="103.7266" y2="103.7266"/><line style="stroke:#A80036;stroke-width:1;" x1="293.6016" x2="293.6016" y1="103.7266" y2="116.7266"/><line style="stroke:#A80036;stroke-width:1;" x1="252.6016" x2="293.6016" y1="116.7266" y2="116.7266"/><polygon fill="#A80036" points="262.6016,112.7266,252.6016,116.7266,262.6016,120.7266,258.6016,116.7266" style="stroke:#A80036;stroke-width:1;"/><text fill="#000000" font-family="sans-serif" font-size="13" lengthAdjust="spacing" textLength="66.79" x="258.6016" y="98.6606">psp_new()</text></g><g class="message" data-participant-1="local" data-participant-2="local"><line style="stroke:#A80036;stroke-width:1;stroke-dasharray:2,2;" x1="251.6016" x2="293.6016" y1="140.7266" y2="140.7266"/><line style="stroke:#A80036;stroke-width:1;stroke-dasharray:2,2;" x1="293.6016" x2="293.6016" y1="140.7266" y2="153.7266"/><line style="stroke:#A80036;stroke-width:1;stroke-dasharray:2,2;" x1="246.6016" x2="293.6016" y1="153.7266" y2="153.7266"/><polygon fill="#A80036" points="256.6016,149.7266,246.6016,153.7266,256.6016,157.7266,252.6016,153.7266" style="stroke:#A80036;stroke-width:1;"/></g><path d="M9,163.7266 L85.624,163.7266 L85.624,170.8594 L75.624,180.8594 L9,180.8594 L9,163.7266" fill="#EEEEEE" style="stroke:#000000;stroke-width:1;"/><rect fill="none" height="125.3984" style="stroke:#000000;stroke-width:2;" width="473.708" x="9" y="163.7266"/><text fill="#000000" font-family="sans-serif" font-size="13" font-weight="bold" lengthAdjust="spacing" textLength="31.624" x="24" y="176.7935">loop</text><g class="message" data-participant-1="local" data-participant-2="local"><line style="stroke:#A80036;stroke-width:1;" x1="246.6016" x2="293.6016" y1="196.9922" y2="196.9922"/><line style="stroke:#A80036;stroke-width:1;" x1="293.6016" x2="293.6016" y1="196.9922" y2="209.9922"/><line style="stroke:#A80036;stroke-width:1;" x1="252.6016" x2="293.6016" y1="209.9922" y2="209.9922"/><polygon fill="#A80036" points="262.6016,205.9922,252.6016,209.9922,262.6016,213.9922,258.6016,209.9922" style="stroke:#A80036;stroke-width:1;"/><text fill="#000000" font-family="sans-serif" font-size="13" lengthAdjust="spacing" textLength="79.7012" x="258.6016" y="191.9263">psp_config()</text></g><path d="M19,227.9922 L19,252.9922 L468,252.9922 L468,237.9922 L458,227.9922 L19,227.9922" fill="#FBFB77" filter="url(#f1jfn97axr6eqe)" style="stroke:#A80036;stroke-width:1;"/><path d="M458,227.9922 L458,237.9922 L468,237.9922 L458,227.9922" fill="#FBFB77" style="stroke:#A80036;stroke-width:1;"/><text fill="#000000" font-family="sans-serif" font-size="13" lengthAdjust="spacing" textLength="428.708" x="25" y="245.0591">Loads the list of sync directory and label pairs from&#160;~/.psync.conf</text><g class="message" data-participant-1="local" data-participant-2="local"><line style="stroke:#A80036;stroke-width:1;stroke-dasharray:2,2;" x1="251.6016" x2="293.6016" y1="273.125" y2="273.125"/><line style="stroke:#A80036;stroke-width:1;stroke-dasharray:2,2;" x1="293.6016" x2="293.6016" y1="273.125" y2="286.125"/><line style="stroke:#A80036;stroke-width:1;stroke-dasharray:2,2;" x1="246.6016" x2="293.6016" y1="286.125" y2="286.125"/><polygon fill="#A80036" points="256.6016,282.125,246.6016,286.125,256.6016,290.125,252.6016,286.125" style="stroke:#A80036;stroke-width:1;"/></g><path d="M503,301.125 L503,356.125 L702,356.125 L702,311.125 L692,301.125 L503,301.125" fill="#FBFB77" filter="url(#f1jfn97axr6eqe)" style="stroke:#A80036;stroke-width:1;"/><path d="M692,301.125 L692,311.125 L702,311.125 L692,301.125" fill="#FBFB77" style="stroke:#A80036;stroke-width:1;"/><text fill="#000000" font-family="sans-serif" font-size="13" lengthAdjust="spacing" textLength="163.8711" x="509" y="318.1919">STDIN: Receives file data</text><text fill="#000000" font-family="sans-serif" font-size="13" lengthAdjust="spacing" textLength="159.2627" x="509" y="333.3247">STDOUT: Sends file data</text><text fill="#000000" font-family="sans-serif" font-size="13" lengthAdjust="spacing" textLength="178.001" x="509" y="348.4575">STDERR: Sends status data</text><g class="message" data-participant-1="local" data-participant-2="remote"><line style="stroke:#A80036;stroke-width:1;" x1="549.6992" x2="539.6992" y1="401.7891" y2="397.7891"/><line style="stroke:#A80036;stroke-width:1;" x1="549.6992" x2="539.6992" y1="401.7891" y2="405.7891"/><line style="stroke:#A80036;stroke-width:1;stroke-dasharray:2,2;" x1="246.6016" x2="550.6992" y1="401.7891" y2="401.7891"/><text fill="#000000" font-family="sans-serif" font-size="13" lengthAdjust="spacing" textLength="53.752" x="253.6016" y="381.5903">Connect</text><text fill="#000000" font-family="sans-serif" font-size="13" lengthAdjust="spacing" textLength="158.4121" x="253.6016" y="396.7231">(ssh ... 'psync --remote')</text></g><rect fill="#FEFECE" filter="url(#f1jfn97axr6eqe)" height="30.2969" style="stroke:#A80036;stroke-width:1.5;" width="103.3184" x="551.6992" y="365.5234"/><text fill="#000000" font-family="sans-serif" font-size="14" lengthAdjust="spacing" textLength="89.3184" x="558.6992" y="385.5186">Remote host</text><g class="message" data-participant-1="remote" data-participant-2="remote"><line style="stroke:#A80036;stroke-width:1;" x1="605.3584" x2="652.3584" y1="426.9531" y2="426.9531"/><line style="stroke:#A80036;stroke-width:1;" x1="652.3584" x2="652.3584" y1="426.9531" y2="439.9531"/><line style="stroke:#A80036;stroke-width:1;" x1="611.3584" x2="652.3584" y1="439.9531" y2="439.9531"/><polygon fill="#A80036" points="621.3584,435.9531,611.3584,439.9531,621.3584,443.9531,617.3584,439.9531" style="stroke:#A80036;stroke-width:1;"/><text fill="#000000" font-family="sans-serif" font-size="13" lengthAdjust="spacing" textLength="66.79" x="617.3584" y="421.8872">psp_new()</text></g><g class="message" data-participant-1="remote" data-participant-2="remote"><line style="stroke:#A80036;stroke-width:1;stroke-dasharray:2,2;" x1="610.3584" x2="652.3584" y1="463.9531" y2="463.9531"/><line style="stroke:#A80036;stroke-width:1;stroke-dasharray:2,2;" x1="652.3584" x2="652.3584" y1="463.9531" y2="476.9531"/><line style="stroke:#A80036;stroke-width:1;stroke-dasharray:2,2;" x1="605.3584" x2="652.3584" y1="476.9531" y2="476.9531"/><polygon fill="#A80036" points="615.3584,472.9531,605.3584,476.9531,615.3584,480.9531,611.3584,476.9531" style="stroke:#A80036;stroke-width:1;"/></g><path d="M368,486.9531 L444.624,486.9531 L444.624,494.0859 L434.624,504.0859 L368,504.0859 L368,486.9531" fill="#EEEEEE" style="stroke:#000000;stroke-width:1;"/><rect fill="none" height="125.3984" style="stroke:#000000;stroke-width:2;" width="473.708" x="368" y="486.9531"/><text fill="#000000" font-family="sans-serif" font-size="13" font-weight="bold" lengthAdjust="spacing" textLength="31.624" x="383" y="500.02">loop</text><g class="message" data-participant-1="remote" data-participant-2="remote"><line style="stroke:#A80036;stroke-width:1;" x1="605.3584" x2="652.3584" y1="520.2188" y2="520.2188"/><line style="stroke:#A80036;stroke-width:1;" x1="652.3584" x2="652.3584" y1="520.2188" y2="533.2188"/><line style="stroke:#A80036;stroke-width:1;" x1="611.3584" x2="652.3584" y1="533.2188" y2="533.2188"/><polygon fill="#A80036" points="621.3584,529.2188,611.3584,533.2188,621.3584,537.2188,617.3584,533.2188" style="stroke:#A80036;stroke-width:1;"/><text fill="#000000" font-family="sans-serif" font-size="13" lengthAdjust="spacing" textLength="79.7012" x="617.3584" y="515.1528">psp_config()</text></g><path d="M378,551.2188 L378,576.2188 L827,576.2188 L827,561.2188 L817,551.2188 L378,551.2188" fill="#FBFB77" filter="url(#f1jfn97axr6eqe)" style="stroke:#A80036;stroke-width:1;"/><path d="M817,551.2188 L817,561.2188 L827,561.2188 L817,551.2188" fill="#FBFB77" style="stroke:#A80036;stroke-width:1;"/><text fill="#000000" font-family="sans-serif" font-size="13" lengthAdjust="spacing" textLength="428.708" x="384" y="568.2856">Loads the list of sync directory and label pairs from&#160;~/.psync.conf</text><g class="message" data-participant-1="remote" data-participant-2="remote"><line style="stroke:#A80036;stroke-width:1;stroke-dasharray:2,2;" x1="610.3584" x2="652.3584" y1="596.3516" y2="596.3516"/><line style="stroke:#A80036;stroke-width:1;stroke-dasharray:2,2;" x1="652.3584" x2="652.3584" y1="596.3516" y2="609.3516"/><line style="stroke:#A80036;stroke-width:1;stroke-dasharray:2,2;" x1="605.3584" x2="652.3584" y1="609.3516" y2="609.3516"/><polygon fill="#A80036" points="615.3584,605.3516,605.3584,609.3516,615.3584,613.3516,611.3584,609.3516" style="stroke:#A80036;stroke-width:1;"/></g><g class="message" data-participant-1="local" data-participant-2="local"><line style="stroke:#A80036;stroke-width:1;" x1="246.6016" x2="293.6016" y1="635.4844" y2="635.4844"/><line style="stroke:#A80036;stroke-width:1;" x1="293.6016" x2="293.6016" y1="635.4844" y2="648.4844"/><line style="stroke:#A80036;stroke-width:1;" x1="252.6016" x2="293.6016" y1="648.4844" y2="648.4844"/><polygon fill="#A80036" points="262.6016,644.4844,252.6016,648.4844,262.6016,652.4844,258.6016,648.4844" style="stroke:#A80036;stroke-width:1;"/><text fill="#000000" font-family="sans-serif" font-size="13" lengthAdjust="spacing" textLength="61.7437" x="258.6016" y="630.4185">psp_run()</text></g><g class="message" data-participant-1="remote" data-participant-2="remote"><line style="stroke:#A80036;stroke-width:1;" x1="605.3584" x2="652.3584" y1="677.6172" y2="677.6172"/><line style="stroke:#A80036;stroke-width:1;" x1="652.3584" x2="652.3584" y1="677.6172" y2="690.6172"/><line style="stroke:#A80036;stroke-width:1;" x1="611.3584" x2="652.3584" y1="690.6172" y2="690.6172"/><polygon fill="#A80036" points="621.3584,686.6172,611.3584,690.6172,621.3584,694.6172,617.3584,690.6172" style="stroke:#A80036;stroke-width:1;"/><text fill="#000000" font-family="sans-serif" font-size="13" lengthAdjust="spacing" textLength="61.7437" x="617.3584" y="672.5513">psp_run()</text></g><path d="M192,710.6172 L261.4893,710.6172 L261.4893,717.75 L251.4893,727.75 L192,727.75 L192,710.6172" fill="#EEEEEE" style="stroke:#000000;stroke-width:1;"/><rect fill="none" height="77.3984" style="stroke:#000000;stroke-width:2;" width="477.0176" x="192" y="710.6172"/><text fill="#000000" font-family="sans-serif" font-size="13" font-weight="bold" lengthAdjust="spacing" textLength="24.4893" x="207" y="723.6841">par</text><g class="message" data-participant-1="local" data-participant-2="remote"><line style="stroke:#A80036;stroke-width:1;" x1="598.3584" x2="588.3584" y1="748.8828" y2="744.8828"/><line style="stroke:#A80036;stroke-width:1;" x1="598.3584" x2="588.3584" y1="748.8828" y2="752.8828"/><line style="stroke:#A80036;stroke-width:1;" x1="251.6016" x2="599.3584" y1="748.8828" y2="748.8828"/><text fill="#000000" font-family="sans-serif" font-size="13" lengthAdjust="spacing" textLength="119.5645" x="258.6016" y="743.8169">Protocol ID: 'pSp3'</text></g><line style="stroke:#000000;stroke-width:1;stroke-dasharray:2,2;" x1="192" x2="669.0176" y1="757.8828" y2="757.8828"/><g class="message" data-participant-1="remote" data-participant-2="local"><line style="stroke:#A80036;stroke-width:1;" x1="252.6016" x2="262.6016" y1="780.0156" y2="776.0156"/><line style="stroke:#A80036;stroke-width:1;" x1="252.6016" x2="262.6016" y1="780.0156" y2="784.0156"/><line style="stroke:#A80036;stroke-width:1;" x1="251.6016" x2="599.3584" y1="780.0156" y2="780.0156"/><text fill="#000000" font-family="sans-serif" font-size="13" lengthAdjust="spacing" textLength="119.5645" x="268.6016" y="774.9497">Protocol ID: 'pSp3'</text></g><path d="M192,802.0156 L261.4893,802.0156 L261.4893,809.1484 L251.4893,819.1484 L192,819.1484 L192,802.0156" fill="#EEEEEE" style="stroke:#000000;stroke-width:1;"/><rect fill="none" height="77.3984" style="stroke:#000000;stroke-width:2;" width="477.0176" x="192" y="802.0156"/><text fill="#000000" font-family="sans-serif" font-size="13" font-weight="bold" lengthAdjust="spacing" textLength="24.4893" x="207" y="815.0825">par</text><g class="message" data-participant-1="local" data-participant-2="remote"><line style="stroke:#A80036;stroke-width:1;" x1="598.3584" x2="588.3584" y1="840.2813" y2="836.2813"/><line style="stroke:#A80036;stroke-width:1;" x1="598.3584" x2="588.3584" y1="840.2813" y2="844.2813"/><line style="stroke:#A80036;stroke-width:1;" x1="251.6016" x2="599.3584" y1="840.2813" y2="840.2813"/><text fill="#000000" font-family="sans-serif" font-size="13" lengthAdjust="spacing" textLength="116.1558" x="258.6016" y="835.2153">List of local labels</text></g><line style="stroke:#000000;stroke-width:1;stroke-dasharray:2,2;" x1="192" x2="669.0176" y1="849.2813" y2="849.2813"/><g class="message" data-participant-1="remote" data-participant-2="local"><line style="stroke:#A80036;stroke-width:1;" x1="252.6016" x2="262.6016" y1="871.4141" y2="867.4141"/><line style="stroke:#A80036;stroke-width:1;" x1="252.6016" x2="262.6016" y1="871.4141" y2="875.4141"/><line style="stroke:#A80036;stroke-width:1;" x1="251.6016" x2="599.3584" y1="871.4141" y2="871.4141"/><text fill="#000000" font-family="sans-serif" font-size="13" lengthAdjust="spacing" textLength="132.9199" x="268.6016" y="866.3481">List of remote labels</text></g><path d="M172,893.4141 L248.624,893.4141 L248.624,900.5469 L238.624,910.5469 L172,910.5469 L172,893.4141" fill="#EEEEEE" style="stroke:#000000;stroke-width:1;"/><rect fill="none" height="940.9219" style="stroke:#000000;stroke-width:2;" width="553.9766" x="172" y="893.4141"/><text fill="#000000" font-family="sans-serif" font-size="13" font-weight="bold" lengthAdjust="spacing" textLength="31.624" x="187" y="906.481">loop</text><text fill="#000000" font-family="sans-serif" font-size="11" font-weight="bold" lengthAdjust="spacing" textLength="438.0718" x="263.624" y="905.6245">[Process directories for all matching labels on both Local and Remote]</text><g class="message" data-participant-1="local" data-participant-2="local"><line style="stroke:#A80036;stroke-width:1;" x1="251.6016" x2="298.6016" y1="926.6797" y2="926.6797"/><line style="stroke:#A80036;stroke-width:1;" x1="298.6016" x2="298.6016" y1="926.6797" y2="939.6797"/><line style="stroke:#A80036;stroke-width:1;" x1="257.6016" x2="298.6016" y1="939.6797" y2="939.6797"/><polygon fill="#A80036" points="267.6016,935.6797,257.6016,939.6797,267.6016,943.6797,263.6016,939.6797" style="stroke:#A80036;stroke-width:1;"/><text fill="#000000" font-family="sans-serif" font-size="13" lengthAdjust="spacing" textLength="81.6182" x="263.6016" y="921.6138">psync_new()</text></g><g class="message" data-participant-1="remote" data-participant-2="remote"><line style="stroke:#A80036;stroke-width:1;" x1="610.3584" x2="657.3584" y1="968.8125" y2="968.8125"/><line style="stroke:#A80036;stroke-width:1;" x1="657.3584" x2="657.3584" y1="968.8125" y2="981.8125"/><line style="stroke:#A80036;stroke-width:1;" x1="616.3584" x2="657.3584" y1="981.8125" y2="981.8125"/><polygon fill="#A80036" points="626.3584,977.8125,616.3584,981.8125,626.3584,985.8125,622.3584,981.8125" style="stroke:#A80036;stroke-width:1;"/><text fill="#000000" font-family="sans-serif" font-size="13" lengthAdjust="spacing" textLength="81.6182" x="622.3584" y="963.7466">psync_new()</text></g><path d="M199,999.8125 L199,1024.8125 L651,1024.8125 L651,1009.8125 L641,999.8125 L199,999.8125" fill="#FBFB77" filter="url(#f1jfn97axr6eqe)" style="stroke:#A80036;stroke-width:1;"/><path d="M641,999.8125 L641,1009.8125 L651,1009.8125 L641,999.8125" fill="#FBFB77" style="stroke:#A80036;stroke-width:1;"/><text fill="#000000" font-family="sans-serif" font-size="13" lengthAdjust="spacing" textLength="307.4487" x="264.7844" y="1016.8794">Acquire an exclusive lock on the sync directory</text><g class="message" data-participant-1="local" data-participant-2="local"><line style="stroke:#A80036;stroke-width:1;stroke-dasharray:2,2;" x1="256.6016" x2="298.6016" y1="1044.9453" y2="1044.9453"/><line style="stroke:#A80036;stroke-width:1;stroke-dasharray:2,2;" x1="298.6016" x2="298.6016" y1="1044.9453" y2="1057.9453"/><line style="stroke:#A80036;stroke-width:1;stroke-dasharray:2,2;" x1="251.6016" x2="298.6016" y1="1057.9453" y2="1057.9453"/><polygon fill="#A80036" points="261.6016,1053.9453,251.6016,1057.9453,261.6016,1061.9453,257.6016,1057.9453" style="stroke:#A80036;stroke-width:1;"/></g><g class="message" data-participant-1="remote" data-participant-2="remote"><line style="stroke:#A80036;stroke-width:1;stroke-dasharray:2,2;" x1="615.3584" x2="657.3584" y1="1071.9453" y2="1071.9453"/><line style="stroke:#A80036;stroke-width:1;stroke-dasharray:2,2;" x1="657.3584" x2="657.3584" y1="1071.9453" y2="1084.9453"/><line style="stroke:#A80036;stroke-width:1;stroke-dasharray:2,2;" x1="610.3584" x2="657.3584" y1="1084.9453" y2="1084.9453"/><polygon fill="#A80036" points="620.3584,1080.9453,610.3584,1084.9453,620.3584,1088.9453,616.3584,1084.9453" style="stroke:#A80036;stroke-width:1;"/></g><path d="M192,1094.9453 L261.4893,1094.9453 L261.4893,1102.0781 L251.4893,1112.0781 L192,1112.0781 L192,1094.9453" fill="#EEEEEE" style="stroke:#000000;stroke-width:1;"/><rect fill="none" height="77.3984" style="stroke:#000000;stroke-width:2;" width="477.0176" x="192" y="1094.9453"/><text fill="#000000" font-family="sans-serif" font-size="13" font-weight="bold" lengthAdjust="spacing" textLength="24.4893" x="207" y="1108.0122">par</text><g class="message" data-participant-1="local" data-participant-2="remote"><line style="stroke:#A80036;stroke-width:1;" x1="598.3584" x2="588.3584" y1="1133.2109" y2="1129.2109"/><line style="stroke:#A80036;stroke-width:1;" x1="598.3584" x2="588.3584" y1="1133.2109" y2="1137.2109"/><line style="stroke:#A80036;stroke-width:1;" x1="251.6016" x2="599.3584" y1="1133.2109" y2="1133.2109"/><text fill="#000000" font-family="sans-serif" font-size="13" lengthAdjust="spacing" textLength="227.1572" x="258.6016" y="1128.145">ACK (Local sync directory is ready)</text></g><line style="stroke:#000000;stroke-width:1;stroke-dasharray:2,2;" x1="192" x2="669.0176" y1="1142.2109" y2="1142.2109"/><g class="message" data-participant-1="remote" data-participant-2="local"><line style="stroke:#A80036;stroke-width:1;" x1="252.6016" x2="262.6016" y1="1164.3438" y2="1160.3438"/><line style="stroke:#A80036;stroke-width:1;" x1="252.6016" x2="262.6016" y1="1164.3438" y2="1168.3438"/><line style="stroke:#A80036;stroke-width:1;" x1="251.6016" x2="599.3584" y1="1164.3438" y2="1164.3438"/><text fill="#000000" font-family="sans-serif" font-size="13" lengthAdjust="spacing" textLength="243.9785" x="268.6016" y="1159.2778">ACK (Remote sync directory is ready)</text></g><g class="message" data-participant-1="local" data-participant-2="local"><line style="stroke:#A80036;stroke-width:1;" x1="251.6016" x2="298.6016" y1="1195.4766" y2="1195.4766"/><line style="stroke:#A80036;stroke-width:1;" x1="298.6016" x2="298.6016" y1="1195.4766" y2="1208.4766"/><line style="stroke:#A80036;stroke-width:1;" x1="257.6016" x2="298.6016" y1="1208.4766" y2="1208.4766"/><polygon fill="#A80036" points="267.6016,1204.4766,257.6016,1208.4766,267.6016,1212.4766,263.6016,1208.4766" style="stroke:#A80036;stroke-width:1;"/><text fill="#000000" font-family="sans-serif" font-size="13" lengthAdjust="spacing" textLength="76.5718" x="263.6016" y="1190.4106">psync_run()</text></g><g class="message" data-participant-1="remote" data-participant-2="remote"><line style="stroke:#A80036;stroke-width:1;" x1="610.3584" x2="657.3584" y1="1237.6094" y2="1237.6094"/><line style="stroke:#A80036;stroke-width:1;" x1="657.3584" x2="657.3584" y1="1237.6094" y2="1250.6094"/><line style="stroke:#A80036;stroke-width:1;" x1="616.3584" x2="657.3584" y1="1250.6094" y2="1250.6094"/><polygon fill="#A80036" points="626.3584,1246.6094,616.3584,1250.6094,626.3584,1254.6094,622.3584,1250.6094" style="stroke:#A80036;stroke-width:1;"/><text fill="#000000" font-family="sans-serif" font-size="13" lengthAdjust="spacing" textLength="76.5718" x="622.3584" y="1232.5435">psync_run()</text></g><path d="M199,1268.6094 L199,1293.6094 L651,1293.6094 L651,1278.6094 L641,1268.6094 L199,1268.6094" fill="#FBFB77" filter="url(#f1jfn97axr6eqe)" style="stroke:#A80036;stroke-width:1;"/><path d="M641,1268.6094 L641,1278.6094 L651,1278.6094 L641,1268.6094" fill="#FBFB77" style="stroke:#A80036;stroke-width:1;"/><text fill="#000000" font-family="sans-serif" font-size="13" lengthAdjust="spacing" textLength="268.3281" x="284.3447" y="1285.6763">Create a file list within the sync directory</text><path d="M192,1309.7422 L261.4893,1309.7422 L261.4893,1316.875 L251.4893,1326.875 L192,1326.875 L192,1309.7422" fill="#EEEEEE" style="stroke:#000000;stroke-width:1;"/><rect fill="none" height="77.3984" style="stroke:#000000;stroke-width:2;" width="477.0176" x="192" y="1309.7422"/><text fill="#000000" font-family="sans-serif" font-size="13" font-weight="bold" lengthAdjust="spacing" textLength="24.4893" x="207" y="1322.8091">par</text><g class="message" data-participant-1="local" data-participant-2="remote"><line style="stroke:#A80036;stroke-width:1;" x1="603.3584" x2="593.3584" y1="1348.0078" y2="1344.0078"/><line style="stroke:#A80036;stroke-width:1;" x1="603.3584" x2="593.3584" y1="1348.0078" y2="1352.0078"/><line style="stroke:#A80036;stroke-width:1;" x1="256.6016" x2="604.3584" y1="1348.0078" y2="1348.0078"/><text fill="#000000" font-family="sans-serif" font-size="13" lengthAdjust="spacing" textLength="81.0786" x="263.6016" y="1342.9419">Local file list</text></g><line style="stroke:#000000;stroke-width:1;stroke-dasharray:2,2;" x1="192" x2="669.0176" y1="1357.0078" y2="1357.0078"/><g class="message" data-participant-1="remote" data-participant-2="local"><line style="stroke:#A80036;stroke-width:1;" x1="257.6016" x2="267.6016" y1="1379.1406" y2="1375.1406"/><line style="stroke:#A80036;stroke-width:1;" x1="257.6016" x2="267.6016" y1="1379.1406" y2="1383.1406"/><line style="stroke:#A80036;stroke-width:1;" x1="256.6016" x2="604.3584" y1="1379.1406" y2="1379.1406"/><text fill="#000000" font-family="sans-serif" font-size="13" lengthAdjust="spacing" textLength="97.8999" x="273.6016" y="1374.0747">Remote file list</text></g><path d="M199,1399.1406 L199,1424.1406 L651,1424.1406 L651,1409.1406 L641,1399.1406 L199,1399.1406" fill="#FBFB77" filter="url(#f1jfn97axr6eqe)" style="stroke:#A80036;stroke-width:1;"/><path d="M641,1399.1406 L641,1409.1406 L651,1409.1406 L641,1399.1406" fill="#FBFB77" style="stroke:#A80036;stroke-width:1;"/><text fill="#000000" font-family="sans-serif" font-size="13" lengthAdjust="spacing" textLength="405.0757" x="215.9709" y="1416.2075">Create a post-sync file list from the Local and Remote file lists</text><path d="M199,1438.2734 L199,1463.2734 L651,1463.2734 L651,1448.2734 L641,1438.2734 L199,1438.2734" fill="#FBFB77" filter="url(#f1jfn97axr6eqe)" style="stroke:#A80036;stroke-width:1;"/><path d="M641,1438.2734 L641,1448.2734 L651,1448.2734 L641,1438.2734" fill="#FBFB77" style="stroke:#A80036;stroke-width:1;"/><text fill="#000000" font-family="sans-serif" font-size="13" lengthAdjust="spacing" textLength="371.7505" x="232.6335" y="1455.3403">Copy files to be uploaded to a temporary upload location</text><path d="M192,1479.4063 L261.4893,1479.4063 L261.4893,1486.5391 L251.4893,1496.5391 L192,1496.5391 L192,1479.4063" fill="#EEEEEE" style="stroke:#000000;stroke-width:1;"/><rect fill="none" height="77.3984" style="stroke:#000000;stroke-width:2;" width="477.0176" x="192" y="1479.4063"/><text fill="#000000" font-family="sans-serif" font-size="13" font-weight="bold" lengthAdjust="spacing" textLength="24.4893" x="207" y="1492.4731">par</text><g class="message" data-participant-1="local" data-participant-2="remote"><line style="stroke:#A80036;stroke-width:1;" x1="603.3584" x2="593.3584" y1="1517.6719" y2="1513.6719"/><line style="stroke:#A80036;stroke-width:1;" x1="603.3584" x2="593.3584" y1="1517.6719" y2="1521.6719"/><line style="stroke:#A80036;stroke-width:1;" x1="256.6016" x2="604.3584" y1="1517.6719" y2="1517.6719"/><text fill="#000000" font-family="sans-serif" font-size="13" lengthAdjust="spacing" textLength="312.9585" x="263.6016" y="1512.606">Upload files from the temporary upload location</text></g><line style="stroke:#000000;stroke-width:1;stroke-dasharray:2,2;" x1="192" x2="669.0176" y1="1526.6719" y2="1526.6719"/><g class="message" data-participant-1="remote" data-participant-2="local"><line style="stroke:#A80036;stroke-width:1;" x1="257.6016" x2="267.6016" y1="1548.8047" y2="1544.8047"/><line style="stroke:#A80036;stroke-width:1;" x1="257.6016" x2="267.6016" y1="1548.8047" y2="1552.8047"/><line style="stroke:#A80036;stroke-width:1;" x1="256.6016" x2="604.3584" y1="1548.8047" y2="1548.8047"/><text fill="#000000" font-family="sans-serif" font-size="13" lengthAdjust="spacing" textLength="319.7568" x="273.6016" y="1543.7388">Download files to a temporary download location</text></g><path d="M182,1568.8047 L182,1593.8047 L664,1593.8047 L664,1578.8047 L654,1568.8047 L182,1568.8047" fill="#FBFB77" filter="url(#f1jfn97axr6eqe)" style="stroke:#A80036;stroke-width:1;"/><path d="M654,1568.8047 L654,1578.8047 L664,1578.8047 L654,1568.8047" fill="#FBFB77" style="stroke:#A80036;stroke-width:1;"/><text fill="#000000" font-family="sans-serif" font-size="13" lengthAdjust="spacing" textLength="461.9063" x="188" y="1585.8716">Apply files from the temporary download location to the sync directory</text><g class="message" data-participant-1="local" data-participant-2="local"><line style="stroke:#A80036;stroke-width:1;stroke-dasharray:2,2;" x1="256.6016" x2="298.6016" y1="1613.9375" y2="1613.9375"/><line style="stroke:#A80036;stroke-width:1;stroke-dasharray:2,2;" x1="298.6016" x2="298.6016" y1="1613.9375" y2="1626.9375"/><line style="stroke:#A80036;stroke-width:1;stroke-dasharray:2,2;" x1="251.6016" x2="298.6016" y1="1626.9375" y2="1626.9375"/><polygon fill="#A80036" points="261.6016,1622.9375,251.6016,1626.9375,261.6016,1630.9375,257.6016,1626.9375" style="stroke:#A80036;stroke-width:1;"/></g><g class="message" data-participant-1="remote" data-participant-2="remote"><line style="stroke:#A80036;stroke-width:1;stroke-dasharray:2,2;" x1="615.3584" x2="657.3584" y1="1640.9375" y2="1640.9375"/><line style="stroke:#A80036;stroke-width:1;stroke-dasharray:2,2;" x1="657.3584" x2="657.3584" y1="1640.9375" y2="1653.9375"/><line style="stroke:#A80036;stroke-width:1;stroke-dasharray:2,2;" x1="610.3584" x2="657.3584" y1="1653.9375" y2="1653.9375"/><polygon fill="#A80036" points="620.3584,1649.9375,610.3584,1653.9375,620.3584,1657.9375,616.3584,1653.9375" style="stroke:#A80036;stroke-width:1;"/></g><g class="message" data-participant-1="local" data-participant-2="local"><line style="stroke:#A80036;stroke-width:1;" x1="251.6016" x2="298.6016" y1="1673.0703" y2="1673.0703"/><line style="stroke:#A80036;stroke-width:1;" x1="298.6016" x2="298.6016" y1="1673.0703" y2="1686.0703"/><line style="stroke:#A80036;stroke-width:1;" x1="257.6016" x2="298.6016" y1="1686.0703" y2="1686.0703"/><polygon fill="#A80036" points="267.6016,1682.0703,257.6016,1686.0703,267.6016,1690.0703,263.6016,1686.0703" style="stroke:#A80036;stroke-width:1;"/><text fill="#000000" font-family="sans-serif" font-size="13" lengthAdjust="spacing" textLength="80.666" x="263.6016" y="1668.0044">psync_free()</text></g><g class="message" data-participant-1="remote" data-participant-2="remote"><line style="stroke:#A80036;stroke-width:1;" x1="610.3584" x2="657.3584" y1="1715.2031" y2="1715.2031"/><line style="stroke:#A80036;stroke-width:1;" x1="657.3584" x2="657.3584" y1="1715.2031" y2="1728.2031"/><line style="stroke:#A80036;stroke-width:1;" x1="616.3584" x2="657.3584" y1="1728.2031" y2="1728.2031"/><polygon fill="#A80036" points="626.3584,1724.2031,616.3584,1728.2031,626.3584,1732.2031,622.3584,1728.2031" style="stroke:#A80036;stroke-width:1;"/><text fill="#000000" font-family="sans-serif" font-size="13" lengthAdjust="spacing" textLength="80.666" x="622.3584" y="1710.1372">psync_free()</text></g><path d="M199,1746.2031 L199,1771.2031 L651,1771.2031 L651,1756.2031 L641,1746.2031 L199,1746.2031" fill="#FBFB77" filter="url(#f1jfn97axr6eqe)" style="stroke:#A80036;stroke-width:1;"/><path d="M641,1746.2031 L641,1756.2031 L651,1756.2031 L641,1746.2031" fill="#FBFB77" style="stroke:#A80036;stroke-width:1;"/><text fill="#000000" font-family="sans-serif" font-size="13" lengthAdjust="spacing" textLength="314.4692" x="261.2742" y="1763.27">Release the exclusive lock on the sync directory</text><g class="message" data-participant-1="local" data-participant-2="local"><line style="stroke:#A80036;stroke-width:1;stroke-dasharray:2,2;" x1="256.6016" x2="298.6016" y1="1791.3359" y2="1791.3359"/><line style="stroke:#A80036;stroke-width:1;stroke-dasharray:2,2;" x1="298.6016" x2="298.6016" y1="1791.3359" y2="1804.3359"/><line style="stroke:#A80036;stroke-width:1;stroke-dasharray:2,2;" x1="251.6016" x2="298.6016" y1="1804.3359" y2="1804.3359"/><polygon fill="#A80036" points="261.6016,1800.3359,251.6016,1804.3359,261.6016,1808.3359,257.6016,1804.3359" style="stroke:#A80036;stroke-width:1;"/></g><g class="message" data-participant-1="remote" data-participant-2="remote"><line style="stroke:#A80036;stroke-width:1;stroke-dasharray:2,2;" x1="615.3584" x2="657.3584" y1="1818.3359" y2="1818.3359"/><line style="stroke:#A80036;stroke-width:1;stroke-dasharray:2,2;" x1="657.3584" x2="657.3584" y1="1818.3359" y2="1831.3359"/><line style="stroke:#A80036;stroke-width:1;stroke-dasharray:2,2;" x1="610.3584" x2="657.3584" y1="1831.3359" y2="1831.3359"/><polygon fill="#A80036" points="620.3584,1827.3359,610.3584,1831.3359,620.3584,1835.3359,616.3584,1831.3359" style="stroke:#A80036;stroke-width:1;"/></g><g class="message" data-participant-1="local" data-participant-2="local"><line style="stroke:#A80036;stroke-width:1;stroke-dasharray:2,2;" x1="251.6016" x2="293.6016" y1="1852.3359" y2="1852.3359"/><line style="stroke:#A80036;stroke-width:1;stroke-dasharray:2,2;" x1="293.6016" x2="293.6016" y1="1852.3359" y2="1865.3359"/><line style="stroke:#A80036;stroke-width:1;stroke-dasharray:2,2;" x1="246.6016" x2="293.6016" y1="1865.3359" y2="1865.3359"/><polygon fill="#A80036" points="256.6016,1861.3359,246.6016,1865.3359,256.6016,1869.3359,252.6016,1865.3359" style="stroke:#A80036;stroke-width:1;"/></g><g class="message" data-participant-1="remote" data-participant-2="remote"><line style="stroke:#A80036;stroke-width:1;stroke-dasharray:2,2;" x1="610.3584" x2="652.3584" y1="1879.3359" y2="1879.3359"/><line style="stroke:#A80036;stroke-width:1;stroke-dasharray:2,2;" x1="652.3584" x2="652.3584" y1="1879.3359" y2="1892.3359"/><line style="stroke:#A80036;stroke-width:1;stroke-dasharray:2,2;" x1="605.3584" x2="652.3584" y1="1892.3359" y2="1892.3359"/><polygon fill="#A80036" points="615.3584,1888.3359,605.3584,1892.3359,615.3584,1896.3359,611.3584,1892.3359" style="stroke:#A80036;stroke-width:1;"/></g><g class="message" data-participant-1="remote" data-participant-2="remote"><line style="stroke:#A80036;stroke-width:1;" x1="605.3584" x2="652.3584" y1="1911.4688" y2="1911.4688"/><line style="stroke:#A80036;stroke-width:1;" x1="652.3584" x2="652.3584" y1="1911.4688" y2="1924.4688"/><line style="stroke:#A80036;stroke-width:1;" x1="611.3584" x2="652.3584" y1="1924.4688" y2="1924.4688"/><polygon fill="#A80036" points="621.3584,1920.4688,611.3584,1924.4688,621.3584,1928.4688,617.3584,1924.4688" style="stroke:#A80036;stroke-width:1;"/><text fill="#000000" font-family="sans-serif" font-size="13" lengthAdjust="spacing" textLength="65.8379" x="617.3584" y="1906.4028">psp_free()</text></g><g class="message" data-participant-1="remote" data-participant-2="remote"><line style="stroke:#A80036;stroke-width:1;stroke-dasharray:2,2;" x1="610.3584" x2="652.3584" y1="1948.4688" y2="1948.4688"/><line style="stroke:#A80036;stroke-width:1;stroke-dasharray:2,2;" x1="652.3584" x2="652.3584" y1="1948.4688" y2="1961.4688"/><line style="stroke:#A80036;stroke-width:1;stroke-dasharray:2,2;" x1="605.3584" x2="652.3584" y1="1961.4688" y2="1961.4688"/><polygon fill="#A80036" points="615.3584,1957.4688,605.3584,1961.4688,615.3584,1965.4688,611.3584,1961.4688" style="stroke:#A80036;stroke-width:1;"/></g><g class="message" data-participant-1="local" data-participant-2="remote"><line style="stroke:#A80036;stroke-width:1;" x1="603.3584" x2="593.3584" y1="1985.6016" y2="1981.6016"/><line style="stroke:#A80036;stroke-width:1;" x1="603.3584" x2="593.3584" y1="1985.6016" y2="1989.6016"/><line style="stroke:#A80036;stroke-width:1;stroke-dasharray:2,2;" x1="246.6016" x2="604.3584" y1="1985.6016" y2="1985.6016"/><text fill="#000000" font-family="sans-serif" font-size="13" lengthAdjust="spacing" textLength="72.2173" x="253.6016" y="1980.5356">Disconnect</text></g><line style="stroke:#A80036;stroke-width:1;stroke-dasharray:5,5;" x1="596.3584" x2="614.3584" y1="1976.6016" y2="1994.6016"/><line style="stroke:#A80036;stroke-width:1;stroke-dasharray:5,5;" x1="596.3584" x2="614.3584" y1="1994.6016" y2="1976.6016"/><g class="message" data-participant-1="local" data-participant-2="local"><line style="stroke:#A80036;stroke-width:1;" x1="246.6016" x2="293.6016" y1="2009.7344" y2="2009.7344"/><line style="stroke:#A80036;stroke-width:1;" x1="293.6016" x2="293.6016" y1="2009.7344" y2="2022.7344"/><line style="stroke:#A80036;stroke-width:1;" x1="252.6016" x2="293.6016" y1="2022.7344" y2="2022.7344"/><polygon fill="#A80036" points="262.6016,2018.7344,252.6016,2022.7344,262.6016,2026.7344,258.6016,2022.7344" style="stroke:#A80036;stroke-width:1;"/><text fill="#000000" font-family="sans-serif" font-size="13" lengthAdjust="spacing" textLength="65.8379" x="258.6016" y="2004.6685">psp_free()</text></g><g class="message" data-participant-1="local" data-participant-2="local"><line style="stroke:#A80036;stroke-width:1;stroke-dasharray:2,2;" x1="251.6016" x2="293.6016" y1="2046.7344" y2="2046.7344"/><line style="stroke:#A80036;stroke-width:1;stroke-dasharray:2,2;" x1="293.6016" x2="293.6016" y1="2046.7344" y2="2059.7344"/><line style="stroke:#A80036;stroke-width:1;stroke-dasharray:2,2;" x1="246.6016" x2="293.6016" y1="2059.7344" y2="2059.7344"/><polygon fill="#A80036" points="256.6016,2055.7344,246.6016,2059.7344,256.6016,2063.7344,252.6016,2059.7344" style="stroke:#A80036;stroke-width:1;"/></g><!--SRC=[vLYzRjim4Dxv58SkTe3QRbDaCO80gTqXg94MJh85A6Y9ZWdBF8Qad6Zfs1Vesg4lqgMFqXVeAvGKPVb7agsaJWkqdYJoU7_VTtUKEmsGMhPb32sG5_8LI8K60um8D610jO4PXdpCMTY5bqUjSvot3byS7a5pYYEQK9qSMC4E8SHm4x4D5KHFkG25cf66UvHKqHcyfi7qHc4imXv6gC0eAhJTOiAG2GyPZ17D2Ey9iOk61rnIOU3P00CQmGIrUGPKG-HUroM6R8Q6BKLK-av8fq6ohOlB_javK16wftTNb-Jdjo-mzlDMDBkDcGXOSR-ma6dEJ_puz7bT0CfNqhHjhFkWe7NY7xeEcW-2tJKF2f8qC7nEhM6V1u0ALGjT1OcGRQY846KjXm8KOtvJnoVXCeDpfbPy620DDPY9bUAMNJW6dOW0GgvOO50bAJeH7R489ELAmrZXxFlNwu-TjdIIRMVUQc9MpEdVH-XM5rdwcj46F5kw5k60yJcpdd3By90QwlSiVxfmOSyMTjuCXuiTRQY9jT_BNGuKSyPpGxd39zbQ5teeX4t8jMXgFO5skmsDD7mhvKKQ1oMHh_-ye4DleRMQJvLOvaxMjPQRstbc1OULL9Imi5vWbRoi4ri9_FjawrQ-Faqc7QdhbBEAnMFwInr4obNlXiDsTRBgxbBh-soqm5c_Qol2Jfk62pNIREN0yN5hru4qDzLc1XdOVYV5Ls-tipYH9M9v9BNaMErS2PZMENcuQobs_j4eWXarmOIBc-mWe80HcaasZXp9XbLCA69gULTPvG_4jHpPRGOULcof5y_NQNuQtCOsHJPgOFT156lRV9tWr6N5bU9w2Uwkhbtpe6GY03n5cPONwfA8PLGyxRs5PdOhMMyztDrmQ9Xu579kbh4pLRAugMpLKj8qgYXMLTrxerYzzl4OYlNy0AP-SAUj_OuRMu2r-BKDBezKhdOtD1ag6oSo66f68UsDjvLwlOp73Q8qciqMifJHnT1s64IPfCVjI4GOCOXbP0Sa2zqh1SDc4XMrfFBhgGx3KJmiXLV-iBUJXx53-ROKz_5EhAZSy3LSx6vwMwTLIHabrPuML3lR_sG7gzClnegnfsqObHP-lsCCMSIePYbw_yLKsZe9wdzQ_QdRxcEkfpNfylS-XGfVXNsk0_zXI4AcZSAaoa3PJRyYtht_bV0B]--></g></svg>