<svg xmlns="http://www.w3.org/2000/svg" xmlns:xlink="http://www.w3.org/1999/xlink" contentStyleType="text/css" data-diagram-type="SEQUENCE" height="2112px" preserveAspectRatio="none" style="width:855px;height:2112px;background:#FFFFFF;" version="1.1" viewBox="0 0 855 2112" width="855px" zoomAndPan="magnify"><title>pSp3 protocol</title><defs><filter height="300%" id="f4ri9qm85siwp" width="300%" x="-1" y="-1"><feGaussianBlur result="blurOut" stdDeviation="2"/><feColorMatrix in="blurOut" result="blurOut2" type="matrix" values="0 0 0 0 0 0 0 0 0 0 0 0 0 0 0 0 0 0 .4 0"/><feOffset dx="4" dy="4" in="blurOut2" result="blurOut3"/><feBlend in="SourceGraphic" in2="blurOut3" mode="normal"/></filter></defs><g><text fill="#000000" font-family="sans-serif" font-size="14" font-weight="bold" lengthAdjust="spacing" textLength="110.3115" x="370.1982" y="27.9951">pSp3 protocol</text><g><title>Local host</title><rect fill="#FFFFFF" filter="url(#f4ri9qm85siwp)" height="25" style="stroke:#A80036;stroke-width:1;" width="10" x="241.6016" y="133.0234"/></g><g><title>Local host</title><rect fill="#FFFFFF" filter="url(#f4ri9qm85siwp)" height="64.1328" style="stroke:#A80036;stroke-width:1;" width="10" x="241.6016" y="226.2891"/></g><g><title>Local host</title><rect fill="#FFFFFF" filter="url(#f4ri9qm85siwp)" height="1204.8516" style="stroke:#A80036;stroke-width:1;" width="10" x="241.6016" y="681.0781"/></g><g><title>Local host</title><rect fill="#FFFFFF" filter="url(#f4ri9qm85siwp)" height="106.2656" style="stroke:#A80036;stroke-width:1;" width="10" x="246.6016" y="972.2734"/></g><g><title>Local host</title><rect fill="#FFFFFF" filter="url(#f4ri9qm85siwp)" height="406.4609" style="stroke:#A80036;stroke-width:1;" width="10" x="246.6016" y="1241.0703"/></g><g><title>Local host</title><rect fill="#FFFFFF" filter="url(#f4ri9qm85siwp)" height="106.2656" style="stroke:#A80036;stroke-width:1;" width="10" x="246.6016" y="1718.6641"/></g><g><title>Local host</title><rect fill="#FFFFFF" filter="url(#f4ri9qm85siwp)" height="25" style="stroke:#A80036;stroke-width:1;" width="10" x="241.6016" y="2055.3281"/></g><g><title>Remote host</title><rect fill="#FFFFFF" filter="url(#f4ri9qm85siwp)" height="25" style="stroke:#A80036;stroke-width:1;" width="10" x="600.3584" y="472.5469"/></g><g><title>Remote host</title><rect fill="#FFFFFF" filter="url(#f4ri9qm85siwp)" height="64.1328" style="stroke:#A80036;stroke-width:1;" width="10" x="600.3584" y="565.8125"/></g><g><title>Remote host</title><rect fill="#FFFFFF" filter="url(#f4ri9qm85siwp)" height="1189.7188" style="stroke:#A80036;stroke-width:1;" width="10" x="600.3584" y="723.2109"/></g><g><title>Remote host</title><rect fill="#FFFFFF" filter="url(#f4ri9qm85siwp)" height="91.1328" style="stroke:#A80036;stroke-width:1;" width="10" x="605.3584" y="1014.4063"/></g><g><title>Remote host</title><rect fill="#FFFFFF" filter="url(#f4ri9qm85siwp)" height="391.3281" style="stroke:#A80036;stroke-width:1;" width="10" x="605.3584" y="1283.2031"/></g><g><title>Remote host</title><rect fill="#FFFFFF" filter="url(#f4ri9qm85siwp)" height="91.1328" style="stroke:#A80036;stroke-width:1;" width="10" x="605.3584" y="1760.7969"/></g><g><title>Remote host</title><rect fill="#FFFFFF" filter="url(#f4ri9qm85siwp)" height="25" style="stroke:#A80036;stroke-width:1;" width="10" x="600.3584" y="1957.0625"/></g><rect fill="none" filter="url(#f4ri9qm85siwp)" height="125.3984" style="stroke:#000000;stroke-width:2;" width="473.708" x="9" y="180.0234"/><rect fill="none" filter="url(#f4ri9qm85siwp)" height="125.3984" style="stroke:#000000;stroke-width:2;" width="473.708" x="368" y="519.5469"/><rect fill="none" filter="url(#f4ri9qm85siwp)" height="77.3984" style="stroke:#000000;stroke-width:2;" width="477.0176" x="192" y="743.2109"/><rect fill="none" filter="url(#f4ri9qm85siwp)" height="77.3984" style="stroke:#000000;stroke-width:2;" width="477.0176" x="192" y="834.6094"/><rect fill="none" filter="url(#f4ri9qm85siwp)" height="940.9219" style="stroke:#000000;stroke-width:2;" width="553.9766" x="172" y="926.0078"/><rect fill="none" filter="url(#f4ri9qm85siwp)" height="77.3984" style="stroke:#000000;stroke-width:2;" width="477.0176" x="192" y="1127.5391"/><rect fill="none" filter="url(#f4ri9qm85siwp)" height="77.3984" style="stroke:#000000;stroke-width:2;" width="477.0176" x="192" y="1342.3359"/><rect fill="none" filter="url(#f4ri9qm85siwp)" height="77.3984" style="stroke:#000000;stroke-width:2;" width="477.0176" x="192" y="1512"/><g><title>Local host</title><rect fill="#000000" fill-opacity="0.00000" height="2011.4375" width="8" x="242.6016" y="93.8906"/><line style="stroke:#A80036;stroke-width:1;stroke-dasharray:5,5;" x1="246" x2="246" y1="93.8906" y2="2105.3281"/></g><g><title>Remote host</title><rect fill="#000000" fill-opacity="0.00000" height="1682.7109" width="8" x="601.3584" y="422.6172"/><line style="stroke:#A80036;stroke-width:1;stroke-dasharray:5,5;" x1="604.6992" x2="604.6992" y1="422.6172" y2="2105.3281"/></g><g class="participant participant-head" data-participant="local"><rect fill="#FEFECE" filter="url(#f4ri9qm85siwp)" height="46.5938" style="stroke:#A80036;stroke-width:1.5;" width="85.2031" x="202" y="42.2969"/><text fill="#000000" font-family="sans-serif" font-size="14" lengthAdjust="spacing" textLength="71.2031" x="209" y="62.292">Local host</text><text fill="#000000" font-family="sans-serif" font-size="14" lengthAdjust="spacing" textLength="58.7344" x="215.2344" y="78.5889">(Master)</text></g><g><title>Local host</title><rect fill="#FFFFFF" filter="url(#f4ri9qm85siwp)" height="25" style="stroke:#A80036;stroke-width:1;" width="10" x="241.6016" y="133.0234"/></g><g><title>Local host</title><rect fill="#FFFFFF" filter="url(#f4ri9qm85siwp)" height="64.1328" style="stroke:#A80036;stroke-width:1;" width="10" x="241.6016" y="226.2891"/></g><g><title>Local host</title><rect fill="#FFFFFF" filter="url(#f4ri9qm85siwp)" height="1204.8516" style="stroke:#A80036;stroke-width:1;" width="10" x="241.6016" y="681.0781"/></g><g><title>Local host</title><rect fill="#FFFFFF" filter="url(#f4ri9qm85siwp)" height="106.2656" style="stroke:#A80036;stroke-width:1;" width="10" x="246.6016" y="972.2734"/></g><g><title>Local host</title><rect fill="#FFFFFF" filter="url(#f4ri9qm85siwp)" height="406.4609" style="stroke:#A80036;stroke-width:1;" width="10" x="246.6016" y="1241.0703"/></g><g><title>Local host</title><rect fill="#FFFFFF" filter="url(#f4ri9qm85siwp)" height="106.2656" style="stroke:#A80036;stroke-width:1;" width="10" x="246.6016" y="1718.6641"/></g><g><title>Local host</title><rect fill="#FFFFFF" filter="url(#f4ri9qm85siwp)" height="25" style="stroke:#A80036;stroke-width:1;" width="10" x="241.6016" y="2055.3281"/></g><g><title>Remote host</title><rect fill="#FFFFFF" filter="url(#f4ri9qm85siwp)" height="25" style="stroke:#A80036;stroke-width:1;" width="10" x="600.3584" y="472.5469"/></g><g><title>Remote host</title><rect fill="#FFFFFF" filter="url(#f4ri9qm85siwp)" height="64.1328" style="stroke:#A80036;stroke-width:1;" width="10" x="600.3584" y="565.8125"/></g><g><title>Remote host</title><rect fill="#FFFFFF" filter="url(#f4ri9qm85siwp)" height="1189.7188" style="stroke:#A80036;stroke-width:1;" width="10" x="600.3584" y="723.2109"/></g><g><title>Remote host</title><rect fill="#FFFFFF" filter="url(#f4ri9qm85siwp)" height="91.1328" style="stroke:#A80036;stroke-width:1;" width="10" x="605.3584" y="1014.4063"/></g><g><title>Remote host</title><rect fill="#FFFFFF" filter="url(#f4ri9qm85siwp)" height="391.3281" style="stroke:#A80036;stroke-width:1;" width="10" x="605.3584" y="1283.2031"/></g><g><title>Remote host</title><rect fill="#FFFFFF" filter="url(#f4ri9qm85siwp)" height="91.1328" style="stroke:#A80036;stroke-width:1;" width="10" x="605.3584" y="1760.7969"/></g><g><title>Remote host</title><rect fill="#FFFFFF" filter="url(#f4ri9qm85siwp)" height="25" style="stroke:#A80036;stroke-width:1;" width="10" x="600.3584" y="1957.0625"/></g><g class="message" data-participant-1="local" data-participant-2="local"><line style="stroke:#A80036;stroke-width:1;" x1="246.6016" x2="293.6016" y1="120.0234" y2="120.0234"/><line style="stroke:#A80036;stroke-width:1;" x1="293.6016" x2="293.6016" y1="120.0234" y2="133.0234"/><line style="stroke:#A80036;stroke-width:1;" x1="252.6016" x2="293.6016" y1="133.0234" y2="133.0234"/><polygon fill="#A80036" points="262.6016,129.0234,252.6016,133.0234,262.6016,137.0234,258.6016,133.0234" style="stroke:#A80036;stroke-width:1;"/><text fill="#000000" font-family="sans-serif" font-size="13" lengthAdjust="spacing" textLength="66.79" x="258.6016" y="114.9575">psp_new()</text></g><g class="message" data-participant-1="local" data-participant-2="local"><line style="stroke:#A80036;stroke-width:1;stroke-dasharray:2,2;" x1="251.6016" x2="293.6016" y1="157.0234" y2="157.0234"/><line style="stroke:#A80036;stroke-width:1;stroke-dasharray:2,2;" x1="293.6016" x2="293.6016" y1="157.0234" y2="170.0234"/><line style="stroke:#A80036;stroke-width:1;stroke-dasharray:2,2;" x1="246.6016" x2="293.6016" y1="170.0234" y2="170.0234"/><polygon fill="#A80036" points="256.6016,166.0234,246.6016,170.0234,256.6016,174.0234,252.6016,170.0234" style="stroke:#A80036;stroke-width:1;"/></g><path d="M9,180.0234 L85.624,180.0234 L85.624,187.1563 L75.624,197.1563 L9,197.1563 L9,180.0234" fill="#EEEEEE" style="stroke:#000000;stroke-width:1;"/><rect fill="none" height="125.3984" style="stroke:#000000;stroke-width:2;" width="473.708" x="9" y="180.0234"/><text fill="#000000" font-family="sans-serif" font-size="13" font-weight="bold" lengthAdjust="spacing" textLength="31.624" x="24" y="193.0903">loop</text><g class="message" data-participant-1="local" data-participant-2="local"><line style="stroke:#A80036;stroke-width:1;" x1="246.6016" x2="293.6016" y1="213.2891" y2="213.2891"/><line style="stroke:#A80036;stroke-width:1;" x1="293.6016" x2="293.6016" y1="213.2891" y2="226.2891"/><line style="stroke:#A80036;stroke-width:1;" x1="252.6016" x2="293.6016" y1="226.2891" y2="226.2891"/><polygon fill="#A80036" points="262.6016,222.2891,252.6016,226.2891,262.6016,230.2891,258.6016,226.2891" style="stroke:#A80036;stroke-width:1;"/><text fill="#000000" font-family="sans-serif" font-size="13" lengthAdjust="spacing" textLength="79.7012" x="258.6016" y="208.2231">psp_config()</text></g><path d="M19,244.2891 L19,269.2891 L468,269.2891 L468,254.2891 L458,244.2891 L19,244.2891" fill="#FBFB77" filter="url(#f4ri9qm85siwp)" style="stroke:#A80036;stroke-width:1;"/><path d="M458,244.2891 L458,254.2891 L468,254.2891 L458,244.2891" fill="#FBFB77" style="stroke:#A80036;stroke-width:1;"/><text fill="#000000" font-family="sans-serif" font-size="13" lengthAdjust="spacing" textLength="428.708" x="25" y="261.356">Loads the list of sync directory and label pairs from&#160;~/.psync.conf</text><g class="message" data-participant-1="local" data-participant-2="local"><line style="stroke:#A80036;stroke-width:1;stroke-dasharray:2,2;" x1="251.6016" x2="293.6016" y1="289.4219" y2="289.4219"/><line style="stroke:#A80036;stroke-width:1;stroke-dasharray:2,2;" x1="293.6016" x2="293.6016" y1="289.4219" y2="302.4219"/><line style="stroke:#A80036;stroke-width:1;stroke-dasharray:2,2;" x1="246.6016" x2="293.6016" y1="302.4219" y2="302.4219"/><polygon fill="#A80036" points="256.6016,298.4219,246.6016,302.4219,256.6016,306.4219,252.6016,302.4219" style="stroke:#A80036;stroke-width:1;"/></g><path d="M503,317.4219 L503,372.4219 L702,372.4219 L702,327.4219 L692,317.4219 L503,317.4219" fill="#FBFB77" filter="url(#f4ri9qm85siwp)" style="stroke:#A80036;stroke-width:1;"/><path d="M692,317.4219 L692,327.4219 L702,327.4219 L692,317.4219" fill="#FBFB77" style="stroke:#A80036;stroke-width:1;"/><text fill="#000000" font-family="sans-serif" font-size="13" lengthAdjust="spacing" textLength="163.8711" x="509" y="334.4888">STDIN: Receives file data</text><text fill="#000000" font-family="sans-serif" font-size="13" lengthAdjust="spacing" textLength="159.2627" x="509" y="349.6216">STDOUT: Sends file data</text><text fill="#000000" font-family="sans-serif" font-size="13" lengthAdjust="spacing" textLength="178.001" x="509" y="364.7544">STDERR: Sends status data</text><g class="message" data-participant-1="local" data-participant-2="remote"><line style="stroke:#A80036;stroke-width:1;" x1="549.6992" x2="539.6992" y1="418.0859" y2="414.0859"/><line style="stroke:#A80036;stroke-width:1;" x1="549.6992" x2="539.6992" y1="418.0859" y2="422.0859"/><line style="stroke:#A80036;stroke-width:1;stroke-dasharray:2,2;" x1="246.6016" x2="550.6992" y1="418.0859" y2="418.0859"/><text fill="#000000" font-family="sans-serif" font-size="13" lengthAdjust="spacing" textLength="53.752" x="253.6016" y="397.8872">Connect</text><text fill="#000000" font-family="sans-serif" font-size="13" lengthAdjust="spacing" textLength="158.4121" x="253.6016" y="413.02">(ssh ... 'psync --remote')</text></g><rect fill="#FEFECE" filter="url(#f4ri9qm85siwp)" height="46.5938" style="stroke:#A80036;stroke-width:1.5;" width="103.3184" x="551.6992" y="381.8203"/><text fill="#000000" font-family="sans-serif" font-size="14" lengthAdjust="spacing" textLength="89.3184" x="558.6992" y="401.8154">Remote host</text><text fill="#000000" font-family="sans-serif" font-size="14" lengthAdjust="spacing" textLength="49.1777" x="578.7695" y="418.1123">(Slave)</text><g class="message" data-participant-1="remote" data-participant-2="remote"><line style="stroke:#A80036;stroke-width:1;" x1="605.3584" x2="652.3584" y1="459.5469" y2="459.5469"/><line style="stroke:#A80036;stroke-width:1;" x1="652.3584" x2="652.3584" y1="459.5469" y2="472.5469"/><line style="stroke:#A80036;stroke-width:1;" x1="611.3584" x2="652.3584" y1="472.5469" y2="472.5469"/><polygon fill="#A80036" points="621.3584,468.5469,611.3584,472.5469,621.3584,476.5469,617.3584,472.5469" style="stroke:#A80036;stroke-width:1;"/><text fill="#000000" font-family="sans-serif" font-size="13" lengthAdjust="spacing" textLength="66.79" x="617.3584" y="454.481">psp_new()</text></g><g class="message" data-participant-1="remote" data-participant-2="remote"><line style="stroke:#A80036;stroke-width:1;stroke-dasharray:2,2;" x1="610.3584" x2="652.3584" y1="496.5469" y2="496.5469"/><line style="stroke:#A80036;stroke-width:1;stroke-dasharray:2,2;" x1="652.3584" x2="652.3584" y1="496.5469" y2="509.5469"/><line style="stroke:#A80036;stroke-width:1;stroke-dasharray:2,2;" x1="605.3584" x2="652.3584" y1="509.5469" y2="509.5469"/><polygon fill="#A80036" points="615.3584,505.5469,605.3584,509.5469,615.3584,513.5469,611.3584,509.5469" style="stroke:#A80036;stroke-width:1;"/></g><path d="M368,519.5469 L444.624,519.5469 L444.624,526.6797 L434.624,536.6797 L368,536.6797 L368,519.5469" fill="#EEEEEE" style="stroke:#000000;stroke-width:1;"/><rect fill="none" height="125.3984" style="stroke:#000000;stroke-width:2;" width="473.708" x="368" y="519.5469"/><text fill="#000000" font-family="sans-serif" font-size="13" font-weight="bold" lengthAdjust="spacing" textLength="31.624" x="383" y="532.6138">loop</text><g class="message" data-participant-1="remote" data-participant-2="remote"><line style="stroke:#A80036;stroke-width:1;" x1="605.3584" x2="652.3584" y1="552.8125" y2="552.8125"/><line style="stroke:#A80036;stroke-width:1;" x1="652.3584" x2="652.3584" y1="552.8125" y2="565.8125"/><line style="stroke:#A80036;stroke-width:1;" x1="611.3584" x2="652.3584" y1="565.8125" y2="565.8125"/><polygon fill="#A80036" points="621.3584,561.8125,611.3584,565.8125,621.3584,569.8125,617.3584,565.8125" style="stroke:#A80036;stroke-width:1;"/><text fill="#000000" font-family="sans-serif" font-size="13" lengthAdjust="spacing" textLength="79.7012" x="617.3584" y="547.7466">psp_config()</text></g><path d="M378,583.8125 L378,608.8125 L827,608.8125 L827,593.8125 L817,583.8125 L378,583.8125" fill="#FBFB77" filter="url(#f4ri9qm85siwp)" style="stroke:#A80036;stroke-width:1;"/><path d="M817,583.8125 L817,593.8125 L827,593.8125 L817,583.8125" fill="#FBFB77" style="stroke:#A80036;stroke-width:1;"/><text fill="#000000" font-family="sans-serif" font-size="13" lengthAdjust="spacing" textLength="428.708" x="384" y="600.8794">Loads the list of sync directory and label pairs from&#160;~/.psync.conf</text><g class="message" data-participant-1="remote" data-participant-2="remote"><line style="stroke:#A80036;stroke-width:1;stroke-dasharray:2,2;" x1="610.3584" x2="652.3584" y1="628.9453" y2="628.9453"/><line style="stroke:#A80036;stroke-width:1;stroke-dasharray:2,2;" x1="652.3584" x2="652.3584" y1="628.9453" y2="641.9453"/><line style="stroke:#A80036;stroke-width:1;stroke-dasharray:2,2;" x1="605.3584" x2="652.3584" y1="641.9453" y2="641.9453"/><polygon fill="#A80036" points="615.3584,637.9453,605.3584,641.9453,615.3584,645.9453,611.3584,641.9453" style="stroke:#A80036;stroke-width:1;"/></g><g class="message" data-participant-1="local" data-participant-2="local"><line style="stroke:#A80036;stroke-width:1;" x1="246.6016" x2="293.6016" y1="668.0781" y2="668.0781"/><line style="stroke:#A80036;stroke-width:1;" x1="293.6016" x2="293.6016" y1="668.0781" y2="681.0781"/><line style="stroke:#A80036;stroke-width:1;" x1="252.6016" x2="293.6016" y1="681.0781" y2="681.0781"/><polygon fill="#A80036" points="262.6016,677.0781,252.6016,681.0781,262.6016,685.0781,258.6016,681.0781" style="stroke:#A80036;stroke-width:1;"/><text fill="#000000" font-family="sans-serif" font-size="13" lengthAdjust="spacing" textLength="61.7437" x="258.6016" y="663.0122">psp_run()</text></g><g class="message" data-participant-1="remote" data-participant-2="remote"><line style="stroke:#A80036;stroke-width:1;" x1="605.3584" x2="652.3584" y1="710.2109" y2="710.2109"/><line style="stroke:#A80036;stroke-width:1;" x1="652.3584" x2="652.3584" y1="710.2109" y2="723.2109"/><line style="stroke:#A80036;stroke-width:1;" x1="611.3584" x2="652.3584" y1="723.2109" y2="723.2109"/><polygon fill="#A80036" points="621.3584,719.2109,611.3584,723.2109,621.3584,727.2109,617.3584,723.2109" style="stroke:#A80036;stroke-width:1;"/><text fill="#000000" font-family="sans-serif" font-size="13" lengthAdjust="spacing" textLength="61.7437" x="617.3584" y="705.145">psp_run()</text></g><path d="M192,743.2109 L261.4893,743.2109 L261.4893,750.3438 L251.4893,760.3438 L192,760.3438 L192,743.2109" fill="#EEEEEE" style="stroke:#000000;stroke-width:1;"/><rect fill="none" height="77.3984" style="stroke:#000000;stroke-width:2;" width="477.0176" x="192" y="743.2109"/><text fill="#000000" font-family="sans-serif" font-size="13" font-weight="bold" lengthAdjust="spacing" textLength="24.4893" x="207" y="756.2778">par</text><g class="message" data-participant-1="local" data-participant-2="remote"><line style="stroke:#A80036;stroke-width:1;" x1="598.3584" x2="588.3584" y1="781.4766" y2="777.4766"/><line style="stroke:#A80036;stroke-width:1;" x1="598.3584" x2="588.3584" y1="781.4766" y2="785.4766"/><line style="stroke:#A80036;stroke-width:1;" x1="251.6016" x2="599.3584" y1="781.4766" y2="781.4766"/><text fill="#000000" font-family="sans-serif" font-size="13" lengthAdjust="spacing" textLength="119.5645" x="258.6016" y="776.4106">Protocol ID: 'pSp3'</text></g><line style="stroke:#000000;stroke-width:1;stroke-dasharray:2,2;" x1="192" x2="669.0176" y1="790.4766" y2="790.4766"/><g class="message" data-participant-1="remote" data-participant-2="local"><line style="stroke:#A80036;stroke-width:1;" x1="252.6016" x2="262.6016" y1="812.6094" y2="808.6094"/><line style="stroke:#A80036;stroke-width:1;" x1="252.6016" x2="262.6016" y1="812.6094" y2="816.6094"/><line style="stroke:#A80036;stroke-width:1;" x1="251.6016" x2="599.3584" y1="812.6094" y2="812.6094"/><text fill="#000000" font-family="sans-serif" font-size="13" lengthAdjust="spacing" textLength="119.5645" x="268.6016" y="807.5435">Protocol ID: 'pSp3'</text></g><path d="M192,834.6094 L261.4893,834.6094 L261.4893,841.7422 L251.4893,851.7422 L192,851.7422 L192,834.6094" fill="#EEEEEE" style="stroke:#000000;stroke-width:1;"/><rect fill="none" height="77.3984" style="stroke:#000000;stroke-width:2;" width="477.0176" x="192" y="834.6094"/><text fill="#000000" font-family="sans-serif" font-size="13" font-weight="bold" lengthAdjust="spacing" textLength="24.4893" x="207" y="847.6763">par</text><g class="message" data-participant-1="local" data-participant-2="remote"><line style="stroke:#A80036;stroke-width:1;" x1="598.3584" x2="588.3584" y1="872.875" y2="868.875"/><line style="stroke:#A80036;stroke-width:1;" x1="598.3584" x2="588.3584" y1="872.875" y2="876.875"/><line style="stroke:#A80036;stroke-width:1;" x1="251.6016" x2="599.3584" y1="872.875" y2="872.875"/><text fill="#000000" font-family="sans-serif" font-size="13" lengthAdjust="spacing" textLength="116.1558" x="258.6016" y="867.8091">List of local labels</text></g><line style="stroke:#000000;stroke-width:1;stroke-dasharray:2,2;" x1="192" x2="669.0176" y1="881.875" y2="881.875"/><g class="message" data-participant-1="remote" data-participant-2="local"><line style="stroke:#A80036;stroke-width:1;" x1="252.6016" x2="262.6016" y1="904.0078" y2="900.0078"/><line style="stroke:#A80036;stroke-width:1;" x1="252.6016" x2="262.6016" y1="904.0078" y2="908.0078"/><line style="stroke:#A80036;stroke-width:1;" x1="251.6016" x2="599.3584" y1="904.0078" y2="904.0078"/><text fill="#000000" font-family="sans-serif" font-size="13" lengthAdjust="spacing" textLength="132.9199" x="268.6016" y="898.9419">List of remote labels</text></g><path d="M172,926.0078 L248.624,926.0078 L248.624,933.1406 L238.624,943.1406 L172,943.1406 L172,926.0078" fill="#EEEEEE" style="stroke:#000000;stroke-width:1;"/><rect fill="none" height="940.9219" style="stroke:#000000;stroke-width:2;" width="553.9766" x="172" y="926.0078"/><text fill="#000000" font-family="sans-serif" font-size="13" font-weight="bold" lengthAdjust="spacing" textLength="31.624" x="187" y="939.0747">loop</text><text fill="#000000" font-family="sans-serif" font-size="11" font-weight="bold" lengthAdjust="spacing" textLength="438.0718" x="263.624" y="938.2183">[Process directories for all matching labels on both Local and Remote]</text><g class="message" data-participant-1="local" data-participant-2="local"><line style="stroke:#A80036;stroke-width:1;" x1="251.6016" x2="298.6016" y1="959.2734" y2="959.2734"/><line style="stroke:#A80036;stroke-width:1;" x1="298.6016" x2="298.6016" y1="959.2734" y2="972.2734"/><line style="stroke:#A80036;stroke-width:1;" x1="257.6016" x2="298.6016" y1="972.2734" y2="972.2734"/><polygon fill="#A80036" points="267.6016,968.2734,257.6016,972.2734,267.6016,976.2734,263.6016,972.2734" style="stroke:#A80036;stroke-width:1;"/><text fill="#000000" font-family="sans-serif" font-size="13" lengthAdjust="spacing" textLength="81.6182" x="263.6016" y="954.2075">psync_new()</text></g><g class="message" data-participant-1="remote" data-participant-2="remote"><line style="stroke:#A80036;stroke-width:1;" x1="610.3584" x2="657.3584" y1="1001.4063" y2="1001.4063"/><line style="stroke:#A80036;stroke-width:1;" x1="657.3584" x2="657.3584" y1="1001.4063" y2="1014.4063"/><line style="stroke:#A80036;stroke-width:1;" x1="616.3584" x2="657.3584" y1="1014.4063" y2="1014.4063"/><polygon fill="#A80036" points="626.3584,1010.4063,616.3584,1014.4063,626.3584,1018.4063,622.3584,1014.4063" style="stroke:#A80036;stroke-width:1;"/><text fill="#000000" font-family="sans-serif" font-size="13" lengthAdjust="spacing" textLength="81.6182" x="622.3584" y="996.3403">psync_new()</text></g><path d="M199,1032.4063 L199,1057.4063 L651,1057.4063 L651,1042.4063 L641,1032.4063 L199,1032.4063" fill="#FBFB77" filter="url(#f4ri9qm85siwp)" style="stroke:#A80036;stroke-width:1;"/><path d="M641,1032.4063 L641,1042.4063 L651,1042.4063 L641,1032.4063" fill="#FBFB77" style="stroke:#A80036;stroke-width:1;"/><text fill="#000000" font-family="sans-serif" font-size="13" lengthAdjust="spacing" textLength="307.4487" x="264.7844" y="1049.4731">Acquire an exclusive lock on the sync directory</text><g class="message" data-participant-1="local" data-participant-2="local"><line style="stroke:#A80036;stroke-width:1;stroke-dasharray:2,2;" x1="256.6016" x2="298.6016" y1="1077.5391" y2="1077.5391"/><line style="stroke:#A80036;stroke-width:1;stroke-dasharray:2,2;" x1="298.6016" x2="298.6016" y1="1077.5391" y2="1090.5391"/><line style="stroke:#A80036;stroke-width:1;stroke-dasharray:2,2;" x1="251.6016" x2="298.6016" y1="1090.5391" y2="1090.5391"/><polygon fill="#A80036" points="261.6016,1086.5391,251.6016,1090.5391,261.6016,1094.5391,257.6016,1090.5391" style="stroke:#A80036;stroke-width:1;"/></g><g class="message" data-participant-1="remote" data-participant-2="remote"><line style="stroke:#A80036;stroke-width:1;stroke-dasharray:2,2;" x1="615.3584" x2="657.3584" y1="1104.5391" y2="1104.5391"/><line style="stroke:#A80036;stroke-width:1;stroke-dasharray:2,2;" x1="657.3584" x2="657.3584" y1="1104.5391" y2="1117.5391"/><line style="stroke:#A80036;stroke-width:1;stroke-dasharray:2,2;" x1="610.3584" x2="657.3584" y1="1117.5391" y2="1117.5391"/><polygon fill="#A80036" points="620.3584,1113.5391,610.3584,1117.5391,620.3584,1121.5391,616.3584,1117.5391" style="stroke:#A80036;stroke-width:1;"/></g><path d="M192,1127.5391 L261.4893,1127.5391 L261.4893,1134.6719 L251.4893,1144.6719 L192,1144.6719 L192,1127.5391" fill="#EEEEEE" style="stroke:#000000;stroke-width:1;"/><rect fill="none" height="77.3984" style="stroke:#000000;stroke-width:2;" width="477.0176" x="192" y="1127.5391"/><text fill="#000000" font-family="sans-serif" font-size="13" font-weight="bold" lengthAdjust="spacing" textLength="24.4893" x="207" y="1140.606">par</text><g class="message" data-participant-1="local" data-participant-2="remote"><line style="stroke:#A80036;stroke-width:1;" x1="598.3584" x2="588.3584" y1="1165.8047" y2="1161.8047"/><line style="stroke:#A80036;stroke-width:1;" x1="598.3584" x2="588.3584" y1="1165.8047" y2="1169.8047"/><line style="stroke:#A80036;stroke-width:1;" x1="251.6016" x2="599.3584" y1="1165.8047" y2="1165.8047"/><text fill="#000000" font-family="sans-serif" font-size="13" lengthAdjust="spacing" textLength="227.1572" x="258.6016" y="1160.7388">ACK (Local sync directory is ready)</text></g><line style="stroke:#000000;stroke-width:1;stroke-dasharray:2,2;" x1="192" x2="669.0176" y1="1174.8047" y2="1174.8047"/><g class="message" data-participant-1="remote" data-participant-2="local"><line style="stroke:#A80036;stroke-width:1;" x1="252.6016" x2="262.6016" y1="1196.9375" y2="1192.9375"/><line style="stroke:#A80036;stroke-width:1;" x1="252.6016" x2="262.6016" y1="1196.9375" y2="1200.9375"/><line style="stroke:#A80036;stroke-width:1;" x1="251.6016" x2="599.3584" y1="1196.9375" y2="1196.9375"/><text fill="#000000" font-family="sans-serif" font-size="13" lengthAdjust="spacing" textLength="243.9785" x="268.6016" y="1191.8716">ACK (Remote sync directory is ready)</text></g><g class="message" data-participant-1="local" data-participant-2="local"><line style="stroke:#A80036;stroke-width:1;" x1="251.6016" x2="298.6016" y1="1228.0703" y2="1228.0703"/><line style="stroke:#A80036;stroke-width:1;" x1="298.6016" x2="298.6016" y1="1228.0703" y2="1241.0703"/><line style="stroke:#A80036;stroke-width:1;" x1="257.6016" x2="298.6016" y1="1241.0703" y2="1241.0703"/><polygon fill="#A80036" points="267.6016,1237.0703,257.6016,1241.0703,267.6016,1245.0703,263.6016,1241.0703" style="stroke:#A80036;stroke-width:1;"/><text fill="#000000" font-family="sans-serif" font-size="13" lengthAdjust="spacing" textLength="76.5718" x="263.6016" y="1223.0044">psync_run()</text></g><g class="message" data-participant-1="remote" data-participant-2="remote"><line style="stroke:#A80036;stroke-width:1;" x1="610.3584" x2="657.3584" y1="1270.2031" y2="1270.2031"/><line style="stroke:#A80036;stroke-width:1;" x1="657.3584" x2="657.3584" y1="1270.2031" y2="1283.2031"/><line style="stroke:#A80036;stroke-width:1;" x1="616.3584" x2="657.3584" y1="1283.2031" y2="1283.2031"/><polygon fill="#A80036" points="626.3584,1279.2031,616.3584,1283.2031,626.3584,1287.2031,622.3584,1283.2031" style="stroke:#A80036;stroke-width:1;"/><text fill="#000000" font-family="sans-serif" font-size="13" lengthAdjust="spacing" textLength="76.5718" x="622.3584" y="1265.1372">psync_run()</text></g><path d="M199,1301.2031 L199,1326.2031 L651,1326.2031 L651,1311.2031 L641,1301.2031 L199,1301.2031" fill="#FBFB77" filter="url(#f4ri9qm85siwp)" style="stroke:#A80036;stroke-width:1;"/><path d="M641,1301.2031 L641,1311.2031 L651,1311.2031 L641,1301.2031" fill="#FBFB77" style="stroke:#A80036;stroke-width:1;"/><text fill="#000000" font-family="sans-serif" font-size="13" lengthAdjust="spacing" textLength="268.3281" x="284.3447" y="1318.27">Create a file list within the sync directory</text><path d="M192,1342.3359 L261.4893,1342.3359 L261.4893,1349.4688 L251.4893,1359.4688 L192,1359.4688 L192,1342.3359" fill="#EEEEEE" style="stroke:#000000;stroke-width:1;"/><rect fill="none" height="77.3984" style="stroke:#000000;stroke-width:2;" width="477.0176" x="192" y="1342.3359"/><text fill="#000000" font-family="sans-serif" font-size="13" font-weight="bold" lengthAdjust="spacing" textLength="24.4893" x="207" y="1355.4028">par</text><g class="message" data-participant-1="local" data-participant-2="remote"><line style="stroke:#A80036;stroke-width:1;" x1="603.3584" x2="593.3584" y1="1380.6016" y2="1376.6016"/><line style="stroke:#A80036;stroke-width:1;" x1="603.3584" x2="593.3584" y1="1380.6016" y2="1384.6016"/><line style="stroke:#A80036;stroke-width:1;" x1="256.6016" x2="604.3584" y1="1380.6016" y2="1380.6016"/><text fill="#000000" font-family="sans-serif" font-size="13" lengthAdjust="spacing" textLength="81.0786" x="263.6016" y="1375.5356">Local file list</text></g><line style="stroke:#000000;stroke-width:1;stroke-dasharray:2,2;" x1="192" x2="669.0176" y1="1389.6016" y2="1389.6016"/><g class="message" data-participant-1="remote" data-participant-2="local"><line style="stroke:#A80036;stroke-width:1;" x1="257.6016" x2="267.6016" y1="1411.7344" y2="1407.7344"/><line style="stroke:#A80036;stroke-width:1;" x1="257.6016" x2="267.6016" y1="1411.7344" y2="1415.7344"/><line style="stroke:#A80036;stroke-width:1;" x1="256.6016" x2="604.3584" y1="1411.7344" y2="1411.7344"/><text fill="#000000" font-family="sans-serif" font-size="13" lengthAdjust="spacing" textLength="97.8999" x="273.6016" y="1406.6685">Remote file list</text></g><path d="M199,1431.7344 L199,1456.7344 L651,1456.7344 L651,1441.7344 L641,1431.7344 L199,1431.7344" fill="#FBFB77" filter="url(#f4ri9qm85siwp)" style="stroke:#A80036;stroke-width:1;"/><path d="M641,1431.7344 L641,1441.7344 L651,1441.7344 L641,1431.7344" fill="#FBFB77" style="stroke:#A80036;stroke-width:1;"/><text fill="#000000" font-family="sans-serif" font-size="13" lengthAdjust="spacing" textLength="405.0757" x="215.9709" y="1448.8013">Create a post-sync file list from the Local and Remote file lists</text><path d="M199,1470.8672 L199,1495.8672 L651,1495.8672 L651,1480.8672 L641,1470.8672 L199,1470.8672" fill="#FBFB77" filter="url(#f4ri9qm85siwp)" style="stroke:#A80036;stroke-width:1;"/><path d="M641,1470.8672 L641,1480.8672 L651,1480.8672 L641,1470.8672" fill="#FBFB77" style="stroke:#A80036;stroke-width:1;"/><text fill="#000000" font-family="sans-serif" font-size="13" lengthAdjust="spacing" textLength="371.7505" x="232.6335" y="1487.9341">Copy files to be uploaded to a temporary upload location</text><path d="M192,1512 L261.4893,1512 L261.4893,1519.1328 L251.4893,1529.1328 L192,1529.1328 L192,1512" fill="#EEEEEE" style="stroke:#000000;stroke-width:1;"/><rect fill="none" height="77.3984" style="stroke:#000000;stroke-width:2;" width="477.0176" x="192" y="1512"/><text fill="#000000" font-family="sans-serif" font-size="13" font-weight="bold" lengthAdjust="spacing" textLength="24.4893" x="207" y="1525.0669">par</text><g class="message" data-participant-1="local" data-participant-2="remote"><line style="stroke:#A80036;stroke-width:1;" x1="603.3584" x2="593.3584" y1="1550.2656" y2="1546.2656"/><line style="stroke:#A80036;stroke-width:1;" x1="603.3584" x2="593.3584" y1="1550.2656" y2="1554.2656"/><line style="stroke:#A80036;stroke-width:1;" x1="256.6016" x2="604.3584" y1="1550.2656" y2="1550.2656"/><text fill="#000000" font-family="sans-serif" font-size="13" lengthAdjust="spacing" textLength="312.9585" x="263.6016" y="1545.1997">Upload files from the temporary upload location</text></g><line style="stroke:#000000;stroke-width:1;stroke-dasharray:2,2;" x1="192" x2="669.0176" y1="1559.2656" y2="1559.2656"/><g class="message" data-participant-1="remote" data-participant-2="local"><line style="stroke:#A80036;stroke-width:1;" x1="257.6016" x2="267.6016" y1="1581.3984" y2="1577.3984"/><line style="stroke:#A80036;stroke-width:1;" x1="257.6016" x2="267.6016" y1="1581.3984" y2="1585.3984"/><line style="stroke:#A80036;stroke-width:1;" x1="256.6016" x2="604.3584" y1="1581.3984" y2="1581.3984"/><text fill="#000000" font-family="sans-serif" font-size="13" lengthAdjust="spacing" textLength="319.7568" x="273.6016" y="1576.3325">Download files to a temporary download location</text></g><path d="M182,1601.3984 L182,1626.3984 L664,1626.3984 L664,1611.3984 L654,1601.3984 L182,1601.3984" fill="#FBFB77" filter="url(#f4ri9qm85siwp)" style="stroke:#A80036;stroke-width:1;"/><path d="M654,1601.3984 L654,1611.3984 L664,1611.3984 L654,1601.3984" fill="#FBFB77" style="stroke:#A80036;stroke-width:1;"/><text fill="#000000" font-family="sans-serif" font-size="13" lengthAdjust="spacing" textLength="461.9063" x="188" y="1618.4653">Apply files from the temporary download location to the sync directory</text><g class="message" data-participant-1="local" data-participant-2="local"><line style="stroke:#A80036;stroke-width:1;stroke-dasharray:2,2;" x1="256.6016" x2="298.6016" y1="1646.5313" y2="1646.5313"/><line style="stroke:#A80036;stroke-width:1;stroke-dasharray:2,2;" x1="298.6016" x2="298.6016" y1="1646.5313" y2="1659.5313"/><line style="stroke:#A80036;stroke-width:1;stroke-dasharray:2,2;" x1="251.6016" x2="298.6016" y1="1659.5313" y2="1659.5313"/><polygon fill="#A80036" points="261.6016,1655.5313,251.6016,1659.5313,261.6016,1663.5313,257.6016,1659.5313" style="stroke:#A80036;stroke-width:1;"/></g><g class="message" data-participant-1="remote" data-participant-2="remote"><line style="stroke:#A80036;stroke-width:1;stroke-dasharray:2,2;" x1="615.3584" x2="657.3584" y1="1673.5313" y2="1673.5313"/><line style="stroke:#A80036;stroke-width:1;stroke-dasharray:2,2;" x1="657.3584" x2="657.3584" y1="1673.5313" y2="1686.5313"/><line style="stroke:#A80036;stroke-width:1;stroke-dasharray:2,2;" x1="610.3584" x2="657.3584" y1="1686.5313" y2="1686.5313"/><polygon fill="#A80036" points="620.3584,1682.5313,610.3584,1686.5313,620.3584,1690.5313,616.3584,1686.5313" style="stroke:#A80036;stroke-width:1;"/></g><g class="message" data-participant-1="local" data-participant-2="local"><line style="stroke:#A80036;stroke-width:1;" x1="251.6016" x2="298.6016" y1="1705.6641" y2="1705.6641"/><line style="stroke:#A80036;stroke-width:1;" x1="298.6016" x2="298.6016" y1="1705.6641" y2="1718.6641"/><line style="stroke:#A80036;stroke-width:1;" x1="257.6016" x2="298.6016" y1="1718.6641" y2="1718.6641"/><polygon fill="#A80036" points="267.6016,1714.6641,257.6016,1718.6641,267.6016,1722.6641,263.6016,1718.6641" style="stroke:#A80036;stroke-width:1;"/><text fill="#000000" font-family="sans-serif" font-size="13" lengthAdjust="spacing" textLength="80.666" x="263.6016" y="1700.5981">psync_free()</text></g><g class="message" data-participant-1="remote" data-participant-2="remote"><line style="stroke:#A80036;stroke-width:1;" x1="610.3584" x2="657.3584" y1="1747.7969" y2="1747.7969"/><line style="stroke:#A80036;stroke-width:1;" x1="657.3584" x2="657.3584" y1="1747.7969" y2="1760.7969"/><line style="stroke:#A80036;stroke-width:1;" x1="616.3584" x2="657.3584" y1="1760.7969" y2="1760.7969"/><polygon fill="#A80036" points="626.3584,1756.7969,616.3584,1760.7969,626.3584,1764.7969,622.3584,1760.7969" style="stroke:#A80036;stroke-width:1;"/><text fill="#000000" font-family="sans-serif" font-size="13" lengthAdjust="spacing" textLength="80.666" x="622.3584" y="1742.731">psync_free()</text></g><path d="M199,1778.7969 L199,1803.7969 L651,1803.7969 L651,1788.7969 L641,1778.7969 L199,1778.7969" fill="#FBFB77" filter="url(#f4ri9qm85siwp)" style="stroke:#A80036;stroke-width:1;"/><path d="M641,1778.7969 L641,1788.7969 L651,1788.7969 L641,1778.7969" fill="#FBFB77" style="stroke:#A80036;stroke-width:1;"/><text fill="#000000" font-family="sans-serif" font-size="13" lengthAdjust="spacing" textLength="314.4692" x="261.2742" y="1795.8638">Release the exclusive lock on the sync directory</text><g class="message" data-participant-1="local" data-participant-2="local"><line style="stroke:#A80036;stroke-width:1;stroke-dasharray:2,2;" x1="256.6016" x2="298.6016" y1="1823.9297" y2="1823.9297"/><line style="stroke:#A80036;stroke-width:1;stroke-dasharray:2,2;" x1="298.6016" x2="298.6016" y1="1823.9297" y2="1836.9297"/><line style="stroke:#A80036;stroke-width:1;stroke-dasharray:2,2;" x1="251.6016" x2="298.6016" y1="1836.9297" y2="1836.9297"/><polygon fill="#A80036" points="261.6016,1832.9297,251.6016,1836.9297,261.6016,1840.9297,257.6016,1836.9297" style="stroke:#A80036;stroke-width:1;"/></g><g class="message" data-participant-1="remote" data-participant-2="remote"><line style="stroke:#A80036;stroke-width:1;stroke-dasharray:2,2;" x1="615.3584" x2="657.3584" y1="1850.9297" y2="1850.9297"/><line style="stroke:#A80036;stroke-width:1;stroke-dasharray:2,2;" x1="657.3584" x2="657.3584" y1="1850.9297" y2="1863.9297"/><line style="stroke:#A80036;stroke-width:1;stroke-dasharray:2,2;" x1="610.3584" x2="657.3584" y1="1863.9297" y2="1863.9297"/><polygon fill="#A80036" points="620.3584,1859.9297,610.3584,1863.9297,620.3584,1867.9297,616.3584,1863.9297" style="stroke:#A80036;stroke-width:1;"/></g><g class="message" data-participant-1="local" data-participant-2="local"><line style="stroke:#A80036;stroke-width:1;stroke-dasharray:2,2;" x1="251.6016" x2="293.6016" y1="1884.9297" y2="1884.9297"/><line style="stroke:#A80036;stroke-width:1;stroke-dasharray:2,2;" x1="293.6016" x2="293.6016" y1="1884.9297" y2="1897.9297"/><line style="stroke:#A80036;stroke-width:1;stroke-dasharray:2,2;" x1="246.6016" x2="293.6016" y1="1897.9297" y2="1897.9297"/><polygon fill="#A80036" points="256.6016,1893.9297,246.6016,1897.9297,256.6016,1901.9297,252.6016,1897.9297" style="stroke:#A80036;stroke-width:1;"/></g><g class="message" data-participant-1="remote" data-participant-2="remote"><line style="stroke:#A80036;stroke-width:1;stroke-dasharray:2,2;" x1="610.3584" x2="652.3584" y1="1911.9297" y2="1911.9297"/><line style="stroke:#A80036;stroke-width:1;stroke-dasharray:2,2;" x1="652.3584" x2="652.3584" y1="1911.9297" y2="1924.9297"/><line style="stroke:#A80036;stroke-width:1;stroke-dasharray:2,2;" x1="605.3584" x2="652.3584" y1="1924.9297" y2="1924.9297"/><polygon fill="#A80036" points="615.3584,1920.9297,605.3584,1924.9297,615.3584,1928.9297,611.3584,1924.9297" style="stroke:#A80036;stroke-width:1;"/></g><g class="message" data-participant-1="remote" data-participant-2="remote"><line style="stroke:#A80036;stroke-width:1;" x1="605.3584" x2="652.3584" y1="1944.0625" y2="1944.0625"/><line style="stroke:#A80036;stroke-width:1;" x1="652.3584" x2="652.3584" y1="1944.0625" y2="1957.0625"/><line style="stroke:#A80036;stroke-width:1;" x1="611.3584" x2="652.3584" y1="1957.0625" y2="1957.0625"/><polygon fill="#A80036" points="621.3584,1953.0625,611.3584,1957.0625,621.3584,1961.0625,617.3584,1957.0625" style="stroke:#A80036;stroke-width:1;"/><text fill="#000000" font-family="sans-serif" font-size="13" lengthAdjust="spacing" textLength="65.8379" x="617.3584" y="1938.9966">psp_free()</text></g><g class="message" data-participant-1="remote" data-participant-2="remote"><line style="stroke:#A80036;stroke-width:1;stroke-dasharray:2,2;" x1="610.3584" x2="652.3584" y1="1981.0625" y2="1981.0625"/><line style="stroke:#A80036;stroke-width:1;stroke-dasharray:2,2;" x1="652.3584" x2="652.3584" y1="1981.0625" y2="1994.0625"/><line style="stroke:#A80036;stroke-width:1;stroke-dasharray:2,2;" x1="605.3584" x2="652.3584" y1="1994.0625" y2="1994.0625"/><polygon fill="#A80036" points="615.3584,1990.0625,605.3584,1994.0625,615.3584,1998.0625,611.3584,1994.0625" style="stroke:#A80036;stroke-width:1;"/></g><g class="message" data-participant-1="local" data-participant-2="remote"><line style="stroke:#A80036;stroke-width:1;" x1="603.3584" x2="593.3584" y1="2018.1953" y2="2014.1953"/><line style="stroke:#A80036;stroke-width:1;" x1="603.3584" x2="593.3584" y1="2018.1953" y2="2022.1953"/><line style="stroke:#A80036;stroke-width:1;stroke-dasharray:2,2;" x1="246.6016" x2="604.3584" y1="2018.1953" y2="2018.1953"/><text fill="#000000" font-family="sans-serif" font-size="13" lengthAdjust="spacing" textLength="72.2173" x="253.6016" y="2013.1294">Disconnect</text></g><line style="stroke:#A80036;stroke-width:1;stroke-dasharray:5,5;" x1="596.3584" x2="614.3584" y1="2009.1953" y2="2027.1953"/><line style="stroke:#A80036;stroke-width:1;stroke-dasharray:5,5;" x1="596.3584" x2="614.3584" y1="2027.1953" y2="2009.1953"/><g class="message" data-participant-1="local" data-participant-2="local"><line style="stroke:#A80036;stroke-width:1;" x1="246.6016" x2="293.6016" y1="2042.3281" y2="2042.3281"/><line style="stroke:#A80036;stroke-width:1;" x1="293.6016" x2="293.6016" y1="2042.3281" y2="2055.3281"/><line style="stroke:#A80036;stroke-width:1;" x1="252.6016" x2="293.6016" y1="2055.3281" y2="2055.3281"/><polygon fill="#A80036" points="262.6016,2051.3281,252.6016,2055.3281,262.6016,2059.3281,258.6016,2055.3281" style="stroke:#A80036;stroke-width:1;"/><text fill="#000000" font-family="sans-serif" font-size="13" lengthAdjust="spacing" textLength="65.8379" x="258.6016" y="2037.2622">psp_free()</text></g><g class="message" data-participant-1="local" data-participant-2="local"><line style="stroke:#A80036;stroke-width:1;stroke-dasharray:2,2;" x1="251.6016" x2="293.6016" y1="2079.3281" y2="2079.3281"/><line style="stroke:#A80036;stroke-width:1;stroke-dasharray:2,2;" x1="293.6016" x2="293.6016" y1="2079.3281" y2="2092.3281"/><line style="stroke:#A80036;stroke-width:1;stroke-dasharray:2,2;" x1="246.6016" x2="293.6016" y1="2092.3281" y2="2092.3281"/><polygon fill="#A80036" points="256.6016,2088.3281,246.6016,2092.3281,256.6016,2096.3281,252.6016,2092.3281" style="stroke:#A80036;stroke-width:1;"/></g><!--SRC=[vLZDRjD04BxxAKQz99L82aMzH5Mbad2e20MbxQqIsjYJPXLdPxkxIPiBHrw0AmTUX0kFmWlm2knw7UV7TkAM52J8oVNE__VDpBe7DP1QDkK46Y0lv4kGYWo550TGWoxJ1iOKyG77g0KlZXhdD6qSFZyyWlg8-cp6z6pV2Xu4GM2uYN7DHA17N80YZK7DFKgcs1XUiN1qesWYeZR5fC0e9hGzGc628OyG1aIcJ_T1O5yQ7dB9X86zBeKiXY5fSotgRsragFRtW6c8tS6gR0_7P70kV16pANfPbHm4mK4jI6KkBZjdvy14v9xUNLq6FxzzWPMVTwpnTe8YnFnvxaLgETFuyUdpgW0KlqagkVRUPmUD4__GScXz47XNtyz9ij3mAREEVK40IapDRUKa8bmp4HF9IW6590RyfafCmbM6fgYMOkWIYpIOePNYbd0q03qJ8KHSOMX8pH9qOjR762JZIiD0qVZxr-kF1qtf99lElRM4LipPtqNgrbQmY3Mb3NYsj2p28V8fsaYu9Nt43FDdbZyjkB2wkPFNlTxyH1jc9jgVPI672ftpp54My4dwhWLj4i8Mn19Qwo4qcqse9UbRAIzIso_8VFNd1HrwSwlbV2h5CWkoghVCtLQT9HoMIb70mcg9bVAoIcu5yE-IhHlv-ZILTAIkqivg8XupNweWKcnwEnnsl0VBuIwila-t3PnrMhOZx0AgkLHZZKiAnyUDRGf9RShTT5Em_Kc2hzxiPwwH5cAXadXoh7QXXAXrHXxkHefTYIoEOSnCEEJY9bK44j0dCqpNaIDPhum9UKmjxqgx_86u5YExoS73cYs9ujagpK_3suajaSqQy3wC9zeENoSuSbLnhRZQWjkxQzi-ADW804_HfiMDkY1Y4HLFss-WdjvALaSFTpSS5iqy2XatYzYP69dVL3PQAHWQPHGhw-wTKQpQ-7WCnTf-0JE_k9FHViUDRS1A_De4bqSgCxiTcXILDOqKXefPI7lrRIHHB_9nYoZ9Pds4B6HqFhKj3adE4dMx4Wdw21CPsmM9aVkJWS6n9CKigVpxn8RX91vMmYklxFraQMmnlgd47ReJIoRNOetcf-lHLXbLKiQpyaXpfftlVtA2LPaN0uNuj0EZrCFlJumUniWq9kZz5rjfuoQe_cdrfswxZxcULgJBt_iKodqLThWE_OTX4A4sYcPb3efk-YNvxlnV2Ry0]--></g></svg>