<?plantuml 1.2026.2?><svg xmlns="http://www.w3.org/2000/svg" xmlns:xlink="http://www.w3.org/1999/xlink" contentStyleType="text/css" data-diagram-type="SEQUENCE" height="2088px" preserveAspectRatio="none" style="width:834px;height:2088px;background:#FFFFFF;" version="1.1" viewBox="0 0 834 2088" width="834px" zoomAndPan="magnify"><title>pSp3 protocol</title><defs><filter height="300%" id="f18qythd26ojuq" width="300%" x="-1" y="-1"><feGaussianBlur result="blurOut" stdDeviation="2"/><feColorMatrix in="blurOut" result="blurOut2" type="matrix" values="0 0 0 0 0 0 0 0 0 0 0 0 0 0 0 0 0 0 .4 0"/><feOffset dx="4" dy="4" in="blurOut2" result="blurOut3"/><feBlend in="SourceGraphic" in2="blurOut3" mode="normal"/></filter></defs><g><text fill="#000000" font-family="sans-serif" font-size="14" font-weight="bold" lengthAdjust="spacing" textLength="100.543" x="364.311" y="28.5352">pSp3 protocol</text><g><title>Local host</title><rect fill="#FFFFFF" filter="url(#f18qythd26ojuq)" height="25" style="stroke:#A80036;stroke-width:1;" width="10" x="235.5522" y="117.2871"/></g><g><title>Local host</title><rect fill="#FFFFFF" filter="url(#f18qythd26ojuq)" height="64.3105" style="stroke:#A80036;stroke-width:1;" width="10" x="235.5522" y="210.9082"/></g><g><title>Local host</title><rect fill="#FFFFFF" filter="url(#f18qythd26ojuq)" height="1210.0059" style="stroke:#A80036;stroke-width:1;" width="10" x="235.5522" y="651.1914"/></g><g><title>Local host</title><rect fill="#FFFFFF" filter="url(#f18qythd26ojuq)" height="106.6211" style="stroke:#A80036;stroke-width:1;" width="10" x="240.5522" y="943.9863"/></g><g><title>Local host</title><rect fill="#FFFFFF" filter="url(#f18qythd26ojuq)" height="408.416" style="stroke:#A80036;stroke-width:1;" width="10" x="240.5522" y="1213.8496"/></g><g><title>Local host</title><rect fill="#FFFFFF" filter="url(#f18qythd26ojuq)" height="106.6211" style="stroke:#A80036;stroke-width:1;" width="10" x="240.5522" y="1693.5762"/></g><g><title>Local host</title><rect fill="#FFFFFF" filter="url(#f18qythd26ojuq)" height="25" style="stroke:#A80036;stroke-width:1;" width="10" x="235.5522" y="2031.1289"/></g><g><title>Remote host</title><rect fill="#FFFFFF" filter="url(#f18qythd26ojuq)" height="25" style="stroke:#A80036;stroke-width:1;" width="10" x="584.9653" y="441.9492"/></g><g><title>Remote host</title><rect fill="#FFFFFF" filter="url(#f18qythd26ojuq)" height="64.3105" style="stroke:#A80036;stroke-width:1;" width="10" x="584.9653" y="535.5703"/></g><g><title>Remote host</title><rect fill="#FFFFFF" filter="url(#f18qythd26ojuq)" height="1194.6953" style="stroke:#A80036;stroke-width:1;" width="10" x="584.9653" y="693.502"/></g><g><title>Remote host</title><rect fill="#FFFFFF" filter="url(#f18qythd26ojuq)" height="91.3105" style="stroke:#A80036;stroke-width:1;" width="10" x="589.9653" y="986.2969"/></g><g><title>Remote host</title><rect fill="#FFFFFF" filter="url(#f18qythd26ojuq)" height="393.1055" style="stroke:#A80036;stroke-width:1;" width="10" x="589.9653" y="1256.1602"/></g><g><title>Remote host</title><rect fill="#FFFFFF" filter="url(#f18qythd26ojuq)" height="91.3105" style="stroke:#A80036;stroke-width:1;" width="10" x="589.9653" y="1735.8867"/></g><g><title>Remote host</title><rect fill="#FFFFFF" filter="url(#f18qythd26ojuq)" height="25" style="stroke:#A80036;stroke-width:1;" width="10" x="584.9653" y="1932.5078"/></g><rect fill="none" filter="url(#f18qythd26ojuq)" height="125.9316" style="stroke:#000000;stroke-width:2;" width="461.165" x="9" y="164.2871"/><rect fill="none" filter="url(#f18qythd26ojuq)" height="125.9316" style="stroke:#000000;stroke-width:2;" width="461.165" x="359" y="488.9492"/><rect fill="none" filter="url(#f18qythd26ojuq)" height="77.9316" style="stroke:#000000;stroke-width:2;" width="464.6899" x="187" y="713.502"/><rect fill="none" filter="url(#f18qythd26ojuq)" height="77.9316" style="stroke:#000000;stroke-width:2;" width="464.6899" x="187" y="805.4336"/><rect fill="none" filter="url(#f18qythd26ojuq)" height="944.832" style="stroke:#000000;stroke-width:2;" width="536.5752" x="169" y="897.3652"/><rect fill="none" filter="url(#f18qythd26ojuq)" height="77.9316" style="stroke:#000000;stroke-width:2;" width="464.6899" x="187" y="1099.6074"/><rect fill="none" filter="url(#f18qythd26ojuq)" height="77.9316" style="stroke:#000000;stroke-width:2;" width="464.6899" x="187" y="1315.4707"/><rect fill="none" filter="url(#f18qythd26ojuq)" height="77.9316" style="stroke:#000000;stroke-width:2;" width="464.6899" x="187" y="1486.0234"/><g class="participant-lifeline" data-entity-uid="part1" data-qualified-name="local" id="part1-lifeline"><g><title>Local host</title><rect fill="#000000" fill-opacity="0.00000" height="2003.1523" width="8" x="236.5522" y="77.9766"/><line style="stroke:#A80036;stroke-width:1;stroke-dasharray:5,5;" x1="240" x2="240" y1="77.9766" y2="2081.1289"/></g></g><g class="participant-lifeline" data-entity-uid="part2" data-qualified-name="remote" id="part2-lifeline"><g><title>Remote host</title><rect fill="#000000" fill-opacity="0.00000" height="1681.2344" width="8" x="585.9653" y="399.8945"/><line style="stroke:#A80036;stroke-width:1;stroke-dasharray:5,5;" x1="589.2407" x2="589.2407" y1="399.8945" y2="2081.1289"/></g></g><g class="participant participant-head" data-entity-uid="part1" data-qualified-name="local" id="part1-head"><rect fill="#FEFECE" filter="url(#f18qythd26ojuq)" height="30.4883" style="stroke:#A80036;stroke-width:1.5;" width="83.1045" x="197" y="42.4883"/><text fill="#000000" font-family="sans-serif" font-size="14" lengthAdjust="spacing" textLength="69.1045" x="204" y="63.0234">Local host</text></g><g><title>Local host</title><rect fill="#FFFFFF" filter="url(#f18qythd26ojuq)" height="25" style="stroke:#A80036;stroke-width:1;" width="10" x="235.5522" y="117.2871"/></g><g><title>Local host</title><rect fill="#FFFFFF" filter="url(#f18qythd26ojuq)" height="64.3105" style="stroke:#A80036;stroke-width:1;" width="10" x="235.5522" y="210.9082"/></g><g><title>Local host</title><rect fill="#FFFFFF" filter="url(#f18qythd26ojuq)" height="1210.0059" style="stroke:#A80036;stroke-width:1;" width="10" x="235.5522" y="651.1914"/></g><g><title>Local host</title><rect fill="#FFFFFF" filter="url(#f18qythd26ojuq)" height="106.6211" style="stroke:#A80036;stroke-width:1;" width="10" x="240.5522" y="943.9863"/></g><g><title>Local host</title><rect fill="#FFFFFF" filter="url(#f18qythd26ojuq)" height="408.416" style="stroke:#A80036;stroke-width:1;" width="10" x="240.5522" y="1213.8496"/></g><g><title>Local host</title><rect fill="#FFFFFF" filter="url(#f18qythd26ojuq)" height="106.6211" style="stroke:#A80036;stroke-width:1;" width="10" x="240.5522" y="1693.5762"/></g><g><title>Local host</title><rect fill="#FFFFFF" filter="url(#f18qythd26ojuq)" height="25" style="stroke:#A80036;stroke-width:1;" width="10" x="235.5522" y="2031.1289"/></g><g><title>Remote host</title><rect fill="#FFFFFF" filter="url(#f18qythd26ojuq)" height="25" style="stroke:#A80036;stroke-width:1;" width="10" x="584.9653" y="441.9492"/></g><g><title>Remote host</title><rect fill="#FFFFFF" filter="url(#f18qythd26ojuq)" height="64.3105" style="stroke:#A80036;stroke-width:1;" width="10" x="584.9653" y="535.5703"/></g><g><title>Remote host</title><rect fill="#FFFFFF" filter="url(#f18qythd26ojuq)" height="1194.6953" style="stroke:#A80036;stroke-width:1;" width="10" x="584.9653" y="693.502"/></g><g><title>Remote host</title><rect fill="#FFFFFF" filter="url(#f18qythd26ojuq)" height="91.3105" style="stroke:#A80036;stroke-width:1;" width="10" x="589.9653" y="986.2969"/></g><g><title>Remote host</title><rect fill="#FFFFFF" filter="url(#f18qythd26ojuq)" height="393.1055" style="stroke:#A80036;stroke-width:1;" width="10" x="589.9653" y="1256.1602"/></g><g><title>Remote host</title><rect fill="#FFFFFF" filter="url(#f18qythd26ojuq)" height="91.3105" style="stroke:#A80036;stroke-width:1;" width="10" x="589.9653" y="1735.8867"/></g><g><title>Remote host</title><rect fill="#FFFFFF" filter="url(#f18qythd26ojuq)" height="25" style="stroke:#A80036;stroke-width:1;" width="10" x="584.9653" y="1932.5078"/></g><g class="message" data-entity-1="part1" data-entity-2="part1" id="msg1"><line style="stroke:#A80036;stroke-width:1;" x1="240.5522" x2="287.5522" y1="104.2871" y2="104.2871"/><line style="stroke:#A80036;stroke-width:1;" x1="287.5522" x2="287.5522" y1="104.2871" y2="117.2871"/><line style="stroke:#A80036;stroke-width:1;" x1="246.5522" x2="287.5522" y1="117.2871" y2="117.2871"/><polygon fill="#A80036" points="256.5522,113.2871,246.5522,117.2871,256.5522,121.2871,252.5522,117.2871" style="stroke:#A80036;stroke-width:1;"/><text fill="#000000" font-family="sans-serif" font-size="13" lengthAdjust="spacing" textLength="63.2734" x="252.5522" y="99.5449">psp_new()</text></g><g class="message" data-entity-1="part1" data-entity-2="part1" id="msg2"><line style="stroke:#A80036;stroke-width:1;stroke-dasharray:2,2;" x1="245.5522" x2="287.5522" y1="141.2871" y2="141.2871"/><line style="stroke:#A80036;stroke-width:1;stroke-dasharray:2,2;" x1="287.5522" x2="287.5522" y1="141.2871" y2="154.2871"/><line style="stroke:#A80036;stroke-width:1;stroke-dasharray:2,2;" x1="240.5522" x2="287.5522" y1="154.2871" y2="154.2871"/><polygon fill="#A80036" points="250.5522,150.2871,240.5522,154.2871,250.5522,158.2871,246.5522,154.2871" style="stroke:#A80036;stroke-width:1;"/></g><path d="M9,164.2871 L83.4468,164.2871 L83.4468,171.5977 L73.4468,181.5977 L9,181.5977 L9,164.2871" fill="#EEEEEE" style="stroke:#000000;stroke-width:1;"/><rect fill="none" height="125.9316" style="stroke:#000000;stroke-width:2;" width="461.165" x="9" y="164.2871"/><text fill="#000000" font-family="sans-serif" font-size="13" font-weight="bold" lengthAdjust="spacing" textLength="29.4468" x="24" y="177.8555">loop</text><g class="message" data-entity-1="part1" data-entity-2="part1" id="msg3"><line style="stroke:#A80036;stroke-width:1;" x1="240.5522" x2="287.5522" y1="197.9082" y2="197.9082"/><line style="stroke:#A80036;stroke-width:1;" x1="287.5522" x2="287.5522" y1="197.9082" y2="210.9082"/><line style="stroke:#A80036;stroke-width:1;" x1="246.5522" x2="287.5522" y1="210.9082" y2="210.9082"/><polygon fill="#A80036" points="256.5522,206.9082,246.5522,210.9082,256.5522,214.9082,252.5522,210.9082" style="stroke:#A80036;stroke-width:1;"/><text fill="#000000" font-family="sans-serif" font-size="13" lengthAdjust="spacing" textLength="77.3018" x="252.5522" y="193.166">psp_config()</text></g><path d="M19,228.9082 L19,253.9082 L456,253.9082 L456,238.9082 L446,228.9082 L19,228.9082" fill="#FBFB77" filter="url(#f18qythd26ojuq)" style="stroke:#A80036;stroke-width:1;"/><path d="M446,228.9082 L446,238.9082 L456,238.9082 L446,228.9082" fill="#FBFB77" style="stroke:#A80036;stroke-width:1;"/><text fill="#000000" font-family="sans-serif" font-size="13" lengthAdjust="spacing" textLength="416.165" x="25" y="246.4766">Loads the list of sync directory and label pairs from&#160;~/.psync.conf</text><g class="message" data-entity-1="part1" data-entity-2="part1" id="msg4"><line style="stroke:#A80036;stroke-width:1;stroke-dasharray:2,2;" x1="245.5522" x2="287.5522" y1="274.2188" y2="274.2188"/><line style="stroke:#A80036;stroke-width:1;stroke-dasharray:2,2;" x1="287.5522" x2="287.5522" y1="274.2188" y2="287.2188"/><line style="stroke:#A80036;stroke-width:1;stroke-dasharray:2,2;" x1="240.5522" x2="287.5522" y1="287.2188" y2="287.2188"/><polygon fill="#A80036" points="250.5522,283.2188,240.5522,287.2188,250.5522,291.2188,246.5522,287.2188" style="stroke:#A80036;stroke-width:1;"/></g><path d="M493,302.2188 L493,357.2188 L681,357.2188 L681,312.2188 L671,302.2188 L493,302.2188" fill="#FBFB77" filter="url(#f18qythd26ojuq)" style="stroke:#A80036;stroke-width:1;"/><path d="M671,302.2188 L671,312.2188 L681,312.2188 L671,302.2188" fill="#FBFB77" style="stroke:#A80036;stroke-width:1;"/><text fill="#000000" font-family="sans-serif" font-size="13" lengthAdjust="spacing" textLength="155.4224" x="499" y="319.7871">STDIN: Receives file data</text><text fill="#000000" font-family="sans-serif" font-size="13" lengthAdjust="spacing" textLength="152.8008" x="499" y="335.0977">STDOUT: Sends file data</text><text fill="#000000" font-family="sans-serif" font-size="13" lengthAdjust="spacing" textLength="167.6479" x="499" y="350.4082">STDERR: Sends status data</text><g class="message" data-entity-1="part1" data-entity-2="part2" id="msg5"><line style="stroke:#A80036;stroke-width:1;" x1="536.2407" x2="526.2407" y1="403.7715" y2="399.7715"/><line style="stroke:#A80036;stroke-width:1;" x1="536.2407" x2="526.2407" y1="403.7715" y2="407.7715"/><line style="stroke:#A80036;stroke-width:1;stroke-dasharray:2,2;" x1="240.5522" x2="537.2407" y1="403.7715" y2="403.7715"/><text fill="#000000" font-family="sans-serif" font-size="13" lengthAdjust="spacing" textLength="51.8794" x="247.5522" y="383.7188">Connect</text><text fill="#000000" font-family="sans-serif" font-size="13" lengthAdjust="spacing" textLength="156.5713" x="247.5522" y="399.0293">(ssh ... 'psync --remote')</text></g><rect fill="#FEFECE" filter="url(#f18qythd26ojuq)" height="30.4883" style="stroke:#A80036;stroke-width:1.5;" width="99.4492" x="538.2407" y="367.1504"/><text fill="#000000" font-family="sans-serif" font-size="14" lengthAdjust="spacing" textLength="85.4492" x="545.2407" y="387.6855">Remote host</text><g class="message" data-entity-1="part2" data-entity-2="part2" id="msg7"><line style="stroke:#A80036;stroke-width:1;" x1="589.9653" x2="636.9653" y1="428.9492" y2="428.9492"/><line style="stroke:#A80036;stroke-width:1;" x1="636.9653" x2="636.9653" y1="428.9492" y2="441.9492"/><line style="stroke:#A80036;stroke-width:1;" x1="595.9653" x2="636.9653" y1="441.9492" y2="441.9492"/><polygon fill="#A80036" points="605.9653,437.9492,595.9653,441.9492,605.9653,445.9492,601.9653,441.9492" style="stroke:#A80036;stroke-width:1;"/><text fill="#000000" font-family="sans-serif" font-size="13" lengthAdjust="spacing" textLength="63.2734" x="601.9653" y="424.207">psp_new()</text></g><g class="message" data-entity-1="part2" data-entity-2="part2" id="msg8"><line style="stroke:#A80036;stroke-width:1;stroke-dasharray:2,2;" x1="594.9653" x2="636.9653" y1="465.9492" y2="465.9492"/><line style="stroke:#A80036;stroke-width:1;stroke-dasharray:2,2;" x1="636.9653" x2="636.9653" y1="465.9492" y2="478.9492"/><line style="stroke:#A80036;stroke-width:1;stroke-dasharray:2,2;" x1="589.9653" x2="636.9653" y1="478.9492" y2="478.9492"/><polygon fill="#A80036" points="599.9653,474.9492,589.9653,478.9492,599.9653,482.9492,595.9653,478.9492" style="stroke:#A80036;stroke-width:1;"/></g><path d="M359,488.9492 L433.4468,488.9492 L433.4468,496.2598 L423.4468,506.2598 L359,506.2598 L359,488.9492" fill="#EEEEEE" style="stroke:#000000;stroke-width:1;"/><rect fill="none" height="125.9316" style="stroke:#000000;stroke-width:2;" width="461.165" x="359" y="488.9492"/><text fill="#000000" font-family="sans-serif" font-size="13" font-weight="bold" lengthAdjust="spacing" textLength="29.4468" x="374" y="502.5176">loop</text><g class="message" data-entity-1="part2" data-entity-2="part2" id="msg9"><line style="stroke:#A80036;stroke-width:1;" x1="589.9653" x2="636.9653" y1="522.5703" y2="522.5703"/><line style="stroke:#A80036;stroke-width:1;" x1="636.9653" x2="636.9653" y1="522.5703" y2="535.5703"/><line style="stroke:#A80036;stroke-width:1;" x1="595.9653" x2="636.9653" y1="535.5703" y2="535.5703"/><polygon fill="#A80036" points="605.9653,531.5703,595.9653,535.5703,605.9653,539.5703,601.9653,535.5703" style="stroke:#A80036;stroke-width:1;"/><text fill="#000000" font-family="sans-serif" font-size="13" lengthAdjust="spacing" textLength="77.3018" x="601.9653" y="517.8281">psp_config()</text></g><path d="M369,553.5703 L369,578.5703 L806,578.5703 L806,563.5703 L796,553.5703 L369,553.5703" fill="#FBFB77" filter="url(#f18qythd26ojuq)" style="stroke:#A80036;stroke-width:1;"/><path d="M796,553.5703 L796,563.5703 L806,563.5703 L796,553.5703" fill="#FBFB77" style="stroke:#A80036;stroke-width:1;"/><text fill="#000000" font-family="sans-serif" font-size="13" lengthAdjust="spacing" textLength="416.165" x="375" y="571.1387">Loads the list of sync directory and label pairs from&#160;~/.psync.conf</text><g class="message" data-entity-1="part2" data-entity-2="part2" id="msg10"><line style="stroke:#A80036;stroke-width:1;stroke-dasharray:2,2;" x1="594.9653" x2="636.9653" y1="598.8809" y2="598.8809"/><line style="stroke:#A80036;stroke-width:1;stroke-dasharray:2,2;" x1="636.9653" x2="636.9653" y1="598.8809" y2="611.8809"/><line style="stroke:#A80036;stroke-width:1;stroke-dasharray:2,2;" x1="589.9653" x2="636.9653" y1="611.8809" y2="611.8809"/><polygon fill="#A80036" points="599.9653,607.8809,589.9653,611.8809,599.9653,615.8809,595.9653,611.8809" style="stroke:#A80036;stroke-width:1;"/></g><g class="message" data-entity-1="part1" data-entity-2="part1" id="msg11"><line style="stroke:#A80036;stroke-width:1;" x1="240.5522" x2="287.5522" y1="638.1914" y2="638.1914"/><line style="stroke:#A80036;stroke-width:1;" x1="287.5522" x2="287.5522" y1="638.1914" y2="651.1914"/><line style="stroke:#A80036;stroke-width:1;" x1="246.5522" x2="287.5522" y1="651.1914" y2="651.1914"/><polygon fill="#A80036" points="256.5522,647.1914,246.5522,651.1914,256.5522,655.1914,252.5522,651.1914" style="stroke:#A80036;stroke-width:1;"/><text fill="#000000" font-family="sans-serif" font-size="13" lengthAdjust="spacing" textLength="59.4014" x="252.5522" y="633.4492">psp_run()</text></g><g class="message" data-entity-1="part2" data-entity-2="part2" id="msg12"><line style="stroke:#A80036;stroke-width:1;" x1="589.9653" x2="636.9653" y1="680.502" y2="680.502"/><line style="stroke:#A80036;stroke-width:1;" x1="636.9653" x2="636.9653" y1="680.502" y2="693.502"/><line style="stroke:#A80036;stroke-width:1;" x1="595.9653" x2="636.9653" y1="693.502" y2="693.502"/><polygon fill="#A80036" points="605.9653,689.502,595.9653,693.502,605.9653,697.502,601.9653,693.502" style="stroke:#A80036;stroke-width:1;"/><text fill="#000000" font-family="sans-serif" font-size="13" lengthAdjust="spacing" textLength="59.4014" x="601.9653" y="675.7598">psp_run()</text></g><path d="M187,713.502 L254.166,713.502 L254.166,720.8125 L244.166,730.8125 L187,730.8125 L187,713.502" fill="#EEEEEE" style="stroke:#000000;stroke-width:1;"/><rect fill="none" height="77.9316" style="stroke:#000000;stroke-width:2;" width="464.6899" x="187" y="713.502"/><text fill="#000000" font-family="sans-serif" font-size="13" font-weight="bold" lengthAdjust="spacing" textLength="22.166" x="202" y="727.0703">par</text><g class="message" data-entity-1="part1" data-entity-2="part2" id="msg13"><line style="stroke:#A80036;stroke-width:1;" x1="582.9653" x2="572.9653" y1="752.123" y2="748.123"/><line style="stroke:#A80036;stroke-width:1;" x1="582.9653" x2="572.9653" y1="752.123" y2="756.123"/><line style="stroke:#A80036;stroke-width:1;" x1="245.5522" x2="583.9653" y1="752.123" y2="752.123"/><text fill="#000000" font-family="sans-serif" font-size="13" lengthAdjust="spacing" textLength="115.1021" x="252.5522" y="747.3809">Protocol ID: 'pSp3'</text></g><line style="stroke:#000000;stroke-width:1;stroke-dasharray:2,2;" x1="187" x2="651.6899" y1="761.123" y2="761.123"/><g class="message" data-entity-1="part2" data-entity-2="part1" id="msg14"><line style="stroke:#A80036;stroke-width:1;" x1="246.5522" x2="256.5522" y1="783.4336" y2="779.4336"/><line style="stroke:#A80036;stroke-width:1;" x1="246.5522" x2="256.5522" y1="783.4336" y2="787.4336"/><line style="stroke:#A80036;stroke-width:1;" x1="245.5522" x2="583.9653" y1="783.4336" y2="783.4336"/><text fill="#000000" font-family="sans-serif" font-size="13" lengthAdjust="spacing" textLength="115.1021" x="262.5522" y="778.6914">Protocol ID: 'pSp3'</text></g><path d="M187,805.4336 L254.166,805.4336 L254.166,812.7441 L244.166,822.7441 L187,822.7441 L187,805.4336" fill="#EEEEEE" style="stroke:#000000;stroke-width:1;"/><rect fill="none" height="77.9316" style="stroke:#000000;stroke-width:2;" width="464.6899" x="187" y="805.4336"/><text fill="#000000" font-family="sans-serif" font-size="13" font-weight="bold" lengthAdjust="spacing" textLength="22.166" x="202" y="819.002">par</text><g class="message" data-entity-1="part1" data-entity-2="part2" id="msg15"><line style="stroke:#A80036;stroke-width:1;" x1="582.9653" x2="572.9653" y1="844.0547" y2="840.0547"/><line style="stroke:#A80036;stroke-width:1;" x1="582.9653" x2="572.9653" y1="844.0547" y2="848.0547"/><line style="stroke:#A80036;stroke-width:1;" x1="245.5522" x2="583.9653" y1="844.0547" y2="844.0547"/><text fill="#000000" font-family="sans-serif" font-size="13" lengthAdjust="spacing" textLength="113.3691" x="252.5522" y="839.3125">List of local labels</text></g><line style="stroke:#000000;stroke-width:1;stroke-dasharray:2,2;" x1="187" x2="651.6899" y1="853.0547" y2="853.0547"/><g class="message" data-entity-1="part2" data-entity-2="part1" id="msg16"><line style="stroke:#A80036;stroke-width:1;" x1="246.5522" x2="256.5522" y1="875.3652" y2="871.3652"/><line style="stroke:#A80036;stroke-width:1;" x1="246.5522" x2="256.5522" y1="875.3652" y2="879.3652"/><line style="stroke:#A80036;stroke-width:1;" x1="245.5522" x2="583.9653" y1="875.3652" y2="875.3652"/><text fill="#000000" font-family="sans-serif" font-size="13" lengthAdjust="spacing" textLength="128.8193" x="262.5522" y="870.623">List of remote labels</text></g><path d="M169,897.3652 L243.4468,897.3652 L243.4468,904.6758 L233.4468,914.6758 L169,914.6758 L169,897.3652" fill="#EEEEEE" style="stroke:#000000;stroke-width:1;"/><rect fill="none" height="944.832" style="stroke:#000000;stroke-width:2;" width="536.5752" x="169" y="897.3652"/><text fill="#000000" font-family="sans-serif" font-size="13" font-weight="bold" lengthAdjust="spacing" textLength="29.4468" x="184" y="910.9336">loop</text><text fill="#000000" font-family="sans-serif" font-size="11" font-weight="bold" lengthAdjust="spacing" textLength="398.4976" x="258.4468" y="910">[Process directories for all matching labels on both Local and Remote]</text><g class="message" data-entity-1="part1" data-entity-2="part1" id="msg17"><line style="stroke:#A80036;stroke-width:1;" x1="245.5522" x2="292.5522" y1="930.9863" y2="930.9863"/><line style="stroke:#A80036;stroke-width:1;" x1="292.5522" x2="292.5522" y1="930.9863" y2="943.9863"/><line style="stroke:#A80036;stroke-width:1;" x1="251.5522" x2="292.5522" y1="943.9863" y2="943.9863"/><polygon fill="#A80036" points="261.5522,939.9863,251.5522,943.9863,261.5522,947.9863,257.5522,943.9863" style="stroke:#A80036;stroke-width:1;"/><text fill="#000000" font-family="sans-serif" font-size="13" lengthAdjust="spacing" textLength="76.6099" x="257.5522" y="926.2441">psync_new()</text></g><g class="message" data-entity-1="part2" data-entity-2="part2" id="msg18"><line style="stroke:#A80036;stroke-width:1;" x1="594.9653" x2="641.9653" y1="973.2969" y2="973.2969"/><line style="stroke:#A80036;stroke-width:1;" x1="641.9653" x2="641.9653" y1="973.2969" y2="986.2969"/><line style="stroke:#A80036;stroke-width:1;" x1="600.9653" x2="641.9653" y1="986.2969" y2="986.2969"/><polygon fill="#A80036" points="610.9653,982.2969,600.9653,986.2969,610.9653,990.2969,606.9653,986.2969" style="stroke:#A80036;stroke-width:1;"/><text fill="#000000" font-family="sans-serif" font-size="13" lengthAdjust="spacing" textLength="76.6099" x="606.9653" y="968.5547">psync_new()</text></g><path d="M195,1004.2969 L195,1029.2969 L634,1029.2969 L634,1014.2969 L624,1004.2969 L195,1004.2969" fill="#FBFB77" filter="url(#f18qythd26ojuq)" style="stroke:#A80036;stroke-width:1;"/><path d="M624,1004.2969 L624,1014.2969 L634,1014.2969 L624,1004.2969" fill="#FBFB77" style="stroke:#A80036;stroke-width:1;"/><text fill="#000000" font-family="sans-serif" font-size="13" lengthAdjust="spacing" textLength="296.7847" x="259.9526" y="1021.8652">Acquire an exclusive lock on the sync directory</text><g class="message" data-entity-1="part1" data-entity-2="part1" id="msg19"><line style="stroke:#A80036;stroke-width:1;stroke-dasharray:2,2;" x1="250.5522" x2="292.5522" y1="1049.6074" y2="1049.6074"/><line style="stroke:#A80036;stroke-width:1;stroke-dasharray:2,2;" x1="292.5522" x2="292.5522" y1="1049.6074" y2="1062.6074"/><line style="stroke:#A80036;stroke-width:1;stroke-dasharray:2,2;" x1="245.5522" x2="292.5522" y1="1062.6074" y2="1062.6074"/><polygon fill="#A80036" points="255.5522,1058.6074,245.5522,1062.6074,255.5522,1066.6074,251.5522,1062.6074" style="stroke:#A80036;stroke-width:1;"/></g><g class="message" data-entity-1="part2" data-entity-2="part2" id="msg20"><line style="stroke:#A80036;stroke-width:1;stroke-dasharray:2,2;" x1="599.9653" x2="641.9653" y1="1076.6074" y2="1076.6074"/><line style="stroke:#A80036;stroke-width:1;stroke-dasharray:2,2;" x1="641.9653" x2="641.9653" y1="1076.6074" y2="1089.6074"/><line style="stroke:#A80036;stroke-width:1;stroke-dasharray:2,2;" x1="594.9653" x2="641.9653" y1="1089.6074" y2="1089.6074"/><polygon fill="#A80036" points="604.9653,1085.6074,594.9653,1089.6074,604.9653,1093.6074,600.9653,1089.6074" style="stroke:#A80036;stroke-width:1;"/></g><path d="M187,1099.6074 L254.166,1099.6074 L254.166,1106.918 L244.166,1116.918 L187,1116.918 L187,1099.6074" fill="#EEEEEE" style="stroke:#000000;stroke-width:1;"/><rect fill="none" height="77.9316" style="stroke:#000000;stroke-width:2;" width="464.6899" x="187" y="1099.6074"/><text fill="#000000" font-family="sans-serif" font-size="13" font-weight="bold" lengthAdjust="spacing" textLength="22.166" x="202" y="1113.1758">par</text><g class="message" data-entity-1="part1" data-entity-2="part2" id="msg21"><line style="stroke:#A80036;stroke-width:1;" x1="582.9653" x2="572.9653" y1="1138.2285" y2="1134.2285"/><line style="stroke:#A80036;stroke-width:1;" x1="582.9653" x2="572.9653" y1="1138.2285" y2="1142.2285"/><line style="stroke:#A80036;stroke-width:1;" x1="245.5522" x2="583.9653" y1="1138.2285" y2="1138.2285"/><text fill="#000000" font-family="sans-serif" font-size="13" lengthAdjust="spacing" textLength="217.3501" x="252.5522" y="1133.4863">ACK (Local sync directory is ready)</text></g><line style="stroke:#000000;stroke-width:1;stroke-dasharray:2,2;" x1="187" x2="651.6899" y1="1147.2285" y2="1147.2285"/><g class="message" data-entity-1="part2" data-entity-2="part1" id="msg22"><line style="stroke:#A80036;stroke-width:1;" x1="246.5522" x2="256.5522" y1="1169.5391" y2="1165.5391"/><line style="stroke:#A80036;stroke-width:1;" x1="246.5522" x2="256.5522" y1="1169.5391" y2="1173.5391"/><line style="stroke:#A80036;stroke-width:1;" x1="245.5522" x2="583.9653" y1="1169.5391" y2="1169.5391"/><text fill="#000000" font-family="sans-serif" font-size="13" lengthAdjust="spacing" textLength="232.5273" x="262.5522" y="1164.7969">ACK (Remote sync directory is ready)</text></g><g class="message" data-entity-1="part1" data-entity-2="part1" id="msg23"><line style="stroke:#A80036;stroke-width:1;" x1="245.5522" x2="292.5522" y1="1200.8496" y2="1200.8496"/><line style="stroke:#A80036;stroke-width:1;" x1="292.5522" x2="292.5522" y1="1200.8496" y2="1213.8496"/><line style="stroke:#A80036;stroke-width:1;" x1="251.5522" x2="292.5522" y1="1213.8496" y2="1213.8496"/><polygon fill="#A80036" points="261.5522,1209.8496,251.5522,1213.8496,261.5522,1217.8496,257.5522,1213.8496" style="stroke:#A80036;stroke-width:1;"/><text fill="#000000" font-family="sans-serif" font-size="13" lengthAdjust="spacing" textLength="72.7378" x="257.5522" y="1196.1074">psync_run()</text></g><g class="message" data-entity-1="part2" data-entity-2="part2" id="msg24"><line style="stroke:#A80036;stroke-width:1;" x1="594.9653" x2="641.9653" y1="1243.1602" y2="1243.1602"/><line style="stroke:#A80036;stroke-width:1;" x1="641.9653" x2="641.9653" y1="1243.1602" y2="1256.1602"/><line style="stroke:#A80036;stroke-width:1;" x1="600.9653" x2="641.9653" y1="1256.1602" y2="1256.1602"/><polygon fill="#A80036" points="610.9653,1252.1602,600.9653,1256.1602,610.9653,1260.1602,606.9653,1256.1602" style="stroke:#A80036;stroke-width:1;"/><text fill="#000000" font-family="sans-serif" font-size="13" lengthAdjust="spacing" textLength="72.7378" x="606.9653" y="1238.418">psync_run()</text></g><path d="M195,1274.1602 L195,1299.1602 L634,1299.1602 L634,1284.1602 L624,1274.1602 L195,1274.1602" fill="#FBFB77" filter="url(#f18qythd26ojuq)" style="stroke:#A80036;stroke-width:1;"/><path d="M624,1274.1602 L624,1284.1602 L634,1284.1602 L624,1274.1602" fill="#FBFB77" style="stroke:#A80036;stroke-width:1;"/><text fill="#000000" font-family="sans-serif" font-size="13" lengthAdjust="spacing" textLength="258.3242" x="279.1829" y="1291.7285">Create a file list within the sync directory</text><path d="M187,1315.4707 L254.166,1315.4707 L254.166,1322.7813 L244.166,1332.7813 L187,1332.7813 L187,1315.4707" fill="#EEEEEE" style="stroke:#000000;stroke-width:1;"/><rect fill="none" height="77.9316" style="stroke:#000000;stroke-width:2;" width="464.6899" x="187" y="1315.4707"/><text fill="#000000" font-family="sans-serif" font-size="13" font-weight="bold" lengthAdjust="spacing" textLength="22.166" x="202" y="1329.0391">par</text><g class="message" data-entity-1="part1" data-entity-2="part2" id="msg25"><line style="stroke:#A80036;stroke-width:1;" x1="587.9653" x2="577.9653" y1="1354.0918" y2="1350.0918"/><line style="stroke:#A80036;stroke-width:1;" x1="587.9653" x2="577.9653" y1="1354.0918" y2="1358.0918"/><line style="stroke:#A80036;stroke-width:1;" x1="250.5522" x2="588.9653" y1="1354.0918" y2="1354.0918"/><text fill="#000000" font-family="sans-serif" font-size="13" lengthAdjust="spacing" textLength="79.2822" x="257.5522" y="1349.3496">Local file list</text></g><line style="stroke:#000000;stroke-width:1;stroke-dasharray:2,2;" x1="187" x2="651.6899" y1="1363.0918" y2="1363.0918"/><g class="message" data-entity-1="part2" data-entity-2="part1" id="msg26"><line style="stroke:#A80036;stroke-width:1;" x1="251.5522" x2="261.5522" y1="1385.4023" y2="1381.4023"/><line style="stroke:#A80036;stroke-width:1;" x1="251.5522" x2="261.5522" y1="1385.4023" y2="1389.4023"/><line style="stroke:#A80036;stroke-width:1;" x1="250.5522" x2="588.9653" y1="1385.4023" y2="1385.4023"/><text fill="#000000" font-family="sans-serif" font-size="13" lengthAdjust="spacing" textLength="94.4595" x="267.5522" y="1380.6602">Remote file list</text></g><path d="M195,1405.4023 L195,1430.4023 L634,1430.4023 L634,1415.4023 L624,1405.4023 L195,1405.4023" fill="#FBFB77" filter="url(#f18qythd26ojuq)" style="stroke:#A80036;stroke-width:1;"/><path d="M624,1405.4023 L624,1415.4023 L634,1415.4023 L624,1405.4023" fill="#FBFB77" style="stroke:#A80036;stroke-width:1;"/><text fill="#000000" font-family="sans-serif" font-size="13" lengthAdjust="spacing" textLength="394.3291" x="211.1804" y="1422.9707">Create a post-sync file list from the Local and Remote file lists</text><path d="M195,1444.7129 L195,1469.7129 L634,1469.7129 L634,1454.7129 L624,1444.7129 L195,1444.7129" fill="#FBFB77" filter="url(#f18qythd26ojuq)" style="stroke:#A80036;stroke-width:1;"/><path d="M624,1444.7129 L624,1454.7129 L634,1454.7129 L624,1444.7129" fill="#FBFB77" style="stroke:#A80036;stroke-width:1;"/><text fill="#000000" font-family="sans-serif" font-size="13" lengthAdjust="spacing" textLength="360.8452" x="227.9224" y="1462.2813">Copy files to be uploaded to a temporary upload location</text><path d="M187,1486.0234 L254.166,1486.0234 L254.166,1493.334 L244.166,1503.334 L187,1503.334 L187,1486.0234" fill="#EEEEEE" style="stroke:#000000;stroke-width:1;"/><rect fill="none" height="77.9316" style="stroke:#000000;stroke-width:2;" width="464.6899" x="187" y="1486.0234"/><text fill="#000000" font-family="sans-serif" font-size="13" font-weight="bold" lengthAdjust="spacing" textLength="22.166" x="202" y="1499.5918">par</text><g class="message" data-entity-1="part1" data-entity-2="part2" id="msg27"><line style="stroke:#A80036;stroke-width:1;" x1="587.9653" x2="577.9653" y1="1524.6445" y2="1520.6445"/><line style="stroke:#A80036;stroke-width:1;" x1="587.9653" x2="577.9653" y1="1524.6445" y2="1528.6445"/><line style="stroke:#A80036;stroke-width:1;" x1="250.5522" x2="588.9653" y1="1524.6445" y2="1524.6445"/><text fill="#000000" font-family="sans-serif" font-size="13" lengthAdjust="spacing" textLength="304.1606" x="257.5522" y="1519.9023">Upload files from the temporary upload location</text></g><line style="stroke:#000000;stroke-width:1;stroke-dasharray:2,2;" x1="187" x2="651.6899" y1="1533.6445" y2="1533.6445"/><g class="message" data-entity-1="part2" data-entity-2="part1" id="msg28"><line style="stroke:#A80036;stroke-width:1;" x1="251.5522" x2="261.5522" y1="1555.9551" y2="1551.9551"/><line style="stroke:#A80036;stroke-width:1;" x1="251.5522" x2="261.5522" y1="1555.9551" y2="1559.9551"/><line style="stroke:#A80036;stroke-width:1;" x1="250.5522" x2="588.9653" y1="1555.9551" y2="1555.9551"/><text fill="#000000" font-family="sans-serif" font-size="13" lengthAdjust="spacing" textLength="310.4131" x="267.5522" y="1551.2129">Download files to a temporary download location</text></g><path d="M179,1575.9551 L179,1600.9551 L647,1600.9551 L647,1585.9551 L637,1575.9551 L179,1575.9551" fill="#FBFB77" filter="url(#f18qythd26ojuq)" style="stroke:#A80036;stroke-width:1;"/><path d="M637,1575.9551 L637,1585.9551 L647,1585.9551 L637,1575.9551" fill="#FBFB77" style="stroke:#A80036;stroke-width:1;"/><text fill="#000000" font-family="sans-serif" font-size="13" lengthAdjust="spacing" textLength="447.4907" x="185" y="1593.5234">Apply files from the temporary download location to the sync directory</text><g class="message" data-entity-1="part1" data-entity-2="part1" id="msg29"><line style="stroke:#A80036;stroke-width:1;stroke-dasharray:2,2;" x1="250.5522" x2="292.5522" y1="1621.2656" y2="1621.2656"/><line style="stroke:#A80036;stroke-width:1;stroke-dasharray:2,2;" x1="292.5522" x2="292.5522" y1="1621.2656" y2="1634.2656"/><line style="stroke:#A80036;stroke-width:1;stroke-dasharray:2,2;" x1="245.5522" x2="292.5522" y1="1634.2656" y2="1634.2656"/><polygon fill="#A80036" points="255.5522,1630.2656,245.5522,1634.2656,255.5522,1638.2656,251.5522,1634.2656" style="stroke:#A80036;stroke-width:1;"/></g><g class="message" data-entity-1="part2" data-entity-2="part2" id="msg30"><line style="stroke:#A80036;stroke-width:1;stroke-dasharray:2,2;" x1="599.9653" x2="641.9653" y1="1648.2656" y2="1648.2656"/><line style="stroke:#A80036;stroke-width:1;stroke-dasharray:2,2;" x1="641.9653" x2="641.9653" y1="1648.2656" y2="1661.2656"/><line style="stroke:#A80036;stroke-width:1;stroke-dasharray:2,2;" x1="594.9653" x2="641.9653" y1="1661.2656" y2="1661.2656"/><polygon fill="#A80036" points="604.9653,1657.2656,594.9653,1661.2656,604.9653,1665.2656,600.9653,1661.2656" style="stroke:#A80036;stroke-width:1;"/></g><g class="message" data-entity-1="part1" data-entity-2="part1" id="msg31"><line style="stroke:#A80036;stroke-width:1;" x1="245.5522" x2="292.5522" y1="1680.5762" y2="1680.5762"/><line style="stroke:#A80036;stroke-width:1;" x1="292.5522" x2="292.5522" y1="1680.5762" y2="1693.5762"/><line style="stroke:#A80036;stroke-width:1;" x1="251.5522" x2="292.5522" y1="1693.5762" y2="1693.5762"/><polygon fill="#A80036" points="261.5522,1689.5762,251.5522,1693.5762,261.5522,1697.5762,257.5522,1693.5762" style="stroke:#A80036;stroke-width:1;"/><text fill="#000000" font-family="sans-serif" font-size="13" lengthAdjust="spacing" textLength="75.8672" x="257.5522" y="1675.834">psync_free()</text></g><g class="message" data-entity-1="part2" data-entity-2="part2" id="msg32"><line style="stroke:#A80036;stroke-width:1;" x1="594.9653" x2="641.9653" y1="1722.8867" y2="1722.8867"/><line style="stroke:#A80036;stroke-width:1;" x1="641.9653" x2="641.9653" y1="1722.8867" y2="1735.8867"/><line style="stroke:#A80036;stroke-width:1;" x1="600.9653" x2="641.9653" y1="1735.8867" y2="1735.8867"/><polygon fill="#A80036" points="610.9653,1731.8867,600.9653,1735.8867,610.9653,1739.8867,606.9653,1735.8867" style="stroke:#A80036;stroke-width:1;"/><text fill="#000000" font-family="sans-serif" font-size="13" lengthAdjust="spacing" textLength="75.8672" x="606.9653" y="1718.1445">psync_free()</text></g><path d="M195,1753.8867 L195,1778.8867 L634,1778.8867 L634,1763.8867 L624,1753.8867 L195,1753.8867" fill="#FBFB77" filter="url(#f18qythd26ojuq)" style="stroke:#A80036;stroke-width:1;"/><path d="M624,1753.8867 L624,1763.8867 L634,1763.8867 L624,1753.8867" fill="#FBFB77" style="stroke:#A80036;stroke-width:1;"/><text fill="#000000" font-family="sans-serif" font-size="13" lengthAdjust="spacing" textLength="301.0249" x="257.8325" y="1771.4551">Release the exclusive lock on the sync directory</text><g class="message" data-entity-1="part1" data-entity-2="part1" id="msg33"><line style="stroke:#A80036;stroke-width:1;stroke-dasharray:2,2;" x1="250.5522" x2="292.5522" y1="1799.1973" y2="1799.1973"/><line style="stroke:#A80036;stroke-width:1;stroke-dasharray:2,2;" x1="292.5522" x2="292.5522" y1="1799.1973" y2="1812.1973"/><line style="stroke:#A80036;stroke-width:1;stroke-dasharray:2,2;" x1="245.5522" x2="292.5522" y1="1812.1973" y2="1812.1973"/><polygon fill="#A80036" points="255.5522,1808.1973,245.5522,1812.1973,255.5522,1816.1973,251.5522,1812.1973" style="stroke:#A80036;stroke-width:1;"/></g><g class="message" data-entity-1="part2" data-entity-2="part2" id="msg34"><line style="stroke:#A80036;stroke-width:1;stroke-dasharray:2,2;" x1="599.9653" x2="641.9653" y1="1826.1973" y2="1826.1973"/><line style="stroke:#A80036;stroke-width:1;stroke-dasharray:2,2;" x1="641.9653" x2="641.9653" y1="1826.1973" y2="1839.1973"/><line style="stroke:#A80036;stroke-width:1;stroke-dasharray:2,2;" x1="594.9653" x2="641.9653" y1="1839.1973" y2="1839.1973"/><polygon fill="#A80036" points="604.9653,1835.1973,594.9653,1839.1973,604.9653,1843.1973,600.9653,1839.1973" style="stroke:#A80036;stroke-width:1;"/></g><g class="message" data-entity-1="part1" data-entity-2="part1" id="msg35"><line style="stroke:#A80036;stroke-width:1;stroke-dasharray:2,2;" x1="245.5522" x2="287.5522" y1="1860.1973" y2="1860.1973"/><line style="stroke:#A80036;stroke-width:1;stroke-dasharray:2,2;" x1="287.5522" x2="287.5522" y1="1860.1973" y2="1873.1973"/><line style="stroke:#A80036;stroke-width:1;stroke-dasharray:2,2;" x1="240.5522" x2="287.5522" y1="1873.1973" y2="1873.1973"/><polygon fill="#A80036" points="250.5522,1869.1973,240.5522,1873.1973,250.5522,1877.1973,246.5522,1873.1973" style="stroke:#A80036;stroke-width:1;"/></g><g class="message" data-entity-1="part2" data-entity-2="part2" id="msg36"><line style="stroke:#A80036;stroke-width:1;stroke-dasharray:2,2;" x1="594.9653" x2="636.9653" y1="1887.1973" y2="1887.1973"/><line style="stroke:#A80036;stroke-width:1;stroke-dasharray:2,2;" x1="636.9653" x2="636.9653" y1="1887.1973" y2="1900.1973"/><line style="stroke:#A80036;stroke-width:1;stroke-dasharray:2,2;" x1="589.9653" x2="636.9653" y1="1900.1973" y2="1900.1973"/><polygon fill="#A80036" points="599.9653,1896.1973,589.9653,1900.1973,599.9653,1904.1973,595.9653,1900.1973" style="stroke:#A80036;stroke-width:1;"/></g><g class="message" data-entity-1="part2" data-entity-2="part2" id="msg37"><line style="stroke:#A80036;stroke-width:1;" x1="589.9653" x2="636.9653" y1="1919.5078" y2="1919.5078"/><line style="stroke:#A80036;stroke-width:1;" x1="636.9653" x2="636.9653" y1="1919.5078" y2="1932.5078"/><line style="stroke:#A80036;stroke-width:1;" x1="595.9653" x2="636.9653" y1="1932.5078" y2="1932.5078"/><polygon fill="#A80036" points="605.9653,1928.5078,595.9653,1932.5078,605.9653,1936.5078,601.9653,1932.5078" style="stroke:#A80036;stroke-width:1;"/><text fill="#000000" font-family="sans-serif" font-size="13" lengthAdjust="spacing" textLength="62.5308" x="601.9653" y="1914.7656">psp_free()</text></g><g class="message" data-entity-1="part2" data-entity-2="part2" id="msg38"><line style="stroke:#A80036;stroke-width:1;stroke-dasharray:2,2;" x1="594.9653" x2="636.9653" y1="1956.5078" y2="1956.5078"/><line style="stroke:#A80036;stroke-width:1;stroke-dasharray:2,2;" x1="636.9653" x2="636.9653" y1="1956.5078" y2="1969.5078"/><line style="stroke:#A80036;stroke-width:1;stroke-dasharray:2,2;" x1="589.9653" x2="636.9653" y1="1969.5078" y2="1969.5078"/><polygon fill="#A80036" points="599.9653,1965.5078,589.9653,1969.5078,599.9653,1973.5078,595.9653,1969.5078" style="stroke:#A80036;stroke-width:1;"/></g><g class="message" data-entity-1="part1" data-entity-2="part2" id="msg39"><line style="stroke:#A80036;stroke-width:1;" x1="587.9653" x2="577.9653" y1="1993.8184" y2="1989.8184"/><line style="stroke:#A80036;stroke-width:1;" x1="587.9653" x2="577.9653" y1="1993.8184" y2="1997.8184"/><line style="stroke:#A80036;stroke-width:1;stroke-dasharray:2,2;" x1="240.5522" x2="588.9653" y1="1993.8184" y2="1993.8184"/><text fill="#000000" font-family="sans-serif" font-size="13" lengthAdjust="spacing" textLength="69.6655" x="247.5522" y="1989.0762">Disconnect</text></g><line style="stroke:#A80036;stroke-width:1;stroke-dasharray:5,5;" x1="580.9653" x2="598.9653" y1="1984.8184" y2="2002.8184"/><line style="stroke:#A80036;stroke-width:1;stroke-dasharray:5,5;" x1="580.9653" x2="598.9653" y1="2002.8184" y2="1984.8184"/><g class="message" data-entity-1="part1" data-entity-2="part1" id="msg40"><line style="stroke:#A80036;stroke-width:1;" x1="240.5522" x2="287.5522" y1="2018.1289" y2="2018.1289"/><line style="stroke:#A80036;stroke-width:1;" x1="287.5522" x2="287.5522" y1="2018.1289" y2="2031.1289"/><line style="stroke:#A80036;stroke-width:1;" x1="246.5522" x2="287.5522" y1="2031.1289" y2="2031.1289"/><polygon fill="#A80036" points="256.5522,2027.1289,246.5522,2031.1289,256.5522,2035.1289,252.5522,2031.1289" style="stroke:#A80036;stroke-width:1;"/><text fill="#000000" font-family="sans-serif" font-size="13" lengthAdjust="spacing" textLength="62.5308" x="252.5522" y="2013.3867">psp_free()</text></g><g class="message" data-entity-1="part1" data-entity-2="part1" id="msg41"><line style="stroke:#A80036;stroke-width:1;stroke-dasharray:2,2;" x1="245.5522" x2="287.5522" y1="2055.1289" y2="2055.1289"/><line style="stroke:#A80036;stroke-width:1;stroke-dasharray:2,2;" x1="287.5522" x2="287.5522" y1="2055.1289" y2="2068.1289"/><line style="stroke:#A80036;stroke-width:1;stroke-dasharray:2,2;" x1="240.5522" x2="287.5522" y1="2068.1289" y2="2068.1289"/><polygon fill="#A80036" points="250.5522,2064.1289,240.5522,2068.1289,250.5522,2072.1289,246.5522,2068.1289" style="stroke:#A80036;stroke-width:1;"/></g><?plantuml-src pLQnRjim4Dtv5TSiTfFQ6RePGO3KwH0qQ0idsG8Kj4J7H6YI8UaaNZhs1xfsw8zqwQVq1_eBFOgqPCkop205MaqIUVVkxhtZYOuxmK1VwDUWZN8gKu8GUyib66KPwVXNJGsTmHkQtTuODPVvK0bbm1agBMunwSYKvmmcIhcnUYG45ntFkARImTwvogY0gR9k3wW5uJ_NBKPifXohJ4pnJSXXXyIjYylJi_T0PUxVFbnTajy_li7Q4w9OTZTdCcER-niB4Rdq-FNbwxe1DAyGw1oIsdee2dh7yUNWO03Qwa-IFNHVRZCkhNiz8fJIgQ2PaXD-K-1ANu6wPoQo6eYWkGKtPI2uTQ0cO1SoWvmRbZbb5WMBWewP04sviJ0nQlRp-_NdmxxsbdsFZqWCpJn-IlfeIwfSedmGL1iWqndZzmmZSUoqd3eQzb370LoWxyREsz5ekMCTTNCRzigKoXIEOp3Otn_0K4c9DLxBhhLJwFVxq2agGiDWrTdKelv4k5u9t2xbDlVA7zdnb3N8cnnwHV1LoKkQ_wRgBRedrkfx8R6JpLnsdo79qXrd2LcDiZGSmCSuqE3iT83DW3EkupCKbgqu71trTZaK9MqFSnuf3pi5oxOzpj8ZLbIv595yk_XKCcPjAI7t1mYdBXK2PjHbKovleYCe2MFbfd48Ugb7gysnKmfiWCG6toh7EaHjCBrQRzQJx6wELM6Ym1upCRSu7RpXhI_4z_1wx-vgouQ1b5v6hNihcPk4FXc-WsxyqwmVB-x_MZHVXF9BvPkqBq2MVvzMb8QJr29Wscbg5R22Q1TmY5dYFWrpkvWu3znXHoQfryPm8BU4tSrc9BBc4PbBh4BZnQDNP5tLu-TZKKtzJ5KsThEq7G6LNXJkEAaLZ1dCjS2vpNB_IS6ncLQ6OX-4zGB3SIMVHk5LS0vnoZ9sWBTHVAeUv0faBTTykLlFDcKGQ2qMspFTWFQn__LyI3oD4yFOSu_Z2aOxZoCc6BMiuEP_cwWjzu6du2VgaNXrI5IdCUZcvVF52pmat6RX_fbw-zcIGmCtVm00?></g></svg>