<svg xmlns="http://www.w3.org/2000/svg" xmlns:xlink="http://www.w3.org/1999/xlink" contentStyleType="text/css" data-diagram-type="EBNF" height="814px" preserveAspectRatio="none" style="width:1407px;height:814px;background:#FFFFFF;" version="1.1" viewBox="0 0 1407 814" width="1407px" zoomAndPan="magnify"><title>&#36914;&#25431;&#29366;&#27841;&#20986;&#21147;&#12501;&#12457;&#12540;&#12510;&#12483;&#12488;</title><defs><filter height="300%" id="f1h57fttev1yve" width="300%" x="-1" y="-1"><feGaussianBlur result="blurOut" stdDeviation="2"/><feColorMatrix in="blurOut" result="blurOut2" type="matrix" values="0 0 0 0 0 0 0 0 0 0 0 0 0 0 0 0 0 0 .4 0"/><feOffset dx="4" dy="4" in="blurOut2" result="blurOut3"/><feBlend in="SourceGraphic" in2="blurOut3" mode="normal"/></filter></defs><g><text fill="#000000" font-family="sans-serif" font-size="14" font-weight="bold" lengthAdjust="spacing" textLength="168" x="616.6099" y="33.5352">&#36914;&#25431;&#29366;&#27841;&#20986;&#21147;&#12501;&#12457;&#12540;&#12510;&#12483;&#12488;</text><path d="M10,52.4883 L10,77.7988 L664.1597,77.7988 L664.1597,62.4883 L654.1597,52.4883 L10,52.4883" fill="#FBFB77" filter="url(#f1h57fttev1yve)" style="stroke:#A80036;stroke-width:1;"/><path d="M654.1597,52.4883 L654.1597,62.4883 L664.1597,62.4883 L654.1597,52.4883" fill="#FBFB77" style="stroke:#A80036;stroke-width:1;"/><text fill="#000000" font-family="sans-serif" font-size="13" lengthAdjust="spacing" textLength="633.1597" x="16" y="70.0566">info &#12395;&#12501;&#12449;&#12452;&#12523;&#12487;&#12451;&#12473;&#12463;&#12522;&#12503;&#12479;&#12434;&#35373;&#23450;&#12377;&#12427;&#12392;&#21516;&#26399;&#20966;&#29702;&#12398;&#36914;&#25431;&#29366;&#27841;&#12364;ASCII&#25991;&#23383;&#21015;&#12391;&#12522;&#12450;&#12523;&#12479;&#12452;&#12512;&#12395;&#20986;&#21147;&#12373;&#12428;&#12427;</text><text fill="#000000" font-family="sans-serif" font-size="14" font-weight="bold" lengthAdjust="spacing" textLength="56" x="10" y="106.334">&#36914;&#25431;&#29366;&#27841;</text><path d="M48,148.5313 C48,154.5313 50,156.5313 56,156.5313" fill="none" style="stroke:#A80036;stroke-width:1.5;"/><line style="stroke:#A80036;stroke-width:1.5;" x1="48" x2="48" y1="132.2871" y2="148.5313"/><path d="M48,132.2871 C48,126.2871 50,124.2871 56,124.2871" fill="none" style="stroke:#A80036;stroke-width:1.5;"/><line style="stroke:#A80036;stroke-width:1.5;" x1="55" x2="1347.2197" y1="124.2871" y2="124.2871"/><path d="M828.3318,124.2871 L828.3318,121.2871 L822.3318,124.2871 L828.3318,127.2871 L828.3318,124.2871" fill="#A80036" style="stroke:#A80036;stroke-width:1.5;"/><path d="M1354.2197,148.5313 C1354.2197,154.5313 1352.2197,156.5313 1346.2197,156.5313" fill="none" style="stroke:#A80036;stroke-width:1.5;"/><line style="stroke:#A80036;stroke-width:1.5;" x1="1354.2197" x2="1354.2197" y1="132.2871" y2="148.5313"/><path d="M1346.2197,124.2871 C1352.2197,124.2871 1354.2197,126.2871 1354.2197,132.2871" fill="none" style="stroke:#A80036;stroke-width:1.5;"/><line style="stroke:#A80036;stroke-width:1.5;" x1="40" x2="55" y1="156.5313" y2="156.5313"/><line style="stroke:#A80036;stroke-width:1.5;" x1="1347.2197" x2="1362.2197" y1="156.5313" y2="156.5313"/><line style="stroke:#A80036;stroke-width:1.5;" x1="55" x2="55" y1="156.5313" y2="156.5313"/><rect fill="none" height="26.4883" style="stroke:#A80036;stroke-width:0.5;" width="14.5527" x="129.7236" y="143.2871"/><text fill="#000000" font-family="sans-serif" font-size="14" lengthAdjust="spacing" textLength="4.5527" x="134.7236" y="161.8223">[</text><path d="M55,189.7754 L55,215.0859 A0,0 0 0 0 55,215.0859 L219,215.0859 A0,0 0 0 0 219,215.0859 L219,199.7754 L209,189.7754 L141,189.7754 L137,169.7754 L133,189.7754 L55,189.7754 A0,0 0 0 0 55,189.7754" fill="#FBFB77" filter="url(#f1h57fttev1yve)" style="stroke:#A80036;stroke-width:1;"/><path d="M209,189.7754 L209,199.7754 L219,199.7754 L209,189.7754" fill="#FBFB77" style="stroke:#A80036;stroke-width:1;"/><text fill="#000000" font-family="sans-serif" font-size="13" lengthAdjust="spacing" textLength="143" x="61" y="207.3438">&#12487;&#12451;&#12524;&#12463;&#12488;&#12522;&#12398;&#21516;&#26399;&#38283;&#22987;</text><line style="stroke:#A80036;stroke-width:1.5;" x1="55" x2="129.7236" y1="156.5313" y2="156.5313"/><path d="M90.3618,156.5313 L90.3618,153.5313 L96.3618,156.5313 L90.3618,159.5313 L90.3618,156.5313" fill="#A80036" style="stroke:#A80036;stroke-width:1.5;"/><line style="stroke:#A80036;stroke-width:1.5;" x1="144.2764" x2="219" y1="156.5313" y2="156.5313"/><path d="M179.6382,156.5313 L179.6382,153.5313 L185.6382,156.5313 L179.6382,159.5313 L179.6382,156.5313" fill="#A80036" style="stroke:#A80036;stroke-width:1.5;"/><line style="stroke:#A80036;stroke-width:1.5;" x1="219" x2="239" y1="156.5313" y2="156.5313"/><rect fill="#FEFECE" height="26.4883" rx="5" ry="5" style="stroke:#A80036;stroke-width:1.5;" width="136" x="239" y="143.2871"/><text fill="#000000" font-family="sans-serif" font-size="14" lengthAdjust="spacing" textLength="126" x="244" y="161.8223">&#12487;&#12451;&#12524;&#12463;&#12488;&#12522;&#35672;&#21029;&#21517;</text><line style="stroke:#A80036;stroke-width:1.5;" x1="375" x2="395" y1="156.5313" y2="156.5313"/><rect fill="none" height="26.4883" style="stroke:#A80036;stroke-width:0.5;" width="26.0303" x="395" y="143.2871"/><text fill="#000000" font-family="sans-serif" font-size="14" lengthAdjust="spacing" textLength="16.0303" x="400" y="161.8223">\n</text><line style="stroke:#A80036;stroke-width:1.5;" x1="421.0303" x2="441.0303" y1="156.5313" y2="156.5313"/><path d="M449.0303,148.5313 C449.0303,154.5313 451.0303,156.5313 457.0303,156.5313" fill="none" style="stroke:#A80036;stroke-width:1.5;"/><line style="stroke:#A80036;stroke-width:1.5;" x1="449.0303" x2="449.0303" y1="144.2871" y2="148.5313"/><path d="M449.0303,144.2871 C449.0303,138.2871 451.0303,136.2871 457.0303,136.2871" fill="none" style="stroke:#A80036;stroke-width:1.5;"/><line style="stroke:#A80036;stroke-width:1.5;" x1="456.0303" x2="1102.1895" y1="136.2871" y2="136.2871"/><path d="M841.7258,136.2871 L841.7258,133.2871 L835.7258,136.2871 L841.7258,139.2871 L841.7258,136.2871" fill="#A80036" style="stroke:#A80036;stroke-width:1.5;"/><path d="M1109.1895,148.5313 C1109.1895,154.5313 1107.1895,156.5313 1101.1895,156.5313" fill="none" style="stroke:#A80036;stroke-width:1.5;"/><line style="stroke:#A80036;stroke-width:1.5;" x1="1109.1895" x2="1109.1895" y1="144.2871" y2="148.5313"/><path d="M1101.1895,136.2871 C1107.1895,136.2871 1109.1895,138.2871 1109.1895,144.2871" fill="none" style="stroke:#A80036;stroke-width:1.5;"/><line style="stroke:#A80036;stroke-width:1.5;" x1="441.0303" x2="456.0303" y1="156.5313" y2="156.5313"/><line style="stroke:#A80036;stroke-width:1.5;" x1="1102.1895" x2="1117.1895" y1="156.5313" y2="156.5313"/><line style="stroke:#A80036;stroke-width:1.5;" x1="456.0303" x2="456.0303" y1="156.5313" y2="156.5313"/><line style="stroke:#A80036;stroke-width:1.5;" x1="480.0303" x2="480.0303" y1="156.5313" y2="156.5313"/><rect fill="none" height="26.4883" style="stroke:#A80036;stroke-width:0.5;" width="17.54" x="559.7603" y="143.2871"/><text fill="#000000" font-family="sans-serif" font-size="14" lengthAdjust="spacing" textLength="7.54" x="564.7603" y="161.8223">S</text><path d="M480.0303,189.7754 L480.0303,215.0859 A0,0 0 0 0 480.0303,215.0859 L657.0303,215.0859 A0,0 0 0 0 657.0303,215.0859 L657.0303,199.7754 L647.0303,189.7754 L572.5303,189.7754 L568.5303,169.7754 L564.5303,189.7754 L480.0303,189.7754 A0,0 0 0 0 480.0303,189.7754" fill="#FBFB77" filter="url(#f1h57fttev1yve)" style="stroke:#A80036;stroke-width:1;"/><path d="M647.0303,189.7754 L647.0303,199.7754 L657.0303,199.7754 L647.0303,189.7754" fill="#FBFB77" style="stroke:#A80036;stroke-width:1;"/><text fill="#000000" font-family="sans-serif" font-size="13" lengthAdjust="spacing" textLength="156" x="486.0303" y="207.3438">&#21516;&#26399;&#23550;&#35937;&#12501;&#12449;&#12452;&#12523;&#12398;&#26908;&#32034;&#20013;</text><line style="stroke:#A80036;stroke-width:1.5;" x1="480.0303" x2="559.7603" y1="156.5313" y2="156.5313"/><path d="M517.8953,156.5313 L517.8953,153.5313 L523.8953,156.5313 L517.8953,159.5313 L517.8953,156.5313" fill="#A80036" style="stroke:#A80036;stroke-width:1.5;"/><line style="stroke:#A80036;stroke-width:1.5;" x1="577.3003" x2="657.0303" y1="156.5313" y2="156.5313"/><path d="M615.1653,156.5313 L615.1653,153.5313 L621.1653,156.5313 L615.1653,159.5313 L615.1653,156.5313" fill="#A80036" style="stroke:#A80036;stroke-width:1.5;"/><line style="stroke:#A80036;stroke-width:1.5;" x1="657.0303" x2="677.0303" y1="156.5313" y2="156.5313"/><rect fill="none" height="26.4883" style="stroke:#A80036;stroke-width:0.5;" width="21.1289" x="677.0303" y="143.2871"/><text fill="#000000" font-family="sans-serif" font-size="14" lengthAdjust="spacing" textLength="11.1289" x="682.0303" y="161.8223">+</text><line style="stroke:#A80036;stroke-width:1.5;" x1="698.1592" x2="718.1592" y1="156.5313" y2="156.5313"/><rect fill="#FEFECE" height="26.4883" rx="5" ry="5" style="stroke:#A80036;stroke-width:1.5;" width="192" x="718.1592" y="143.2871"/><text fill="#000000" font-family="sans-serif" font-size="14" lengthAdjust="spacing" textLength="182" x="723.1592" y="161.8223">&#26908;&#32034;&#28168;&#12415;&#21516;&#26399;&#23550;&#35937;&#12501;&#12449;&#12452;&#12523;&#25968;</text><line style="stroke:#A80036;stroke-width:1.5;" x1="456.0303" x2="480.0303" y1="156.5313" y2="156.5313"/><line style="stroke:#A80036;stroke-width:1.5;" x1="910.1592" x2="1056.1592" y1="156.5313" y2="156.5313"/><line style="stroke:#A80036;stroke-width:1.5;" x1="480.0303" x2="480.0303" y1="238.3301" y2="238.3301"/><rect fill="none" height="26.4883" style="stroke:#A80036;stroke-width:0.5;" width="19.7002" x="584.6802" y="225.0859"/><text fill="#000000" font-family="sans-serif" font-size="14" lengthAdjust="spacing" textLength="9.7002" x="589.6802" y="243.6211">U</text><path d="M480.0303,271.5742 L480.0303,296.8848 A0,0 0 0 0 480.0303,296.8848 L709.0303,296.8848 A0,0 0 0 0 709.0303,296.8848 L709.0303,281.5742 L699.0303,271.5742 L598.5303,271.5742 L594.5303,251.5742 L590.5303,271.5742 L480.0303,271.5742 A0,0 0 0 0 480.0303,271.5742" fill="#FBFB77" filter="url(#f1h57fttev1yve)" style="stroke:#A80036;stroke-width:1;"/><path d="M699.0303,271.5742 L699.0303,281.5742 L709.0303,281.5742 L699.0303,271.5742" fill="#FBFB77" style="stroke:#A80036;stroke-width:1;"/><text fill="#000000" font-family="sans-serif" font-size="13" lengthAdjust="spacing" textLength="208" x="486.0303" y="289.1426">&#21516;&#26399;&#12501;&#12449;&#12452;&#12523;&#12398;&#12450;&#12483;&#12503;&#12525;&#12540;&#12489;&#28310;&#20633;&#20013;</text><line style="stroke:#A80036;stroke-width:1.5;" x1="480.0303" x2="584.6802" y1="238.3301" y2="238.3301"/><path d="M530.3552,238.3301 L530.3552,235.3301 L536.3552,238.3301 L530.3552,241.3301 L530.3552,238.3301" fill="#A80036" style="stroke:#A80036;stroke-width:1.5;"/><line style="stroke:#A80036;stroke-width:1.5;" x1="604.3804" x2="709.0303" y1="238.3301" y2="238.3301"/><path d="M654.7053,238.3301 L654.7053,235.3301 L660.7053,238.3301 L654.7053,241.3301 L654.7053,238.3301" fill="#A80036" style="stroke:#A80036;stroke-width:1.5;"/><line style="stroke:#A80036;stroke-width:1.5;" x1="709.0303" x2="729.0303" y1="238.3301" y2="238.3301"/><rect fill="none" height="26.4883" style="stroke:#A80036;stroke-width:0.5;" width="21.1289" x="729.0303" y="225.0859"/><text fill="#000000" font-family="sans-serif" font-size="14" lengthAdjust="spacing" textLength="11.1289" x="734.0303" y="243.6211">+</text><line style="stroke:#A80036;stroke-width:1.5;" x1="750.1592" x2="770.1592" y1="238.3301" y2="238.3301"/><rect fill="#FEFECE" height="26.4883" rx="5" ry="5" style="stroke:#A80036;stroke-width:1.5;" width="262" x="770.1592" y="225.0859"/><text fill="#000000" font-family="sans-serif" font-size="14" lengthAdjust="spacing" textLength="252" x="775.1592" y="243.6211">&#12450;&#12483;&#12503;&#12525;&#12540;&#12489;&#12377;&#12427;&#12501;&#12449;&#12452;&#12523;&#12469;&#12452;&#12474;&#12398;&#21512;&#35336;</text><path d="M468.0303,226.3301 C468.0303,235.3301 471.0303,238.3301 480.0303,238.3301" fill="none" style="stroke:#A80036;stroke-width:1.5;"/><line style="stroke:#A80036;stroke-width:1.5;" x1="1032.1592" x2="1032.1592" y1="238.3301" y2="238.3301"/><path d="M1044.1592,226.3301 C1044.1592,235.3301 1041.1592,238.3301 1032.1592,238.3301" fill="none" style="stroke:#A80036;stroke-width:1.5;"/><line style="stroke:#A80036;stroke-width:1.5;" x1="480.0303" x2="480.0303" y1="320.1289" y2="320.1289"/><rect fill="none" height="26.4883" style="stroke:#A80036;stroke-width:0.5;" width="20.4863" x="571.2871" y="306.8848"/><text fill="#000000" font-family="sans-serif" font-size="14" lengthAdjust="spacing" textLength="10.4863" x="576.2871" y="325.4199">D</text><path d="M480.0303,353.373 L480.0303,378.6836 A0,0 0 0 0 480.0303,378.6836 L683.0303,378.6836 A0,0 0 0 0 683.0303,378.6836 L683.0303,363.373 L673.0303,353.373 L585.5303,353.373 L581.5303,333.373 L577.5303,353.373 L480.0303,353.373 A0,0 0 0 0 480.0303,353.373" fill="#FBFB77" filter="url(#f1h57fttev1yve)" style="stroke:#A80036;stroke-width:1;"/><path d="M673.0303,353.373 L673.0303,363.373 L683.0303,363.373 L673.0303,353.373" fill="#FBFB77" style="stroke:#A80036;stroke-width:1;"/><text fill="#000000" font-family="sans-serif" font-size="13" lengthAdjust="spacing" textLength="182" x="486.0303" y="370.9414">&#21516;&#26399;&#12501;&#12449;&#12452;&#12523;&#12398;&#12480;&#12454;&#12531;&#12525;&#12540;&#12489;&#20013;</text><line style="stroke:#A80036;stroke-width:1.5;" x1="480.0303" x2="571.2871" y1="320.1289" y2="320.1289"/><path d="M523.6587,320.1289 L523.6587,317.1289 L529.6587,320.1289 L523.6587,323.1289 L523.6587,320.1289" fill="#A80036" style="stroke:#A80036;stroke-width:1.5;"/><line style="stroke:#A80036;stroke-width:1.5;" x1="591.7734" x2="683.0303" y1="320.1289" y2="320.1289"/><path d="M635.4019,320.1289 L635.4019,317.1289 L641.4019,320.1289 L635.4019,323.1289 L635.4019,320.1289" fill="#A80036" style="stroke:#A80036;stroke-width:1.5;"/><line style="stroke:#A80036;stroke-width:1.5;" x1="683.0303" x2="703.0303" y1="320.1289" y2="320.1289"/><rect fill="none" height="26.4883" style="stroke:#A80036;stroke-width:0.5;" width="21.1289" x="703.0303" y="306.8848"/><text fill="#000000" font-family="sans-serif" font-size="14" lengthAdjust="spacing" textLength="11.1289" x="708.0303" y="325.4199">+</text><line style="stroke:#A80036;stroke-width:1.5;" x1="724.1592" x2="744.1592" y1="320.1289" y2="320.1289"/><rect fill="#FEFECE" height="26.4883" rx="5" ry="5" style="stroke:#A80036;stroke-width:1.5;" width="262" x="744.1592" y="306.8848"/><text fill="#000000" font-family="sans-serif" font-size="14" lengthAdjust="spacing" textLength="252" x="749.1592" y="325.4199">&#12480;&#12454;&#12531;&#12525;&#12540;&#12489;&#28168;&#12415;&#12501;&#12449;&#12452;&#12523;&#12469;&#12452;&#12474;&#12398;&#21512;&#35336;</text><path d="M468.0303,308.1289 C468.0303,317.1289 471.0303,320.1289 480.0303,320.1289" fill="none" style="stroke:#A80036;stroke-width:1.5;"/><line style="stroke:#A80036;stroke-width:1.5;" x1="1006.1592" x2="1032.1592" y1="320.1289" y2="320.1289"/><path d="M1017.1592,320.1289 L1017.1592,317.1289 L1023.1592,320.1289 L1017.1592,323.1289 L1017.1592,320.1289" fill="#A80036" style="stroke:#A80036;stroke-width:1.5;"/><path d="M1044.1592,308.1289 C1044.1592,317.1289 1041.1592,320.1289 1032.1592,320.1289" fill="none" style="stroke:#A80036;stroke-width:1.5;"/><line style="stroke:#A80036;stroke-width:1.5;" x1="480.0303" x2="480.0303" y1="401.9277" y2="401.9277"/><rect fill="none" height="26.4883" style="stroke:#A80036;stroke-width:0.5;" width="18.8525" x="533.104" y="388.6836"/><text fill="#000000" font-family="sans-serif" font-size="14" lengthAdjust="spacing" textLength="8.8525" x="538.104" y="407.2188">R</text><path d="M480.0303,435.1719 L480.0303,460.4824 A0,0 0 0 0 480.0303,460.4824 L605.0303,460.4824 A0,0 0 0 0 605.0303,460.4824 L605.0303,445.1719 L595.0303,435.1719 L546.5303,435.1719 L542.5303,415.1719 L538.5303,435.1719 L480.0303,435.1719 A0,0 0 0 0 480.0303,435.1719" fill="#FBFB77" filter="url(#f1h57fttev1yve)" style="stroke:#A80036;stroke-width:1;"/><path d="M595.0303,435.1719 L595.0303,445.1719 L605.0303,445.1719 L595.0303,435.1719" fill="#FBFB77" style="stroke:#A80036;stroke-width:1;"/><text fill="#000000" font-family="sans-serif" font-size="13" lengthAdjust="spacing" textLength="104" x="486.0303" y="452.7402">&#12501;&#12449;&#12452;&#12523;&#12398;&#21066;&#38500;&#20013;</text><line style="stroke:#A80036;stroke-width:1.5;" x1="480.0303" x2="533.104" y1="401.9277" y2="401.9277"/><path d="M504.5671,401.9277 L504.5671,398.9277 L510.5671,401.9277 L504.5671,404.9277 L504.5671,401.9277" fill="#A80036" style="stroke:#A80036;stroke-width:1.5;"/><line style="stroke:#A80036;stroke-width:1.5;" x1="551.9565" x2="605.0303" y1="401.9277" y2="401.9277"/><path d="M576.4934,401.9277 L576.4934,398.9277 L582.4934,401.9277 L576.4934,404.9277 L576.4934,401.9277" fill="#A80036" style="stroke:#A80036;stroke-width:1.5;"/><line style="stroke:#A80036;stroke-width:1.5;" x1="605.0303" x2="625.0303" y1="401.9277" y2="401.9277"/><rect fill="none" height="26.4883" style="stroke:#A80036;stroke-width:0.5;" width="21.1289" x="625.0303" y="388.6836"/><text fill="#000000" font-family="sans-serif" font-size="14" lengthAdjust="spacing" textLength="11.1289" x="630.0303" y="407.2188">+</text><line style="stroke:#A80036;stroke-width:1.5;" x1="646.1592" x2="666.1592" y1="401.9277" y2="401.9277"/><rect fill="#FEFECE" height="26.4883" rx="5" ry="5" style="stroke:#A80036;stroke-width:1.5;" width="136" x="666.1592" y="388.6836"/><text fill="#000000" font-family="sans-serif" font-size="14" lengthAdjust="spacing" textLength="126" x="671.1592" y="407.2188">&#21066;&#38500;&#28168;&#12415;&#12501;&#12449;&#12452;&#12523;&#25968;</text><path d="M468.0303,389.9277 C468.0303,398.9277 471.0303,401.9277 480.0303,401.9277" fill="none" style="stroke:#A80036;stroke-width:1.5;"/><line style="stroke:#A80036;stroke-width:1.5;" x1="802.1592" x2="1032.1592" y1="401.9277" y2="401.9277"/><path d="M915.1592,401.9277 L915.1592,398.9277 L921.1592,401.9277 L915.1592,404.9277 L915.1592,401.9277" fill="#A80036" style="stroke:#A80036;stroke-width:1.5;"/><path d="M1044.1592,389.9277 C1044.1592,398.9277 1041.1592,401.9277 1032.1592,401.9277" fill="none" style="stroke:#A80036;stroke-width:1.5;"/><line style="stroke:#A80036;stroke-width:1.5;" x1="480.0303" x2="480.0303" y1="483.7266" y2="483.7266"/><rect fill="none" height="26.4883" style="stroke:#A80036;stroke-width:0.5;" width="19.6865" x="532.687" y="470.4824"/><text fill="#000000" font-family="sans-serif" font-size="14" lengthAdjust="spacing" textLength="9.6865" x="537.687" y="489.0176">C</text><path d="M480.0303,516.9707 L480.0303,542.2813 A0,0 0 0 0 480.0303,542.2813 L605.0303,542.2813 A0,0 0 0 0 605.0303,542.2813 L605.0303,526.9707 L595.0303,516.9707 L546.5303,516.9707 L542.5303,496.9707 L538.5303,516.9707 L480.0303,516.9707 A0,0 0 0 0 480.0303,516.9707" fill="#FBFB77" filter="url(#f1h57fttev1yve)" style="stroke:#A80036;stroke-width:1;"/><path d="M595.0303,516.9707 L595.0303,526.9707 L605.0303,526.9707 L595.0303,516.9707" fill="#FBFB77" style="stroke:#A80036;stroke-width:1;"/><text fill="#000000" font-family="sans-serif" font-size="13" lengthAdjust="spacing" textLength="104" x="486.0303" y="534.5391">&#12501;&#12449;&#12452;&#12523;&#12398;&#26356;&#26032;&#20013;</text><line style="stroke:#A80036;stroke-width:1.5;" x1="480.0303" x2="532.687" y1="483.7266" y2="483.7266"/><path d="M504.3586,483.7266 L504.3586,480.7266 L510.3586,483.7266 L504.3586,486.7266 L504.3586,483.7266" fill="#A80036" style="stroke:#A80036;stroke-width:1.5;"/><line style="stroke:#A80036;stroke-width:1.5;" x1="552.3735" x2="605.0303" y1="483.7266" y2="483.7266"/><path d="M576.7019,483.7266 L576.7019,480.7266 L582.7019,483.7266 L576.7019,486.7266 L576.7019,483.7266" fill="#A80036" style="stroke:#A80036;stroke-width:1.5;"/><line style="stroke:#A80036;stroke-width:1.5;" x1="605.0303" x2="625.0303" y1="483.7266" y2="483.7266"/><rect fill="none" height="26.4883" style="stroke:#A80036;stroke-width:0.5;" width="21.1289" x="625.0303" y="470.4824"/><text fill="#000000" font-family="sans-serif" font-size="14" lengthAdjust="spacing" textLength="11.1289" x="630.0303" y="489.0176">+</text><line style="stroke:#A80036;stroke-width:1.5;" x1="646.1592" x2="666.1592" y1="483.7266" y2="483.7266"/><rect fill="#FEFECE" height="26.4883" rx="5" ry="5" style="stroke:#A80036;stroke-width:1.5;" width="136" x="666.1592" y="470.4824"/><text fill="#000000" font-family="sans-serif" font-size="14" lengthAdjust="spacing" textLength="126" x="671.1592" y="489.0176">&#26356;&#26032;&#28168;&#12415;&#12501;&#12449;&#12452;&#12523;&#25968;</text><path d="M468.0303,471.7266 C468.0303,480.7266 471.0303,483.7266 480.0303,483.7266" fill="none" style="stroke:#A80036;stroke-width:1.5;"/><line style="stroke:#A80036;stroke-width:1.5;" x1="802.1592" x2="1032.1592" y1="483.7266" y2="483.7266"/><path d="M915.1592,483.7266 L915.1592,480.7266 L921.1592,483.7266 L915.1592,486.7266 L915.1592,483.7266" fill="#A80036" style="stroke:#A80036;stroke-width:1.5;"/><path d="M1044.1592,471.7266 C1044.1592,480.7266 1041.1592,483.7266 1032.1592,483.7266" fill="none" style="stroke:#A80036;stroke-width:1.5;"/><line style="stroke:#A80036;stroke-width:1.5;" x1="480.0303" x2="480.0303" y1="565.5254" y2="565.5254"/><rect fill="none" height="26.4883" style="stroke:#A80036;stroke-width:0.5;" width="14.4297" x="515.8154" y="552.2813"/><text fill="#000000" font-family="sans-serif" font-size="14" lengthAdjust="spacing" textLength="4.4297" x="520.8154" y="570.8164">!</text><path d="M480.0303,598.7695 L480.0303,624.0801 A0,0 0 0 0 480.0303,624.0801 L566.0303,624.0801 A0,0 0 0 0 566.0303,624.0801 L566.0303,608.7695 L556.0303,598.7695 L527.0303,598.7695 L523.0303,578.7695 L519.0303,598.7695 L480.0303,598.7695 A0,0 0 0 0 480.0303,598.7695" fill="#FBFB77" filter="url(#f1h57fttev1yve)" style="stroke:#A80036;stroke-width:1;"/><path d="M556.0303,598.7695 L556.0303,608.7695 L566.0303,608.7695 L556.0303,598.7695" fill="#FBFB77" style="stroke:#A80036;stroke-width:1;"/><text fill="#000000" font-family="sans-serif" font-size="13" lengthAdjust="spacing" textLength="65" x="486.0303" y="616.3379">&#12456;&#12521;&#12540;&#30330;&#29983;</text><line style="stroke:#A80036;stroke-width:1.5;" x1="480.0303" x2="515.8154" y1="565.5254" y2="565.5254"/><path d="M495.9229,565.5254 L495.9229,562.5254 L501.9229,565.5254 L495.9229,568.5254 L495.9229,565.5254" fill="#A80036" style="stroke:#A80036;stroke-width:1.5;"/><line style="stroke:#A80036;stroke-width:1.5;" x1="530.2451" x2="566.0303" y1="565.5254" y2="565.5254"/><path d="M546.1377,565.5254 L546.1377,562.5254 L552.1377,565.5254 L546.1377,568.5254 L546.1377,565.5254" fill="#A80036" style="stroke:#A80036;stroke-width:1.5;"/><line style="stroke:#A80036;stroke-width:1.5;" x1="566.0303" x2="586.0303" y1="565.5254" y2="565.5254"/><rect fill="#FEFECE" height="26.4883" rx="5" ry="5" style="stroke:#A80036;stroke-width:1.5;" width="164" x="610.0303" y="552.2813"/><text fill="#000000" font-family="sans-serif" font-size="14" lengthAdjust="spacing" textLength="154" x="615.0303" y="570.8164">&#12456;&#12521;&#12540;&#20869;&#23481;&#12434;&#31034;&#12377;&#25991;&#23383;&#21015;</text><path d="M612.3757,598.7695 L612.3757,624.0801 A0,0 0 0 0 612.3757,624.0801 L771.6848,624.0801 A0,0 0 0 0 771.6848,624.0801 L771.6848,608.7695 L761.6848,598.7695 L696.0303,598.7695 L692.0303,578.7695 L688.0303,598.7695 L612.3757,598.7695 A0,0 0 0 0 612.3757,598.7695" fill="#FBFB77" filter="url(#f1h57fttev1yve)" style="stroke:#A80036;stroke-width:1;"/><path d="M761.6848,598.7695 L761.6848,608.7695 L771.6848,608.7695 L761.6848,598.7695" fill="#FBFB77" style="stroke:#A80036;stroke-width:1;"/><text fill="#000000" font-family="sans-serif" font-size="13" lengthAdjust="spacing" textLength="138.3091" x="618.3757" y="616.3379">&#20808;&#38957;&#25991;&#23383;&#12364; + &#12363; - &#20197;&#22806;</text><line style="stroke:#A80036;stroke-width:1.5;" x1="586.0303" x2="610.0303" y1="565.5254" y2="565.5254"/><line style="stroke:#A80036;stroke-width:1.5;" x1="774.0303" x2="934.0303" y1="565.5254" y2="565.5254"/><line style="stroke:#A80036;stroke-width:1.5;" x1="610.0303" x2="610.0303" y1="647.3242" y2="647.3242"/><rect fill="none" height="26.4883" style="stroke:#A80036;stroke-width:0.5;" width="21.1289" x="685.9658" y="634.0801"/><text fill="#000000" font-family="sans-serif" font-size="14" lengthAdjust="spacing" textLength="11.1289" x="690.9658" y="652.6152">+</text><path d="M634.0303,680.5684 L634.0303,705.8789 A0,0 0 0 0 634.0303,705.8789 L759.0303,705.8789 A0,0 0 0 0 759.0303,705.8789 L759.0303,690.5684 L749.0303,680.5684 L700.5303,680.5684 L696.5303,660.5684 L692.5303,680.5684 L634.0303,680.5684 A0,0 0 0 0 634.0303,680.5684" fill="#FBFB77" filter="url(#f1h57fttev1yve)" style="stroke:#A80036;stroke-width:1;"/><path d="M749.0303,680.5684 L749.0303,690.5684 L759.0303,690.5684 L749.0303,680.5684" fill="#FBFB77" style="stroke:#A80036;stroke-width:1;"/><text fill="#000000" font-family="sans-serif" font-size="13" lengthAdjust="spacing" textLength="104" x="640.0303" y="698.1367">&#20966;&#29702;&#12398;&#32153;&#32154;&#12364;&#21487;&#33021;</text><line style="stroke:#A80036;stroke-width:1.5;" x1="634.0303" x2="685.9658" y1="647.3242" y2="647.3242"/><path d="M657.998,647.3242 L657.998,644.3242 L663.998,647.3242 L657.998,650.3242 L657.998,647.3242" fill="#A80036" style="stroke:#A80036;stroke-width:1.5;"/><line style="stroke:#A80036;stroke-width:1.5;" x1="707.0947" x2="759.0303" y1="647.3242" y2="647.3242"/><path d="M731.0625,647.3242 L731.0625,644.3242 L737.0625,647.3242 L731.0625,650.3242 L731.0625,647.3242" fill="#A80036" style="stroke:#A80036;stroke-width:1.5;"/><line style="stroke:#A80036;stroke-width:1.5;" x1="610.0303" x2="634.0303" y1="647.3242" y2="647.3242"/><line style="stroke:#A80036;stroke-width:1.5;" x1="759.0303" x2="796.0303" y1="647.3242" y2="647.3242"/><rect fill="none" height="26.4883" style="stroke:#A80036;stroke-width:0.5;" width="18.1006" x="693.98" y="715.8789"/><text fill="#000000" font-family="sans-serif" font-size="14" lengthAdjust="spacing" textLength="8.1006" x="698.98" y="734.4141">-</text><path d="M634.0303,762.3672 L634.0303,787.6777 A0,0 0 0 0 634.0303,787.6777 L772.0303,787.6777 A0,0 0 0 0 772.0303,787.6777 L772.0303,772.3672 L762.0303,762.3672 L707.0303,762.3672 L703.0303,742.3672 L699.0303,762.3672 L634.0303,762.3672 A0,0 0 0 0 634.0303,762.3672" fill="#FBFB77" filter="url(#f1h57fttev1yve)" style="stroke:#A80036;stroke-width:1;"/><path d="M762.0303,762.3672 L762.0303,772.3672 L772.0303,772.3672 L762.0303,762.3672" fill="#FBFB77" style="stroke:#A80036;stroke-width:1;"/><text fill="#000000" font-family="sans-serif" font-size="13" lengthAdjust="spacing" textLength="117" x="640.0303" y="779.9355">&#20966;&#29702;&#12398;&#32153;&#32154;&#12364;&#19981;&#21487;&#33021;</text><line style="stroke:#A80036;stroke-width:1.5;" x1="634.0303" x2="693.98" y1="729.123" y2="729.123"/><path d="M662.0051,729.123 L662.0051,726.123 L668.0051,729.123 L662.0051,732.123 L662.0051,729.123" fill="#A80036" style="stroke:#A80036;stroke-width:1.5;"/><line style="stroke:#A80036;stroke-width:1.5;" x1="712.0806" x2="772.0303" y1="729.123" y2="729.123"/><path d="M740.0554,729.123 L740.0554,726.123 L746.0554,729.123 L740.0554,732.123 L740.0554,729.123" fill="#A80036" style="stroke:#A80036;stroke-width:1.5;"/><line style="stroke:#A80036;stroke-width:1.5;" x1="772.0303" x2="772.0303" y1="729.123" y2="729.123"/><path d="M622.0303,717.123 C622.0303,726.123 625.0303,729.123 634.0303,729.123" fill="none" style="stroke:#A80036;stroke-width:1.5;"/><line style="stroke:#A80036;stroke-width:1.5;" x1="622.0303" x2="622.0303" y1="659.3242" y2="717.123"/><path d="M610.0303,647.3242 C619.0303,647.3242 622.0303,650.3242 622.0303,659.3242" fill="none" style="stroke:#A80036;stroke-width:1.5;"/><path d="M784.0303,717.123 C784.0303,726.123 781.0303,729.123 772.0303,729.123" fill="none" style="stroke:#A80036;stroke-width:1.5;"/><line style="stroke:#A80036;stroke-width:1.5;" x1="784.0303" x2="784.0303" y1="659.3242" y2="717.123"/><path d="M784.0303,659.3242 C784.0303,650.3242 787.0303,647.3242 796.0303,647.3242" fill="none" style="stroke:#A80036;stroke-width:1.5;"/><line style="stroke:#A80036;stroke-width:1.5;" x1="796.0303" x2="816.0303" y1="647.3242" y2="647.3242"/><rect fill="#FEFECE" height="26.4883" rx="5" ry="5" style="stroke:#A80036;stroke-width:1.5;" width="94" x="816.0303" y="634.0801"/><text fill="#000000" font-family="sans-serif" font-size="14" lengthAdjust="spacing" textLength="84" x="821.0303" y="652.6152">&#12456;&#12521;&#12540;&#12467;&#12540;&#12489;</text><line style="stroke:#A80036;stroke-width:1.5;" x1="910.0303" x2="910.0303" y1="647.3242" y2="647.3242"/><path d="M598.0303,635.3242 C598.0303,644.3242 601.0303,647.3242 610.0303,647.3242" fill="none" style="stroke:#A80036;stroke-width:1.5;"/><line style="stroke:#A80036;stroke-width:1.5;" x1="598.0303" x2="598.0303" y1="577.5254" y2="635.3242"/><path d="M586.0303,565.5254 C595.0303,565.5254 598.0303,568.5254 598.0303,577.5254" fill="none" style="stroke:#A80036;stroke-width:1.5;"/><path d="M922.0303,635.3242 C922.0303,644.3242 919.0303,647.3242 910.0303,647.3242" fill="none" style="stroke:#A80036;stroke-width:1.5;"/><line style="stroke:#A80036;stroke-width:1.5;" x1="922.0303" x2="922.0303" y1="577.5254" y2="635.3242"/><path d="M922.0303,577.5254 C922.0303,568.5254 925.0303,565.5254 934.0303,565.5254" fill="none" style="stroke:#A80036;stroke-width:1.5;"/><line style="stroke:#A80036;stroke-width:1.5;" x1="934.0303" x2="1032.1592" y1="565.5254" y2="565.5254"/><path d="M981.0947,565.5254 L981.0947,562.5254 L987.0947,565.5254 L981.0947,568.5254 L981.0947,565.5254" fill="#A80036" style="stroke:#A80036;stroke-width:1.5;"/><path d="M468.0303,553.5254 C468.0303,562.5254 471.0303,565.5254 480.0303,565.5254" fill="none" style="stroke:#A80036;stroke-width:1.5;"/><line style="stroke:#A80036;stroke-width:1.5;" x1="468.0303" x2="468.0303" y1="168.5313" y2="553.5254"/><path d="M456.0303,156.5313 C465.0303,156.5313 468.0303,159.5313 468.0303,168.5313" fill="none" style="stroke:#A80036;stroke-width:1.5;"/><path d="M1044.1592,553.5254 C1044.1592,562.5254 1041.1592,565.5254 1032.1592,565.5254" fill="none" style="stroke:#A80036;stroke-width:1.5;"/><line style="stroke:#A80036;stroke-width:1.5;" x1="1044.1592" x2="1044.1592" y1="168.5313" y2="553.5254"/><path d="M1044.1592,168.5313 C1044.1592,159.5313 1047.1592,156.5313 1056.1592,156.5313" fill="none" style="stroke:#A80036;stroke-width:1.5;"/><line style="stroke:#A80036;stroke-width:1.5;" x1="1056.1592" x2="1076.1592" y1="156.5313" y2="156.5313"/><rect fill="none" height="26.4883" style="stroke:#A80036;stroke-width:0.5;" width="26.0303" x="1076.1592" y="143.2871"/><text fill="#000000" font-family="sans-serif" font-size="14" lengthAdjust="spacing" textLength="16.0303" x="1081.1592" y="161.8223">\n</text><line style="stroke:#A80036;stroke-width:1.5;" x1="1117.1895" x2="1137.1895" y1="156.5313" y2="156.5313"/><rect fill="none" height="26.4883" style="stroke:#A80036;stroke-width:0.5;" width="14.5527" x="1211.9131" y="143.2871"/><text fill="#000000" font-family="sans-serif" font-size="14" lengthAdjust="spacing" textLength="4.5527" x="1216.9131" y="161.8223">]</text><path d="M1137.1895,189.7754 L1137.1895,215.0859 A0,0 0 0 0 1137.1895,215.0859 L1301.1895,215.0859 A0,0 0 0 0 1301.1895,215.0859 L1301.1895,199.7754 L1291.1895,189.7754 L1223.1895,189.7754 L1219.1895,169.7754 L1215.1895,189.7754 L1137.1895,189.7754 A0,0 0 0 0 1137.1895,189.7754" fill="#FBFB77" filter="url(#f1h57fttev1yve)" style="stroke:#A80036;stroke-width:1;"/><path d="M1291.1895,189.7754 L1291.1895,199.7754 L1301.1895,199.7754 L1291.1895,189.7754" fill="#FBFB77" style="stroke:#A80036;stroke-width:1;"/><text fill="#000000" font-family="sans-serif" font-size="13" lengthAdjust="spacing" textLength="143" x="1143.1895" y="207.3438">&#12487;&#12451;&#12524;&#12463;&#12488;&#12522;&#12398;&#21516;&#26399;&#23436;&#20102;</text><line style="stroke:#A80036;stroke-width:1.5;" x1="1137.1895" x2="1211.9131" y1="156.5313" y2="156.5313"/><path d="M1172.5513,156.5313 L1172.5513,153.5313 L1178.5513,156.5313 L1172.5513,159.5313 L1172.5513,156.5313" fill="#A80036" style="stroke:#A80036;stroke-width:1.5;"/><line style="stroke:#A80036;stroke-width:1.5;" x1="1226.4658" x2="1301.1895" y1="156.5313" y2="156.5313"/><path d="M1261.8276,156.5313 L1261.8276,153.5313 L1267.8276,156.5313 L1261.8276,159.5313 L1261.8276,156.5313" fill="#A80036" style="stroke:#A80036;stroke-width:1.5;"/><line style="stroke:#A80036;stroke-width:1.5;" x1="1301.1895" x2="1321.1895" y1="156.5313" y2="156.5313"/><rect fill="none" height="26.4883" style="stroke:#A80036;stroke-width:0.5;" width="26.0303" x="1321.1895" y="143.2871"/><text fill="#000000" font-family="sans-serif" font-size="14" lengthAdjust="spacing" textLength="16.0303" x="1326.1895" y="161.8223">\n</text><ellipse cx="14" cy="156.5313" fill="none" rx="4" ry="4" style="stroke:#A80036;stroke-width:2;"/><ellipse cx="1392.2197" cy="156.5313" fill="#A80036" rx="4" ry="4" style="stroke:#A80036;stroke-width:1;"/><line style="stroke:#A80036;stroke-width:1.5;" x1="18" x2="40" y1="156.5313" y2="156.5313"/><line style="stroke:#A80036;stroke-width:1.5;" x1="1362.2197" x2="1388.2197" y1="156.5313" y2="156.5313"/><path d="M1373.2197,156.5313 L1373.2197,153.5313 L1379.2197,156.5313 L1373.2197,159.5313 L1373.2197,156.5313" fill="#A80036" style="stroke:#A80036;stroke-width:1.5;"/><!--SRC=[XPDRJnD15CVVvrEC-xGjBS4YXDIOeA262f5Gm0VrOQ4BMOMfsMv939YmCu4kK28XqbeXSh50lRIW8C5wuSDCPxVz5ivkBnGh-ZOpvvpV_vop_-sCQ9AgoIDe34IUAWYguOWCD4MRa65fzekvdBGMJymZdSNoR76TaZMAtrFoWvAtb11A3014juB6mf3g7vteDiLfIlWvHl4xYhzHV4391qgI59zHl5hCP5dk3TLJ52zHFSDMukR69eljMIlpLC_LAr8zVZFOrTDZ9c8icsH6akhxDWdls7WRndMsk6obDPsBnpdLxGBrc1lJmaD1T5Vw8P-SVWmRfEVAwgN44jldPPx6d6BsDJDssSgoHtY41C-qA0GvgzBqmQ_Yv-qBC-ivCxrX7UyKJhCS9pG9dlBTF3MeVdPPcRbsE2CCrRX_49rvYRq_adKMls3c4modpZKQCohhhGVXh_O1vvsfZMB6c16wBvKainJlKN9K0zQ9DSJAm_rFRC3v1XTasC9YAPK-HvVlZJXdFrsDzURwiPauhDkrSx-a_efTZpEKsEwrKddhrIOl4sjFR7wEvRXPLwqqRpjLCnrVqPnHsigM7xWdOHEt-XBqmiBtNPPEk5qpeYXoUPvOTR5rah9EkCVZxEL1aVpaAOBth_72wN8rnSNjL-s5ugFoQkrNstWll1xXyRzDp7BnGdxUNSs_3a2dZ4BERmtw9oIa3VNrmYbPZIXX1Ays-rfyRSq-yO4SWW49mPOEsEBpjxRvMzjX83W8xR0BY7VxUs4a75L7PHXI8fggZ4GrNky20MbAWWDHf2cJiX_UVoQZGFUzwWEyZQOKDOmcPQI1m73VUKBxDUyjHOD1MUMTmE4-q2sFIT49ZLUCXaCA6lV3eS4xtWxGAw7ng3JEsKyaq1NcNFMv7mRwVmC0]--></g></svg>