<svg xmlns="http://www.w3.org/2000/svg" xmlns:xlink="http://www.w3.org/1999/xlink" contentStyleType="text/css" data-diagram-type="ACTIVITY" height="402px" preserveAspectRatio="none" style="width:1269px;height:402px;background:#FFFFFF;" version="1.1" viewBox="0 0 1269 402" width="1269px" zoomAndPan="magnify"><title>&#12501;&#12449;&#12452;&#12523;&#12398;&#21516;&#26399;&#26041;&#21521;&#27770;&#23450;&#12450;&#12523;&#12468;&#12522;&#12474;&#12512;(pSp3)</title><defs><filter height="300%" id="fqcy822230oev" width="300%" x="-1" y="-1"><feGaussianBlur result="blurOut" stdDeviation="2"/><feColorMatrix in="blurOut" result="blurOut2" type="matrix" values="0 0 0 0 0 0 0 0 0 0 0 0 0 0 0 0 0 0 .4 0"/><feOffset dx="4" dy="4" in="blurOut2" result="blurOut3"/><feBlend in="SourceGraphic" in2="blurOut3" mode="normal"/></filter></defs><g><g class="title" data-source-line="6"><text fill="#000000" font-family="sans-serif" font-size="14" font-weight="bold" lengthAdjust="spacing" textLength="290.663" x="487.8013" y="32.9951">&#12501;&#12449;&#12452;&#12523;&#12398;&#21516;&#26399;&#26041;&#21521;&#27770;&#23450;&#12450;&#12523;&#12468;&#12522;&#12474;&#12512;(pSp3)</text></g><path d="M444.9507,47.2969 L444.9507,72.4297 L604.1328,72.4297 L604.1328,57.2969 L594.1328,47.2969 L444.9507,47.2969" fill="#FBFB77" filter="url(#fqcy822230oev)" style="stroke:#A80036;stroke-width:1;"/><path d="M594.1328,47.2969 L594.1328,57.2969 L604.1328,57.2969 L594.1328,47.2969" fill="#FBFB77" style="stroke:#A80036;stroke-width:1;"/><text fill="#000000" font-family="sans-serif" font-size="13" lengthAdjust="spacing" textLength="138.1821" x="450.9507" y="64.3638">make_fsynced_func()</text><ellipse cx="634.1328" cy="59.8633" fill="#000000" filter="url(#fqcy822230oev)" rx="10" ry="10" style="stroke:#000000;stroke-width:1;"/><polygon fill="#FEFECE" filter="url(#fqcy822230oev)" points="582.0682,92.4297,686.1974,92.4297,698.1974,105.2344,686.1974,118.0391,582.0682,118.0391,570.0682,105.2344,582.0682,92.4297" style="stroke:#A80036;stroke-width:1.5;"/><text fill="#000000" font-family="sans-serif" font-size="11" lengthAdjust="spacing" textLength="104.1292" x="582.0682" y="102.6401">Local &#12392; Remote &#12398;</text><text fill="#000000" font-family="sans-serif" font-size="11" lengthAdjust="spacing" textLength="76.9995" x="582.0682" y="115.4448">&#12501;&#12449;&#12452;&#12523;&#12434;&#27604;&#36611;</text><polygon fill="#FEFECE" filter="url(#fqcy822230oev)" points="174.6969,153.6484,278.8262,153.6484,290.8262,166.4531,278.8262,179.2578,174.6969,179.2578,162.6969,166.4531,174.6969,153.6484" style="stroke:#A80036;stroke-width:1.5;"/><text fill="#000000" font-family="sans-serif" font-size="11" lengthAdjust="spacing" textLength="104.1292" x="174.6969" y="163.8589">Local &#12392; Remote &#12398;</text><text fill="#000000" font-family="sans-serif" font-size="11" lengthAdjust="spacing" textLength="76.9995" x="174.6969" y="176.6636">&#26356;&#26032;&#26085;&#26178;&#12434;&#27604;&#36611;</text><rect fill="#FEFECE" filter="url(#fqcy822230oev)" height="47.9375" rx="12.5" ry="12.5" style="stroke:#A80036;stroke-width:1.5;" width="151.1277" x="11" y="214.8672"/><text fill="#000000" font-family="sans-serif" font-size="12" lengthAdjust="spacing" textLength="131.1277" x="21" y="236.0059">Local &#12398;&#12501;&#12449;&#12452;&#12523;&#20869;&#23481;&#12434;</text><text fill="#000000" font-family="sans-serif" font-size="12" lengthAdjust="spacing" textLength="122.6548" x="21" y="249.9746">Remote &#12398;&#20869;&#23481;&#12395;&#26356;&#26032;</text><rect fill="#FEFECE" filter="url(#fqcy822230oev)" height="47.9375" rx="12.5" ry="12.5" style="stroke:#A80036;stroke-width:1.5;" width="166.655" x="218.9965" y="214.8672"/><text fill="#000000" font-family="sans-serif" font-size="12" lengthAdjust="spacing" textLength="146.655" x="228.9965" y="236.0059">Remote &#12398;&#12501;&#12449;&#12452;&#12523;&#20869;&#23481;&#12434;</text><text fill="#000000" font-family="sans-serif" font-size="12" lengthAdjust="spacing" textLength="107.1275" x="228.9965" y="249.9746">Local &#12398;&#20869;&#23481;&#12395;&#26356;&#26032;</text><polygon fill="#FEFECE" filter="url(#fqcy822230oev)" points="226.7616,277.1953,226.7616,277.1953,238.7616,289.1953,226.7616,301.1953,226.7616,301.1953,214.7616,289.1953,226.7616,277.1953" style="stroke:#A80036;stroke-width:1.5;"/><polygon fill="#FEFECE" filter="url(#fqcy822230oev)" points="566.9557,153.6484,701.3882,153.6484,713.3882,166.4531,701.3882,179.2578,566.9557,179.2578,554.9557,166.4531,566.9557,153.6484" style="stroke:#A80036;stroke-width:1.5;"/><text fill="#000000" font-family="sans-serif" font-size="11" lengthAdjust="spacing" textLength="98.1992" x="566.9557" y="163.8589">Local &#12398;&#26356;&#26032;&#26085;&#26178;&#12392;</text><text fill="#000000" font-family="sans-serif" font-size="11" lengthAdjust="spacing" textLength="134.4325" x="566.9557" y="176.6636">Remote &#12398;&#21066;&#38500;&#26085;&#26178;&#12434;&#27604;&#36611;</text><text fill="#000000" font-family="sans-serif" font-size="11" lengthAdjust="spacing" textLength="112.4326" x="442.5231" y="163.8589">Remote &#12398;&#26041;&#12364;&#26032;&#12375;&#12356;</text><text fill="#000000" font-family="sans-serif" font-size="11" lengthAdjust="spacing" textLength="137.9291" x="713.3882" y="151.0542">Remote &#12398;&#21066;&#38500;&#35352;&#37682;&#12364;&#12394;&#12356;,</text><text fill="#000000" font-family="sans-serif" font-size="11" lengthAdjust="spacing" textLength="138.4447" x="713.3882" y="163.8589">Local &#12398;&#26041;&#12364;&#26032;&#12375;&#12356; or &#21516;&#26178;</text><rect fill="#FEFECE" filter="url(#fqcy822230oev)" height="33.9688" rx="12.5" ry="12.5" style="stroke:#A80036;stroke-width:1.5;" width="151.1277" x="469.3919" y="189.2578"/><text fill="#000000" font-family="sans-serif" font-size="12" lengthAdjust="spacing" textLength="131.1277" x="479.3919" y="210.3965">Local &#12398;&#12501;&#12449;&#12452;&#12523;&#12434;&#21066;&#38500;</text><rect fill="#FEFECE" filter="url(#fqcy822230oev)" height="47.9375" rx="12.5" ry="12.5" style="stroke:#A80036;stroke-width:1.5;" width="127.1275" x="659.8245" y="189.2578"/><text fill="#000000" font-family="sans-serif" font-size="12" lengthAdjust="spacing" textLength="107.1275" x="669.8245" y="210.3965">Local &#12398;&#12501;&#12449;&#12452;&#12523;&#12434;</text><text fill="#000000" font-family="sans-serif" font-size="12" lengthAdjust="spacing" textLength="86.6546" x="669.8245" y="224.3652">Remote &#12408;&#36861;&#21152;</text><polygon fill="#FEFECE" filter="url(#fqcy822230oev)" points="634.172,243.1953,646.172,255.1953,634.172,267.1953,622.172,255.1953,634.172,243.1953" style="stroke:#A80036;stroke-width:1.5;"/><polygon fill="#FEFECE" filter="url(#fqcy822230oev)" points="972.3884,153.6484,1092.5875,153.6484,1104.5875,166.4531,1092.5875,179.2578,972.3884,179.2578,960.3884,166.4531,972.3884,153.6484" style="stroke:#A80036;stroke-width:1.5;"/><text fill="#000000" font-family="sans-serif" font-size="11" lengthAdjust="spacing" textLength="112.4326" x="972.3884" y="163.8589">Remote &#12398;&#26356;&#26032;&#26085;&#26178;&#12392;</text><text fill="#000000" font-family="sans-serif" font-size="11" lengthAdjust="spacing" textLength="120.1991" x="972.3884" y="176.6636">Local &#12398;&#21066;&#38500;&#26085;&#26178;&#12434;&#27604;&#36611;</text><text fill="#000000" font-family="sans-serif" font-size="11" lengthAdjust="spacing" textLength="98.1992" x="862.1891" y="163.8589">Local &#12398;&#26041;&#12364;&#26032;&#12375;&#12356;</text><text fill="#000000" font-family="sans-serif" font-size="11" lengthAdjust="spacing" textLength="123.6957" x="1104.5875" y="151.0542">Local &#12398;&#21066;&#38500;&#35352;&#37682;&#12364;&#12394;&#12356;,</text><text fill="#000000" font-family="sans-serif" font-size="11" lengthAdjust="spacing" textLength="152.6781" x="1104.5875" y="163.8589">Remote &#12398;&#26041;&#12364;&#26032;&#12375;&#12356; or &#21516;&#26178;</text><rect fill="#FEFECE" filter="url(#fqcy822230oev)" height="33.9688" rx="12.5" ry="12.5" style="stroke:#A80036;stroke-width:1.5;" width="166.655" x="861.8329" y="189.2578"/><text fill="#000000" font-family="sans-serif" font-size="12" lengthAdjust="spacing" textLength="146.655" x="871.8329" y="210.3965">Remote &#12398;&#12501;&#12449;&#12452;&#12523;&#12434;&#21066;&#38500;</text><rect fill="#FEFECE" filter="url(#fqcy822230oev)" height="47.9375" rx="12.5" ry="12.5" style="stroke:#A80036;stroke-width:1.5;" width="142.6548" x="1048.488" y="189.2578"/><text fill="#000000" font-family="sans-serif" font-size="12" lengthAdjust="spacing" textLength="122.6548" x="1058.488" y="210.3965">Remote &#12398;&#12501;&#12449;&#12452;&#12523;&#12434;</text><text fill="#000000" font-family="sans-serif" font-size="12" lengthAdjust="spacing" textLength="71.1272" x="1058.488" y="224.3652">Local &#12408;&#36861;&#21152;</text><polygon fill="#FEFECE" filter="url(#fqcy822230oev)" points="1032.4879,243.1953,1044.4879,255.1953,1032.4879,267.1953,1020.4879,255.1953,1032.4879,243.1953" style="stroke:#A80036;stroke-width:1.5;"/><polygon fill="#FEFECE" filter="url(#fqcy822230oev)" points="634.1328,321.1953,634.1328,321.1953,646.1328,333.1953,634.1328,345.1953,634.1328,345.1953,622.1328,333.1953,634.1328,321.1953" style="stroke:#A80036;stroke-width:1.5;"/><ellipse cx="634.1328" cy="375.1953" fill="none" filter="url(#fqcy822230oev)" rx="10" ry="10" style="stroke:#000000;stroke-width:1;"/><line style="stroke:#000000;stroke-width:2.5;" x1="627.9456" x2="640.32" y1="369.0081" y2="381.3825"/><line style="stroke:#000000;stroke-width:2.5;" x1="640.32" x2="627.9456" y1="369.0081" y2="381.3825"/><line style="stroke:#A80036;stroke-width:1.5;" x1="162.6969" x2="86.5638" y1="166.4531" y2="166.4531"/><line style="stroke:#A80036;stroke-width:1.5;" x1="86.5638" x2="86.5638" y1="166.4531" y2="214.8672"/><polygon fill="#A80036" points="82.5638,204.8672,86.5638,214.8672,90.5638,204.8672,86.5638,208.8672" style="stroke:#A80036;stroke-width:1;"/><text fill="#000000" font-family="sans-serif" font-size="11" lengthAdjust="spacing" textLength="112.4326" x="86.5638" y="194.4683">Remote &#12398;&#26041;&#12364;&#26032;&#12375;&#12356;</text><line style="stroke:#A80036;stroke-width:1.5;" x1="290.8262" x2="406.5233" y1="166.4531" y2="166.4531"/><line style="stroke:#A80036;stroke-width:1.5;" x1="406.5233" x2="406.5233" y1="166.4531" y2="289.1953"/><line style="stroke:#A80036;stroke-width:1.5;" x1="406.5233" x2="238.7616" y1="289.1953" y2="289.1953"/><polygon fill="#A80036" points="248.7616,285.1953,238.7616,289.1953,248.7616,293.1953,244.7616,289.1953" style="stroke:#A80036;stroke-width:1;"/><text fill="#000000" font-family="sans-serif" font-size="11" lengthAdjust="spacing" textLength="21.9998" x="410.5233" y="170.2612">&#21516;&#12376;</text><line style="stroke:#A80036;stroke-width:1.5;" x1="302.324" x2="302.324" y1="166.4531" y2="214.8672"/><polygon fill="#A80036" points="298.324,204.8672,302.324,214.8672,306.324,204.8672,302.324,208.8672" style="stroke:#A80036;stroke-width:1;"/><text fill="#000000" font-family="sans-serif" font-size="11" lengthAdjust="spacing" textLength="98.1992" x="302.324" y="189.4683">Local &#12398;&#26041;&#12364;&#26032;&#12375;&#12356;</text><line style="stroke:#A80036;stroke-width:1.5;" x1="86.5638" x2="86.5638" y1="262.8047" y2="289.1953"/><line style="stroke:#A80036;stroke-width:1.5;" x1="86.5638" x2="214.7616" y1="289.1953" y2="289.1953"/><polygon fill="#A80036" points="204.7616,285.1953,214.7616,289.1953,204.7616,293.1953,208.7616,289.1953" style="stroke:#A80036;stroke-width:1;"/><line style="stroke:#A80036;stroke-width:1.5;" x1="302.324" x2="302.324" y1="262.8047" y2="289.1953"/><polygon fill="#A80036" points="298.324,279.1953,302.324,289.1953,306.324,279.1953,302.324,283.1953" style="stroke:#A80036;stroke-width:1;"/><line style="stroke:#A80036;stroke-width:1.5;" x1="554.9557" x2="544.9557" y1="166.4531" y2="166.4531"/><line style="stroke:#A80036;stroke-width:1.5;" x1="544.9557" x2="544.9557" y1="166.4531" y2="189.2578"/><polygon fill="#A80036" points="540.9557,179.2578,544.9557,189.2578,548.9557,179.2578,544.9557,183.2578" style="stroke:#A80036;stroke-width:1;"/><line style="stroke:#A80036;stroke-width:1.5;" x1="713.3882" x2="723.3882" y1="166.4531" y2="166.4531"/><line style="stroke:#A80036;stroke-width:1.5;" x1="723.3882" x2="723.3882" y1="166.4531" y2="189.2578"/><polygon fill="#A80036" points="719.3882,179.2578,723.3882,189.2578,727.3882,179.2578,723.3882,183.2578" style="stroke:#A80036;stroke-width:1;"/><line style="stroke:#A80036;stroke-width:1.5;" x1="544.9557" x2="544.9557" y1="223.2266" y2="255.1953"/><line style="stroke:#A80036;stroke-width:1.5;" x1="544.9557" x2="622.172" y1="255.1953" y2="255.1953"/><polygon fill="#A80036" points="612.172,251.1953,622.172,255.1953,612.172,259.1953,616.172,255.1953" style="stroke:#A80036;stroke-width:1;"/><line style="stroke:#A80036;stroke-width:1.5;" x1="723.3882" x2="723.3882" y1="237.1953" y2="255.1953"/><line style="stroke:#A80036;stroke-width:1.5;" x1="723.3882" x2="646.172" y1="255.1953" y2="255.1953"/><polygon fill="#A80036" points="656.172,251.1953,646.172,255.1953,656.172,259.1953,652.172,255.1953" style="stroke:#A80036;stroke-width:1;"/><line style="stroke:#A80036;stroke-width:1.5;" x1="960.3884" x2="945.1605" y1="166.4531" y2="166.4531"/><line style="stroke:#A80036;stroke-width:1.5;" x1="945.1605" x2="945.1605" y1="166.4531" y2="189.2578"/><polygon fill="#A80036" points="941.1605,179.2578,945.1605,189.2578,949.1605,179.2578,945.1605,183.2578" style="stroke:#A80036;stroke-width:1;"/><line style="stroke:#A80036;stroke-width:1.5;" x1="1104.5875" x2="1119.8154" y1="166.4531" y2="166.4531"/><line style="stroke:#A80036;stroke-width:1.5;" x1="1119.8154" x2="1119.8154" y1="166.4531" y2="189.2578"/><polygon fill="#A80036" points="1115.8154,179.2578,1119.8154,189.2578,1123.8154,179.2578,1119.8154,183.2578" style="stroke:#A80036;stroke-width:1;"/><line style="stroke:#A80036;stroke-width:1.5;" x1="945.1605" x2="945.1605" y1="223.2266" y2="255.1953"/><line style="stroke:#A80036;stroke-width:1.5;" x1="945.1605" x2="1020.4879" y1="255.1953" y2="255.1953"/><polygon fill="#A80036" points="1010.4879,251.1953,1020.4879,255.1953,1010.4879,259.1953,1014.4879,255.1953" style="stroke:#A80036;stroke-width:1;"/><line style="stroke:#A80036;stroke-width:1.5;" x1="1119.8154" x2="1119.8154" y1="237.1953" y2="255.1953"/><line style="stroke:#A80036;stroke-width:1.5;" x1="1119.8154" x2="1044.4879" y1="255.1953" y2="255.1953"/><polygon fill="#A80036" points="1054.4879,251.1953,1044.4879,255.1953,1054.4879,259.1953,1050.4879,255.1953" style="stroke:#A80036;stroke-width:1;"/><line style="stroke:#A80036;stroke-width:1.5;" x1="570.0682" x2="226.7616" y1="105.2344" y2="105.2344"/><line style="stroke:#A80036;stroke-width:1.5;" x1="226.7616" x2="226.7616" y1="105.2344" y2="153.6484"/><polygon fill="#A80036" points="222.7616,143.6484,226.7616,153.6484,230.7616,143.6484,226.7616,147.6484" style="stroke:#A80036;stroke-width:1;"/><text fill="#000000" font-family="sans-serif" font-size="11" lengthAdjust="spacing" textLength="54.9996" x="226.7616" y="133.2495">&#20001;&#26041;&#12395;&#23384;&#22312;</text><line style="stroke:#A80036;stroke-width:1.5;" x1="698.1974" x2="1032.4879" y1="105.2344" y2="105.2344"/><line style="stroke:#A80036;stroke-width:1.5;" x1="1032.4879" x2="1032.4879" y1="105.2344" y2="153.6484"/><polygon fill="#A80036" points="1028.4879,143.6484,1032.4879,153.6484,1036.4879,143.6484,1032.4879,147.6484" style="stroke:#A80036;stroke-width:1;"/><text fill="#000000" font-family="sans-serif" font-size="11" lengthAdjust="spacing" textLength="101.4327" x="1032.4879" y="133.2495">Remote &#12395;&#12398;&#12415;&#23384;&#22312;</text><line style="stroke:#A80036;stroke-width:1.5;" x1="634.1328" x2="634.1328" y1="118.0391" y2="129.9089"/><line style="stroke:#A80036;stroke-width:1.5;" x1="634.1328" x2="634.172" y1="129.9089" y2="129.9089"/><line style="stroke:#A80036;stroke-width:1.5;" x1="634.172" x2="634.172" y1="129.9089" y2="153.6484"/><polygon fill="#A80036" points="630.172,143.6484,634.172,153.6484,638.172,143.6484,634.172,147.6484" style="stroke:#A80036;stroke-width:1;"/><text fill="#000000" font-family="sans-serif" font-size="11" lengthAdjust="spacing" textLength="87.1993" x="634.1328" y="134.6519">Local &#12395;&#12398;&#12415;&#23384;&#22312;</text><line style="stroke:#A80036;stroke-width:1.5;" x1="226.7616" x2="226.7616" y1="301.1953" y2="333.1953"/><line style="stroke:#A80036;stroke-width:1.5;" x1="226.7616" x2="622.1328" y1="333.1953" y2="333.1953"/><polygon fill="#A80036" points="612.1328,329.1953,622.1328,333.1953,612.1328,337.1953,616.1328,333.1953" style="stroke:#A80036;stroke-width:1;"/><line style="stroke:#A80036;stroke-width:1.5;" x1="1032.4879" x2="1032.4879" y1="267.1953" y2="333.1953"/><line style="stroke:#A80036;stroke-width:1.5;" x1="1032.4879" x2="646.1328" y1="333.1953" y2="333.1953"/><polygon fill="#A80036" points="656.1328,329.1953,646.1328,333.1953,656.1328,337.1953,652.1328,333.1953" style="stroke:#A80036;stroke-width:1;"/><line style="stroke:#A80036;stroke-width:1.5;" x1="634.172" x2="634.172" y1="267.1953" y2="291.3906"/><line style="stroke:#A80036;stroke-width:1.5;" x1="634.172" x2="634.1328" y1="291.3906" y2="291.3906"/><line style="stroke:#A80036;stroke-width:1.5;" x1="634.1328" x2="634.1328" y1="291.3906" y2="321.1953"/><polygon fill="#A80036" points="630.1328,311.1953,634.1328,321.1953,638.1328,311.1953,634.1328,315.1953" style="stroke:#A80036;stroke-width:1;"/><line style="stroke:#A80036;stroke-width:1.5;" x1="634.1328" x2="634.1328" y1="69.8633" y2="92.4297"/><polygon fill="#A80036" points="630.1328,82.4297,634.1328,92.4297,638.1328,82.4297,634.1328,86.4297" style="stroke:#A80036;stroke-width:1;"/><line style="stroke:#A80036;stroke-width:1.5;" x1="634.1328" x2="634.1328" y1="345.1953" y2="365.1953"/><polygon fill="#A80036" points="630.1328,355.1953,634.1328,365.1953,638.1328,355.1953,634.1328,359.1953" style="stroke:#A80036;stroke-width:1;"/><!--SRC=[fPBFJjj048Vl-nHpYoirq59n2RTofJsqLoIqjTTWnTcrx4sh7DTkaK0vq8e_2I0L44WHKLseE002yJ1RM-4jkguRx9WO97fRUSVVR-RRcQo0uxMe_eOPPC9fGXLai27zVUaVog0lHHYjjUFTx_7cHRJsDJwzZC9jwHyaL_wP38wbVoc3FSrvxxnwXg02SzZZq626PLh4gC7BwUfRzh4wzM9g6hGw-u1Rs6ibXPC88Mvnc_n77FBg5WMNUGHLagE3NTo0rrYlBxgiIOrPPZCNk8kffwu8vUeFZbsEJ9jXRj55e8oJ6ZHmdIoOYGHYB9XDgckgG_0-MLnV0csEwTW6ANhmZZHKlJg6ytIaQ_zR_7DzS1Kal-dO8w3zFjzN8qZHZtvqejrUSl4OCTuvYpTFugsZkEkF48VChFWlkgsgfTYIudDQ150RWiDyTz7oboYyKCHvcX7-VHJzD7Kc5tC7AKl9A2KnTuG7KjGpIz59cOGQgHfKx25P22bkyX8jCzzYtfdeZKouidhRFIpg1Bv4w9DLAawAJISXzkYpf7U3NkUs_Kj1fJXMnESv7uKmKDkPh7lNVpGsDzdvuEOwMjsR6QgpJ7HlGqgyvSOkYilUx25lJzoDiTuAYVUrbJxI66-bkTbaOxrbgwTEVm00]--></g></svg>