<?plantuml 1.2026.1?><svg xmlns="http://www.w3.org/2000/svg" xmlns:xlink="http://www.w3.org/1999/xlink" contentStyleType="text/css" data-diagram-type="ACTIVITY" height="403px" preserveAspectRatio="none" style="width:1251px;height:403px;background:#FFFFFF;" version="1.1" viewBox="0 0 1251 403" width="1251px" zoomAndPan="magnify"><title>&#12501;&#12449;&#12452;&#12523;&#12398;&#21516;&#26399;&#26041;&#21521;&#27770;&#23450;&#12450;&#12523;&#12468;&#12522;&#12474;&#12512;(pSp3)</title><defs><filter height="300%" id="f1o8lupgd7jwoz" width="300%" x="-1" y="-1"><feGaussianBlur result="blurOut" stdDeviation="2"/><feColorMatrix in="blurOut" result="blurOut2" type="matrix" values="0 0 0 0 0 0 0 0 0 0 0 0 0 0 0 0 0 0 .4 0"/><feOffset dx="4" dy="4" in="blurOut2" result="blurOut3"/><feBlend in="SourceGraphic" in2="blurOut3" mode="normal"/></filter></defs><g><g class="title" data-source-line="5"><text fill="#000000" font-family="sans-serif" font-size="14" font-weight="bold" lengthAdjust="spacing" textLength="284.1631" x="482.1934" y="33.5352">&#12501;&#12449;&#12452;&#12523;&#12398;&#21516;&#26399;&#26041;&#21521;&#27770;&#23450;&#12450;&#12523;&#12468;&#12522;&#12474;&#12512;(pSp3)</text></g><path d="M442.4045,47.4883 L442.4045,72.7988 L594.9407,72.7988 L594.9407,57.4883 L584.9407,47.4883 L442.4045,47.4883" fill="#FBFB77" filter="url(#f1o8lupgd7jwoz)" style="stroke:#A80036;stroke-width:1;"/><path d="M584.9407,47.4883 L584.9407,57.4883 L594.9407,57.4883 L584.9407,47.4883" fill="#FBFB77" style="stroke:#A80036;stroke-width:1;"/><text fill="#000000" font-family="sans-serif" font-size="13" lengthAdjust="spacing" textLength="131.5361" x="448.4045" y="65.0566">make_fsynced_func()</text><ellipse cx="624.9407" cy="60.1436" fill="#000000" filter="url(#f1o8lupgd7jwoz)" rx="10" ry="10" style="stroke:#000000;stroke-width:1;"/><polygon fill="#FEFECE" filter="url(#f1o8lupgd7jwoz)" points="574.7881,92.7988,675.0933,92.7988,687.0933,105.7539,675.0933,118.709,574.7881,118.709,562.7881,105.7539,574.7881,92.7988" style="stroke:#A80036;stroke-width:1.5;"/><text fill="#000000" font-family="sans-serif" font-size="11" lengthAdjust="spacing" textLength="100.3052" x="574.7881" y="103.4336">Local &#12392; Remote &#12398;</text><text fill="#000000" font-family="sans-serif" font-size="11" lengthAdjust="spacing" textLength="77" x="574.7881" y="116.3887">&#12501;&#12449;&#12452;&#12523;&#12434;&#27604;&#36611;</text><polygon fill="#FEFECE" filter="url(#f1o8lupgd7jwoz)" points="173.6665,154.6191,273.9717,154.6191,285.9717,167.5742,273.9717,180.5293,173.6665,180.5293,161.6665,167.5742,173.6665,154.6191" style="stroke:#A80036;stroke-width:1.5;"/><text fill="#000000" font-family="sans-serif" font-size="11" lengthAdjust="spacing" textLength="100.3052" x="173.6665" y="165.2539">Local &#12392; Remote &#12398;</text><text fill="#000000" font-family="sans-serif" font-size="11" lengthAdjust="spacing" textLength="77" x="173.6665" y="178.209">&#26356;&#26032;&#26085;&#26178;&#12434;&#27604;&#36611;</text><rect fill="#FEFECE" filter="url(#f1o8lupgd7jwoz)" height="48.2656" rx="12.5" ry="12.5" style="stroke:#A80036;stroke-width:1.5;" width="149.8086" x="11" y="216.4395"/><text fill="#000000" font-family="sans-serif" font-size="12" lengthAdjust="spacing" textLength="129.8086" x="21" y="238.041">Local &#12398;&#12501;&#12449;&#12452;&#12523;&#20869;&#23481;&#12434;</text><text fill="#000000" font-family="sans-serif" font-size="12" lengthAdjust="spacing" textLength="119.8184" x="21" y="252.1738">Remote &#12398;&#20869;&#23481;&#12395;&#26356;&#26032;</text><rect fill="#FEFECE" filter="url(#f1o8lupgd7jwoz)" height="48.2656" rx="12.5" ry="12.5" style="stroke:#A80036;stroke-width:1.5;" width="163.8184" x="215.7378" y="216.4395"/><text fill="#000000" font-family="sans-serif" font-size="12" lengthAdjust="spacing" textLength="143.8184" x="225.7378" y="238.041">Remote &#12398;&#12501;&#12449;&#12452;&#12523;&#20869;&#23481;&#12434;</text><text fill="#000000" font-family="sans-serif" font-size="12" lengthAdjust="spacing" textLength="105.8086" x="225.7378" y="252.1738">Local &#12398;&#20869;&#23481;&#12395;&#26356;&#26032;</text><polygon fill="#FEFECE" filter="url(#f1o8lupgd7jwoz)" points="223.8191,278.7949,223.8191,278.7949,235.8191,290.7949,223.8191,302.7949,223.8191,302.7949,211.8191,290.7949,223.8191,278.7949" style="stroke:#A80036;stroke-width:1.5;"/><polygon fill="#FEFECE" filter="url(#f1o8lupgd7jwoz)" points="558.4717,154.6191,690.3052,154.6191,702.3052,167.5742,690.3052,180.5293,558.4717,180.5293,546.4717,167.5742,558.4717,154.6191" style="stroke:#A80036;stroke-width:1.5;"/><text fill="#000000" font-family="sans-serif" font-size="11" lengthAdjust="spacing" textLength="96.9912" x="558.4717" y="165.2539">Local &#12398;&#26356;&#26032;&#26085;&#26178;&#12392;</text><text fill="#000000" font-family="sans-serif" font-size="11" lengthAdjust="spacing" textLength="131.8335" x="558.4717" y="178.209">Remote &#12398;&#21066;&#38500;&#26085;&#26178;&#12434;&#27604;&#36611;</text><text fill="#000000" font-family="sans-serif" font-size="11" lengthAdjust="spacing" textLength="109.8335" x="436.6382" y="165.2539">Remote &#12398;&#26041;&#12364;&#26032;&#12375;&#12356;</text><text fill="#000000" font-family="sans-serif" font-size="11" lengthAdjust="spacing" textLength="135.314" x="702.3052" y="152.2988">Remote &#12398;&#21066;&#38500;&#35352;&#37682;&#12364;&#12394;&#12356;,</text><text fill="#000000" font-family="sans-serif" font-size="11" lengthAdjust="spacing" textLength="137.21" x="702.3052" y="165.2539">Local &#12398;&#26041;&#12364;&#26032;&#12375;&#12356; or &#21516;&#26178;</text><rect fill="#FEFECE" filter="url(#f1o8lupgd7jwoz)" height="34.1328" rx="12.5" ry="12.5" style="stroke:#A80036;stroke-width:1.5;" width="149.8086" x="461.5674" y="190.5293"/><text fill="#000000" font-family="sans-serif" font-size="12" lengthAdjust="spacing" textLength="129.8086" x="471.5674" y="212.1309">Local &#12398;&#12501;&#12449;&#12452;&#12523;&#12434;&#21066;&#38500;</text><rect fill="#FEFECE" filter="url(#f1o8lupgd7jwoz)" height="48.2656" rx="12.5" ry="12.5" style="stroke:#A80036;stroke-width:1.5;" width="125.8086" x="649.4009" y="190.5293"/><text fill="#000000" font-family="sans-serif" font-size="12" lengthAdjust="spacing" textLength="105.8086" x="659.4009" y="212.1309">Local &#12398;&#12501;&#12449;&#12452;&#12523;&#12434;</text><text fill="#000000" font-family="sans-serif" font-size="12" lengthAdjust="spacing" textLength="83.8184" x="659.4009" y="226.2637">Remote &#12408;&#36861;&#21152;</text><polygon fill="#FEFECE" filter="url(#f1o8lupgd7jwoz)" points="624.3884,244.7949,636.3884,256.7949,624.3884,268.7949,612.3884,256.7949,624.3884,244.7949" style="stroke:#A80036;stroke-width:1.5;"/><polygon fill="#FEFECE" filter="url(#f1o8lupgd7jwoz)" points="958.5063,154.6191,1077.4976,154.6191,1089.4976,167.5742,1077.4976,180.5293,958.5063,180.5293,946.5063,167.5742,958.5063,154.6191" style="stroke:#A80036;stroke-width:1.5;"/><text fill="#000000" font-family="sans-serif" font-size="11" lengthAdjust="spacing" textLength="109.8335" x="958.5063" y="165.2539">Remote &#12398;&#26356;&#26032;&#26085;&#26178;&#12392;</text><text fill="#000000" font-family="sans-serif" font-size="11" lengthAdjust="spacing" textLength="118.9912" x="958.5063" y="178.209">Local &#12398;&#21066;&#38500;&#26085;&#26178;&#12434;&#27604;&#36611;</text><text fill="#000000" font-family="sans-serif" font-size="11" lengthAdjust="spacing" textLength="96.9912" x="849.5151" y="165.2539">Local &#12398;&#26041;&#12364;&#26032;&#12375;&#12356;</text><text fill="#000000" font-family="sans-serif" font-size="11" lengthAdjust="spacing" textLength="122.4717" x="1089.4976" y="152.2988">Local &#12398;&#21066;&#38500;&#35352;&#37682;&#12364;&#12394;&#12356;,</text><text fill="#000000" font-family="sans-serif" font-size="11" lengthAdjust="spacing" textLength="150.0522" x="1089.4976" y="165.2539">Remote &#12398;&#26041;&#12364;&#26032;&#12375;&#12356; or &#21516;&#26178;</text><rect fill="#FEFECE" filter="url(#f1o8lupgd7jwoz)" height="34.1328" rx="12.5" ry="12.5" style="stroke:#A80036;stroke-width:1.5;" width="163.8184" x="850.1836" y="190.5293"/><text fill="#000000" font-family="sans-serif" font-size="12" lengthAdjust="spacing" textLength="143.8184" x="860.1836" y="212.1309">Remote &#12398;&#12501;&#12449;&#12452;&#12523;&#12434;&#21066;&#38500;</text><rect fill="#FEFECE" filter="url(#f1o8lupgd7jwoz)" height="48.2656" rx="12.5" ry="12.5" style="stroke:#A80036;stroke-width:1.5;" width="139.8184" x="1034.002" y="190.5293"/><text fill="#000000" font-family="sans-serif" font-size="12" lengthAdjust="spacing" textLength="119.8184" x="1044.002" y="212.1309">Remote &#12398;&#12501;&#12449;&#12452;&#12523;&#12434;</text><text fill="#000000" font-family="sans-serif" font-size="12" lengthAdjust="spacing" textLength="69.8086" x="1044.002" y="226.2637">Local &#12408;&#36861;&#21152;</text><polygon fill="#FEFECE" filter="url(#f1o8lupgd7jwoz)" points="1018.002,244.7949,1030.002,256.7949,1018.002,268.7949,1006.002,256.7949,1018.002,244.7949" style="stroke:#A80036;stroke-width:1.5;"/><polygon fill="#FEFECE" filter="url(#f1o8lupgd7jwoz)" points="624.9407,322.7949,624.9407,322.7949,636.9407,334.7949,624.9407,346.7949,624.9407,346.7949,612.9407,334.7949,624.9407,322.7949" style="stroke:#A80036;stroke-width:1.5;"/><ellipse cx="624.9407" cy="376.7949" fill="none" filter="url(#f1o8lupgd7jwoz)" rx="10" ry="10" style="stroke:#000000;stroke-width:1;"/><line style="stroke:#000000;stroke-width:2.5;" x1="618.7535" x2="631.1279" y1="370.6077" y2="382.9821"/><line style="stroke:#000000;stroke-width:2.5;" x1="631.1279" x2="618.7535" y1="370.6077" y2="382.9821"/><line style="stroke:#A80036;stroke-width:1.5;" x1="161.6665" x2="85.9043" y1="167.5742" y2="167.5742"/><line style="stroke:#A80036;stroke-width:1.5;" x1="85.9043" x2="85.9043" y1="167.5742" y2="216.4395"/><polygon fill="#A80036" points="81.9043,206.4395,85.9043,216.4395,89.9043,206.4395,85.9043,210.4395" style="stroke:#A80036;stroke-width:1;"/><text fill="#000000" font-family="sans-serif" font-size="11" lengthAdjust="spacing" textLength="109.8335" x="85.9043" y="196.1641">Remote &#12398;&#26041;&#12364;&#26032;&#12375;&#12356;</text><line style="stroke:#A80036;stroke-width:1.5;" x1="285.9717" x2="400.6382" y1="167.5742" y2="167.5742"/><line style="stroke:#A80036;stroke-width:1.5;" x1="400.6382" x2="400.6382" y1="167.5742" y2="290.7949"/><line style="stroke:#A80036;stroke-width:1.5;" x1="400.6382" x2="235.8191" y1="290.7949" y2="290.7949"/><polygon fill="#A80036" points="245.8191,286.7949,235.8191,290.7949,245.8191,294.7949,241.8191,290.7949" style="stroke:#A80036;stroke-width:1;"/><text fill="#000000" font-family="sans-serif" font-size="11" lengthAdjust="spacing" textLength="22" x="404.6382" y="171.7314">&#21516;&#12376;</text><line style="stroke:#A80036;stroke-width:1.5;" x1="297.647" x2="297.647" y1="167.5742" y2="216.4395"/><polygon fill="#A80036" points="293.647,206.4395,297.647,216.4395,301.647,206.4395,297.647,210.4395" style="stroke:#A80036;stroke-width:1;"/><text fill="#000000" font-family="sans-serif" font-size="11" lengthAdjust="spacing" textLength="96.9912" x="297.647" y="191.1641">Local &#12398;&#26041;&#12364;&#26032;&#12375;&#12356;</text><line style="stroke:#A80036;stroke-width:1.5;" x1="85.9043" x2="85.9043" y1="264.7051" y2="290.7949"/><line style="stroke:#A80036;stroke-width:1.5;" x1="85.9043" x2="211.8191" y1="290.7949" y2="290.7949"/><polygon fill="#A80036" points="201.8191,286.7949,211.8191,290.7949,201.8191,294.7949,205.8191,290.7949" style="stroke:#A80036;stroke-width:1;"/><line style="stroke:#A80036;stroke-width:1.5;" x1="297.647" x2="297.647" y1="264.7051" y2="290.7949"/><polygon fill="#A80036" points="293.647,280.7949,297.647,290.7949,301.647,280.7949,297.647,284.7949" style="stroke:#A80036;stroke-width:1;"/><line style="stroke:#A80036;stroke-width:1.5;" x1="546.4717" x2="536.4717" y1="167.5742" y2="167.5742"/><line style="stroke:#A80036;stroke-width:1.5;" x1="536.4717" x2="536.4717" y1="167.5742" y2="190.5293"/><polygon fill="#A80036" points="532.4717,180.5293,536.4717,190.5293,540.4717,180.5293,536.4717,184.5293" style="stroke:#A80036;stroke-width:1;"/><line style="stroke:#A80036;stroke-width:1.5;" x1="702.3052" x2="712.3052" y1="167.5742" y2="167.5742"/><line style="stroke:#A80036;stroke-width:1.5;" x1="712.3052" x2="712.3052" y1="167.5742" y2="190.5293"/><polygon fill="#A80036" points="708.3052,180.5293,712.3052,190.5293,716.3052,180.5293,712.3052,184.5293" style="stroke:#A80036;stroke-width:1;"/><line style="stroke:#A80036;stroke-width:1.5;" x1="536.4717" x2="536.4717" y1="224.6621" y2="256.7949"/><line style="stroke:#A80036;stroke-width:1.5;" x1="536.4717" x2="612.3884" y1="256.7949" y2="256.7949"/><polygon fill="#A80036" points="602.3884,252.7949,612.3884,256.7949,602.3884,260.7949,606.3884,256.7949" style="stroke:#A80036;stroke-width:1;"/><line style="stroke:#A80036;stroke-width:1.5;" x1="712.3052" x2="712.3052" y1="238.7949" y2="256.7949"/><line style="stroke:#A80036;stroke-width:1.5;" x1="712.3052" x2="636.3884" y1="256.7949" y2="256.7949"/><polygon fill="#A80036" points="646.3884,252.7949,636.3884,256.7949,646.3884,260.7949,642.3884,256.7949" style="stroke:#A80036;stroke-width:1;"/><line style="stroke:#A80036;stroke-width:1.5;" x1="946.5063" x2="932.0928" y1="167.5742" y2="167.5742"/><line style="stroke:#A80036;stroke-width:1.5;" x1="932.0928" x2="932.0928" y1="167.5742" y2="190.5293"/><polygon fill="#A80036" points="928.0928,180.5293,932.0928,190.5293,936.0928,180.5293,932.0928,184.5293" style="stroke:#A80036;stroke-width:1;"/><line style="stroke:#A80036;stroke-width:1.5;" x1="1089.4976" x2="1103.9111" y1="167.5742" y2="167.5742"/><line style="stroke:#A80036;stroke-width:1.5;" x1="1103.9111" x2="1103.9111" y1="167.5742" y2="190.5293"/><polygon fill="#A80036" points="1099.9111,180.5293,1103.9111,190.5293,1107.9111,180.5293,1103.9111,184.5293" style="stroke:#A80036;stroke-width:1;"/><line style="stroke:#A80036;stroke-width:1.5;" x1="932.0928" x2="932.0928" y1="224.6621" y2="256.7949"/><line style="stroke:#A80036;stroke-width:1.5;" x1="932.0928" x2="1006.002" y1="256.7949" y2="256.7949"/><polygon fill="#A80036" points="996.002,252.7949,1006.002,256.7949,996.002,260.7949,1000.002,256.7949" style="stroke:#A80036;stroke-width:1;"/><line style="stroke:#A80036;stroke-width:1.5;" x1="1103.9111" x2="1103.9111" y1="238.7949" y2="256.7949"/><line style="stroke:#A80036;stroke-width:1.5;" x1="1103.9111" x2="1030.002" y1="256.7949" y2="256.7949"/><polygon fill="#A80036" points="1040.002,252.7949,1030.002,256.7949,1040.002,260.7949,1036.002,256.7949" style="stroke:#A80036;stroke-width:1;"/><line style="stroke:#A80036;stroke-width:1.5;" x1="562.7881" x2="223.8191" y1="105.7539" y2="105.7539"/><line style="stroke:#A80036;stroke-width:1.5;" x1="223.8191" x2="223.8191" y1="105.7539" y2="154.6191"/><polygon fill="#A80036" points="219.8191,144.6191,223.8191,154.6191,227.8191,144.6191,223.8191,148.6191" style="stroke:#A80036;stroke-width:1;"/><text fill="#000000" font-family="sans-serif" font-size="11" lengthAdjust="spacing" textLength="55" x="223.8191" y="134.3438">&#20001;&#26041;&#12395;&#23384;&#22312;</text><line style="stroke:#A80036;stroke-width:1.5;" x1="687.0933" x2="1018.002" y1="105.7539" y2="105.7539"/><line style="stroke:#A80036;stroke-width:1.5;" x1="1018.002" x2="1018.002" y1="105.7539" y2="154.6191"/><polygon fill="#A80036" points="1014.002,144.6191,1018.002,154.6191,1022.002,144.6191,1018.002,148.6191" style="stroke:#A80036;stroke-width:1;"/><text fill="#000000" font-family="sans-serif" font-size="11" lengthAdjust="spacing" textLength="98.8335" x="1018.002" y="134.3438">Remote &#12395;&#12398;&#12415;&#23384;&#22312;</text><line style="stroke:#A80036;stroke-width:1.5;" x1="624.9407" x2="624.9407" y1="118.709" y2="130.679"/><line style="stroke:#A80036;stroke-width:1.5;" x1="624.9407" x2="624.3884" y1="130.679" y2="130.679"/><line style="stroke:#A80036;stroke-width:1.5;" x1="624.3884" x2="624.3884" y1="130.679" y2="154.6191"/><polygon fill="#A80036" points="620.3884,144.6191,624.3884,154.6191,628.3884,144.6191,624.3884,148.6191" style="stroke:#A80036;stroke-width:1;"/><text fill="#000000" font-family="sans-serif" font-size="11" lengthAdjust="spacing" textLength="85.9912" x="624.3884" y="135.8213">Local &#12395;&#12398;&#12415;&#23384;&#22312;</text><line style="stroke:#A80036;stroke-width:1.5;" x1="223.8191" x2="223.8191" y1="302.7949" y2="334.7949"/><line style="stroke:#A80036;stroke-width:1.5;" x1="223.8191" x2="612.9407" y1="334.7949" y2="334.7949"/><polygon fill="#A80036" points="602.9407,330.7949,612.9407,334.7949,602.9407,338.7949,606.9407,334.7949" style="stroke:#A80036;stroke-width:1;"/><line style="stroke:#A80036;stroke-width:1.5;" x1="1018.002" x2="1018.002" y1="268.7949" y2="334.7949"/><line style="stroke:#A80036;stroke-width:1.5;" x1="1018.002" x2="636.9407" y1="334.7949" y2="334.7949"/><polygon fill="#A80036" points="646.9407,330.7949,636.9407,334.7949,646.9407,338.7949,642.9407,334.7949" style="stroke:#A80036;stroke-width:1;"/><line style="stroke:#A80036;stroke-width:1.5;" x1="624.3884" x2="624.3884" y1="268.7949" y2="292.8398"/><line style="stroke:#A80036;stroke-width:1.5;" x1="624.3884" x2="624.9407" y1="292.8398" y2="292.8398"/><line style="stroke:#A80036;stroke-width:1.5;" x1="624.9407" x2="624.9407" y1="292.8398" y2="322.7949"/><polygon fill="#A80036" points="620.9407,312.7949,624.9407,322.7949,628.9407,312.7949,624.9407,316.7949" style="stroke:#A80036;stroke-width:1;"/><line style="stroke:#A80036;stroke-width:1.5;" x1="624.9407" x2="624.9407" y1="70.1436" y2="92.7988"/><polygon fill="#A80036" points="620.9407,82.7988,624.9407,92.7988,628.9407,82.7988,624.9407,86.7988" style="stroke:#A80036;stroke-width:1;"/><line style="stroke:#A80036;stroke-width:1.5;" x1="624.9407" x2="624.9407" y1="346.7949" y2="366.7949"/><polygon fill="#A80036" points="620.9407,356.7949,624.9407,366.7949,628.9407,356.7949,624.9407,360.7949" style="stroke:#A80036;stroke-width:1;"/><?plantuml-src dP9DIyD048Rl-HLxCu8tRthJgoUz5igIRZGqtPHaHJpkHWMb1nNjXnQqKY6q63_eeOhYZrcpr7_XnbZpOLEXjs5dzdbdtXbY41C1xfvprk6iozq-ftvmN1FjAr5_3evFnEDBu5zmTXEcs82xFSvUk7kjLZUgY_EAufGD36pBGSfS65QX3IjW1MhbJTlQngLLoxHiG6o87Pb2cCWV1Df4qKqB4WDl0cmHj0Ggi8oAkhEBDLGgwjjOK-SL09mTWsXRG5spD6W2JZsmZYgoNeP-0QUwPgVY_cpqweRVDEWWe7uCEt84Jll1NJDeUs7YFwAu78ZwWsZSYXPB4SVCkFWRNPFLd3OutOkA05WQW_raTy71Vk0_Is81nuIVHzgFL9SJCh-GF9MOaYFpIvYY8jVCQJDY8boAh56oFOG7mUbxqaH3JxQOz8nwgGaFZpvRtQoTW6mXFBELaXDXeqcGcLvBb1jvpS_QauHosfF4XOGV6J4WhpCyznRxLpOnsN3q_XOSNI-FhJDqvS-5vFYM63jhNBopQRxDU1iJVSie_hKjTqaJVClLZIURw5jyUZ9IlW00?></g></svg>