<svg xmlns="http://www.w3.org/2000/svg" xmlns:xlink="http://www.w3.org/1999/xlink" contentStyleType="text/css" data-diagram-type="ACTIVITY" height="1408px" preserveAspectRatio="none" style="width:1315px;height:1408px;background:#FFFFFF;" version="1.1" viewBox="0 0 1315 1408" width="1315px" zoomAndPan="magnify"><title>&#12501;&#12449;&#12452;&#12523;&#12398;&#21516;&#26399;&#26041;&#21521;&#27770;&#23450;&#12450;&#12523;&#12468;&#12522;&#12474;&#12512;</title><defs><filter height="300%" id="f1m1venr0jsm2d" width="300%" x="-1" y="-1"><feGaussianBlur result="blurOut" stdDeviation="2"/><feColorMatrix in="blurOut" result="blurOut2" type="matrix" values="0 0 0 0 0 0 0 0 0 0 0 0 0 0 0 0 0 0 .4 0"/><feOffset dx="4" dy="4" in="blurOut2" result="blurOut3"/><feBlend in="SourceGraphic" in2="blurOut3" mode="normal"/></filter></defs><g><text fill="#000000" font-family="sans-serif" font-size="14" font-weight="bold" lengthAdjust="spacing" textLength="238" x="537.4407" y="33.5352">&#12501;&#12449;&#12452;&#12523;&#12398;&#21516;&#26399;&#26041;&#21521;&#27770;&#23450;&#12450;&#12523;&#12468;&#12522;&#12474;&#12512;</text><ellipse cx="654.9407" cy="57.4883" fill="#000000" filter="url(#f1m1venr0jsm2d)" rx="10" ry="10" style="stroke:#000000;stroke-width:1;"/><polygon fill="#FEFECE" filter="url(#f1m1venr0jsm2d)" points="627.4407,87.4883,682.4407,87.4883,694.4407,99.4883,682.4407,111.4883,627.4407,111.4883,615.4407,99.4883,627.4407,87.4883" style="stroke:#A80036;stroke-width:1.5;"/><text fill="#000000" font-family="sans-serif" font-size="11" lengthAdjust="spacing" textLength="55" x="627.4407" y="103.6455">&#21516;&#26399;&#12514;&#12540;&#12489;</text><rect fill="none" filter="url(#f1m1venr0jsm2d)" height="73.7988" style="stroke:#000000;stroke-width:1;" width="212.5361" x="198.2783" y="138.1694"/><path d="M292.2783,138.1694 L292.2783,147.6577 L282.2783,157.6577 L198.2783,157.6577" fill="none" style="stroke:#000000;stroke-width:1;"/><text fill="#000000" font-family="sans-serif" font-size="14" lengthAdjust="spacing" textLength="84" x="201.2783" y="152.7046">&#21452;&#26041;&#21521;&#12395;&#21516;&#26399;</text><path d="M208.2783,174.6577 L208.2783,199.9683 A0,0 0 0 0 208.2783,199.9683 L360.8145,199.9683 A0,0 0 0 0 360.8145,199.9683 L360.8145,192.6577 L380.8145,187.313 L360.8145,184.6577 L360.8145,184.6577 L350.8145,174.6577 L208.2783,174.6577 A0,0 0 0 0 208.2783,174.6577" fill="#FBFB77" filter="url(#f1m1venr0jsm2d)" style="stroke:#A80036;stroke-width:1;"/><path d="M350.8145,174.6577 L350.8145,184.6577 L360.8145,184.6577 L350.8145,174.6577" fill="#FBFB77" style="stroke:#A80036;stroke-width:1;"/><text fill="#000000" font-family="sans-serif" font-size="13" lengthAdjust="spacing" textLength="131.5361" x="214.2783" y="192.2261">make_fsynced_func()</text><ellipse cx="390.8145" cy="187.313" fill="#FEFECE" filter="url(#f1m1venr0jsm2d)" rx="10" ry="10" style="stroke:#A80036;stroke-width:1;"/><path d="M388.6191,192.063 L388.6191,191.1958 L390.3535,191.1958 L390.3535,184.3521 L388.6191,184.7856 L388.6191,183.895 L391.5137,183.1743 L391.5137,191.1958 L393.248,191.1958 L393.248,192.063 Z " fill="#000000"/><rect fill="none" filter="url(#f1m1venr0jsm2d)" height="73.7988" style="stroke:#000000;stroke-width:1;" width="240.1484" x="495.5005" y="138.1694"/><path d="M586.9438,138.1694 L586.9438,147.6577 L576.9438,157.6577 L495.5005,157.6577" fill="none" style="stroke:#000000;stroke-width:1;"/><text fill="#000000" font-family="sans-serif" font-size="14" lengthAdjust="spacing" textLength="81.4434" x="498.5005" y="152.7046">Local &#12395;&#21516;&#26399;</text><path d="M505.5005,174.6577 L505.5005,199.9683 A0,0 0 0 0 505.5005,199.9683 L685.6489,199.9683 A0,0 0 0 0 685.6489,199.9683 L685.6489,192.6577 L705.6489,187.313 L685.6489,184.6577 L685.6489,184.6577 L675.6489,174.6577 L505.5005,174.6577 A0,0 0 0 0 505.5005,174.6577" fill="#FBFB77" filter="url(#f1m1venr0jsm2d)" style="stroke:#A80036;stroke-width:1;"/><path d="M675.6489,174.6577 L675.6489,184.6577 L685.6489,184.6577 L675.6489,174.6577" fill="#FBFB77" style="stroke:#A80036;stroke-width:1;"/><text fill="#000000" font-family="sans-serif" font-size="13" lengthAdjust="spacing" textLength="159.1484" x="511.5005" y="192.2261">make_fsynced_put_func()</text><ellipse cx="715.6489" cy="187.313" fill="#FEFECE" filter="url(#f1m1venr0jsm2d)" rx="10" ry="10" style="stroke:#A80036;stroke-width:1;"/><path d="M713.145,191.813 L713.145,190.7993 Q713.6489,189.6216 715.1841,188.2329 L715.8462,187.6411 Q717.1235,186.4868 717.1235,185.3501 Q717.1235,184.6235 716.687,184.2075 Q716.2505,183.7915 715.4888,183.7915 Q714.5864,183.7915 713.3618,184.4888 L713.3618,183.4692 Q714.5161,182.9243 715.6528,182.9243 Q716.8716,182.9243 717.6099,183.5806 Q718.3481,184.2368 718.3481,185.3208 Q718.3481,186.1001 717.9761,186.7036 Q717.604,187.3071 716.5903,188.1685 L716.145,188.5493 Q714.7563,189.7271 714.5396,190.7993 L718.3071,190.7993 L718.3071,191.813 Z " fill="#000000"/><rect fill="none" filter="url(#f1m1venr0jsm2d)" height="73.7988" style="stroke:#000000;stroke-width:1;" width="239.2471" x="814.3838" y="138.1694"/><path d="M922.1719,138.1694 L922.1719,147.6577 L912.1719,157.6577 L814.3838,157.6577" fill="none" style="stroke:#000000;stroke-width:1;"/><text fill="#000000" font-family="sans-serif" font-size="14" lengthAdjust="spacing" textLength="97.7881" x="817.3838" y="152.7046">Remote &#12395;&#21516;&#26399;</text><path d="M824.3838,174.6577 L824.3838,199.9683 A0,0 0 0 0 824.3838,199.9683 L1003.6309,199.9683 A0,0 0 0 0 1003.6309,199.9683 L1003.6309,192.6577 L1023.6309,187.313 L1003.6309,184.6577 L1003.6309,184.6577 L993.6309,174.6577 L824.3838,174.6577 A0,0 0 0 0 824.3838,174.6577" fill="#FBFB77" filter="url(#f1m1venr0jsm2d)" style="stroke:#A80036;stroke-width:1;"/><path d="M993.6309,174.6577 L993.6309,184.6577 L1003.6309,184.6577 L993.6309,174.6577" fill="#FBFB77" style="stroke:#A80036;stroke-width:1;"/><text fill="#000000" font-family="sans-serif" font-size="13" lengthAdjust="spacing" textLength="158.2471" x="830.3838" y="192.2261">make_fsynced_get_func()</text><ellipse cx="1033.6309" cy="187.313" fill="#FEFECE" filter="url(#f1m1venr0jsm2d)" rx="10" ry="10" style="stroke:#A80036;stroke-width:1;"/><path d="M1031.8496,191.7485 L1031.8496,190.6704 Q1033.0918,191.1626 1033.8066,191.1626 Q1034.6328,191.1626 1035.1514,190.6792 Q1035.6699,190.1958 1035.6699,189.4282 Q1035.6699,187.6001 1033.1094,187.6001 L1032.6523,187.6001 L1032.6523,186.8208 L1033.0566,186.8149 Q1035.459,186.8149 1035.459,185.1216 Q1035.459,183.7915 1033.877,183.7915 Q1033.0098,183.7915 1031.9668,184.2778 L1031.9668,183.27 Q1032.9922,182.9243 1033.959,182.9243 Q1036.6191,182.9243 1036.6191,184.9341 Q1036.6191,186.4634 1034.8086,187.1138 Q1036.9063,187.6001 1036.9063,189.4106 Q1036.9063,190.6353 1036.0977,191.3325 Q1035.2891,192.0298 1033.877,192.0298 Q1033.0742,192.0298 1031.8496,191.7485 Z " fill="#000000"/><rect fill="none" filter="url(#f1m1venr0jsm2d)" height="380.7949" style="stroke:#000000;stroke-width:1;" width="1287.8813" x="11" y="221.9683"/><path d="M105,221.9683 L105,231.4565 L95,241.4565 L11,241.4565" fill="none" style="stroke:#000000;stroke-width:1;"/><text fill="#000000" font-family="sans-serif" font-size="14" lengthAdjust="spacing" textLength="84" x="14" y="236.5034">&#21452;&#26041;&#21521;&#12395;&#21516;&#26399;</text><path d="M472.4045,251.4565 L472.4045,276.7671 L624.9407,276.7671 L624.9407,261.4565 L614.9407,251.4565 L472.4045,251.4565" fill="#FBFB77" filter="url(#f1m1venr0jsm2d)" style="stroke:#A80036;stroke-width:1;"/><path d="M614.9407,251.4565 L614.9407,261.4565 L624.9407,261.4565 L614.9407,251.4565" fill="#FBFB77" style="stroke:#A80036;stroke-width:1;"/><text fill="#000000" font-family="sans-serif" font-size="13" lengthAdjust="spacing" textLength="131.5361" x="478.4045" y="269.0249">make_fsynced_func()</text><ellipse cx="654.9407" cy="264.1118" fill="#FEFECE" filter="url(#f1m1venr0jsm2d)" rx="10" ry="10" style="stroke:#A80036;stroke-width:1;"/><path d="M652.7454,268.8618 L652.7454,267.9946 L654.4797,267.9946 L654.4797,261.1509 L652.7454,261.5845 L652.7454,260.6938 L655.6399,259.9731 L655.6399,267.9946 L657.3743,267.9946 L657.3743,268.8618 Z " fill="#000000"/><polygon fill="#FEFECE" filter="url(#f1m1venr0jsm2d)" points="604.7881,296.7671,705.0933,296.7671,717.0933,309.7222,705.0933,322.6772,604.7881,322.6772,592.7881,309.7222,604.7881,296.7671" style="stroke:#A80036;stroke-width:1.5;"/><text fill="#000000" font-family="sans-serif" font-size="11" lengthAdjust="spacing" textLength="100.3052" x="604.7881" y="307.4019">Local &#12392; Remote &#12398;</text><text fill="#000000" font-family="sans-serif" font-size="11" lengthAdjust="spacing" textLength="77" x="604.7881" y="320.3569">&#12501;&#12449;&#12452;&#12523;&#12434;&#27604;&#36611;</text><polygon fill="#FEFECE" filter="url(#f1m1venr0jsm2d)" points="183.6665,358.5874,283.9717,358.5874,295.9717,371.5425,283.9717,384.4976,183.6665,384.4976,171.6665,371.5425,183.6665,358.5874" style="stroke:#A80036;stroke-width:1.5;"/><text fill="#000000" font-family="sans-serif" font-size="11" lengthAdjust="spacing" textLength="100.3052" x="183.6665" y="369.2222">Local &#12392; Remote &#12398;</text><text fill="#000000" font-family="sans-serif" font-size="11" lengthAdjust="spacing" textLength="77" x="183.6665" y="382.1772">&#26356;&#26032;&#26085;&#26178;&#12434;&#27604;&#36611;</text><rect fill="#FEFECE" filter="url(#f1m1venr0jsm2d)" height="48.2656" rx="12.5" ry="12.5" style="stroke:#A80036;stroke-width:1.5;" width="149.8086" x="21" y="420.4077"/><text fill="#000000" font-family="sans-serif" font-size="12" lengthAdjust="spacing" textLength="129.8086" x="31" y="442.0093">Local &#12398;&#12501;&#12449;&#12452;&#12523;&#20869;&#23481;&#12434;</text><text fill="#000000" font-family="sans-serif" font-size="12" lengthAdjust="spacing" textLength="119.8184" x="31" y="456.1421">Remote &#12398;&#20869;&#23481;&#12395;&#26356;&#26032;</text><rect fill="#FEFECE" filter="url(#f1m1venr0jsm2d)" height="48.2656" rx="12.5" ry="12.5" style="stroke:#A80036;stroke-width:1.5;" width="163.8184" x="225.7378" y="420.4077"/><text fill="#000000" font-family="sans-serif" font-size="12" lengthAdjust="spacing" textLength="143.8184" x="235.7378" y="442.0093">Remote &#12398;&#12501;&#12449;&#12452;&#12523;&#20869;&#23481;&#12434;</text><text fill="#000000" font-family="sans-serif" font-size="12" lengthAdjust="spacing" textLength="105.8086" x="235.7378" y="456.1421">Local &#12398;&#20869;&#23481;&#12395;&#26356;&#26032;</text><polygon fill="#FEFECE" filter="url(#f1m1venr0jsm2d)" points="233.8191,482.7632,233.8191,482.7632,245.8191,494.7632,233.8191,506.7632,233.8191,506.7632,221.8191,494.7632,233.8191,482.7632" style="stroke:#A80036;stroke-width:1.5;"/><polygon fill="#FEFECE" filter="url(#f1m1venr0jsm2d)" points="588.4717,358.5874,720.3052,358.5874,732.3052,371.5425,720.3052,384.4976,588.4717,384.4976,576.4717,371.5425,588.4717,358.5874" style="stroke:#A80036;stroke-width:1.5;"/><text fill="#000000" font-family="sans-serif" font-size="11" lengthAdjust="spacing" textLength="96.9912" x="588.4717" y="369.2222">Local &#12398;&#26356;&#26032;&#26085;&#26178;&#12392;</text><text fill="#000000" font-family="sans-serif" font-size="11" lengthAdjust="spacing" textLength="131.8335" x="588.4717" y="382.1772">Remote &#12398;&#21066;&#38500;&#26085;&#26178;&#12434;&#27604;&#36611;</text><text fill="#000000" font-family="sans-serif" font-size="11" lengthAdjust="spacing" textLength="109.8335" x="466.6382" y="369.2222">Remote &#12398;&#26041;&#12364;&#26032;&#12375;&#12356;</text><text fill="#000000" font-family="sans-serif" font-size="11" lengthAdjust="spacing" textLength="135.314" x="732.3052" y="356.2671">Remote &#12398;&#21066;&#38500;&#35352;&#37682;&#12364;&#12394;&#12356;,</text><text fill="#000000" font-family="sans-serif" font-size="11" lengthAdjust="spacing" textLength="137.21" x="732.3052" y="369.2222">Local &#12398;&#26041;&#12364;&#26032;&#12375;&#12356; or &#21516;&#26178;</text><rect fill="#FEFECE" filter="url(#f1m1venr0jsm2d)" height="34.1328" rx="12.5" ry="12.5" style="stroke:#A80036;stroke-width:1.5;" width="149.8086" x="491.5674" y="394.4976"/><text fill="#000000" font-family="sans-serif" font-size="12" lengthAdjust="spacing" textLength="129.8086" x="501.5674" y="416.0991">Local &#12398;&#12501;&#12449;&#12452;&#12523;&#12434;&#21066;&#38500;</text><rect fill="#FEFECE" filter="url(#f1m1venr0jsm2d)" height="48.2656" rx="12.5" ry="12.5" style="stroke:#A80036;stroke-width:1.5;" width="125.8086" x="679.4009" y="394.4976"/><text fill="#000000" font-family="sans-serif" font-size="12" lengthAdjust="spacing" textLength="105.8086" x="689.4009" y="416.0991">Local &#12398;&#12501;&#12449;&#12452;&#12523;&#12434;</text><text fill="#000000" font-family="sans-serif" font-size="12" lengthAdjust="spacing" textLength="83.8184" x="689.4009" y="430.2319">Remote &#12408;&#36861;&#21152;</text><polygon fill="#FEFECE" filter="url(#f1m1venr0jsm2d)" points="654.3884,448.7632,666.3884,460.7632,654.3884,472.7632,642.3884,460.7632,654.3884,448.7632" style="stroke:#A80036;stroke-width:1.5;"/><polygon fill="#FEFECE" filter="url(#f1m1venr0jsm2d)" points="1007.8379,358.5874,1126.8291,358.5874,1138.8291,371.5425,1126.8291,384.4976,1007.8379,384.4976,995.8379,371.5425,1007.8379,358.5874" style="stroke:#A80036;stroke-width:1.5;"/><text fill="#000000" font-family="sans-serif" font-size="11" lengthAdjust="spacing" textLength="109.8335" x="1007.8379" y="369.2222">Remote &#12398;&#26356;&#26032;&#26085;&#26178;&#12392;</text><text fill="#000000" font-family="sans-serif" font-size="11" lengthAdjust="spacing" textLength="118.9912" x="1007.8379" y="382.1772">Local &#12398;&#21066;&#38500;&#26085;&#26178;&#12434;&#27604;&#36611;</text><text fill="#000000" font-family="sans-serif" font-size="11" lengthAdjust="spacing" textLength="96.9912" x="898.8467" y="369.2222">Local &#12398;&#26041;&#12364;&#26032;&#12375;&#12356;</text><text fill="#000000" font-family="sans-serif" font-size="11" lengthAdjust="spacing" textLength="122.4717" x="1138.8291" y="356.2671">Local &#12398;&#21066;&#38500;&#35352;&#37682;&#12364;&#12394;&#12356;,</text><text fill="#000000" font-family="sans-serif" font-size="11" lengthAdjust="spacing" textLength="150.0522" x="1138.8291" y="369.2222">Remote &#12398;&#26041;&#12364;&#26032;&#12375;&#12356; or &#21516;&#26178;</text><rect fill="#FEFECE" filter="url(#f1m1venr0jsm2d)" height="34.1328" rx="12.5" ry="12.5" style="stroke:#A80036;stroke-width:1.5;" width="163.8184" x="899.5151" y="394.4976"/><text fill="#000000" font-family="sans-serif" font-size="12" lengthAdjust="spacing" textLength="143.8184" x="909.5151" y="416.0991">Remote &#12398;&#12501;&#12449;&#12452;&#12523;&#12434;&#21066;&#38500;</text><rect fill="#FEFECE" filter="url(#f1m1venr0jsm2d)" height="48.2656" rx="12.5" ry="12.5" style="stroke:#A80036;stroke-width:1.5;" width="139.8184" x="1083.3335" y="394.4976"/><text fill="#000000" font-family="sans-serif" font-size="12" lengthAdjust="spacing" textLength="119.8184" x="1093.3335" y="416.0991">Remote &#12398;&#12501;&#12449;&#12452;&#12523;&#12434;</text><text fill="#000000" font-family="sans-serif" font-size="12" lengthAdjust="spacing" textLength="69.8086" x="1093.3335" y="430.2319">Local &#12408;&#36861;&#21152;</text><polygon fill="#FEFECE" filter="url(#f1m1venr0jsm2d)" points="1067.3335,448.7632,1079.3335,460.7632,1067.3335,472.7632,1055.3335,460.7632,1067.3335,448.7632" style="stroke:#A80036;stroke-width:1.5;"/><polygon fill="#FEFECE" filter="url(#f1m1venr0jsm2d)" points="654.9407,526.7632,654.9407,526.7632,666.9407,538.7632,654.9407,550.7632,654.9407,550.7632,642.9407,538.7632,654.9407,526.7632" style="stroke:#A80036;stroke-width:1.5;"/><ellipse cx="654.9407" cy="580.7632" fill="none" filter="url(#f1m1venr0jsm2d)" rx="10" ry="10" style="stroke:#000000;stroke-width:1.5;"/><line style="stroke:#000000;stroke-width:2.5;" x1="648.7535" x2="661.1279" y1="574.576" y2="586.9504"/><line style="stroke:#000000;stroke-width:2.5;" x1="661.1279" x2="648.7535" y1="574.576" y2="586.9504"/><rect fill="none" filter="url(#f1m1venr0jsm2d)" height="384.4072" style="stroke:#000000;stroke-width:1;" width="647.8525" x="331.0144" y="612.7632"/><path d="M422.4578,612.7632 L422.4578,622.2515 L412.4578,632.2515 L331.0144,632.2515" fill="none" style="stroke:#000000;stroke-width:1;"/><text fill="#000000" font-family="sans-serif" font-size="14" lengthAdjust="spacing" textLength="81.4434" x="334.0144" y="627.2983">Local &#12395;&#21516;&#26399;</text><path d="M444.7922,642.2515 L444.7922,667.562 L624.9407,667.562 L624.9407,652.2515 L614.9407,642.2515 L444.7922,642.2515" fill="#FBFB77" filter="url(#f1m1venr0jsm2d)" style="stroke:#A80036;stroke-width:1;"/><path d="M614.9407,642.2515 L614.9407,652.2515 L624.9407,652.2515 L614.9407,642.2515" fill="#FBFB77" style="stroke:#A80036;stroke-width:1;"/><text fill="#000000" font-family="sans-serif" font-size="13" lengthAdjust="spacing" textLength="159.1484" x="450.7922" y="659.8198">make_fsynced_put_func()</text><ellipse cx="654.9407" cy="654.9067" fill="#FEFECE" filter="url(#f1m1venr0jsm2d)" rx="10" ry="10" style="stroke:#A80036;stroke-width:1;"/><path d="M652.4368,659.4067 L652.4368,658.3931 Q652.9407,657.2153 654.4758,655.8267 L655.1379,655.2349 Q656.4153,654.0806 656.4153,652.9438 Q656.4153,652.2173 655.9788,651.8013 Q655.5422,651.3853 654.7805,651.3853 Q653.8782,651.3853 652.6536,652.0825 L652.6536,651.063 Q653.8079,650.5181 654.9446,650.5181 Q656.1633,650.5181 656.9016,651.1743 Q657.6399,651.8306 657.6399,652.9146 Q657.6399,653.6938 657.2678,654.2974 Q656.8958,654.9009 655.8821,655.7622 L655.4368,656.1431 Q654.0481,657.3208 653.8313,658.3931 L657.5989,658.3931 L657.5989,659.4067 Z " fill="#000000"/><polygon fill="#FEFECE" filter="url(#f1m1venr0jsm2d)" points="604.7881,687.562,705.0933,687.562,717.0933,700.5171,705.0933,713.4722,604.7881,713.4722,592.7881,700.5171,604.7881,687.562" style="stroke:#A80036;stroke-width:1.5;"/><text fill="#000000" font-family="sans-serif" font-size="11" lengthAdjust="spacing" textLength="100.3052" x="604.7881" y="698.1968">Local &#12392; Remote &#12398;</text><text fill="#000000" font-family="sans-serif" font-size="11" lengthAdjust="spacing" textLength="77" x="604.7881" y="711.1519">&#12501;&#12449;&#12452;&#12523;&#12434;&#27604;&#36611;</text><polygon fill="#FEFECE" filter="url(#f1m1venr0jsm2d)" points="449.9236,749.3823,550.2288,749.3823,562.2288,762.3374,550.2288,775.2925,449.9236,775.2925,437.9236,762.3374,449.9236,749.3823" style="stroke:#A80036;stroke-width:1.5;"/><text fill="#000000" font-family="sans-serif" font-size="11" lengthAdjust="spacing" textLength="100.3052" x="449.9236" y="760.0171">Local &#12392; Remote &#12398;</text><text fill="#000000" font-family="sans-serif" font-size="11" lengthAdjust="spacing" textLength="77" x="449.9236" y="772.9722">&#26356;&#26032;&#26085;&#26178;&#12434;&#27604;&#36611;</text><rect fill="#FEFECE" filter="url(#f1m1venr0jsm2d)" height="48.2656" rx="12.5" ry="12.5" style="stroke:#A80036;stroke-width:1.5;" width="163.8184" x="341.0144" y="818.9048"/><text fill="#000000" font-family="sans-serif" font-size="12" lengthAdjust="spacing" textLength="143.8184" x="351.0144" y="840.5063">Remote &#12398;&#12501;&#12449;&#12452;&#12523;&#20869;&#23481;&#12434;</text><text fill="#000000" font-family="sans-serif" font-size="12" lengthAdjust="spacing" textLength="105.8086" x="351.0144" y="854.6392">Local &#12398;&#20869;&#23481;&#12395;&#26356;&#26032;</text><polygon fill="#FEFECE" filter="url(#f1m1venr0jsm2d)" points="500.0762,877.1704,500.0762,877.1704,512.0762,889.1704,500.0762,901.1704,500.0762,901.1704,488.0762,889.1704,500.0762,877.1704" style="stroke:#A80036;stroke-width:1.5;"/><rect fill="#FEFECE" filter="url(#f1m1venr0jsm2d)" height="48.2656" rx="12.5" ry="12.5" style="stroke:#A80036;stroke-width:1.5;" width="125.8086" x="619.2288" y="749.3823"/><text fill="#000000" font-family="sans-serif" font-size="12" lengthAdjust="spacing" textLength="105.8086" x="629.2288" y="770.9839">Local &#12398;&#12501;&#12449;&#12452;&#12523;&#12434;</text><text fill="#000000" font-family="sans-serif" font-size="12" lengthAdjust="spacing" textLength="83.8184" x="629.2288" y="785.1167">Remote &#12408;&#36861;&#21152;</text><rect fill="#FEFECE" filter="url(#f1m1venr0jsm2d)" height="34.1328" rx="12.5" ry="12.5" style="stroke:#A80036;stroke-width:1.5;" width="163.8184" x="788.1243" y="749.3823"/><text fill="#000000" font-family="sans-serif" font-size="12" lengthAdjust="spacing" textLength="143.8184" x="798.1243" y="770.9839">Remote &#12398;&#12501;&#12449;&#12452;&#12523;&#12434;&#21066;&#38500;</text><polygon fill="#FEFECE" filter="url(#f1m1venr0jsm2d)" points="654.9407,921.1704,654.9407,921.1704,666.9407,933.1704,654.9407,945.1704,654.9407,945.1704,642.9407,933.1704,654.9407,921.1704" style="stroke:#A80036;stroke-width:1.5;"/><ellipse cx="654.9407" cy="975.1704" fill="none" filter="url(#f1m1venr0jsm2d)" rx="10" ry="10" style="stroke:#000000;stroke-width:1.5;"/><line style="stroke:#000000;stroke-width:2.5;" x1="648.7535" x2="661.1279" y1="968.9832" y2="981.3576"/><line style="stroke:#000000;stroke-width:2.5;" x1="661.1279" x2="648.7535" y1="968.9832" y2="981.3576"/><rect fill="none" filter="url(#f1m1venr0jsm2d)" height="384.4072" style="stroke:#000000;stroke-width:1;" width="640.8477" x="334.5168" y="1007.1704"/><path d="M442.3049,1007.1704 L442.3049,1016.6587 L432.3049,1026.6587 L334.5168,1026.6587" fill="none" style="stroke:#000000;stroke-width:1;"/><text fill="#000000" font-family="sans-serif" font-size="14" lengthAdjust="spacing" textLength="97.7881" x="337.5168" y="1021.7056">Remote &#12395;&#21516;&#26399;</text><path d="M445.6936,1036.6587 L445.6936,1061.9692 L624.9407,1061.9692 L624.9407,1046.6587 L614.9407,1036.6587 L445.6936,1036.6587" fill="#FBFB77" filter="url(#f1m1venr0jsm2d)" style="stroke:#A80036;stroke-width:1;"/><path d="M614.9407,1036.6587 L614.9407,1046.6587 L624.9407,1046.6587 L614.9407,1036.6587" fill="#FBFB77" style="stroke:#A80036;stroke-width:1;"/><text fill="#000000" font-family="sans-serif" font-size="13" lengthAdjust="spacing" textLength="158.2471" x="451.6936" y="1054.2271">make_fsynced_get_func()</text><ellipse cx="654.9407" cy="1049.314" fill="#FEFECE" filter="url(#f1m1venr0jsm2d)" rx="10" ry="10" style="stroke:#A80036;stroke-width:1;"/><path d="M653.1594,1053.7495 L653.1594,1052.6714 Q654.4016,1053.1636 655.1165,1053.1636 Q655.9426,1053.1636 656.4612,1052.6802 Q656.9797,1052.1968 656.9797,1051.4292 Q656.9797,1049.6011 654.4192,1049.6011 L653.9622,1049.6011 L653.9622,1048.8218 L654.3665,1048.8159 Q656.7688,1048.8159 656.7688,1047.1226 Q656.7688,1045.7925 655.1868,1045.7925 Q654.3196,1045.7925 653.2766,1046.2788 L653.2766,1045.271 Q654.302,1044.9253 655.2688,1044.9253 Q657.929,1044.9253 657.929,1046.9351 Q657.929,1048.4644 656.1184,1049.1147 Q658.2161,1049.6011 658.2161,1051.4116 Q658.2161,1052.6362 657.4075,1053.3335 Q656.5989,1054.0308 655.1868,1054.0308 Q654.384,1054.0308 653.1594,1053.7495 Z " fill="#000000"/><polygon fill="#FEFECE" filter="url(#f1m1venr0jsm2d)" points="604.7881,1081.9692,705.0933,1081.9692,717.0933,1094.9243,705.0933,1107.8794,604.7881,1107.8794,592.7881,1094.9243,604.7881,1081.9692" style="stroke:#A80036;stroke-width:1.5;"/><text fill="#000000" font-family="sans-serif" font-size="11" lengthAdjust="spacing" textLength="100.3052" x="604.7881" y="1092.604">Local &#12392; Remote &#12398;</text><text fill="#000000" font-family="sans-serif" font-size="11" lengthAdjust="spacing" textLength="77" x="604.7881" y="1105.5591">&#12501;&#12449;&#12452;&#12523;&#12434;&#27604;&#36611;</text><polygon fill="#FEFECE" filter="url(#f1m1venr0jsm2d)" points="446.4211,1143.7896,546.7263,1143.7896,558.7263,1156.7446,546.7263,1169.6997,446.4211,1169.6997,434.4211,1156.7446,446.4211,1143.7896" style="stroke:#A80036;stroke-width:1.5;"/><text fill="#000000" font-family="sans-serif" font-size="11" lengthAdjust="spacing" textLength="100.3052" x="446.4211" y="1154.4243">Local &#12392; Remote &#12398;</text><text fill="#000000" font-family="sans-serif" font-size="11" lengthAdjust="spacing" textLength="77" x="446.4211" y="1167.3794">&#26356;&#26032;&#26085;&#26178;&#12434;&#27604;&#36611;</text><rect fill="#FEFECE" filter="url(#f1m1venr0jsm2d)" height="48.2656" rx="12.5" ry="12.5" style="stroke:#A80036;stroke-width:1.5;" width="149.8086" x="344.5168" y="1213.312"/><text fill="#000000" font-family="sans-serif" font-size="12" lengthAdjust="spacing" textLength="129.8086" x="354.5168" y="1234.9136">Local &#12398;&#12501;&#12449;&#12452;&#12523;&#20869;&#23481;&#12434;</text><text fill="#000000" font-family="sans-serif" font-size="12" lengthAdjust="spacing" textLength="119.8184" x="354.5168" y="1249.0464">Remote &#12398;&#20869;&#23481;&#12395;&#26356;&#26032;</text><polygon fill="#FEFECE" filter="url(#f1m1venr0jsm2d)" points="496.5737,1271.5776,496.5737,1271.5776,508.5737,1283.5776,496.5737,1295.5776,496.5737,1295.5776,484.5737,1283.5776,496.5737,1271.5776" style="stroke:#A80036;stroke-width:1.5;"/><rect fill="#FEFECE" filter="url(#f1m1venr0jsm2d)" height="48.2656" rx="12.5" ry="12.5" style="stroke:#A80036;stroke-width:1.5;" width="139.8184" x="615.7263" y="1143.7896"/><text fill="#000000" font-family="sans-serif" font-size="12" lengthAdjust="spacing" textLength="119.8184" x="625.7263" y="1165.3911">Remote &#12398;&#12501;&#12449;&#12452;&#12523;&#12434;</text><text fill="#000000" font-family="sans-serif" font-size="12" lengthAdjust="spacing" textLength="69.8086" x="625.7263" y="1179.5239">Local &#12408;&#36861;&#21152;</text><rect fill="#FEFECE" filter="url(#f1m1venr0jsm2d)" height="34.1328" rx="12.5" ry="12.5" style="stroke:#A80036;stroke-width:1.5;" width="149.8086" x="791.6267" y="1143.7896"/><text fill="#000000" font-family="sans-serif" font-size="12" lengthAdjust="spacing" textLength="129.8086" x="801.6267" y="1165.3911">Local &#12398;&#12501;&#12449;&#12452;&#12523;&#12434;&#21066;&#38500;</text><polygon fill="#FEFECE" filter="url(#f1m1venr0jsm2d)" points="654.9407,1315.5776,654.9407,1315.5776,666.9407,1327.5776,654.9407,1339.5776,654.9407,1339.5776,642.9407,1327.5776,654.9407,1315.5776" style="stroke:#A80036;stroke-width:1.5;"/><ellipse cx="654.9407" cy="1369.5776" fill="none" filter="url(#f1m1venr0jsm2d)" rx="10" ry="10" style="stroke:#000000;stroke-width:1.5;"/><line style="stroke:#000000;stroke-width:2.5;" x1="648.7535" x2="661.1279" y1="1363.3905" y2="1375.7648"/><line style="stroke:#000000;stroke-width:2.5;" x1="661.1279" x2="648.7535" y1="1363.3905" y2="1375.7648"/><line style="stroke:#A80036;stroke-width:1.5;" x1="615.4407" x2="390.8145" y1="99.4883" y2="99.4883"/><line style="stroke:#A80036;stroke-width:1.5;" x1="390.8145" x2="390.8145" y1="99.4883" y2="177.313"/><polygon fill="#A80036" points="386.8145,167.313,390.8145,177.313,394.8145,167.313,390.8145,171.313" style="stroke:#A80036;stroke-width:1;"/><text fill="#000000" font-family="sans-serif" font-size="11" lengthAdjust="spacing" textLength="84.686" x="390.8145" y="137.9434">psync --sync ...</text><line style="stroke:#A80036;stroke-width:1.5;" x1="694.4407" x2="1033.6309" y1="99.4883" y2="99.4883"/><line style="stroke:#A80036;stroke-width:1.5;" x1="1033.6309" x2="1033.6309" y1="99.4883" y2="177.313"/><polygon fill="#A80036" points="1029.6309,167.313,1033.6309,177.313,1037.6309,167.313,1033.6309,171.313" style="stroke:#A80036;stroke-width:1;"/><text fill="#000000" font-family="sans-serif" font-size="11" lengthAdjust="spacing" textLength="77.9722" x="1033.6309" y="137.9434">psync --get ...</text><line style="stroke:#A80036;stroke-width:1.5;" x1="715.6489" x2="715.6489" y1="99.4883" y2="177.313"/><polygon fill="#A80036" points="711.6489,167.313,715.6489,177.313,719.6489,167.313,715.6489,171.313" style="stroke:#A80036;stroke-width:1;"/><text fill="#000000" font-family="sans-serif" font-size="11" lengthAdjust="spacing" textLength="78.7349" x="715.6489" y="132.9434">psync --put ...</text><line style="stroke:#A80036;stroke-width:1.5;" x1="654.9407" x2="654.9407" y1="67.4883" y2="87.4883"/><polygon fill="#A80036" points="650.9407,77.4883,654.9407,87.4883,658.9407,77.4883,654.9407,81.4883" style="stroke:#A80036;stroke-width:1;"/><line style="stroke:#A80036;stroke-width:1.5;" x1="171.6665" x2="95.9043" y1="371.5425" y2="371.5425"/><line style="stroke:#A80036;stroke-width:1.5;" x1="95.9043" x2="95.9043" y1="371.5425" y2="420.4077"/><polygon fill="#A80036" points="91.9043,410.4077,95.9043,420.4077,99.9043,410.4077,95.9043,414.4077" style="stroke:#A80036;stroke-width:1;"/><text fill="#000000" font-family="sans-serif" font-size="11" lengthAdjust="spacing" textLength="109.8335" x="95.9043" y="400.1323">Remote &#12398;&#26041;&#12364;&#26032;&#12375;&#12356;</text><line style="stroke:#A80036;stroke-width:1.5;" x1="295.9717" x2="424.6382" y1="371.5425" y2="371.5425"/><line style="stroke:#A80036;stroke-width:1.5;" x1="424.6382" x2="424.6382" y1="371.5425" y2="494.7632"/><line style="stroke:#A80036;stroke-width:1.5;" x1="424.6382" x2="245.8191" y1="494.7632" y2="494.7632"/><polygon fill="#A80036" points="255.8191,490.7632,245.8191,494.7632,255.8191,498.7632,251.8191,494.7632" style="stroke:#A80036;stroke-width:1;"/><text fill="#000000" font-family="sans-serif" font-size="11" lengthAdjust="spacing" textLength="22" x="428.6382" y="375.6997">&#21516;&#12376;</text><line style="stroke:#A80036;stroke-width:1.5;" x1="307.647" x2="307.647" y1="371.5425" y2="420.4077"/><polygon fill="#A80036" points="303.647,410.4077,307.647,420.4077,311.647,410.4077,307.647,414.4077" style="stroke:#A80036;stroke-width:1;"/><text fill="#000000" font-family="sans-serif" font-size="11" lengthAdjust="spacing" textLength="96.9912" x="307.647" y="395.1323">Local &#12398;&#26041;&#12364;&#26032;&#12375;&#12356;</text><line style="stroke:#A80036;stroke-width:1.5;" x1="95.9043" x2="95.9043" y1="468.6733" y2="494.7632"/><line style="stroke:#A80036;stroke-width:1.5;" x1="95.9043" x2="221.8191" y1="494.7632" y2="494.7632"/><polygon fill="#A80036" points="211.8191,490.7632,221.8191,494.7632,211.8191,498.7632,215.8191,494.7632" style="stroke:#A80036;stroke-width:1;"/><line style="stroke:#A80036;stroke-width:1.5;" x1="307.647" x2="307.647" y1="468.6733" y2="494.7632"/><polygon fill="#A80036" points="303.647,484.7632,307.647,494.7632,311.647,484.7632,307.647,488.7632" style="stroke:#A80036;stroke-width:1;"/><line style="stroke:#A80036;stroke-width:1.5;" x1="576.4717" x2="566.4717" y1="371.5425" y2="371.5425"/><line style="stroke:#A80036;stroke-width:1.5;" x1="566.4717" x2="566.4717" y1="371.5425" y2="394.4976"/><polygon fill="#A80036" points="562.4717,384.4976,566.4717,394.4976,570.4717,384.4976,566.4717,388.4976" style="stroke:#A80036;stroke-width:1;"/><line style="stroke:#A80036;stroke-width:1.5;" x1="732.3052" x2="742.3052" y1="371.5425" y2="371.5425"/><line style="stroke:#A80036;stroke-width:1.5;" x1="742.3052" x2="742.3052" y1="371.5425" y2="394.4976"/><polygon fill="#A80036" points="738.3052,384.4976,742.3052,394.4976,746.3052,384.4976,742.3052,388.4976" style="stroke:#A80036;stroke-width:1;"/><line style="stroke:#A80036;stroke-width:1.5;" x1="566.4717" x2="566.4717" y1="428.6304" y2="460.7632"/><line style="stroke:#A80036;stroke-width:1.5;" x1="566.4717" x2="642.3884" y1="460.7632" y2="460.7632"/><polygon fill="#A80036" points="632.3884,456.7632,642.3884,460.7632,632.3884,464.7632,636.3884,460.7632" style="stroke:#A80036;stroke-width:1;"/><line style="stroke:#A80036;stroke-width:1.5;" x1="742.3052" x2="742.3052" y1="442.7632" y2="460.7632"/><line style="stroke:#A80036;stroke-width:1.5;" x1="742.3052" x2="666.3884" y1="460.7632" y2="460.7632"/><polygon fill="#A80036" points="676.3884,456.7632,666.3884,460.7632,676.3884,464.7632,672.3884,460.7632" style="stroke:#A80036;stroke-width:1;"/><line style="stroke:#A80036;stroke-width:1.5;" x1="995.8379" x2="981.4243" y1="371.5425" y2="371.5425"/><line style="stroke:#A80036;stroke-width:1.5;" x1="981.4243" x2="981.4243" y1="371.5425" y2="394.4976"/><polygon fill="#A80036" points="977.4243,384.4976,981.4243,394.4976,985.4243,384.4976,981.4243,388.4976" style="stroke:#A80036;stroke-width:1;"/><line style="stroke:#A80036;stroke-width:1.5;" x1="1138.8291" x2="1153.2427" y1="371.5425" y2="371.5425"/><line style="stroke:#A80036;stroke-width:1.5;" x1="1153.2427" x2="1153.2427" y1="371.5425" y2="394.4976"/><polygon fill="#A80036" points="1149.2427,384.4976,1153.2427,394.4976,1157.2427,384.4976,1153.2427,388.4976" style="stroke:#A80036;stroke-width:1;"/><line style="stroke:#A80036;stroke-width:1.5;" x1="981.4243" x2="981.4243" y1="428.6304" y2="460.7632"/><line style="stroke:#A80036;stroke-width:1.5;" x1="981.4243" x2="1055.3335" y1="460.7632" y2="460.7632"/><polygon fill="#A80036" points="1045.3335,456.7632,1055.3335,460.7632,1045.3335,464.7632,1049.3335,460.7632" style="stroke:#A80036;stroke-width:1;"/><line style="stroke:#A80036;stroke-width:1.5;" x1="1153.2427" x2="1153.2427" y1="442.7632" y2="460.7632"/><line style="stroke:#A80036;stroke-width:1.5;" x1="1153.2427" x2="1079.3335" y1="460.7632" y2="460.7632"/><polygon fill="#A80036" points="1089.3335,456.7632,1079.3335,460.7632,1089.3335,464.7632,1085.3335,460.7632" style="stroke:#A80036;stroke-width:1;"/><line style="stroke:#A80036;stroke-width:1.5;" x1="592.7881" x2="233.8191" y1="309.7222" y2="309.7222"/><line style="stroke:#A80036;stroke-width:1.5;" x1="233.8191" x2="233.8191" y1="309.7222" y2="358.5874"/><polygon fill="#A80036" points="229.8191,348.5874,233.8191,358.5874,237.8191,348.5874,233.8191,352.5874" style="stroke:#A80036;stroke-width:1;"/><text fill="#000000" font-family="sans-serif" font-size="11" lengthAdjust="spacing" textLength="55" x="233.8191" y="338.312">&#20001;&#26041;&#12395;&#23384;&#22312;</text><line style="stroke:#A80036;stroke-width:1.5;" x1="717.0933" x2="1067.3335" y1="309.7222" y2="309.7222"/><line style="stroke:#A80036;stroke-width:1.5;" x1="1067.3335" x2="1067.3335" y1="309.7222" y2="358.5874"/><polygon fill="#A80036" points="1063.3335,348.5874,1067.3335,358.5874,1071.3335,348.5874,1067.3335,352.5874" style="stroke:#A80036;stroke-width:1;"/><text fill="#000000" font-family="sans-serif" font-size="11" lengthAdjust="spacing" textLength="98.8335" x="1067.3335" y="338.312">Remote &#12395;&#12398;&#12415;&#23384;&#22312;</text><line style="stroke:#A80036;stroke-width:1.5;" x1="654.9407" x2="654.9407" y1="322.6772" y2="334.6473"/><line style="stroke:#A80036;stroke-width:1.5;" x1="654.9407" x2="654.3884" y1="334.6473" y2="334.6473"/><line style="stroke:#A80036;stroke-width:1.5;" x1="654.3884" x2="654.3884" y1="334.6473" y2="358.5874"/><polygon fill="#A80036" points="650.3884,348.5874,654.3884,358.5874,658.3884,348.5874,654.3884,352.5874" style="stroke:#A80036;stroke-width:1;"/><text fill="#000000" font-family="sans-serif" font-size="11" lengthAdjust="spacing" textLength="85.9912" x="654.3884" y="339.7896">Local &#12395;&#12398;&#12415;&#23384;&#22312;</text><line style="stroke:#A80036;stroke-width:1.5;" x1="233.8191" x2="233.8191" y1="506.7632" y2="538.7632"/><line style="stroke:#A80036;stroke-width:1.5;" x1="233.8191" x2="642.9407" y1="538.7632" y2="538.7632"/><polygon fill="#A80036" points="632.9407,534.7632,642.9407,538.7632,632.9407,542.7632,636.9407,538.7632" style="stroke:#A80036;stroke-width:1;"/><line style="stroke:#A80036;stroke-width:1.5;" x1="1067.3335" x2="1067.3335" y1="472.7632" y2="538.7632"/><line style="stroke:#A80036;stroke-width:1.5;" x1="1067.3335" x2="666.9407" y1="538.7632" y2="538.7632"/><polygon fill="#A80036" points="676.9407,534.7632,666.9407,538.7632,676.9407,542.7632,672.9407,538.7632" style="stroke:#A80036;stroke-width:1;"/><line style="stroke:#A80036;stroke-width:1.5;" x1="654.3884" x2="654.3884" y1="472.7632" y2="496.8081"/><line style="stroke:#A80036;stroke-width:1.5;" x1="654.3884" x2="654.9407" y1="496.8081" y2="496.8081"/><line style="stroke:#A80036;stroke-width:1.5;" x1="654.9407" x2="654.9407" y1="496.8081" y2="526.7632"/><polygon fill="#A80036" points="650.9407,516.7632,654.9407,526.7632,658.9407,516.7632,654.9407,520.7632" style="stroke:#A80036;stroke-width:1;"/><line style="stroke:#A80036;stroke-width:1.5;" x1="654.9407" x2="654.9407" y1="274.1118" y2="296.7671"/><polygon fill="#A80036" points="650.9407,286.7671,654.9407,296.7671,658.9407,286.7671,654.9407,290.7671" style="stroke:#A80036;stroke-width:1;"/><line style="stroke:#A80036;stroke-width:1.5;" x1="654.9407" x2="654.9407" y1="550.7632" y2="570.7632"/><polygon fill="#A80036" points="650.9407,560.7632,654.9407,570.7632,658.9407,560.7632,654.9407,564.7632" style="stroke:#A80036;stroke-width:1;"/><line style="stroke:#A80036;stroke-width:1.5;" x1="437.9236" x2="422.9236" y1="762.3374" y2="762.3374"/><line style="stroke:#A80036;stroke-width:1.5;" x1="422.9236" x2="422.9236" y1="762.3374" y2="818.9048"/><polygon fill="#A80036" points="418.9236,808.9048,422.9236,818.9048,426.9236,808.9048,422.9236,812.9048" style="stroke:#A80036;stroke-width:1;"/><text fill="#000000" font-family="sans-serif" font-size="11" lengthAdjust="spacing" textLength="22" x="422.9236" y="797.4048">&#36949;&#12358;</text><line style="stroke:#A80036;stroke-width:1.5;" x1="562.2288" x2="577.2288" y1="762.3374" y2="762.3374"/><line style="stroke:#A80036;stroke-width:1.5;" x1="577.2288" x2="577.2288" y1="762.3374" y2="889.1704"/><line style="stroke:#A80036;stroke-width:1.5;" x1="577.2288" x2="512.0762" y1="889.1704" y2="889.1704"/><polygon fill="#A80036" points="522.0762,885.1704,512.0762,889.1704,522.0762,893.1704,518.0762,889.1704" style="stroke:#A80036;stroke-width:1;"/><text fill="#000000" font-family="sans-serif" font-size="11" lengthAdjust="spacing" textLength="22" x="581.2288" y="766.4946">&#21516;&#12376;</text><line style="stroke:#A80036;stroke-width:1.5;" x1="422.9236" x2="422.9236" y1="867.1704" y2="889.1704"/><line style="stroke:#A80036;stroke-width:1.5;" x1="422.9236" x2="488.0762" y1="889.1704" y2="889.1704"/><polygon fill="#A80036" points="478.0762,885.1704,488.0762,889.1704,478.0762,893.1704,482.0762,889.1704" style="stroke:#A80036;stroke-width:1;"/><line style="stroke:#A80036;stroke-width:1.5;" x1="592.7881" x2="500.0762" y1="700.5171" y2="700.5171"/><line style="stroke:#A80036;stroke-width:1.5;" x1="500.0762" x2="500.0762" y1="700.5171" y2="749.3823"/><polygon fill="#A80036" points="496.0762,739.3823,500.0762,749.3823,504.0762,739.3823,500.0762,743.3823" style="stroke:#A80036;stroke-width:1;"/><text fill="#000000" font-family="sans-serif" font-size="11" lengthAdjust="spacing" textLength="55" x="500.0762" y="729.1069">&#20001;&#26041;&#12395;&#23384;&#22312;</text><line style="stroke:#A80036;stroke-width:1.5;" x1="717.0933" x2="870.0334" y1="700.5171" y2="700.5171"/><line style="stroke:#A80036;stroke-width:1.5;" x1="870.0334" x2="870.0334" y1="700.5171" y2="749.3823"/><polygon fill="#A80036" points="866.0334,739.3823,870.0334,749.3823,874.0334,739.3823,870.0334,743.3823" style="stroke:#A80036;stroke-width:1;"/><text fill="#000000" font-family="sans-serif" font-size="11" lengthAdjust="spacing" textLength="98.8335" x="870.0334" y="729.1069">Remote &#12395;&#12398;&#12415;&#23384;&#22312;</text><line style="stroke:#A80036;stroke-width:1.5;" x1="654.9407" x2="654.9407" y1="713.4722" y2="725.4422"/><line style="stroke:#A80036;stroke-width:1.5;" x1="654.9407" x2="682.1331" y1="725.4422" y2="725.4422"/><line style="stroke:#A80036;stroke-width:1.5;" x1="682.1331" x2="682.1331" y1="725.4422" y2="749.3823"/><polygon fill="#A80036" points="678.1331,739.3823,682.1331,749.3823,686.1331,739.3823,682.1331,743.3823" style="stroke:#A80036;stroke-width:1;"/><text fill="#000000" font-family="sans-serif" font-size="11" lengthAdjust="spacing" textLength="85.9912" x="654.9407" y="730.5845">Local &#12395;&#12398;&#12415;&#23384;&#22312;</text><line style="stroke:#A80036;stroke-width:1.5;" x1="500.0762" x2="500.0762" y1="901.1704" y2="933.1704"/><line style="stroke:#A80036;stroke-width:1.5;" x1="500.0762" x2="642.9407" y1="933.1704" y2="933.1704"/><polygon fill="#A80036" points="632.9407,929.1704,642.9407,933.1704,632.9407,937.1704,636.9407,933.1704" style="stroke:#A80036;stroke-width:1;"/><line style="stroke:#A80036;stroke-width:1.5;" x1="870.0334" x2="870.0334" y1="783.5151" y2="933.1704"/><line style="stroke:#A80036;stroke-width:1.5;" x1="870.0334" x2="666.9407" y1="933.1704" y2="933.1704"/><polygon fill="#A80036" points="676.9407,929.1704,666.9407,933.1704,676.9407,937.1704,672.9407,933.1704" style="stroke:#A80036;stroke-width:1;"/><line style="stroke:#A80036;stroke-width:1.5;" x1="682.1331" x2="682.1331" y1="797.6479" y2="872.1704"/><line style="stroke:#A80036;stroke-width:1.5;" x1="682.1331" x2="654.9407" y1="872.1704" y2="872.1704"/><line style="stroke:#A80036;stroke-width:1.5;" x1="654.9407" x2="654.9407" y1="872.1704" y2="921.1704"/><polygon fill="#A80036" points="650.9407,911.1704,654.9407,921.1704,658.9407,911.1704,654.9407,915.1704" style="stroke:#A80036;stroke-width:1;"/><line style="stroke:#A80036;stroke-width:1.5;" x1="654.9407" x2="654.9407" y1="664.9067" y2="687.562"/><polygon fill="#A80036" points="650.9407,677.562,654.9407,687.562,658.9407,677.562,654.9407,681.562" style="stroke:#A80036;stroke-width:1;"/><line style="stroke:#A80036;stroke-width:1.5;" x1="654.9407" x2="654.9407" y1="945.1704" y2="965.1704"/><polygon fill="#A80036" points="650.9407,955.1704,654.9407,965.1704,658.9407,955.1704,654.9407,959.1704" style="stroke:#A80036;stroke-width:1;"/><line style="stroke:#A80036;stroke-width:1.5;" x1="434.4211" x2="419.4211" y1="1156.7446" y2="1156.7446"/><line style="stroke:#A80036;stroke-width:1.5;" x1="419.4211" x2="419.4211" y1="1156.7446" y2="1213.312"/><polygon fill="#A80036" points="415.4211,1203.312,419.4211,1213.312,423.4211,1203.312,419.4211,1207.312" style="stroke:#A80036;stroke-width:1;"/><text fill="#000000" font-family="sans-serif" font-size="11" lengthAdjust="spacing" textLength="22" x="419.4211" y="1191.812">&#36949;&#12358;</text><line style="stroke:#A80036;stroke-width:1.5;" x1="558.7263" x2="573.7263" y1="1156.7446" y2="1156.7446"/><line style="stroke:#A80036;stroke-width:1.5;" x1="573.7263" x2="573.7263" y1="1156.7446" y2="1283.5776"/><line style="stroke:#A80036;stroke-width:1.5;" x1="573.7263" x2="508.5737" y1="1283.5776" y2="1283.5776"/><polygon fill="#A80036" points="518.5737,1279.5776,508.5737,1283.5776,518.5737,1287.5776,514.5737,1283.5776" style="stroke:#A80036;stroke-width:1;"/><text fill="#000000" font-family="sans-serif" font-size="11" lengthAdjust="spacing" textLength="22" x="577.7263" y="1160.9019">&#21516;&#12376;</text><line style="stroke:#A80036;stroke-width:1.5;" x1="419.4211" x2="419.4211" y1="1261.5776" y2="1283.5776"/><line style="stroke:#A80036;stroke-width:1.5;" x1="419.4211" x2="484.5737" y1="1283.5776" y2="1283.5776"/><polygon fill="#A80036" points="474.5737,1279.5776,484.5737,1283.5776,474.5737,1287.5776,478.5737,1283.5776" style="stroke:#A80036;stroke-width:1;"/><line style="stroke:#A80036;stroke-width:1.5;" x1="592.7881" x2="496.5737" y1="1094.9243" y2="1094.9243"/><line style="stroke:#A80036;stroke-width:1.5;" x1="496.5737" x2="496.5737" y1="1094.9243" y2="1143.7896"/><polygon fill="#A80036" points="492.5737,1133.7896,496.5737,1143.7896,500.5737,1133.7896,496.5737,1137.7896" style="stroke:#A80036;stroke-width:1;"/><text fill="#000000" font-family="sans-serif" font-size="11" lengthAdjust="spacing" textLength="55" x="496.5737" y="1123.5142">&#20001;&#26041;&#12395;&#23384;&#22312;</text><line style="stroke:#A80036;stroke-width:1.5;" x1="717.0933" x2="866.531" y1="1094.9243" y2="1094.9243"/><line style="stroke:#A80036;stroke-width:1.5;" x1="866.531" x2="866.531" y1="1094.9243" y2="1143.7896"/><polygon fill="#A80036" points="862.531,1133.7896,866.531,1143.7896,870.531,1133.7896,866.531,1137.7896" style="stroke:#A80036;stroke-width:1;"/><text fill="#000000" font-family="sans-serif" font-size="11" lengthAdjust="spacing" textLength="98.8335" x="866.531" y="1123.5142">Remote &#12395;&#12398;&#12415;&#23384;&#22312;</text><line style="stroke:#A80036;stroke-width:1.5;" x1="654.9407" x2="654.9407" y1="1107.8794" y2="1119.8494"/><line style="stroke:#A80036;stroke-width:1.5;" x1="654.9407" x2="685.6355" y1="1119.8494" y2="1119.8494"/><line style="stroke:#A80036;stroke-width:1.5;" x1="685.6355" x2="685.6355" y1="1119.8494" y2="1143.7896"/><polygon fill="#A80036" points="681.6355,1133.7896,685.6355,1143.7896,689.6355,1133.7896,685.6355,1137.7896" style="stroke:#A80036;stroke-width:1;"/><text fill="#000000" font-family="sans-serif" font-size="11" lengthAdjust="spacing" textLength="85.9912" x="654.9407" y="1124.9917">Local &#12395;&#12398;&#12415;&#23384;&#22312;</text><line style="stroke:#A80036;stroke-width:1.5;" x1="496.5737" x2="496.5737" y1="1295.5776" y2="1327.5776"/><line style="stroke:#A80036;stroke-width:1.5;" x1="496.5737" x2="642.9407" y1="1327.5776" y2="1327.5776"/><polygon fill="#A80036" points="632.9407,1323.5776,642.9407,1327.5776,632.9407,1331.5776,636.9407,1327.5776" style="stroke:#A80036;stroke-width:1;"/><line style="stroke:#A80036;stroke-width:1.5;" x1="866.531" x2="866.531" y1="1177.9224" y2="1327.5776"/><line style="stroke:#A80036;stroke-width:1.5;" x1="866.531" x2="666.9407" y1="1327.5776" y2="1327.5776"/><polygon fill="#A80036" points="676.9407,1323.5776,666.9407,1327.5776,676.9407,1331.5776,672.9407,1327.5776" style="stroke:#A80036;stroke-width:1;"/><line style="stroke:#A80036;stroke-width:1.5;" x1="685.6355" x2="685.6355" y1="1192.0552" y2="1266.5776"/><line style="stroke:#A80036;stroke-width:1.5;" x1="685.6355" x2="654.9407" y1="1266.5776" y2="1266.5776"/><line style="stroke:#A80036;stroke-width:1.5;" x1="654.9407" x2="654.9407" y1="1266.5776" y2="1315.5776"/><polygon fill="#A80036" points="650.9407,1305.5776,654.9407,1315.5776,658.9407,1305.5776,654.9407,1309.5776" style="stroke:#A80036;stroke-width:1;"/><line style="stroke:#A80036;stroke-width:1.5;" x1="654.9407" x2="654.9407" y1="1059.314" y2="1081.9692"/><polygon fill="#A80036" points="650.9407,1071.9692,654.9407,1081.9692,658.9407,1071.9692,654.9407,1075.9692" style="stroke:#A80036;stroke-width:1;"/><line style="stroke:#A80036;stroke-width:1.5;" x1="654.9407" x2="654.9407" y1="1339.5776" y2="1359.5776"/><polygon fill="#A80036" points="650.9407,1349.5776,654.9407,1359.5776,658.9407,1349.5776,654.9407,1353.5776" style="stroke:#A80036;stroke-width:1;"/><!--SRC=[pPLFInj16CRlyoa6JmdKGDkRVeMUUXPasSoQnJWRiYDIIW-psmfAeBPKJLgXMYm4GxTQFAXO_31lTqc-HMUSRlR_heOUSab2PkVvpViyxxvZhviKTosR86QoDi7WxeDp0iufk2FWdh_N2uw-1WVN_jw7uEB6zpw3yqqkEPVWde5p0-unGZRJkWpPMoRJMxYcze0hdhi5TwUETCqckDQnNr4TBoxUVpKQZJhgY5qcCosA5_ptFGK1FbBx5_1hX77jQLryKekH9RoXhPDLGsudpLLZa-erkTOaJDDRw4sAqjba6SWBIzVQE4ruLa0G2fMKDPAbl2GRGYo3ULw04H8v64ARoavKxPBqo6XR6ZFfMgbLOK2X3qCyFQktGXF9En-3dv_6jwxSfah-StKYs1Bye-yV3UL2bMBmvJ8uE0yElmS39w4OQaOFtqkBuiw17m9_gnx2U2aKzkAdyxVV-TwrK5oXaSA_F_b8KPTZcAb84ILIAS1C5Kee8X3WVQKPnPS-WtofWD_5JJID-17Zdl5XeiATtSdWD6qdPYr2PxPIw2XPLGbf9sDHQ-DXVzBx9KI1dmd59p4_KZ1iTR5ip85JYOrLTZM- - -tl7Y-7rfa6odH8WM-nijF6HPcL-JPZR-JwbY9cRIiCASUtGcvKMQvlKUk9NsAIL0n0EVxAXaTY2ixT09dmVU3RS_8UFxBLgnly8RrN5dVUJIJleRAy4zVHlEVzNsw7sVD-t2lwWBohHtGwxhy0]--></g></svg>