<svg xmlns="http://www.w3.org/2000/svg" xmlns:xlink="http://www.w3.org/1999/xlink" contentStyleType="text/css" data-diagram-type="EBNF" height="814px" preserveAspectRatio="none" style="width:1431px;height:814px;background:#FFFFFF;" version="1.1" viewBox="0 0 1431 814" width="1431px" zoomAndPan="magnify"><title>&#36914;&#25431;&#29366;&#27841;&#20986;&#21147;&#12501;&#12457;&#12540;&#12510;&#12483;&#12488;</title><defs><filter height="300%" id="fpcklc6pbz716" width="300%" x="-1" y="-1"><feGaussianBlur result="blurOut" stdDeviation="2"/><feColorMatrix in="blurOut" result="blurOut2" type="matrix" values="0 0 0 0 0 0 0 0 0 0 0 0 0 0 0 0 0 0 .4 0"/><feOffset dx="4" dy="4" in="blurOut2" result="blurOut3"/><feBlend in="SourceGraphic" in2="blurOut3" mode="normal"/></filter></defs><g><text fill="#000000" font-family="sans-serif" font-size="14" font-weight="bold" lengthAdjust="spacing" textLength="168" x="628.9497" y="33.5352">&#36914;&#25431;&#29366;&#27841;&#20986;&#21147;&#12501;&#12457;&#12540;&#12510;&#12483;&#12488;</text><path d="M10,52.4883 L10,77.7988 L672.3862,77.7988 L672.3862,62.4883 L662.3862,52.4883 L10,52.4883" fill="#FBFB77" filter="url(#fpcklc6pbz716)" style="stroke:#A80036;stroke-width:1;"/><path d="M662.3862,52.4883 L662.3862,62.4883 L672.3862,62.4883 L662.3862,52.4883" fill="#FBFB77" style="stroke:#A80036;stroke-width:1;"/><text fill="#000000" font-family="sans-serif" font-size="13" lengthAdjust="spacing" textLength="633.1597" x="20.1133" y="70.0566">info &#12395;&#12501;&#12449;&#12452;&#12523;&#12487;&#12451;&#12473;&#12463;&#12522;&#12503;&#12479;&#12434;&#35373;&#23450;&#12377;&#12427;&#12392;&#21516;&#26399;&#20966;&#29702;&#12398;&#36914;&#25431;&#29366;&#27841;&#12364;ASCII&#25991;&#23383;&#21015;&#12391;&#12522;&#12450;&#12523;&#12479;&#12452;&#12512;&#12395;&#20986;&#21147;&#12373;&#12428;&#12427;</text><text fill="#000000" font-family="sans-serif" font-size="14" font-weight="bold" lengthAdjust="spacing" textLength="56" x="10" y="106.334">&#36914;&#25431;&#29366;&#27841;</text><path d="M48,148.5313 C48,154.5313 50,156.5313 56,156.5313" fill="none" style="stroke:#A80036;stroke-width:1.5;"/><line style="stroke:#A80036;stroke-width:1.5;" x1="48" x2="48" y1="132.2871" y2="148.5313"/><path d="M48,132.2871 C48,126.2871 50,124.2871 56,124.2871" fill="none" style="stroke:#A80036;stroke-width:1.5;"/><line style="stroke:#A80036;stroke-width:1.5;" x1="55" x2="1371.8994" y1="124.2871" y2="124.2871"/><path d="M843.1396,124.2871 L843.1396,121.2871 L837.1396,124.2871 L843.1396,127.2871 L843.1396,124.2871" fill="#A80036" style="stroke:#A80036;stroke-width:1.5;"/><path d="M1378.8994,148.5313 C1378.8994,154.5313 1376.8994,156.5313 1370.8994,156.5313" fill="none" style="stroke:#A80036;stroke-width:1.5;"/><line style="stroke:#A80036;stroke-width:1.5;" x1="1378.8994" x2="1378.8994" y1="132.2871" y2="148.5313"/><path d="M1370.8994,124.2871 C1376.8994,124.2871 1378.8994,126.2871 1378.8994,132.2871" fill="none" style="stroke:#A80036;stroke-width:1.5;"/><line style="stroke:#A80036;stroke-width:1.5;" x1="40" x2="55" y1="156.5313" y2="156.5313"/><line style="stroke:#A80036;stroke-width:1.5;" x1="1371.8994" x2="1386.8994" y1="156.5313" y2="156.5313"/><line style="stroke:#A80036;stroke-width:1.5;" x1="55" x2="55" y1="156.5313" y2="156.5313"/><rect fill="none" height="26.4883" style="stroke:#A80036;stroke-width:0.5;" width="14.5527" x="133.8369" y="143.2871"/><text fill="#000000" font-family="sans-serif" font-size="14" lengthAdjust="spacing" textLength="4.5527" x="138.8369" y="161.8223">[</text><path d="M55,189.7754 L55,215.0859 A0,0 0 0 0 55,215.0859 L227.2266,215.0859 A0,0 0 0 0 227.2266,215.0859 L227.2266,199.7754 L217.2266,189.7754 L145.1133,189.7754 L141.1133,169.7754 L137.1133,189.7754 L55,189.7754 A0,0 0 0 0 55,189.7754" fill="#FBFB77" filter="url(#fpcklc6pbz716)" style="stroke:#A80036;stroke-width:1;"/><path d="M217.2266,189.7754 L217.2266,199.7754 L227.2266,199.7754 L217.2266,189.7754" fill="#FBFB77" style="stroke:#A80036;stroke-width:1;"/><text fill="#000000" font-family="sans-serif" font-size="13" lengthAdjust="spacing" textLength="143" x="65.1133" y="207.3438">&#12487;&#12451;&#12524;&#12463;&#12488;&#12522;&#12398;&#21516;&#26399;&#38283;&#22987;</text><line style="stroke:#A80036;stroke-width:1.5;" x1="55" x2="133.8369" y1="156.5313" y2="156.5313"/><path d="M92.4185,156.5313 L92.4185,153.5313 L98.4185,156.5313 L92.4185,159.5313 L92.4185,156.5313" fill="#A80036" style="stroke:#A80036;stroke-width:1.5;"/><line style="stroke:#A80036;stroke-width:1.5;" x1="148.3896" x2="227.2266" y1="156.5313" y2="156.5313"/><path d="M185.8081,156.5313 L185.8081,153.5313 L191.8081,156.5313 L185.8081,159.5313 L185.8081,156.5313" fill="#A80036" style="stroke:#A80036;stroke-width:1.5;"/><line style="stroke:#A80036;stroke-width:1.5;" x1="227.2266" x2="247.2266" y1="156.5313" y2="156.5313"/><rect fill="none" height="26.4883" style="stroke:#A80036;stroke-width:0.5;" width="136" x="247.2266" y="143.2871"/><text fill="#000000" font-family="sans-serif" font-size="14" lengthAdjust="spacing" textLength="126" x="252.2266" y="161.8223">&#12487;&#12451;&#12524;&#12463;&#12488;&#12522;&#35672;&#21029;&#21517;</text><line style="stroke:#A80036;stroke-width:1.5;" x1="383.2266" x2="403.2266" y1="156.5313" y2="156.5313"/><rect fill="none" height="26.4883" style="stroke:#A80036;stroke-width:0.5;" width="26.0303" x="403.2266" y="143.2871"/><text fill="#000000" font-family="sans-serif" font-size="14" lengthAdjust="spacing" textLength="16.0303" x="408.2266" y="161.8223">\n</text><line style="stroke:#A80036;stroke-width:1.5;" x1="429.2568" x2="449.2568" y1="156.5313" y2="156.5313"/><path d="M457.2568,148.5313 C457.2568,154.5313 459.2568,156.5313 465.2568,156.5313" fill="none" style="stroke:#A80036;stroke-width:1.5;"/><line style="stroke:#A80036;stroke-width:1.5;" x1="457.2568" x2="457.2568" y1="144.2871" y2="148.5313"/><path d="M457.2568,144.2871 C457.2568,138.2871 459.2568,136.2871 465.2568,136.2871" fill="none" style="stroke:#A80036;stroke-width:1.5;"/><line style="stroke:#A80036;stroke-width:1.5;" x1="464.2568" x2="1118.6426" y1="136.2871" y2="136.2871"/><path d="M854.8883,136.2871 L854.8883,133.2871 L848.8883,136.2871 L854.8883,139.2871 L854.8883,136.2871" fill="#A80036" style="stroke:#A80036;stroke-width:1.5;"/><path d="M1125.6426,148.5313 C1125.6426,154.5313 1123.6426,156.5313 1117.6426,156.5313" fill="none" style="stroke:#A80036;stroke-width:1.5;"/><line style="stroke:#A80036;stroke-width:1.5;" x1="1125.6426" x2="1125.6426" y1="144.2871" y2="148.5313"/><path d="M1117.6426,136.2871 C1123.6426,136.2871 1125.6426,138.2871 1125.6426,144.2871" fill="none" style="stroke:#A80036;stroke-width:1.5;"/><line style="stroke:#A80036;stroke-width:1.5;" x1="449.2568" x2="464.2568" y1="156.5313" y2="156.5313"/><line style="stroke:#A80036;stroke-width:1.5;" x1="1118.6426" x2="1133.6426" y1="156.5313" y2="156.5313"/><line style="stroke:#A80036;stroke-width:1.5;" x1="464.2568" x2="464.2568" y1="156.5313" y2="156.5313"/><line style="stroke:#A80036;stroke-width:1.5;" x1="488.2568" x2="488.2568" y1="156.5313" y2="156.5313"/><rect fill="none" height="26.4883" style="stroke:#A80036;stroke-width:0.5;" width="17.54" x="572.1001" y="143.2871"/><text fill="#000000" font-family="sans-serif" font-size="14" lengthAdjust="spacing" textLength="7.54" x="577.1001" y="161.8223">S</text><path d="M488.2568,189.7754 L488.2568,215.0859 A0,0 0 0 0 488.2568,215.0859 L673.4834,215.0859 A0,0 0 0 0 673.4834,215.0859 L673.4834,199.7754 L663.4834,189.7754 L584.8701,189.7754 L580.8701,169.7754 L576.8701,189.7754 L488.2568,189.7754 A0,0 0 0 0 488.2568,189.7754" fill="#FBFB77" filter="url(#fpcklc6pbz716)" style="stroke:#A80036;stroke-width:1;"/><path d="M663.4834,189.7754 L663.4834,199.7754 L673.4834,199.7754 L663.4834,189.7754" fill="#FBFB77" style="stroke:#A80036;stroke-width:1;"/><text fill="#000000" font-family="sans-serif" font-size="13" lengthAdjust="spacing" textLength="156" x="498.3701" y="207.3438">&#21516;&#26399;&#23550;&#35937;&#12501;&#12449;&#12452;&#12523;&#12398;&#26908;&#32034;&#20013;</text><line style="stroke:#A80036;stroke-width:1.5;" x1="488.2568" x2="572.1001" y1="156.5313" y2="156.5313"/><path d="M528.1785,156.5313 L528.1785,153.5313 L534.1785,156.5313 L528.1785,159.5313 L528.1785,156.5313" fill="#A80036" style="stroke:#A80036;stroke-width:1.5;"/><line style="stroke:#A80036;stroke-width:1.5;" x1="589.6401" x2="673.4834" y1="156.5313" y2="156.5313"/><path d="M629.5618,156.5313 L629.5618,153.5313 L635.5618,156.5313 L629.5618,159.5313 L629.5618,156.5313" fill="#A80036" style="stroke:#A80036;stroke-width:1.5;"/><line style="stroke:#A80036;stroke-width:1.5;" x1="673.4834" x2="693.4834" y1="156.5313" y2="156.5313"/><rect fill="none" height="26.4883" style="stroke:#A80036;stroke-width:0.5;" width="21.1289" x="693.4834" y="143.2871"/><text fill="#000000" font-family="sans-serif" font-size="14" lengthAdjust="spacing" textLength="11.1289" x="698.4834" y="161.8223">+</text><line style="stroke:#A80036;stroke-width:1.5;" x1="714.6123" x2="734.6123" y1="156.5313" y2="156.5313"/><rect fill="none" height="26.4883" style="stroke:#A80036;stroke-width:0.5;" width="192" x="734.6123" y="143.2871"/><text fill="#000000" font-family="sans-serif" font-size="14" lengthAdjust="spacing" textLength="182" x="739.6123" y="161.8223">&#26908;&#32034;&#28168;&#12415;&#21516;&#26399;&#23550;&#35937;&#12501;&#12449;&#12452;&#12523;&#25968;</text><line style="stroke:#A80036;stroke-width:1.5;" x1="464.2568" x2="488.2568" y1="156.5313" y2="156.5313"/><line style="stroke:#A80036;stroke-width:1.5;" x1="926.6123" x2="1072.6123" y1="156.5313" y2="156.5313"/><line style="stroke:#A80036;stroke-width:1.5;" x1="488.2568" x2="488.2568" y1="238.3301" y2="238.3301"/><rect fill="none" height="26.4883" style="stroke:#A80036;stroke-width:0.5;" width="19.7002" x="597.02" y="225.0859"/><text fill="#000000" font-family="sans-serif" font-size="14" lengthAdjust="spacing" textLength="9.7002" x="602.02" y="243.6211">U</text><path d="M488.2568,271.5742 L488.2568,296.8848 A0,0 0 0 0 488.2568,296.8848 L725.4834,296.8848 A0,0 0 0 0 725.4834,296.8848 L725.4834,281.5742 L715.4834,271.5742 L610.8701,271.5742 L606.8701,251.5742 L602.8701,271.5742 L488.2568,271.5742 A0,0 0 0 0 488.2568,271.5742" fill="#FBFB77" filter="url(#fpcklc6pbz716)" style="stroke:#A80036;stroke-width:1;"/><path d="M715.4834,271.5742 L715.4834,281.5742 L725.4834,281.5742 L715.4834,271.5742" fill="#FBFB77" style="stroke:#A80036;stroke-width:1;"/><text fill="#000000" font-family="sans-serif" font-size="13" lengthAdjust="spacing" textLength="208" x="498.3701" y="289.1426">&#21516;&#26399;&#12501;&#12449;&#12452;&#12523;&#12398;&#12450;&#12483;&#12503;&#12525;&#12540;&#12489;&#28310;&#20633;&#20013;</text><line style="stroke:#A80036;stroke-width:1.5;" x1="488.2568" x2="597.02" y1="238.3301" y2="238.3301"/><path d="M540.6384,238.3301 L540.6384,235.3301 L546.6384,238.3301 L540.6384,241.3301 L540.6384,238.3301" fill="#A80036" style="stroke:#A80036;stroke-width:1.5;"/><line style="stroke:#A80036;stroke-width:1.5;" x1="616.7202" x2="725.4834" y1="238.3301" y2="238.3301"/><path d="M669.1018,238.3301 L669.1018,235.3301 L675.1018,238.3301 L669.1018,241.3301 L669.1018,238.3301" fill="#A80036" style="stroke:#A80036;stroke-width:1.5;"/><line style="stroke:#A80036;stroke-width:1.5;" x1="725.4834" x2="745.4834" y1="238.3301" y2="238.3301"/><rect fill="none" height="26.4883" style="stroke:#A80036;stroke-width:0.5;" width="21.1289" x="745.4834" y="225.0859"/><text fill="#000000" font-family="sans-serif" font-size="14" lengthAdjust="spacing" textLength="11.1289" x="750.4834" y="243.6211">+</text><line style="stroke:#A80036;stroke-width:1.5;" x1="766.6123" x2="786.6123" y1="238.3301" y2="238.3301"/><rect fill="none" height="26.4883" style="stroke:#A80036;stroke-width:0.5;" width="262" x="786.6123" y="225.0859"/><text fill="#000000" font-family="sans-serif" font-size="14" lengthAdjust="spacing" textLength="252" x="791.6123" y="243.6211">&#12450;&#12483;&#12503;&#12525;&#12540;&#12489;&#12377;&#12427;&#12501;&#12449;&#12452;&#12523;&#12469;&#12452;&#12474;&#12398;&#21512;&#35336;</text><path d="M476.2568,226.3301 C476.2568,235.3301 479.2568,238.3301 488.2568,238.3301" fill="none" style="stroke:#A80036;stroke-width:1.5;"/><line style="stroke:#A80036;stroke-width:1.5;" x1="1048.6123" x2="1048.6123" y1="238.3301" y2="238.3301"/><path d="M1060.6123,226.3301 C1060.6123,235.3301 1057.6123,238.3301 1048.6123,238.3301" fill="none" style="stroke:#A80036;stroke-width:1.5;"/><line style="stroke:#A80036;stroke-width:1.5;" x1="488.2568" x2="488.2568" y1="320.1289" y2="320.1289"/><rect fill="none" height="26.4883" style="stroke:#A80036;stroke-width:0.5;" width="20.4863" x="583.627" y="306.8848"/><text fill="#000000" font-family="sans-serif" font-size="14" lengthAdjust="spacing" textLength="10.4863" x="588.627" y="325.4199">D</text><path d="M488.2568,353.373 L488.2568,378.6836 A0,0 0 0 0 488.2568,378.6836 L699.4834,378.6836 A0,0 0 0 0 699.4834,378.6836 L699.4834,363.373 L689.4834,353.373 L597.8701,353.373 L593.8701,333.373 L589.8701,353.373 L488.2568,353.373 A0,0 0 0 0 488.2568,353.373" fill="#FBFB77" filter="url(#fpcklc6pbz716)" style="stroke:#A80036;stroke-width:1;"/><path d="M689.4834,353.373 L689.4834,363.373 L699.4834,363.373 L689.4834,353.373" fill="#FBFB77" style="stroke:#A80036;stroke-width:1;"/><text fill="#000000" font-family="sans-serif" font-size="13" lengthAdjust="spacing" textLength="182" x="498.3701" y="370.9414">&#21516;&#26399;&#12501;&#12449;&#12452;&#12523;&#12398;&#12480;&#12454;&#12531;&#12525;&#12540;&#12489;&#20013;</text><line style="stroke:#A80036;stroke-width:1.5;" x1="488.2568" x2="583.627" y1="320.1289" y2="320.1289"/><path d="M533.9419,320.1289 L533.9419,317.1289 L539.9419,320.1289 L533.9419,323.1289 L533.9419,320.1289" fill="#A80036" style="stroke:#A80036;stroke-width:1.5;"/><line style="stroke:#A80036;stroke-width:1.5;" x1="604.1133" x2="699.4834" y1="320.1289" y2="320.1289"/><path d="M649.7983,320.1289 L649.7983,317.1289 L655.7983,320.1289 L649.7983,323.1289 L649.7983,320.1289" fill="#A80036" style="stroke:#A80036;stroke-width:1.5;"/><line style="stroke:#A80036;stroke-width:1.5;" x1="699.4834" x2="719.4834" y1="320.1289" y2="320.1289"/><rect fill="none" height="26.4883" style="stroke:#A80036;stroke-width:0.5;" width="21.1289" x="719.4834" y="306.8848"/><text fill="#000000" font-family="sans-serif" font-size="14" lengthAdjust="spacing" textLength="11.1289" x="724.4834" y="325.4199">+</text><line style="stroke:#A80036;stroke-width:1.5;" x1="740.6123" x2="760.6123" y1="320.1289" y2="320.1289"/><rect fill="none" height="26.4883" style="stroke:#A80036;stroke-width:0.5;" width="262" x="760.6123" y="306.8848"/><text fill="#000000" font-family="sans-serif" font-size="14" lengthAdjust="spacing" textLength="252" x="765.6123" y="325.4199">&#12480;&#12454;&#12531;&#12525;&#12540;&#12489;&#28168;&#12415;&#12501;&#12449;&#12452;&#12523;&#12469;&#12452;&#12474;&#12398;&#21512;&#35336;</text><path d="M476.2568,308.1289 C476.2568,317.1289 479.2568,320.1289 488.2568,320.1289" fill="none" style="stroke:#A80036;stroke-width:1.5;"/><line style="stroke:#A80036;stroke-width:1.5;" x1="1022.6123" x2="1048.6123" y1="320.1289" y2="320.1289"/><path d="M1033.6123,320.1289 L1033.6123,317.1289 L1039.6123,320.1289 L1033.6123,323.1289 L1033.6123,320.1289" fill="#A80036" style="stroke:#A80036;stroke-width:1.5;"/><path d="M1060.6123,308.1289 C1060.6123,317.1289 1057.6123,320.1289 1048.6123,320.1289" fill="none" style="stroke:#A80036;stroke-width:1.5;"/><line style="stroke:#A80036;stroke-width:1.5;" x1="488.2568" x2="488.2568" y1="401.9277" y2="401.9277"/><rect fill="none" height="26.4883" style="stroke:#A80036;stroke-width:0.5;" width="18.8525" x="545.4438" y="388.6836"/><text fill="#000000" font-family="sans-serif" font-size="14" lengthAdjust="spacing" textLength="8.8525" x="550.4438" y="407.2188">R</text><path d="M488.2568,435.1719 L488.2568,460.4824 A0,0 0 0 0 488.2568,460.4824 L621.4834,460.4824 A0,0 0 0 0 621.4834,460.4824 L621.4834,445.1719 L611.4834,435.1719 L558.8701,435.1719 L554.8701,415.1719 L550.8701,435.1719 L488.2568,435.1719 A0,0 0 0 0 488.2568,435.1719" fill="#FBFB77" filter="url(#fpcklc6pbz716)" style="stroke:#A80036;stroke-width:1;"/><path d="M611.4834,435.1719 L611.4834,445.1719 L621.4834,445.1719 L611.4834,435.1719" fill="#FBFB77" style="stroke:#A80036;stroke-width:1;"/><text fill="#000000" font-family="sans-serif" font-size="13" lengthAdjust="spacing" textLength="104" x="498.3701" y="452.7402">&#12501;&#12449;&#12452;&#12523;&#12398;&#21066;&#38500;&#20013;</text><line style="stroke:#A80036;stroke-width:1.5;" x1="488.2568" x2="545.4438" y1="401.9277" y2="401.9277"/><path d="M514.8503,401.9277 L514.8503,398.9277 L520.8503,401.9277 L514.8503,404.9277 L514.8503,401.9277" fill="#A80036" style="stroke:#A80036;stroke-width:1.5;"/><line style="stroke:#A80036;stroke-width:1.5;" x1="564.2964" x2="621.4834" y1="401.9277" y2="401.9277"/><path d="M590.8899,401.9277 L590.8899,398.9277 L596.8899,401.9277 L590.8899,404.9277 L590.8899,401.9277" fill="#A80036" style="stroke:#A80036;stroke-width:1.5;"/><line style="stroke:#A80036;stroke-width:1.5;" x1="621.4834" x2="641.4834" y1="401.9277" y2="401.9277"/><rect fill="none" height="26.4883" style="stroke:#A80036;stroke-width:0.5;" width="21.1289" x="641.4834" y="388.6836"/><text fill="#000000" font-family="sans-serif" font-size="14" lengthAdjust="spacing" textLength="11.1289" x="646.4834" y="407.2188">+</text><line style="stroke:#A80036;stroke-width:1.5;" x1="662.6123" x2="682.6123" y1="401.9277" y2="401.9277"/><rect fill="none" height="26.4883" style="stroke:#A80036;stroke-width:0.5;" width="136" x="682.6123" y="388.6836"/><text fill="#000000" font-family="sans-serif" font-size="14" lengthAdjust="spacing" textLength="126" x="687.6123" y="407.2188">&#21066;&#38500;&#28168;&#12415;&#12501;&#12449;&#12452;&#12523;&#25968;</text><path d="M476.2568,389.9277 C476.2568,398.9277 479.2568,401.9277 488.2568,401.9277" fill="none" style="stroke:#A80036;stroke-width:1.5;"/><line style="stroke:#A80036;stroke-width:1.5;" x1="818.6123" x2="1048.6123" y1="401.9277" y2="401.9277"/><path d="M931.6123,401.9277 L931.6123,398.9277 L937.6123,401.9277 L931.6123,404.9277 L931.6123,401.9277" fill="#A80036" style="stroke:#A80036;stroke-width:1.5;"/><path d="M1060.6123,389.9277 C1060.6123,398.9277 1057.6123,401.9277 1048.6123,401.9277" fill="none" style="stroke:#A80036;stroke-width:1.5;"/><line style="stroke:#A80036;stroke-width:1.5;" x1="488.2568" x2="488.2568" y1="483.7266" y2="483.7266"/><rect fill="none" height="26.4883" style="stroke:#A80036;stroke-width:0.5;" width="19.6865" x="545.0269" y="470.4824"/><text fill="#000000" font-family="sans-serif" font-size="14" lengthAdjust="spacing" textLength="9.6865" x="550.0269" y="489.0176">C</text><path d="M488.2568,516.9707 L488.2568,542.2813 A0,0 0 0 0 488.2568,542.2813 L621.4834,542.2813 A0,0 0 0 0 621.4834,542.2813 L621.4834,526.9707 L611.4834,516.9707 L558.8701,516.9707 L554.8701,496.9707 L550.8701,516.9707 L488.2568,516.9707 A0,0 0 0 0 488.2568,516.9707" fill="#FBFB77" filter="url(#fpcklc6pbz716)" style="stroke:#A80036;stroke-width:1;"/><path d="M611.4834,516.9707 L611.4834,526.9707 L621.4834,526.9707 L611.4834,516.9707" fill="#FBFB77" style="stroke:#A80036;stroke-width:1;"/><text fill="#000000" font-family="sans-serif" font-size="13" lengthAdjust="spacing" textLength="104" x="498.3701" y="534.5391">&#12501;&#12449;&#12452;&#12523;&#12398;&#26356;&#26032;&#20013;</text><line style="stroke:#A80036;stroke-width:1.5;" x1="488.2568" x2="545.0269" y1="483.7266" y2="483.7266"/><path d="M514.6418,483.7266 L514.6418,480.7266 L520.6418,483.7266 L514.6418,486.7266 L514.6418,483.7266" fill="#A80036" style="stroke:#A80036;stroke-width:1.5;"/><line style="stroke:#A80036;stroke-width:1.5;" x1="564.7134" x2="621.4834" y1="483.7266" y2="483.7266"/><path d="M591.0984,483.7266 L591.0984,480.7266 L597.0984,483.7266 L591.0984,486.7266 L591.0984,483.7266" fill="#A80036" style="stroke:#A80036;stroke-width:1.5;"/><line style="stroke:#A80036;stroke-width:1.5;" x1="621.4834" x2="641.4834" y1="483.7266" y2="483.7266"/><rect fill="none" height="26.4883" style="stroke:#A80036;stroke-width:0.5;" width="21.1289" x="641.4834" y="470.4824"/><text fill="#000000" font-family="sans-serif" font-size="14" lengthAdjust="spacing" textLength="11.1289" x="646.4834" y="489.0176">+</text><line style="stroke:#A80036;stroke-width:1.5;" x1="662.6123" x2="682.6123" y1="483.7266" y2="483.7266"/><rect fill="none" height="26.4883" style="stroke:#A80036;stroke-width:0.5;" width="136" x="682.6123" y="470.4824"/><text fill="#000000" font-family="sans-serif" font-size="14" lengthAdjust="spacing" textLength="126" x="687.6123" y="489.0176">&#26356;&#26032;&#28168;&#12415;&#12501;&#12449;&#12452;&#12523;&#25968;</text><path d="M476.2568,471.7266 C476.2568,480.7266 479.2568,483.7266 488.2568,483.7266" fill="none" style="stroke:#A80036;stroke-width:1.5;"/><line style="stroke:#A80036;stroke-width:1.5;" x1="818.6123" x2="1048.6123" y1="483.7266" y2="483.7266"/><path d="M931.6123,483.7266 L931.6123,480.7266 L937.6123,483.7266 L931.6123,486.7266 L931.6123,483.7266" fill="#A80036" style="stroke:#A80036;stroke-width:1.5;"/><path d="M1060.6123,471.7266 C1060.6123,480.7266 1057.6123,483.7266 1048.6123,483.7266" fill="none" style="stroke:#A80036;stroke-width:1.5;"/><line style="stroke:#A80036;stroke-width:1.5;" x1="488.2568" x2="488.2568" y1="565.5254" y2="565.5254"/><rect fill="none" height="26.4883" style="stroke:#A80036;stroke-width:0.5;" width="14.4297" x="528.1553" y="552.2813"/><text fill="#000000" font-family="sans-serif" font-size="14" lengthAdjust="spacing" textLength="4.4297" x="533.1553" y="570.8164">!</text><path d="M488.2568,598.7695 L488.2568,624.0801 A0,0 0 0 0 488.2568,624.0801 L582.4834,624.0801 A0,0 0 0 0 582.4834,624.0801 L582.4834,608.7695 L572.4834,598.7695 L539.3701,598.7695 L535.3701,578.7695 L531.3701,598.7695 L488.2568,598.7695 A0,0 0 0 0 488.2568,598.7695" fill="#FBFB77" filter="url(#fpcklc6pbz716)" style="stroke:#A80036;stroke-width:1;"/><path d="M572.4834,598.7695 L572.4834,608.7695 L582.4834,608.7695 L572.4834,598.7695" fill="#FBFB77" style="stroke:#A80036;stroke-width:1;"/><text fill="#000000" font-family="sans-serif" font-size="13" lengthAdjust="spacing" textLength="65" x="498.3701" y="616.3379">&#12456;&#12521;&#12540;&#30330;&#29983;</text><line style="stroke:#A80036;stroke-width:1.5;" x1="488.2568" x2="528.1553" y1="565.5254" y2="565.5254"/><path d="M506.2061,565.5254 L506.2061,562.5254 L512.2061,565.5254 L506.2061,568.5254 L506.2061,565.5254" fill="#A80036" style="stroke:#A80036;stroke-width:1.5;"/><line style="stroke:#A80036;stroke-width:1.5;" x1="542.585" x2="582.4834" y1="565.5254" y2="565.5254"/><path d="M560.5342,565.5254 L560.5342,562.5254 L566.5342,565.5254 L560.5342,568.5254 L560.5342,565.5254" fill="#A80036" style="stroke:#A80036;stroke-width:1.5;"/><line style="stroke:#A80036;stroke-width:1.5;" x1="582.4834" x2="602.4834" y1="565.5254" y2="565.5254"/><rect fill="none" height="26.4883" style="stroke:#A80036;stroke-width:0.5;" width="164" x="628.2512" y="552.2813"/><text fill="#000000" font-family="sans-serif" font-size="14" lengthAdjust="spacing" textLength="154" x="633.2512" y="570.8164">&#12456;&#12521;&#12540;&#20869;&#23481;&#12434;&#31034;&#12377;&#25991;&#23383;&#21015;</text><path d="M626.4834,598.7695 L626.4834,624.0801 A0,0 0 0 0 626.4834,624.0801 L794.019,624.0801 A0,0 0 0 0 794.019,624.0801 L794.019,608.7695 L784.019,598.7695 L714.2512,598.7695 L710.2512,578.7695 L706.2512,598.7695 L626.4834,598.7695 A0,0 0 0 0 626.4834,598.7695" fill="#FBFB77" filter="url(#fpcklc6pbz716)" style="stroke:#A80036;stroke-width:1;"/><path d="M784.019,598.7695 L784.019,608.7695 L794.019,608.7695 L784.019,598.7695" fill="#FBFB77" style="stroke:#A80036;stroke-width:1;"/><text fill="#000000" font-family="sans-serif" font-size="13" lengthAdjust="spacing" textLength="138.3091" x="636.5967" y="616.3379">&#20808;&#38957;&#25991;&#23383;&#12364; + &#12363; - &#20197;&#22806;</text><line style="stroke:#A80036;stroke-width:1.5;" x1="626.4834" x2="628.2512" y1="565.5254" y2="565.5254"/><line style="stroke:#A80036;stroke-width:1.5;" x1="792.2512" x2="794.019" y1="565.5254" y2="565.5254"/><line style="stroke:#A80036;stroke-width:1.5;" x1="602.4834" x2="626.4834" y1="565.5254" y2="565.5254"/><line style="stroke:#A80036;stroke-width:1.5;" x1="794.019" x2="958.71" y1="565.5254" y2="565.5254"/><line style="stroke:#A80036;stroke-width:1.5;" x1="626.4834" x2="626.4834" y1="647.3242" y2="647.3242"/><rect fill="none" height="26.4883" style="stroke:#A80036;stroke-width:0.5;" width="21.1289" x="706.5322" y="634.0801"/><text fill="#000000" font-family="sans-serif" font-size="14" lengthAdjust="spacing" textLength="11.1289" x="711.5322" y="652.6152">+</text><path d="M650.4834,680.5684 L650.4834,705.8789 A0,0 0 0 0 650.4834,705.8789 L783.71,705.8789 A0,0 0 0 0 783.71,705.8789 L783.71,690.5684 L773.71,680.5684 L721.0967,680.5684 L717.0967,660.5684 L713.0967,680.5684 L650.4834,680.5684 A0,0 0 0 0 650.4834,680.5684" fill="#FBFB77" filter="url(#fpcklc6pbz716)" style="stroke:#A80036;stroke-width:1;"/><path d="M773.71,680.5684 L773.71,690.5684 L783.71,690.5684 L773.71,680.5684" fill="#FBFB77" style="stroke:#A80036;stroke-width:1;"/><text fill="#000000" font-family="sans-serif" font-size="13" lengthAdjust="spacing" textLength="104" x="660.5967" y="698.1367">&#20966;&#29702;&#12398;&#32153;&#32154;&#12364;&#21487;&#33021;</text><line style="stroke:#A80036;stroke-width:1.5;" x1="650.4834" x2="706.5322" y1="647.3242" y2="647.3242"/><path d="M676.5078,647.3242 L676.5078,644.3242 L682.5078,647.3242 L676.5078,650.3242 L676.5078,647.3242" fill="#A80036" style="stroke:#A80036;stroke-width:1.5;"/><line style="stroke:#A80036;stroke-width:1.5;" x1="727.6611" x2="783.71" y1="647.3242" y2="647.3242"/><path d="M753.6855,647.3242 L753.6855,644.3242 L759.6855,647.3242 L753.6855,650.3242 L753.6855,647.3242" fill="#A80036" style="stroke:#A80036;stroke-width:1.5;"/><line style="stroke:#A80036;stroke-width:1.5;" x1="626.4834" x2="650.4834" y1="647.3242" y2="647.3242"/><line style="stroke:#A80036;stroke-width:1.5;" x1="783.71" x2="820.71" y1="647.3242" y2="647.3242"/><rect fill="none" height="26.4883" style="stroke:#A80036;stroke-width:0.5;" width="18.1006" x="714.5464" y="715.8789"/><text fill="#000000" font-family="sans-serif" font-size="14" lengthAdjust="spacing" textLength="8.1006" x="719.5464" y="734.4141">-</text><path d="M650.4834,762.3672 L650.4834,787.6777 A0,0 0 0 0 650.4834,787.6777 L796.71,787.6777 A0,0 0 0 0 796.71,787.6777 L796.71,772.3672 L786.71,762.3672 L727.5967,762.3672 L723.5967,742.3672 L719.5967,762.3672 L650.4834,762.3672 A0,0 0 0 0 650.4834,762.3672" fill="#FBFB77" filter="url(#fpcklc6pbz716)" style="stroke:#A80036;stroke-width:1;"/><path d="M786.71,762.3672 L786.71,772.3672 L796.71,772.3672 L786.71,762.3672" fill="#FBFB77" style="stroke:#A80036;stroke-width:1;"/><text fill="#000000" font-family="sans-serif" font-size="13" lengthAdjust="spacing" textLength="117" x="660.5967" y="779.9355">&#20966;&#29702;&#12398;&#32153;&#32154;&#12364;&#19981;&#21487;&#33021;</text><line style="stroke:#A80036;stroke-width:1.5;" x1="650.4834" x2="714.5464" y1="729.123" y2="729.123"/><path d="M680.5149,729.123 L680.5149,726.123 L686.5149,729.123 L680.5149,732.123 L680.5149,729.123" fill="#A80036" style="stroke:#A80036;stroke-width:1.5;"/><line style="stroke:#A80036;stroke-width:1.5;" x1="732.647" x2="796.71" y1="729.123" y2="729.123"/><path d="M762.6785,729.123 L762.6785,726.123 L768.6785,729.123 L762.6785,732.123 L762.6785,729.123" fill="#A80036" style="stroke:#A80036;stroke-width:1.5;"/><line style="stroke:#A80036;stroke-width:1.5;" x1="796.71" x2="796.71" y1="729.123" y2="729.123"/><path d="M638.4834,717.123 C638.4834,726.123 641.4834,729.123 650.4834,729.123" fill="none" style="stroke:#A80036;stroke-width:1.5;"/><line style="stroke:#A80036;stroke-width:1.5;" x1="638.4834" x2="638.4834" y1="659.3242" y2="717.123"/><path d="M626.4834,647.3242 C635.4834,647.3242 638.4834,650.3242 638.4834,659.3242" fill="none" style="stroke:#A80036;stroke-width:1.5;"/><path d="M808.71,717.123 C808.71,726.123 805.71,729.123 796.71,729.123" fill="none" style="stroke:#A80036;stroke-width:1.5;"/><line style="stroke:#A80036;stroke-width:1.5;" x1="808.71" x2="808.71" y1="659.3242" y2="717.123"/><path d="M808.71,659.3242 C808.71,650.3242 811.71,647.3242 820.71,647.3242" fill="none" style="stroke:#A80036;stroke-width:1.5;"/><line style="stroke:#A80036;stroke-width:1.5;" x1="820.71" x2="840.71" y1="647.3242" y2="647.3242"/><rect fill="none" height="26.4883" style="stroke:#A80036;stroke-width:0.5;" width="94" x="840.71" y="634.0801"/><text fill="#000000" font-family="sans-serif" font-size="14" lengthAdjust="spacing" textLength="84" x="845.71" y="652.6152">&#12456;&#12521;&#12540;&#12467;&#12540;&#12489;</text><line style="stroke:#A80036;stroke-width:1.5;" x1="934.71" x2="934.71" y1="647.3242" y2="647.3242"/><path d="M614.4834,635.3242 C614.4834,644.3242 617.4834,647.3242 626.4834,647.3242" fill="none" style="stroke:#A80036;stroke-width:1.5;"/><line style="stroke:#A80036;stroke-width:1.5;" x1="614.4834" x2="614.4834" y1="577.5254" y2="635.3242"/><path d="M602.4834,565.5254 C611.4834,565.5254 614.4834,568.5254 614.4834,577.5254" fill="none" style="stroke:#A80036;stroke-width:1.5;"/><path d="M946.71,635.3242 C946.71,644.3242 943.71,647.3242 934.71,647.3242" fill="none" style="stroke:#A80036;stroke-width:1.5;"/><line style="stroke:#A80036;stroke-width:1.5;" x1="946.71" x2="946.71" y1="577.5254" y2="635.3242"/><path d="M946.71,577.5254 C946.71,568.5254 949.71,565.5254 958.71,565.5254" fill="none" style="stroke:#A80036;stroke-width:1.5;"/><line style="stroke:#A80036;stroke-width:1.5;" x1="958.71" x2="1048.6123" y1="565.5254" y2="565.5254"/><path d="M1001.6611,565.5254 L1001.6611,562.5254 L1007.6611,565.5254 L1001.6611,568.5254 L1001.6611,565.5254" fill="#A80036" style="stroke:#A80036;stroke-width:1.5;"/><path d="M476.2568,553.5254 C476.2568,562.5254 479.2568,565.5254 488.2568,565.5254" fill="none" style="stroke:#A80036;stroke-width:1.5;"/><line style="stroke:#A80036;stroke-width:1.5;" x1="476.2568" x2="476.2568" y1="168.5313" y2="553.5254"/><path d="M464.2568,156.5313 C473.2568,156.5313 476.2568,159.5313 476.2568,168.5313" fill="none" style="stroke:#A80036;stroke-width:1.5;"/><path d="M1060.6123,553.5254 C1060.6123,562.5254 1057.6123,565.5254 1048.6123,565.5254" fill="none" style="stroke:#A80036;stroke-width:1.5;"/><line style="stroke:#A80036;stroke-width:1.5;" x1="1060.6123" x2="1060.6123" y1="168.5313" y2="553.5254"/><path d="M1060.6123,168.5313 C1060.6123,159.5313 1063.6123,156.5313 1072.6123,156.5313" fill="none" style="stroke:#A80036;stroke-width:1.5;"/><line style="stroke:#A80036;stroke-width:1.5;" x1="1072.6123" x2="1092.6123" y1="156.5313" y2="156.5313"/><rect fill="none" height="26.4883" style="stroke:#A80036;stroke-width:0.5;" width="26.0303" x="1092.6123" y="143.2871"/><text fill="#000000" font-family="sans-serif" font-size="14" lengthAdjust="spacing" textLength="16.0303" x="1097.6123" y="161.8223">\n</text><line style="stroke:#A80036;stroke-width:1.5;" x1="1133.6426" x2="1153.6426" y1="156.5313" y2="156.5313"/><rect fill="none" height="26.4883" style="stroke:#A80036;stroke-width:0.5;" width="14.5527" x="1232.4795" y="143.2871"/><text fill="#000000" font-family="sans-serif" font-size="14" lengthAdjust="spacing" textLength="4.5527" x="1237.4795" y="161.8223">]</text><path d="M1153.6426,189.7754 L1153.6426,215.0859 A0,0 0 0 0 1153.6426,215.0859 L1325.8691,215.0859 A0,0 0 0 0 1325.8691,215.0859 L1325.8691,199.7754 L1315.8691,189.7754 L1243.7559,189.7754 L1239.7559,169.7754 L1235.7559,189.7754 L1153.6426,189.7754 A0,0 0 0 0 1153.6426,189.7754" fill="#FBFB77" filter="url(#fpcklc6pbz716)" style="stroke:#A80036;stroke-width:1;"/><path d="M1315.8691,189.7754 L1315.8691,199.7754 L1325.8691,199.7754 L1315.8691,189.7754" fill="#FBFB77" style="stroke:#A80036;stroke-width:1;"/><text fill="#000000" font-family="sans-serif" font-size="13" lengthAdjust="spacing" textLength="143" x="1163.7559" y="207.3438">&#12487;&#12451;&#12524;&#12463;&#12488;&#12522;&#12398;&#21516;&#26399;&#23436;&#20102;</text><line style="stroke:#A80036;stroke-width:1.5;" x1="1153.6426" x2="1232.4795" y1="156.5313" y2="156.5313"/><path d="M1191.061,156.5313 L1191.061,153.5313 L1197.061,156.5313 L1191.061,159.5313 L1191.061,156.5313" fill="#A80036" style="stroke:#A80036;stroke-width:1.5;"/><line style="stroke:#A80036;stroke-width:1.5;" x1="1247.0322" x2="1325.8691" y1="156.5313" y2="156.5313"/><path d="M1284.4507,156.5313 L1284.4507,153.5313 L1290.4507,156.5313 L1284.4507,159.5313 L1284.4507,156.5313" fill="#A80036" style="stroke:#A80036;stroke-width:1.5;"/><line style="stroke:#A80036;stroke-width:1.5;" x1="1325.8691" x2="1345.8691" y1="156.5313" y2="156.5313"/><rect fill="none" height="26.4883" style="stroke:#A80036;stroke-width:0.5;" width="26.0303" x="1345.8691" y="143.2871"/><text fill="#000000" font-family="sans-serif" font-size="14" lengthAdjust="spacing" textLength="16.0303" x="1350.8691" y="161.8223">\n</text><ellipse cx="14" cy="156.5313" fill="none" rx="4" ry="4" style="stroke:#A80036;stroke-width:2;"/><ellipse cx="1416.8994" cy="156.5313" fill="#A80036" rx="4" ry="4" style="stroke:#A80036;stroke-width:1;"/><line style="stroke:#A80036;stroke-width:1.5;" x1="18" x2="40" y1="156.5313" y2="156.5313"/><line style="stroke:#A80036;stroke-width:1.5;" x1="1386.8994" x2="1412.8994" y1="156.5313" y2="156.5313"/><path d="M1397.8994,156.5313 L1397.8994,153.5313 L1403.8994,156.5313 L1397.8994,159.5313 L1397.8994,156.5313" fill="#A80036" style="stroke:#A80036;stroke-width:1.5;"/><!--SRC=[XPDTJnD158RlzrUCUxM5bc0HGcfCK513XKWeu8LwiT25hCAisMv929YmCu4kK28XqbeXyc61-j62WWJh1pzcEhljlt1sjvJMGhYRd3ddUTzpvan7H1DLJHg6erpafGo1gaGaJfErSGcKPh-RoqbhySGyqcaiJnVN2LuZw1F1lmd-G30csE0ueG78S5G1HF_YN6yJb2QOdMC4VIJe9q4717ycE4dG6K6hnKoMvjuJFKNG4j4pT2LkRcpIs9wrCa_qNBKaqUDtGvtTtMOYHhD9QYI9lc-Jq8wDjs5CPul9bhtfJ3pEgA31mrLpxappJtdcikm8VtKS6JPApxdwfSGItRSBlNnzLZ7xZXgxT6MPz_BF8E-T5lYGpIjRF_XR_BPTqxcUCzCRrl5EuJJh81jPeHinJmsYdrrLQAuTyZFyu0NxFwhJEROdYRFE6ooO-GH5gMgT-fpogAjHw8TzG7cdVwEOCPXirzMoU9QWFOAFAiWQmRfRjybh1VlTDwcHeWkBfLIw6kz6wf7kh3elOPZhnsRYi6RsJkGgnWs7WJ84sujjfVBMsqsxLE0hGJe_HtDiaLUjD6iXLLb8PsHpHcahwuROne96zX6MW0yKVktIT8A1PWH1O3RirFCjjqvIrWdx0t7wvg28_zX9lE_oZCBfSYN9Ow_dkIU2ZjnnyqwSBUPhdvT_VisYqroya9zt9kDKtEQu3Wc6dU_FzOsBK1lixG6JaXgH5GXkDlcR_QrDVk6950P14OBcTj3i3xIq1bhQG30q0Enh3oSyxEi14IMgZaWWB4SqLHwEQgpUmmN5IH7qHw4cJqW1yFYL18DTZyu3u3wSb5K5JaXGuu93lHS9RRTyzsGDX2ILEG53lLoND2f6npLMCQA4PJWM08C33tpjN8y8nwBY66E_4BbEXN7LgG08zlq3]--></g></svg>