<svg xmlns="http://www.w3.org/2000/svg" xmlns:xlink="http://www.w3.org/1999/xlink" contentStyleType="text/css" data-diagram-type="ACTIVITY" height="417px" preserveAspectRatio="none" style="width:1265px;height:417px;background:#FFFFFF;" version="1.1" viewBox="0 0 1265 417" width="1265px" zoomAndPan="magnify"><?plantuml 1.2026.6?><defs><filter height="300%" id="f1x1y74pzlgrfv" width="300%" x="-1" y="-1"><feGaussianBlur result="blurOut" stdDeviation="2"/><feColorMatrix in="blurOut" result="blurOut2" type="matrix" values="0 0 0 0 0 0 0 0 0 0 0 0 0 0 0 0 0 0 .4 0"/><feOffset dx="4" dy="4" in="blurOut2" result="blurOut3"/><feBlend in="SourceGraphic" in2="blurOut3" mode="normal"/></filter></defs><g><g class="title" data-source-line="5"><text fill="#000000" font-family="sans-serif" font-size="14" font-weight="700" lengthAdjust="spacing" textLength="284.1631" x="489.6934" y="33.5352">&#12501;&#12449;&#12452;&#12523;&#12398;&#21516;&#26399;&#26041;&#21521;&#27770;&#23450;&#12450;&#12523;&#12468;&#12522;&#12474;&#12512;(pSp3)</text></g><path d="M447.4045,52.4883 L447.4045,77.7988 L599.9407,77.7988 L599.9407,62.4883 L589.9407,52.4883 L447.4045,52.4883" fill="#FBFB77" filter="url(#f1x1y74pzlgrfv)" style="stroke:#A80036;stroke-width:1;"/><path d="M589.9407,52.4883 L589.9407,62.4883 L599.9407,62.4883 L589.9407,52.4883" fill="#FBFB77" style="stroke:#A80036;stroke-width:1;"/><text fill="#000000" font-family="sans-serif" font-size="13" lengthAdjust="spacing" textLength="131.5361" x="453.4045" y="70.0566">make_fsynced_func()</text><ellipse cx="629.9407" cy="65.1436" fill="#000000" filter="url(#f1x1y74pzlgrfv)" rx="10" ry="10" style="stroke:#000000;stroke-width:1;"/><polygon fill="#FEFECE" filter="url(#f1x1y74pzlgrfv)" points="579.7881,97.7988,680.0933,97.7988,692.0933,110.7539,680.0933,123.709,579.7881,123.709,567.7881,110.7539,579.7881,97.7988" style="stroke:#A80036;stroke-width:1.5;stroke-linejoin:miter;stroke-miterlimit:10;"/><text fill="#000000" font-family="sans-serif" font-size="11" lengthAdjust="spacing" textLength="100.3052" x="579.7881" y="108.4336">Local &#12392; Remote &#12398;</text><text fill="#000000" font-family="sans-serif" font-size="11" lengthAdjust="spacing" textLength="77" x="579.7881" y="121.3887">&#12501;&#12449;&#12452;&#12523;&#12434;&#27604;&#36611;</text><polygon fill="#FEFECE" filter="url(#f1x1y74pzlgrfv)" points="178.6665,159.6191,278.9717,159.6191,290.9717,172.5742,278.9717,185.5293,178.6665,185.5293,166.6665,172.5742,178.6665,159.6191" style="stroke:#A80036;stroke-width:1.5;stroke-linejoin:miter;stroke-miterlimit:10;"/><text fill="#000000" font-family="sans-serif" font-size="11" lengthAdjust="spacing" textLength="100.3052" x="178.6665" y="170.2539">Local &#12392; Remote &#12398;</text><text fill="#000000" font-family="sans-serif" font-size="11" lengthAdjust="spacing" textLength="77" x="178.6665" y="183.209">&#26356;&#26032;&#26085;&#26178;&#12434;&#27604;&#36611;</text><rect fill="#FEFECE" filter="url(#f1x1y74pzlgrfv)" height="48.2656" rx="12.5" ry="12.5" style="stroke:#A80036;stroke-width:1.5;" width="149.8086" x="16" y="221.4395"/><text fill="#000000" font-family="sans-serif" font-size="12" lengthAdjust="spacing" textLength="129.8086" x="26" y="243.041">Local &#12398;&#12501;&#12449;&#12452;&#12523;&#20869;&#23481;&#12434;</text><text fill="#000000" font-family="sans-serif" font-size="12" lengthAdjust="spacing" textLength="119.8184" x="26" y="257.1738">Remote &#12398;&#20869;&#23481;&#12395;&#26356;&#26032;</text><rect fill="#FEFECE" filter="url(#f1x1y74pzlgrfv)" height="48.2656" rx="12.5" ry="12.5" style="stroke:#A80036;stroke-width:1.5;" width="163.8184" x="220.7378" y="221.4395"/><text fill="#000000" font-family="sans-serif" font-size="12" lengthAdjust="spacing" textLength="143.8184" x="230.7378" y="243.041">Remote &#12398;&#12501;&#12449;&#12452;&#12523;&#20869;&#23481;&#12434;</text><text fill="#000000" font-family="sans-serif" font-size="12" lengthAdjust="spacing" textLength="105.8086" x="230.7378" y="257.1738">Local &#12398;&#20869;&#23481;&#12395;&#26356;&#26032;</text><polygon fill="#FEFECE" filter="url(#f1x1y74pzlgrfv)" points="228.8191,283.7949,228.8191,283.7949,240.8191,295.7949,228.8191,307.7949,228.8191,307.7949,216.8191,295.7949,228.8191,283.7949" style="stroke:#A80036;stroke-width:1.5;stroke-linejoin:miter;stroke-miterlimit:10;"/><polygon fill="#FEFECE" filter="url(#f1x1y74pzlgrfv)" points="563.4717,159.6191,695.3052,159.6191,707.3052,172.5742,695.3052,185.5293,563.4717,185.5293,551.4717,172.5742,563.4717,159.6191" style="stroke:#A80036;stroke-width:1.5;stroke-linejoin:miter;stroke-miterlimit:10;"/><text fill="#000000" font-family="sans-serif" font-size="11" lengthAdjust="spacing" textLength="96.9912" x="563.4717" y="170.2539">Local &#12398;&#26356;&#26032;&#26085;&#26178;&#12392;</text><text fill="#000000" font-family="sans-serif" font-size="11" lengthAdjust="spacing" textLength="131.8335" x="563.4717" y="183.209">Remote &#12398;&#21066;&#38500;&#26085;&#26178;&#12434;&#27604;&#36611;</text><text fill="#000000" font-family="sans-serif" font-size="11" lengthAdjust="spacing" textLength="109.8335" x="441.6382" y="170.2539">Remote &#12398;&#26041;&#12364;&#26032;&#12375;&#12356;</text><text fill="#000000" font-family="sans-serif" font-size="11" lengthAdjust="spacing" textLength="135.314" x="707.3052" y="157.2988">Remote &#12398;&#21066;&#38500;&#35352;&#37682;&#12364;&#12394;&#12356;,</text><text fill="#000000" font-family="sans-serif" font-size="11" lengthAdjust="spacing" textLength="137.21" x="707.3052" y="170.2539">Local &#12398;&#26041;&#12364;&#26032;&#12375;&#12356; or &#21516;&#26178;</text><rect fill="#FEFECE" filter="url(#f1x1y74pzlgrfv)" height="34.1328" rx="12.5" ry="12.5" style="stroke:#A80036;stroke-width:1.5;" width="149.8086" x="466.5674" y="195.5293"/><text fill="#000000" font-family="sans-serif" font-size="12" lengthAdjust="spacing" textLength="129.8086" x="476.5674" y="217.1309">Local &#12398;&#12501;&#12449;&#12452;&#12523;&#12434;&#21066;&#38500;</text><rect fill="#FEFECE" filter="url(#f1x1y74pzlgrfv)" height="48.2656" rx="12.5" ry="12.5" style="stroke:#A80036;stroke-width:1.5;" width="125.8086" x="654.4009" y="195.5293"/><text fill="#000000" font-family="sans-serif" font-size="12" lengthAdjust="spacing" textLength="105.8086" x="664.4009" y="217.1309">Local &#12398;&#12501;&#12449;&#12452;&#12523;&#12434;</text><text fill="#000000" font-family="sans-serif" font-size="12" lengthAdjust="spacing" textLength="83.8184" x="664.4009" y="231.2637">Remote &#12408;&#36861;&#21152;</text><polygon fill="#FEFECE" filter="url(#f1x1y74pzlgrfv)" points="629.3884,249.7949,641.3884,261.7949,629.3884,273.7949,617.3884,261.7949,629.3884,249.7949" style="stroke:#A80036;stroke-width:1.5;stroke-linejoin:miter;stroke-miterlimit:10;"/><polygon fill="#FEFECE" filter="url(#f1x1y74pzlgrfv)" points="963.5063,159.6191,1082.4976,159.6191,1094.4976,172.5742,1082.4976,185.5293,963.5063,185.5293,951.5063,172.5742,963.5063,159.6191" style="stroke:#A80036;stroke-width:1.5;stroke-linejoin:miter;stroke-miterlimit:10;"/><text fill="#000000" font-family="sans-serif" font-size="11" lengthAdjust="spacing" textLength="109.8335" x="963.5063" y="170.2539">Remote &#12398;&#26356;&#26032;&#26085;&#26178;&#12392;</text><text fill="#000000" font-family="sans-serif" font-size="11" lengthAdjust="spacing" textLength="118.9912" x="963.5063" y="183.209">Local &#12398;&#21066;&#38500;&#26085;&#26178;&#12434;&#27604;&#36611;</text><text fill="#000000" font-family="sans-serif" font-size="11" lengthAdjust="spacing" textLength="96.9912" x="854.5151" y="170.2539">Local &#12398;&#26041;&#12364;&#26032;&#12375;&#12356;</text><text fill="#000000" font-family="sans-serif" font-size="11" lengthAdjust="spacing" textLength="122.4717" x="1094.4976" y="157.2988">Local &#12398;&#21066;&#38500;&#35352;&#37682;&#12364;&#12394;&#12356;,</text><text fill="#000000" font-family="sans-serif" font-size="11" lengthAdjust="spacing" textLength="150.0522" x="1094.4976" y="170.2539">Remote &#12398;&#26041;&#12364;&#26032;&#12375;&#12356; or &#21516;&#26178;</text><rect fill="#FEFECE" filter="url(#f1x1y74pzlgrfv)" height="34.1328" rx="12.5" ry="12.5" style="stroke:#A80036;stroke-width:1.5;" width="163.8184" x="855.1836" y="195.5293"/><text fill="#000000" font-family="sans-serif" font-size="12" lengthAdjust="spacing" textLength="143.8184" x="865.1836" y="217.1309">Remote &#12398;&#12501;&#12449;&#12452;&#12523;&#12434;&#21066;&#38500;</text><rect fill="#FEFECE" filter="url(#f1x1y74pzlgrfv)" height="48.2656" rx="12.5" ry="12.5" style="stroke:#A80036;stroke-width:1.5;" width="139.8184" x="1039.002" y="195.5293"/><text fill="#000000" font-family="sans-serif" font-size="12" lengthAdjust="spacing" textLength="119.8184" x="1049.002" y="217.1309">Remote &#12398;&#12501;&#12449;&#12452;&#12523;&#12434;</text><text fill="#000000" font-family="sans-serif" font-size="12" lengthAdjust="spacing" textLength="69.8086" x="1049.002" y="231.2637">Local &#12408;&#36861;&#21152;</text><polygon fill="#FEFECE" filter="url(#f1x1y74pzlgrfv)" points="1023.002,249.7949,1035.002,261.7949,1023.002,273.7949,1011.002,261.7949,1023.002,249.7949" style="stroke:#A80036;stroke-width:1.5;stroke-linejoin:miter;stroke-miterlimit:10;"/><polygon fill="#FEFECE" filter="url(#f1x1y74pzlgrfv)" points="629.9407,327.7949,629.9407,327.7949,641.9407,339.7949,629.9407,351.7949,629.9407,351.7949,617.9407,339.7949,629.9407,327.7949" style="stroke:#A80036;stroke-width:1.5;stroke-linejoin:miter;stroke-miterlimit:10;"/><ellipse cx="629.9407" cy="381.7949" fill="none" filter="url(#f1x1y74pzlgrfv)" rx="10" ry="10" style="stroke:#000000;stroke-width:1;"/><line style="stroke:#000000;stroke-width:2.5;" x1="623.7535" x2="636.1279" y1="375.6077" y2="387.9821"/><line style="stroke:#000000;stroke-width:2.5;" x1="636.1279" x2="623.7535" y1="375.6077" y2="387.9821"/><line style="stroke:#A80036;stroke-width:1.5;" x1="166.6665" x2="90.9043" y1="172.5742" y2="172.5742"/><line style="stroke:#A80036;stroke-width:1.5;" x1="90.9043" x2="90.9043" y1="172.5742" y2="221.4395"/><polygon fill="#A80036" points="86.9043,211.4395,90.9043,221.4395,94.9043,211.4395,90.9043,215.4395" style="stroke:#A80036;stroke-width:1;stroke-linejoin:miter;stroke-miterlimit:10;"/><text fill="#000000" font-family="sans-serif" font-size="11" lengthAdjust="spacing" textLength="109.8335" x="90.9043" y="201.1641">Remote &#12398;&#26041;&#12364;&#26032;&#12375;&#12356;</text><line style="stroke:#A80036;stroke-width:1.5;" x1="290.9717" x2="405.6382" y1="172.5742" y2="172.5742"/><line style="stroke:#A80036;stroke-width:1.5;" x1="405.6382" x2="405.6382" y1="172.5742" y2="295.7949"/><line style="stroke:#A80036;stroke-width:1.5;" x1="405.6382" x2="240.8191" y1="295.7949" y2="295.7949"/><polygon fill="#A80036" points="250.8191,291.7949,240.8191,295.7949,250.8191,299.7949,246.8191,295.7949" style="stroke:#A80036;stroke-width:1;stroke-linejoin:miter;stroke-miterlimit:10;"/><text fill="#000000" font-family="sans-serif" font-size="11" lengthAdjust="spacing" textLength="22" x="409.6382" y="176.7314">&#21516;&#12376;</text><line style="stroke:#A80036;stroke-width:1.5;" x1="302.647" x2="302.647" y1="172.5742" y2="221.4395"/><polygon fill="#A80036" points="298.647,211.4395,302.647,221.4395,306.647,211.4395,302.647,215.4395" style="stroke:#A80036;stroke-width:1;stroke-linejoin:miter;stroke-miterlimit:10;"/><text fill="#000000" font-family="sans-serif" font-size="11" lengthAdjust="spacing" textLength="96.9912" x="302.647" y="196.1641">Local &#12398;&#26041;&#12364;&#26032;&#12375;&#12356;</text><line style="stroke:#A80036;stroke-width:1.5;" x1="90.9043" x2="90.9043" y1="269.7051" y2="295.7949"/><line style="stroke:#A80036;stroke-width:1.5;" x1="90.9043" x2="216.8191" y1="295.7949" y2="295.7949"/><polygon fill="#A80036" points="206.8191,291.7949,216.8191,295.7949,206.8191,299.7949,210.8191,295.7949" style="stroke:#A80036;stroke-width:1;stroke-linejoin:miter;stroke-miterlimit:10;"/><line style="stroke:#A80036;stroke-width:1.5;" x1="302.647" x2="302.647" y1="269.7051" y2="295.7949"/><polygon fill="#A80036" points="298.647,285.7949,302.647,295.7949,306.647,285.7949,302.647,289.7949" style="stroke:#A80036;stroke-width:1;stroke-linejoin:miter;stroke-miterlimit:10;"/><line style="stroke:#A80036;stroke-width:1.5;" x1="551.4717" x2="541.4717" y1="172.5742" y2="172.5742"/><line style="stroke:#A80036;stroke-width:1.5;" x1="541.4717" x2="541.4717" y1="172.5742" y2="195.5293"/><polygon fill="#A80036" points="537.4717,185.5293,541.4717,195.5293,545.4717,185.5293,541.4717,189.5293" style="stroke:#A80036;stroke-width:1;stroke-linejoin:miter;stroke-miterlimit:10;"/><line style="stroke:#A80036;stroke-width:1.5;" x1="707.3052" x2="717.3052" y1="172.5742" y2="172.5742"/><line style="stroke:#A80036;stroke-width:1.5;" x1="717.3052" x2="717.3052" y1="172.5742" y2="195.5293"/><polygon fill="#A80036" points="713.3052,185.5293,717.3052,195.5293,721.3052,185.5293,717.3052,189.5293" style="stroke:#A80036;stroke-width:1;stroke-linejoin:miter;stroke-miterlimit:10;"/><line style="stroke:#A80036;stroke-width:1.5;" x1="541.4717" x2="541.4717" y1="229.6621" y2="261.7949"/><line style="stroke:#A80036;stroke-width:1.5;" x1="541.4717" x2="617.3884" y1="261.7949" y2="261.7949"/><polygon fill="#A80036" points="607.3884,257.7949,617.3884,261.7949,607.3884,265.7949,611.3884,261.7949" style="stroke:#A80036;stroke-width:1;stroke-linejoin:miter;stroke-miterlimit:10;"/><line style="stroke:#A80036;stroke-width:1.5;" x1="717.3052" x2="717.3052" y1="243.7949" y2="261.7949"/><line style="stroke:#A80036;stroke-width:1.5;" x1="717.3052" x2="641.3884" y1="261.7949" y2="261.7949"/><polygon fill="#A80036" points="651.3884,257.7949,641.3884,261.7949,651.3884,265.7949,647.3884,261.7949" style="stroke:#A80036;stroke-width:1;stroke-linejoin:miter;stroke-miterlimit:10;"/><line style="stroke:#A80036;stroke-width:1.5;" x1="951.5063" x2="937.0928" y1="172.5742" y2="172.5742"/><line style="stroke:#A80036;stroke-width:1.5;" x1="937.0928" x2="937.0928" y1="172.5742" y2="195.5293"/><polygon fill="#A80036" points="933.0928,185.5293,937.0928,195.5293,941.0928,185.5293,937.0928,189.5293" style="stroke:#A80036;stroke-width:1;stroke-linejoin:miter;stroke-miterlimit:10;"/><line style="stroke:#A80036;stroke-width:1.5;" x1="1094.4976" x2="1108.9111" y1="172.5742" y2="172.5742"/><line style="stroke:#A80036;stroke-width:1.5;" x1="1108.9111" x2="1108.9111" y1="172.5742" y2="195.5293"/><polygon fill="#A80036" points="1104.9111,185.5293,1108.9111,195.5293,1112.9111,185.5293,1108.9111,189.5293" style="stroke:#A80036;stroke-width:1;stroke-linejoin:miter;stroke-miterlimit:10;"/><line style="stroke:#A80036;stroke-width:1.5;" x1="937.0928" x2="937.0928" y1="229.6621" y2="261.7949"/><line style="stroke:#A80036;stroke-width:1.5;" x1="937.0928" x2="1011.002" y1="261.7949" y2="261.7949"/><polygon fill="#A80036" points="1001.002,257.7949,1011.002,261.7949,1001.002,265.7949,1005.002,261.7949" style="stroke:#A80036;stroke-width:1;stroke-linejoin:miter;stroke-miterlimit:10;"/><line style="stroke:#A80036;stroke-width:1.5;" x1="1108.9111" x2="1108.9111" y1="243.7949" y2="261.7949"/><line style="stroke:#A80036;stroke-width:1.5;" x1="1108.9111" x2="1035.002" y1="261.7949" y2="261.7949"/><polygon fill="#A80036" points="1045.002,257.7949,1035.002,261.7949,1045.002,265.7949,1041.002,261.7949" style="stroke:#A80036;stroke-width:1;stroke-linejoin:miter;stroke-miterlimit:10;"/><line style="stroke:#A80036;stroke-width:1.5;" x1="567.7881" x2="228.8191" y1="110.7539" y2="110.7539"/><line style="stroke:#A80036;stroke-width:1.5;" x1="228.8191" x2="228.8191" y1="110.7539" y2="159.6191"/><polygon fill="#A80036" points="224.8191,149.6191,228.8191,159.6191,232.8191,149.6191,228.8191,153.6191" style="stroke:#A80036;stroke-width:1;stroke-linejoin:miter;stroke-miterlimit:10;"/><text fill="#000000" font-family="sans-serif" font-size="11" lengthAdjust="spacing" textLength="55" x="228.8191" y="139.3438">&#20001;&#26041;&#12395;&#23384;&#22312;</text><line style="stroke:#A80036;stroke-width:1.5;" x1="692.0933" x2="1023.002" y1="110.7539" y2="110.7539"/><line style="stroke:#A80036;stroke-width:1.5;" x1="1023.002" x2="1023.002" y1="110.7539" y2="159.6191"/><polygon fill="#A80036" points="1019.002,149.6191,1023.002,159.6191,1027.002,149.6191,1023.002,153.6191" style="stroke:#A80036;stroke-width:1;stroke-linejoin:miter;stroke-miterlimit:10;"/><text fill="#000000" font-family="sans-serif" font-size="11" lengthAdjust="spacing" textLength="98.8335" x="1023.002" y="139.3438">Remote &#12395;&#12398;&#12415;&#23384;&#22312;</text><line style="stroke:#A80036;stroke-width:1.5;" x1="629.9407" x2="629.9407" y1="123.709" y2="135.679"/><line style="stroke:#A80036;stroke-width:1.5;" x1="629.9407" x2="629.3884" y1="135.679" y2="135.679"/><line style="stroke:#A80036;stroke-width:1.5;" x1="629.3884" x2="629.3884" y1="135.679" y2="159.6191"/><polygon fill="#A80036" points="625.3884,149.6191,629.3884,159.6191,633.3884,149.6191,629.3884,153.6191" style="stroke:#A80036;stroke-width:1;stroke-linejoin:miter;stroke-miterlimit:10;"/><text fill="#000000" font-family="sans-serif" font-size="11" lengthAdjust="spacing" textLength="85.9912" x="629.3884" y="140.8213">Local &#12395;&#12398;&#12415;&#23384;&#22312;</text><line style="stroke:#A80036;stroke-width:1.5;" x1="228.8191" x2="228.8191" y1="307.7949" y2="339.7949"/><line style="stroke:#A80036;stroke-width:1.5;" x1="228.8191" x2="617.9407" y1="339.7949" y2="339.7949"/><polygon fill="#A80036" points="607.9407,335.7949,617.9407,339.7949,607.9407,343.7949,611.9407,339.7949" style="stroke:#A80036;stroke-width:1;stroke-linejoin:miter;stroke-miterlimit:10;"/><line style="stroke:#A80036;stroke-width:1.5;" x1="1023.002" x2="1023.002" y1="273.7949" y2="339.7949"/><line style="stroke:#A80036;stroke-width:1.5;" x1="1023.002" x2="641.9407" y1="339.7949" y2="339.7949"/><polygon fill="#A80036" points="651.9407,335.7949,641.9407,339.7949,651.9407,343.7949,647.9407,339.7949" style="stroke:#A80036;stroke-width:1;stroke-linejoin:miter;stroke-miterlimit:10;"/><line style="stroke:#A80036;stroke-width:1.5;" x1="629.3884" x2="629.3884" y1="273.7949" y2="297.8398"/><line style="stroke:#A80036;stroke-width:1.5;" x1="629.3884" x2="629.9407" y1="297.8398" y2="297.8398"/><line style="stroke:#A80036;stroke-width:1.5;" x1="629.9407" x2="629.9407" y1="297.8398" y2="327.7949"/><polygon fill="#A80036" points="625.9407,317.7949,629.9407,327.7949,633.9407,317.7949,629.9407,321.7949" style="stroke:#A80036;stroke-width:1;stroke-linejoin:miter;stroke-miterlimit:10;"/><line style="stroke:#A80036;stroke-width:1.5;" x1="629.9407" x2="629.9407" y1="75.1436" y2="97.7988"/><polygon fill="#A80036" points="625.9407,87.7988,629.9407,97.7988,633.9407,87.7988,629.9407,91.7988" style="stroke:#A80036;stroke-width:1;stroke-linejoin:miter;stroke-miterlimit:10;"/><line style="stroke:#A80036;stroke-width:1.5;" x1="629.9407" x2="629.9407" y1="351.7949" y2="371.7949"/><polygon fill="#A80036" points="625.9407,361.7949,629.9407,371.7949,633.9407,361.7949,629.9407,365.7949" style="stroke:#A80036;stroke-width:1;stroke-linejoin:miter;stroke-miterlimit:10;"/><?plantuml-src dP9DIyD048Rl-HLxCu8tRthJgoUz5igIRZGqtPHaHJpkHWMb1nNjXnQqKY6q63_eeOhYZrcpr7_XnbZpOLEXjs5dzdbdtXbY41C1xfvprk6iozq-ftvmN1FjAr5_3evFnEDBu5zmTXEcs82xFSvUk7kjLZUgY_EAufGD36pBGSfS65QX3IjW1MhbJTlQngLLoxHiG6o87Pb2cCWV1Df4qKqB4WDl0cmHj0Ggi8oAkhEBDLGgwjjOK-SL09mTWsXRG5spD6W2JZsmZYgoNeP-0QUwPgVY_cpqweRVDEWWe7uCEt84Jll1NJDeUs7YFwAu78ZwWsZSYXPB4SVCkFWRNPFLd3OutOkA05WQW_raTy71Vk0_Is81nuIVHzgFL9SJCh-GF9MOaYFpIvYY8jVCQJDY8boAh56oFOG7mUbxqaH3JxQOz8nwgGaFZpvRtQoTW6mXFBELaXDXeqcGcLvBb1jvpS_QauHosfF4XOGV6J4WhpCyznRxLpOnsN3q_XOSNI-FhJDqvS-5vFYM63jhNBopQRxDU1iJVSie_hKjTqaJVClLZIURw5jyUZ9IlW00?></g></svg>