<svg xmlns="http://www.w3.org/2000/svg" xmlns:xlink="http://www.w3.org/1999/xlink" contentStyleType="text/css" data-diagram-type="EBNF" height="811px" preserveAspectRatio="none" style="width:1400px;height:811px;background:#FFFFFF;" version="1.1" viewBox="0 0 1400 811" width="1400px" zoomAndPan="magnify"><title>&#36914;&#25431;&#29366;&#27841;&#20986;&#21147;&#12501;&#12457;&#12540;&#12510;&#12483;&#12488;</title><defs><filter height="300%" id="ftr3z8vugedeo" width="300%" x="-1" y="-1"><feGaussianBlur result="blurOut" stdDeviation="2"/><feColorMatrix in="blurOut" result="blurOut2" type="matrix" values="0 0 0 0 0 0 0 0 0 0 0 0 0 0 0 0 0 0 .4 0"/><feOffset dx="4" dy="4" in="blurOut2" result="blurOut3"/><feBlend in="SourceGraphic" in2="blurOut3" mode="normal"/></filter></defs><g><g class="title" data-source-line="6"><text fill="#000000" font-family="sans-serif" font-size="14" font-weight="bold" lengthAdjust="spacing" textLength="167.9993" x="613.2498" y="32.9951">&#36914;&#25431;&#29366;&#27841;&#20986;&#21147;&#12501;&#12457;&#12540;&#12510;&#12483;&#12488;</text></g><path d="M10,52.2969 L10,77.4297 L665.4041,77.4297 L665.4041,62.2969 L655.4041,52.2969 L10,52.2969" fill="#FBFB77" filter="url(#ftr3z8vugedeo)" style="stroke:#A80036;stroke-width:1;"/><path d="M655.4041,52.2969 L655.4041,62.2969 L665.4041,62.2969 L655.4041,52.2969" fill="#FBFB77" style="stroke:#A80036;stroke-width:1;"/><text fill="#000000" font-family="sans-serif" font-size="13" lengthAdjust="spacing" textLength="634.4041" x="16" y="69.3638">info &#12395;&#12501;&#12449;&#12452;&#12523;&#12487;&#12451;&#12473;&#12463;&#12522;&#12503;&#12479;&#12434;&#35373;&#23450;&#12377;&#12427;&#12392;&#21516;&#26399;&#20966;&#29702;&#12398;&#36914;&#25431;&#29366;&#27841;&#12364;ASCII&#25991;&#23383;&#21015;&#12391;&#12522;&#12450;&#12523;&#12479;&#12452;&#12512;&#12395;&#20986;&#21147;&#12373;&#12428;&#12427;</text><text fill="#000000" font-family="sans-serif" font-size="14" font-weight="bold" lengthAdjust="spacing" textLength="55.9998" x="10" y="105.4248">&#36914;&#25431;&#29366;&#27841;</text><path d="M48,147.875 C48,153.875 50,155.875 56,155.875" fill="none" style="stroke:#A80036;stroke-width:1.5;"/><line style="stroke:#A80036;stroke-width:1.5;" x1="48" x2="48" y1="131.7266" y2="147.875"/><path d="M48,131.7266 C48,125.7266 50,123.7266 56,123.7266" fill="none" style="stroke:#A80036;stroke-width:1.5;"/><line style="stroke:#A80036;stroke-width:1.5;" x1="55" x2="1340.4989" y1="123.7266" y2="123.7266"/><path d="M824.2994,123.7266 L824.2994,120.7266 L818.2994,123.7266 L824.2994,126.7266 L824.2994,123.7266" fill="#A80036"/><path d="M1347.4989,147.875 C1347.4989,153.875 1345.4989,155.875 1339.4989,155.875" fill="none" style="stroke:#A80036;stroke-width:1.5;"/><line style="stroke:#A80036;stroke-width:1.5;" x1="1347.4989" x2="1347.4989" y1="131.7266" y2="147.875"/><path d="M1339.4989,123.7266 C1345.4989,123.7266 1347.4989,125.7266 1347.4989,131.7266" fill="none" style="stroke:#A80036;stroke-width:1.5;"/><line style="stroke:#A80036;stroke-width:1.5;" x1="40" x2="55" y1="155.875" y2="155.875"/><line style="stroke:#A80036;stroke-width:1.5;" x1="1340.4989" x2="1355.4989" y1="155.875" y2="155.875"/><line style="stroke:#A80036;stroke-width:1.5;" x1="55" x2="55" y1="155.875" y2="155.875"/><rect fill="none" height="26.2969" style="stroke:#A80036;stroke-width:0.5;" width="15.4619" x="129.2691" y="142.7266"/><text fill="#000000" font-family="sans-serif" font-size="14" lengthAdjust="spacing" textLength="5.4619" x="134.2691" y="160.7217">[</text><path d="M55,189.0234 L55,214.1563 A0,0 0 0 0 55,214.1563 L219.0002,214.1563 A0,0 0 0 0 219.0002,214.1563 L219.0002,199.0234 L209.0002,189.0234 L141.0001,189.0234 L137.0001,169.0234 L133.0001,189.0234 L55,189.0234 A0,0 0 0 0 55,189.0234" fill="#FBFB77" filter="url(#ftr3z8vugedeo)" style="stroke:#A80036;stroke-width:1;"/><path d="M209.0002,189.0234 L209.0002,199.0234 L219.0002,199.0234 L209.0002,189.0234" fill="#FBFB77" style="stroke:#A80036;stroke-width:1;"/><text fill="#000000" font-family="sans-serif" font-size="13" lengthAdjust="spacing" textLength="143.0002" x="61" y="206.0903">&#12487;&#12451;&#12524;&#12463;&#12488;&#12522;&#12398;&#21516;&#26399;&#38283;&#22987;</text><line style="stroke:#A80036;stroke-width:1.5;" x1="55" x2="129.2691" y1="155.875" y2="155.875"/><path d="M90.1346,155.875 L90.1346,152.875 L96.1346,155.875 L90.1346,158.875 L90.1346,155.875" fill="#A80036"/><line style="stroke:#A80036;stroke-width:1.5;" x1="144.731" x2="219.0002" y1="155.875" y2="155.875"/><path d="M179.8656,155.875 L179.8656,152.875 L185.8656,155.875 L179.8656,158.875 L179.8656,155.875" fill="#A80036"/><line style="stroke:#A80036;stroke-width:1.5;" x1="219.0002" x2="239.0002" y1="155.875" y2="155.875"/><rect fill="#FEFECE" height="26.2969" rx="5" ry="5" style="stroke:#A80036;stroke-width:1.5;" width="135.9995" x="239.0002" y="142.7266"/><text fill="#000000" font-family="sans-serif" font-size="14" lengthAdjust="spacing" textLength="125.9995" x="244.0002" y="160.7217">&#12487;&#12451;&#12524;&#12463;&#12488;&#12522;&#35672;&#21029;&#21517;</text><line style="stroke:#A80036;stroke-width:1.5;" x1="374.9996" x2="394.9996" y1="155.875" y2="155.875"/><rect fill="none" height="26.2969" style="stroke:#A80036;stroke-width:0.5;" width="23.5898" x="394.9996" y="142.7266"/><text fill="#000000" font-family="sans-serif" font-size="14" lengthAdjust="spacing" textLength="13.5898" x="399.9996" y="160.7217">\n</text><line style="stroke:#A80036;stroke-width:1.5;" x1="418.5895" x2="438.5895" y1="155.875" y2="155.875"/><path d="M446.5895,147.875 C446.5895,153.875 448.5895,155.875 454.5895,155.875" fill="none" style="stroke:#A80036;stroke-width:1.5;"/><line style="stroke:#A80036;stroke-width:1.5;" x1="446.5895" x2="446.5895" y1="143.7266" y2="147.875"/><path d="M446.5895,143.7266 C446.5895,137.7266 448.5895,135.7266 454.5895,135.7266" fill="none" style="stroke:#A80036;stroke-width:1.5;"/><line style="stroke:#A80036;stroke-width:1.5;" x1="453.5895" x2="1097.9089" y1="135.7266" y2="135.7266"/><path d="M838.1811,135.7266 L838.1811,132.7266 L832.1811,135.7266 L838.1811,138.7266 L838.1811,135.7266" fill="#A80036"/><path d="M1104.9089,147.875 C1104.9089,153.875 1102.9089,155.875 1096.9089,155.875" fill="none" style="stroke:#A80036;stroke-width:1.5;"/><line style="stroke:#A80036;stroke-width:1.5;" x1="1104.9089" x2="1104.9089" y1="143.7266" y2="147.875"/><path d="M1096.9089,135.7266 C1102.9089,135.7266 1104.9089,137.7266 1104.9089,143.7266" fill="none" style="stroke:#A80036;stroke-width:1.5;"/><line style="stroke:#A80036;stroke-width:1.5;" x1="438.5895" x2="453.5895" y1="155.875" y2="155.875"/><line style="stroke:#A80036;stroke-width:1.5;" x1="1097.9089" x2="1112.9089" y1="155.875" y2="155.875"/><line style="stroke:#A80036;stroke-width:1.5;" x1="453.5895" x2="453.5895" y1="155.875" y2="155.875"/><line style="stroke:#A80036;stroke-width:1.5;" x1="477.5895" x2="477.5895" y1="155.875" y2="155.875"/><rect fill="none" height="26.2969" style="stroke:#A80036;stroke-width:0.5;" width="18.8867" x="556.6462" y="142.7266"/><text fill="#000000" font-family="sans-serif" font-size="14" lengthAdjust="spacing" textLength="8.8867" x="561.6462" y="160.7217">S</text><path d="M477.5895,189.0234 L477.5895,214.1563 A0,0 0 0 0 477.5895,214.1563 L654.5896,214.1563 A0,0 0 0 0 654.5896,214.1563 L654.5896,199.0234 L644.5896,189.0234 L570.0896,189.0234 L566.0896,169.0234 L562.0896,189.0234 L477.5895,189.0234 A0,0 0 0 0 477.5895,189.0234" fill="#FBFB77" filter="url(#ftr3z8vugedeo)" style="stroke:#A80036;stroke-width:1;"/><path d="M644.5896,189.0234 L644.5896,199.0234 L654.5896,199.0234 L644.5896,189.0234" fill="#FBFB77" style="stroke:#A80036;stroke-width:1;"/><text fill="#000000" font-family="sans-serif" font-size="13" lengthAdjust="spacing" textLength="156.0002" x="483.5895" y="206.0903">&#21516;&#26399;&#23550;&#35937;&#12501;&#12449;&#12452;&#12523;&#12398;&#26908;&#32034;&#20013;</text><line style="stroke:#A80036;stroke-width:1.5;" x1="477.5895" x2="556.6462" y1="155.875" y2="155.875"/><path d="M515.1178,155.875 L515.1178,152.875 L521.1178,155.875 L515.1178,158.875 L515.1178,155.875" fill="#A80036"/><line style="stroke:#A80036;stroke-width:1.5;" x1="575.5329" x2="654.5896" y1="155.875" y2="155.875"/><path d="M613.0613,155.875 L613.0613,152.875 L619.0613,155.875 L613.0613,158.875 L613.0613,155.875" fill="#A80036"/><line style="stroke:#A80036;stroke-width:1.5;" x1="654.5896" x2="674.5896" y1="155.875" y2="155.875"/><rect fill="none" height="26.2969" style="stroke:#A80036;stroke-width:0.5;" width="21.7305" x="674.5896" y="142.7266"/><text fill="#000000" font-family="sans-serif" font-size="14" lengthAdjust="spacing" textLength="11.7305" x="679.5896" y="160.7217">+</text><line style="stroke:#A80036;stroke-width:1.5;" x1="696.3201" x2="716.3201" y1="155.875" y2="155.875"/><rect fill="#FEFECE" height="26.2969" rx="5" ry="5" style="stroke:#A80036;stroke-width:1.5;" width="191.9992" x="716.3201" y="142.7266"/><text fill="#000000" font-family="sans-serif" font-size="14" lengthAdjust="spacing" textLength="181.9992" x="721.3201" y="160.7217">&#26908;&#32034;&#28168;&#12415;&#21516;&#26399;&#23550;&#35937;&#12501;&#12449;&#12452;&#12523;&#25968;</text><line style="stroke:#A80036;stroke-width:1.5;" x1="453.5895" x2="477.5895" y1="155.875" y2="155.875"/><line style="stroke:#A80036;stroke-width:1.5;" x1="908.3193" x2="1054.3191" y1="155.875" y2="155.875"/><line style="stroke:#A80036;stroke-width:1.5;" x1="477.5895" x2="477.5895" y1="237.3047" y2="237.3047"/><rect fill="none" height="26.2969" style="stroke:#A80036;stroke-width:0.5;" width="20.2471" x="581.966" y="224.1563"/><text fill="#000000" font-family="sans-serif" font-size="14" lengthAdjust="spacing" textLength="10.2471" x="586.966" y="242.1514">U</text><path d="M477.5895,270.4531 L477.5895,295.5859 A0,0 0 0 0 477.5895,295.5859 L706.5897,295.5859 A0,0 0 0 0 706.5897,295.5859 L706.5897,280.4531 L696.5897,270.4531 L596.0896,270.4531 L592.0896,250.4531 L588.0896,270.4531 L477.5895,270.4531 A0,0 0 0 0 477.5895,270.4531" fill="#FBFB77" filter="url(#ftr3z8vugedeo)" style="stroke:#A80036;stroke-width:1;"/><path d="M696.5897,270.4531 L696.5897,280.4531 L706.5897,280.4531 L696.5897,270.4531" fill="#FBFB77" style="stroke:#A80036;stroke-width:1;"/><text fill="#000000" font-family="sans-serif" font-size="13" lengthAdjust="spacing" textLength="208.0002" x="483.5895" y="287.52">&#21516;&#26399;&#12501;&#12449;&#12452;&#12523;&#12398;&#12450;&#12483;&#12503;&#12525;&#12540;&#12489;&#28310;&#20633;&#20013;</text><line style="stroke:#A80036;stroke-width:1.5;" x1="477.5895" x2="581.966" y1="237.3047" y2="237.3047"/><path d="M527.7778,237.3047 L527.7778,234.3047 L533.7778,237.3047 L527.7778,240.3047 L527.7778,237.3047" fill="#A80036"/><line style="stroke:#A80036;stroke-width:1.5;" x1="602.2131" x2="706.5897" y1="237.3047" y2="237.3047"/><path d="M652.4014,237.3047 L652.4014,234.3047 L658.4014,237.3047 L652.4014,240.3047 L652.4014,237.3047" fill="#A80036"/><line style="stroke:#A80036;stroke-width:1.5;" x1="706.5897" x2="726.5897" y1="237.3047" y2="237.3047"/><rect fill="none" height="26.2969" style="stroke:#A80036;stroke-width:0.5;" width="21.7305" x="726.5897" y="224.1563"/><text fill="#000000" font-family="sans-serif" font-size="14" lengthAdjust="spacing" textLength="11.7305" x="731.5897" y="242.1514">+</text><line style="stroke:#A80036;stroke-width:1.5;" x1="748.3202" x2="768.3202" y1="237.3047" y2="237.3047"/><rect fill="#FEFECE" height="26.2969" rx="5" ry="5" style="stroke:#A80036;stroke-width:1.5;" width="261.9989" x="768.3202" y="224.1563"/><text fill="#000000" font-family="sans-serif" font-size="14" lengthAdjust="spacing" textLength="251.9989" x="773.3202" y="242.1514">&#12450;&#12483;&#12503;&#12525;&#12540;&#12489;&#12377;&#12427;&#12501;&#12449;&#12452;&#12523;&#12469;&#12452;&#12474;&#12398;&#21512;&#35336;</text><path d="M465.5895,225.3047 C465.5895,234.3047 468.5895,237.3047 477.5895,237.3047" fill="none" style="stroke:#A80036;stroke-width:1.5;"/><line style="stroke:#A80036;stroke-width:1.5;" x1="1030.3191" x2="1030.3191" y1="237.3047" y2="237.3047"/><path d="M1042.3191,225.3047 C1042.3191,234.3047 1039.3191,237.3047 1030.3191,237.3047" fill="none" style="stroke:#A80036;stroke-width:1.5;"/><line style="stroke:#A80036;stroke-width:1.5;" x1="477.5895" x2="477.5895" y1="318.7344" y2="318.7344"/><rect fill="none" height="26.2969" style="stroke:#A80036;stroke-width:0.5;" width="20.7803" x="568.6994" y="305.5859"/><text fill="#000000" font-family="sans-serif" font-size="14" lengthAdjust="spacing" textLength="10.7803" x="573.6994" y="323.5811">D</text><path d="M477.5895,351.8828 L477.5895,377.0156 A0,0 0 0 0 477.5895,377.0156 L680.5897,377.0156 A0,0 0 0 0 680.5897,377.0156 L680.5897,361.8828 L670.5897,351.8828 L583.0896,351.8828 L579.0896,331.8828 L575.0896,351.8828 L477.5895,351.8828 A0,0 0 0 0 477.5895,351.8828" fill="#FBFB77" filter="url(#ftr3z8vugedeo)" style="stroke:#A80036;stroke-width:1;"/><path d="M670.5897,351.8828 L670.5897,361.8828 L680.5897,361.8828 L670.5897,351.8828" fill="#FBFB77" style="stroke:#A80036;stroke-width:1;"/><text fill="#000000" font-family="sans-serif" font-size="13" lengthAdjust="spacing" textLength="182.0002" x="483.5895" y="368.9497">&#21516;&#26399;&#12501;&#12449;&#12452;&#12523;&#12398;&#12480;&#12454;&#12531;&#12525;&#12540;&#12489;&#20013;</text><line style="stroke:#A80036;stroke-width:1.5;" x1="477.5895" x2="568.6994" y1="318.7344" y2="318.7344"/><path d="M521.1444,318.7344 L521.1444,315.7344 L527.1444,318.7344 L521.1444,321.7344 L521.1444,318.7344" fill="#A80036"/><line style="stroke:#A80036;stroke-width:1.5;" x1="589.4797" x2="680.5897" y1="318.7344" y2="318.7344"/><path d="M633.0347,318.7344 L633.0347,315.7344 L639.0347,318.7344 L633.0347,321.7344 L633.0347,318.7344" fill="#A80036"/><line style="stroke:#A80036;stroke-width:1.5;" x1="680.5897" x2="700.5897" y1="318.7344" y2="318.7344"/><rect fill="none" height="26.2969" style="stroke:#A80036;stroke-width:0.5;" width="21.7305" x="700.5897" y="305.5859"/><text fill="#000000" font-family="sans-serif" font-size="14" lengthAdjust="spacing" textLength="11.7305" x="705.5897" y="323.5811">+</text><line style="stroke:#A80036;stroke-width:1.5;" x1="722.3201" x2="742.3201" y1="318.7344" y2="318.7344"/><rect fill="#FEFECE" height="26.2969" rx="5" ry="5" style="stroke:#A80036;stroke-width:1.5;" width="261.9989" x="742.3201" y="305.5859"/><text fill="#000000" font-family="sans-serif" font-size="14" lengthAdjust="spacing" textLength="251.9989" x="747.3201" y="323.5811">&#12480;&#12454;&#12531;&#12525;&#12540;&#12489;&#28168;&#12415;&#12501;&#12449;&#12452;&#12523;&#12469;&#12452;&#12474;&#12398;&#21512;&#35336;</text><path d="M465.5895,306.7344 C465.5895,315.7344 468.5895,318.7344 477.5895,318.7344" fill="none" style="stroke:#A80036;stroke-width:1.5;"/><line style="stroke:#A80036;stroke-width:1.5;" x1="1004.319" x2="1030.3191" y1="318.7344" y2="318.7344"/><path d="M1015.3191,318.7344 L1015.3191,315.7344 L1021.3191,318.7344 L1015.3191,321.7344 L1015.3191,318.7344" fill="#A80036"/><path d="M1042.3191,306.7344 C1042.3191,315.7344 1039.3191,318.7344 1030.3191,318.7344" fill="none" style="stroke:#A80036;stroke-width:1.5;"/><line style="stroke:#A80036;stroke-width:1.5;" x1="477.5895" x2="477.5895" y1="400.1641" y2="400.1641"/><rect fill="none" height="26.2969" style="stroke:#A80036;stroke-width:0.5;" width="19.7275" x="530.2258" y="387.0156"/><text fill="#000000" font-family="sans-serif" font-size="14" lengthAdjust="spacing" textLength="9.7275" x="535.2258" y="405.0107">R</text><path d="M477.5895,433.3125 L477.5895,458.4453 A0,0 0 0 0 477.5895,458.4453 L602.5896,458.4453 A0,0 0 0 0 602.5896,458.4453 L602.5896,443.3125 L592.5896,433.3125 L544.0895,433.3125 L540.0895,413.3125 L536.0895,433.3125 L477.5895,433.3125 A0,0 0 0 0 477.5895,433.3125" fill="#FBFB77" filter="url(#ftr3z8vugedeo)" style="stroke:#A80036;stroke-width:1;"/><path d="M592.5896,433.3125 L592.5896,443.3125 L602.5896,443.3125 L592.5896,433.3125" fill="#FBFB77" style="stroke:#A80036;stroke-width:1;"/><text fill="#000000" font-family="sans-serif" font-size="13" lengthAdjust="spacing" textLength="104.0001" x="483.5895" y="450.3794">&#12501;&#12449;&#12452;&#12523;&#12398;&#21066;&#38500;&#20013;</text><line style="stroke:#A80036;stroke-width:1.5;" x1="477.5895" x2="530.2258" y1="400.1641" y2="400.1641"/><path d="M501.9076,400.1641 L501.9076,397.1641 L507.9076,400.1641 L501.9076,403.1641 L501.9076,400.1641" fill="#A80036"/><line style="stroke:#A80036;stroke-width:1.5;" x1="549.9533" x2="602.5896" y1="400.1641" y2="400.1641"/><path d="M574.2714,400.1641 L574.2714,397.1641 L580.2714,400.1641 L574.2714,403.1641 L574.2714,400.1641" fill="#A80036"/><line style="stroke:#A80036;stroke-width:1.5;" x1="602.5896" x2="622.5896" y1="400.1641" y2="400.1641"/><rect fill="none" height="26.2969" style="stroke:#A80036;stroke-width:0.5;" width="21.7305" x="622.5896" y="387.0156"/><text fill="#000000" font-family="sans-serif" font-size="14" lengthAdjust="spacing" textLength="11.7305" x="627.5896" y="405.0107">+</text><line style="stroke:#A80036;stroke-width:1.5;" x1="644.3201" x2="664.3201" y1="400.1641" y2="400.1641"/><rect fill="#FEFECE" height="26.2969" rx="5" ry="5" style="stroke:#A80036;stroke-width:1.5;" width="135.9995" x="664.3201" y="387.0156"/><text fill="#000000" font-family="sans-serif" font-size="14" lengthAdjust="spacing" textLength="125.9995" x="669.3201" y="405.0107">&#21066;&#38500;&#28168;&#12415;&#12501;&#12449;&#12452;&#12523;&#25968;</text><path d="M465.5895,388.1641 C465.5895,397.1641 468.5895,400.1641 477.5895,400.1641" fill="none" style="stroke:#A80036;stroke-width:1.5;"/><line style="stroke:#A80036;stroke-width:1.5;" x1="800.3195" x2="1030.3191" y1="400.1641" y2="400.1641"/><path d="M913.3193,400.1641 L913.3193,397.1641 L919.3193,400.1641 L913.3193,403.1641 L913.3193,400.1641" fill="#A80036"/><path d="M1042.3191,388.1641 C1042.3191,397.1641 1039.3191,400.1641 1030.3191,400.1641" fill="none" style="stroke:#A80036;stroke-width:1.5;"/><line style="stroke:#A80036;stroke-width:1.5;" x1="477.5895" x2="477.5895" y1="481.5938" y2="481.5938"/><rect fill="none" height="26.2969" style="stroke:#A80036;stroke-width:0.5;" width="19.7754" x="530.2018" y="468.4453"/><text fill="#000000" font-family="sans-serif" font-size="14" lengthAdjust="spacing" textLength="9.7754" x="535.2018" y="486.4404">C</text><path d="M477.5895,514.7422 L477.5895,539.875 A0,0 0 0 0 477.5895,539.875 L602.5896,539.875 A0,0 0 0 0 602.5896,539.875 L602.5896,524.7422 L592.5896,514.7422 L544.0895,514.7422 L540.0895,494.7422 L536.0895,514.7422 L477.5895,514.7422 A0,0 0 0 0 477.5895,514.7422" fill="#FBFB77" filter="url(#ftr3z8vugedeo)" style="stroke:#A80036;stroke-width:1;"/><path d="M592.5896,514.7422 L592.5896,524.7422 L602.5896,524.7422 L592.5896,514.7422" fill="#FBFB77" style="stroke:#A80036;stroke-width:1;"/><text fill="#000000" font-family="sans-serif" font-size="13" lengthAdjust="spacing" textLength="104.0001" x="483.5895" y="531.8091">&#12501;&#12449;&#12452;&#12523;&#12398;&#26356;&#26032;&#20013;</text><line style="stroke:#A80036;stroke-width:1.5;" x1="477.5895" x2="530.2018" y1="481.5938" y2="481.5938"/><path d="M501.8956,481.5938 L501.8956,478.5938 L507.8956,481.5938 L501.8956,484.5938 L501.8956,481.5938" fill="#A80036"/><line style="stroke:#A80036;stroke-width:1.5;" x1="549.9772" x2="602.5896" y1="481.5938" y2="481.5938"/><path d="M574.2834,481.5938 L574.2834,478.5938 L580.2834,481.5938 L574.2834,484.5938 L574.2834,481.5938" fill="#A80036"/><line style="stroke:#A80036;stroke-width:1.5;" x1="602.5896" x2="622.5896" y1="481.5938" y2="481.5938"/><rect fill="none" height="26.2969" style="stroke:#A80036;stroke-width:0.5;" width="21.7305" x="622.5896" y="468.4453"/><text fill="#000000" font-family="sans-serif" font-size="14" lengthAdjust="spacing" textLength="11.7305" x="627.5896" y="486.4404">+</text><line style="stroke:#A80036;stroke-width:1.5;" x1="644.3201" x2="664.3201" y1="481.5938" y2="481.5938"/><rect fill="#FEFECE" height="26.2969" rx="5" ry="5" style="stroke:#A80036;stroke-width:1.5;" width="135.9995" x="664.3201" y="468.4453"/><text fill="#000000" font-family="sans-serif" font-size="14" lengthAdjust="spacing" textLength="125.9995" x="669.3201" y="486.4404">&#26356;&#26032;&#28168;&#12415;&#12501;&#12449;&#12452;&#12523;&#25968;</text><path d="M465.5895,469.5938 C465.5895,478.5938 468.5895,481.5938 477.5895,481.5938" fill="none" style="stroke:#A80036;stroke-width:1.5;"/><line style="stroke:#A80036;stroke-width:1.5;" x1="800.3195" x2="1030.3191" y1="481.5938" y2="481.5938"/><path d="M913.3193,481.5938 L913.3193,478.5938 L919.3193,481.5938 L913.3193,484.5938 L913.3193,481.5938" fill="#A80036"/><path d="M1042.3191,469.5938 C1042.3191,478.5938 1039.3191,481.5938 1030.3191,481.5938" fill="none" style="stroke:#A80036;stroke-width:1.5;"/><line style="stroke:#A80036;stroke-width:1.5;" x1="477.5895" x2="477.5895" y1="563.0234" y2="563.0234"/><rect fill="none" height="26.2969" style="stroke:#A80036;stroke-width:0.5;" width="15.6123" x="512.7833" y="549.875"/><text fill="#000000" font-family="sans-serif" font-size="14" lengthAdjust="spacing" textLength="5.6123" x="517.7833" y="567.8701">!</text><path d="M477.5895,596.1719 L477.5895,621.3047 A0,0 0 0 0 477.5895,621.3047 L563.5895,621.3047 A0,0 0 0 0 563.5895,621.3047 L563.5895,606.1719 L553.5895,596.1719 L524.5895,596.1719 L520.5895,576.1719 L516.5895,596.1719 L477.5895,596.1719 A0,0 0 0 0 477.5895,596.1719" fill="#FBFB77" filter="url(#ftr3z8vugedeo)" style="stroke:#A80036;stroke-width:1;"/><path d="M553.5895,596.1719 L553.5895,606.1719 L563.5895,606.1719 L553.5895,596.1719" fill="#FBFB77" style="stroke:#A80036;stroke-width:1;"/><text fill="#000000" font-family="sans-serif" font-size="13" lengthAdjust="spacing" textLength="65.0001" x="483.5895" y="613.2388">&#12456;&#12521;&#12540;&#30330;&#29983;</text><line style="stroke:#A80036;stroke-width:1.5;" x1="477.5895" x2="512.7833" y1="563.0234" y2="563.0234"/><path d="M493.1864,563.0234 L493.1864,560.0234 L499.1864,563.0234 L493.1864,566.0234 L493.1864,563.0234" fill="#A80036"/><line style="stroke:#A80036;stroke-width:1.5;" x1="528.3957" x2="563.5895" y1="563.0234" y2="563.0234"/><path d="M543.9926,563.0234 L543.9926,560.0234 L549.9926,563.0234 L543.9926,566.0234 L543.9926,563.0234" fill="#A80036"/><line style="stroke:#A80036;stroke-width:1.5;" x1="563.5895" x2="583.5895" y1="563.0234" y2="563.0234"/><rect fill="#FEFECE" height="26.2969" rx="5" ry="5" style="stroke:#A80036;stroke-width:1.5;" width="163.9993" x="607.5895" y="549.875"/><text fill="#000000" font-family="sans-serif" font-size="14" lengthAdjust="spacing" textLength="153.9993" x="612.5895" y="567.8701">&#12456;&#12521;&#12540;&#20869;&#23481;&#12434;&#31034;&#12377;&#25991;&#23383;&#21015;</text><path d="M611.0327,596.1719 L611.0327,621.3047 A0,0 0 0 0 611.0327,621.3047 L768.1457,621.3047 A0,0 0 0 0 768.1457,621.3047 L768.1457,606.1719 L758.1457,596.1719 L693.5892,596.1719 L689.5892,576.1719 L685.5892,596.1719 L611.0327,596.1719 A0,0 0 0 0 611.0327,596.1719" fill="#FBFB77" filter="url(#ftr3z8vugedeo)" style="stroke:#A80036;stroke-width:1;"/><path d="M758.1457,596.1719 L758.1457,606.1719 L768.1457,606.1719 L758.1457,596.1719" fill="#FBFB77" style="stroke:#A80036;stroke-width:1;"/><text fill="#000000" font-family="sans-serif" font-size="13" lengthAdjust="spacing" textLength="136.1129" x="617.0327" y="613.2388">&#20808;&#38957;&#25991;&#23383;&#12364; + &#12363; - &#20197;&#22806;</text><line style="stroke:#A80036;stroke-width:1.5;" x1="583.5895" x2="607.5895" y1="563.0234" y2="563.0234"/><line style="stroke:#A80036;stroke-width:1.5;" x1="771.5889" x2="931.5893" y1="563.0234" y2="563.0234"/><line style="stroke:#A80036;stroke-width:1.5;" x1="607.5895" x2="607.5895" y1="644.4531" y2="644.4531"/><rect fill="none" height="26.2969" style="stroke:#A80036;stroke-width:0.5;" width="21.7305" x="683.2244" y="631.3047"/><text fill="#000000" font-family="sans-serif" font-size="14" lengthAdjust="spacing" textLength="11.7305" x="688.2244" y="649.2998">+</text><path d="M631.5895,677.6016 L631.5895,702.7344 A0,0 0 0 0 631.5895,702.7344 L756.5897,702.7344 A0,0 0 0 0 756.5897,702.7344 L756.5897,687.6016 L746.5897,677.6016 L698.0896,677.6016 L694.0896,657.6016 L690.0896,677.6016 L631.5895,677.6016 A0,0 0 0 0 631.5895,677.6016" fill="#FBFB77" filter="url(#ftr3z8vugedeo)" style="stroke:#A80036;stroke-width:1;"/><path d="M746.5897,677.6016 L746.5897,687.6016 L756.5897,687.6016 L746.5897,677.6016" fill="#FBFB77" style="stroke:#A80036;stroke-width:1;"/><text fill="#000000" font-family="sans-serif" font-size="13" lengthAdjust="spacing" textLength="104.0001" x="637.5895" y="694.6685">&#20966;&#29702;&#12398;&#32153;&#32154;&#12364;&#21487;&#33021;</text><line style="stroke:#A80036;stroke-width:1.5;" x1="631.5895" x2="683.2244" y1="644.4531" y2="644.4531"/><path d="M655.407,644.4531 L655.407,641.4531 L661.407,644.4531 L655.407,647.4531 L655.407,644.4531" fill="#A80036"/><line style="stroke:#A80036;stroke-width:1.5;" x1="704.9548" x2="756.5897" y1="644.4531" y2="644.4531"/><path d="M728.7722,644.4531 L728.7722,641.4531 L734.7722,644.4531 L728.7722,647.4531 L728.7722,644.4531" fill="#A80036"/><line style="stroke:#A80036;stroke-width:1.5;" x1="607.5895" x2="631.5895" y1="644.4531" y2="644.4531"/><line style="stroke:#A80036;stroke-width:1.5;" x1="756.5897" x2="793.5897" y1="644.4531" y2="644.4531"/><rect fill="none" height="26.2969" style="stroke:#A80036;stroke-width:0.5;" width="15.0518" x="693.0637" y="712.7344"/><text fill="#000000" font-family="sans-serif" font-size="14" lengthAdjust="spacing" textLength="5.0518" x="698.0637" y="730.7295">-</text><path d="M631.5895,759.0313 L631.5895,784.1641 A0,0 0 0 0 631.5895,784.1641 L769.5897,784.1641 A0,0 0 0 0 769.5897,784.1641 L769.5897,769.0313 L759.5897,759.0313 L704.5896,759.0313 L700.5896,739.0313 L696.5896,759.0313 L631.5895,759.0313 A0,0 0 0 0 631.5895,759.0313" fill="#FBFB77" filter="url(#ftr3z8vugedeo)" style="stroke:#A80036;stroke-width:1;"/><path d="M759.5897,759.0313 L759.5897,769.0313 L769.5897,769.0313 L759.5897,759.0313" fill="#FBFB77" style="stroke:#A80036;stroke-width:1;"/><text fill="#000000" font-family="sans-serif" font-size="13" lengthAdjust="spacing" textLength="117.0001" x="637.5895" y="776.0981">&#20966;&#29702;&#12398;&#32153;&#32154;&#12364;&#19981;&#21487;&#33021;</text><line style="stroke:#A80036;stroke-width:1.5;" x1="631.5895" x2="693.0637" y1="725.8828" y2="725.8828"/><path d="M660.3266,725.8828 L660.3266,722.8828 L666.3266,725.8828 L660.3266,728.8828 L660.3266,725.8828" fill="#A80036"/><line style="stroke:#A80036;stroke-width:1.5;" x1="708.1155" x2="769.5897" y1="725.8828" y2="725.8828"/><path d="M736.8526,725.8828 L736.8526,722.8828 L742.8526,725.8828 L736.8526,728.8828 L736.8526,725.8828" fill="#A80036"/><line style="stroke:#A80036;stroke-width:1.5;" x1="769.5897" x2="769.5897" y1="725.8828" y2="725.8828"/><path d="M619.5895,713.8828 C619.5895,722.8828 622.5895,725.8828 631.5895,725.8828" fill="none" style="stroke:#A80036;stroke-width:1.5;"/><line style="stroke:#A80036;stroke-width:1.5;" x1="619.5895" x2="619.5895" y1="656.4531" y2="713.8828"/><path d="M607.5895,644.4531 C616.5895,644.4531 619.5895,647.4531 619.5895,656.4531" fill="none" style="stroke:#A80036;stroke-width:1.5;"/><path d="M781.5897,713.8828 C781.5897,722.8828 778.5897,725.8828 769.5897,725.8828" fill="none" style="stroke:#A80036;stroke-width:1.5;"/><line style="stroke:#A80036;stroke-width:1.5;" x1="781.5897" x2="781.5897" y1="656.4531" y2="713.8828"/><path d="M781.5897,656.4531 C781.5897,647.4531 784.5897,644.4531 793.5897,644.4531" fill="none" style="stroke:#A80036;stroke-width:1.5;"/><line style="stroke:#A80036;stroke-width:1.5;" x1="793.5897" x2="813.5897" y1="644.4531" y2="644.4531"/><rect fill="#FEFECE" height="26.2969" rx="5" ry="5" style="stroke:#A80036;stroke-width:1.5;" width="93.9996" x="813.5897" y="631.3047"/><text fill="#000000" font-family="sans-serif" font-size="14" lengthAdjust="spacing" textLength="83.9996" x="818.5897" y="649.2998">&#12456;&#12521;&#12540;&#12467;&#12540;&#12489;</text><line style="stroke:#A80036;stroke-width:1.5;" x1="907.5893" x2="907.5893" y1="644.4531" y2="644.4531"/><path d="M595.5895,632.4531 C595.5895,641.4531 598.5895,644.4531 607.5895,644.4531" fill="none" style="stroke:#A80036;stroke-width:1.5;"/><line style="stroke:#A80036;stroke-width:1.5;" x1="595.5895" x2="595.5895" y1="575.0234" y2="632.4531"/><path d="M583.5895,563.0234 C592.5895,563.0234 595.5895,566.0234 595.5895,575.0234" fill="none" style="stroke:#A80036;stroke-width:1.5;"/><path d="M919.5893,632.4531 C919.5893,641.4531 916.5893,644.4531 907.5893,644.4531" fill="none" style="stroke:#A80036;stroke-width:1.5;"/><line style="stroke:#A80036;stroke-width:1.5;" x1="919.5893" x2="919.5893" y1="575.0234" y2="632.4531"/><path d="M919.5893,575.0234 C919.5893,566.0234 922.5893,563.0234 931.5893,563.0234" fill="none" style="stroke:#A80036;stroke-width:1.5;"/><line style="stroke:#A80036;stroke-width:1.5;" x1="931.5893" x2="1030.3191" y1="563.0234" y2="563.0234"/><path d="M978.9542,563.0234 L978.9542,560.0234 L984.9542,563.0234 L978.9542,566.0234 L978.9542,563.0234" fill="#A80036"/><path d="M465.5895,551.0234 C465.5895,560.0234 468.5895,563.0234 477.5895,563.0234" fill="none" style="stroke:#A80036;stroke-width:1.5;"/><line style="stroke:#A80036;stroke-width:1.5;" x1="465.5895" x2="465.5895" y1="167.875" y2="551.0234"/><path d="M453.5895,155.875 C462.5895,155.875 465.5895,158.875 465.5895,167.875" fill="none" style="stroke:#A80036;stroke-width:1.5;"/><path d="M1042.3191,551.0234 C1042.3191,560.0234 1039.3191,563.0234 1030.3191,563.0234" fill="none" style="stroke:#A80036;stroke-width:1.5;"/><line style="stroke:#A80036;stroke-width:1.5;" x1="1042.3191" x2="1042.3191" y1="167.875" y2="551.0234"/><path d="M1042.3191,167.875 C1042.3191,158.875 1045.3191,155.875 1054.3191,155.875" fill="none" style="stroke:#A80036;stroke-width:1.5;"/><line style="stroke:#A80036;stroke-width:1.5;" x1="1054.3191" x2="1074.3191" y1="155.875" y2="155.875"/><rect fill="none" height="26.2969" style="stroke:#A80036;stroke-width:0.5;" width="23.5898" x="1074.3191" y="142.7266"/><text fill="#000000" font-family="sans-serif" font-size="14" lengthAdjust="spacing" textLength="13.5898" x="1079.3191" y="160.7217">\n</text><line style="stroke:#A80036;stroke-width:1.5;" x1="1112.9089" x2="1132.9089" y1="155.875" y2="155.875"/><rect fill="none" height="26.2969" style="stroke:#A80036;stroke-width:0.5;" width="15.4619" x="1207.178" y="142.7266"/><text fill="#000000" font-family="sans-serif" font-size="14" lengthAdjust="spacing" textLength="5.4619" x="1212.178" y="160.7217">]</text><path d="M1132.9089,189.0234 L1132.9089,214.1563 A0,0 0 0 0 1132.9089,214.1563 L1296.9091,214.1563 A0,0 0 0 0 1296.9091,214.1563 L1296.9091,199.0234 L1286.9091,189.0234 L1218.909,189.0234 L1214.909,169.0234 L1210.909,189.0234 L1132.9089,189.0234 A0,0 0 0 0 1132.9089,189.0234" fill="#FBFB77" filter="url(#ftr3z8vugedeo)" style="stroke:#A80036;stroke-width:1;"/><path d="M1286.9091,189.0234 L1286.9091,199.0234 L1296.9091,199.0234 L1286.9091,189.0234" fill="#FBFB77" style="stroke:#A80036;stroke-width:1;"/><text fill="#000000" font-family="sans-serif" font-size="13" lengthAdjust="spacing" textLength="143.0002" x="1138.9089" y="206.0903">&#12487;&#12451;&#12524;&#12463;&#12488;&#12522;&#12398;&#21516;&#26399;&#23436;&#20102;</text><line style="stroke:#A80036;stroke-width:1.5;" x1="1132.9089" x2="1207.178" y1="155.875" y2="155.875"/><path d="M1168.0435,155.875 L1168.0435,152.875 L1174.0435,155.875 L1168.0435,158.875 L1168.0435,155.875" fill="#A80036"/><line style="stroke:#A80036;stroke-width:1.5;" x1="1222.64" x2="1296.9091" y1="155.875" y2="155.875"/><path d="M1257.7745,155.875 L1257.7745,152.875 L1263.7745,155.875 L1257.7745,158.875 L1257.7745,155.875" fill="#A80036"/><line style="stroke:#A80036;stroke-width:1.5;" x1="1296.9091" x2="1316.9091" y1="155.875" y2="155.875"/><rect fill="none" height="26.2969" style="stroke:#A80036;stroke-width:0.5;" width="23.5898" x="1316.9091" y="142.7266"/><text fill="#000000" font-family="sans-serif" font-size="14" lengthAdjust="spacing" textLength="13.5898" x="1321.9091" y="160.7217">\n</text><ellipse cx="14" cy="155.875" fill="none" rx="4" ry="4" style="stroke:#A80036;stroke-width:2;"/><ellipse cx="1385.4989" cy="155.875" fill="#A80036" rx="4" ry="4" style="stroke:#A80036;stroke-width:1;"/><line style="stroke:#A80036;stroke-width:1.5;" x1="18" x2="40" y1="155.875" y2="155.875"/><line style="stroke:#A80036;stroke-width:1.5;" x1="1355.4989" x2="1381.4989" y1="155.875" y2="155.875"/><path d="M1366.4989,155.875 L1366.4989,152.875 L1372.4989,155.875 L1366.4989,158.875 L1366.4989,155.875" fill="#A80036"/><!--SRC=[xLPRJnD157xVNp7kYzlI4Y5e3CO4AMf0Y8HQNjI7fLsQ3UqisTrY39YmEu4kK28XqbeXSh50lRIW8C5wuSTCPxVz5yvkBnGh-k2B3xpDp3dd-yuvyvt9T2agBwl221nbL56D2A0y_SbSJ5dpH-Q1Hk85Ch-AqGhMtsBq3QFN626C38PHnaG8P4aHcClsSfoN-IZeveDZOLcAmP1FYaWoK6KUAjGaG9LXEBS8HoM0jVSEtYRMCnZHTHphRx3-1Ujx6Bt3A8Nr4wmlbx8vad-5jJJM5x2M9Ki9SssTn7UifLcivHjpn5hYbj_NssicuoIN8aOAQxisahvbmzjWb6U3qbQBqIXvWgAwNKmZpCr9zY7BkQlve0zEFeODfEKhxENa0jcbOPvcdrBk9J6soTAYXtq4MSyan_efLZNflH-bZvjdQjRoPcRDEjmg7kSe7Dl2UYfxyzZ0sibvOURA_XGRgEF-WkZKY-p-ePnpLNDc8Kdqz2b7iqUrlOr0-cTxeHUSgerIrfXYUywbHDDOty7ee0xOGDPagnJtDx8XvmxEq92v-N8wSmfTsJV3EVtnDSURguTcSh-Xryx-dFXBThoUnSZMkvKkM2_MQHXNFoApCoHFnRfiPMZQwRheQ8jcZF96hd90DGbQgDGNW1SKlswJJDBjck8uZj9JnvgAhQEqTKGrdY3FzqheEtLXlR-r5uyNQoukAhzQBbW_gBJMFhM5zyphOH__MSGadoWMPjqr_niCqoN0a3F-JDU_FWKNCtununSp_b_F-624XsfWe1zC2B8YIX2qjRPVQR_QsjOs8gXy1nU0Or1w0a5GYewBz0bGnQZWOhYxW_r0aM9oK00XKL5bSIIcqcWNqyTFy60e1cs_Jd1_N81zFVTg1-0sd11b2KRj3q3VyC2fmxKERxUe0hyWqpp0y03J8upoiOXA8u9II8JXJX1uSCTxdUddOJZ6Xocs01aV_LgeybDgy_y4]--></g></svg>