<svg xmlns="http://www.w3.org/2000/svg" xmlns:xlink="http://www.w3.org/1999/xlink" contentStyleType="text/css" data-diagram-type="EBNF" height="663px" preserveAspectRatio="none" style="width:908px;height:663px;background:#FFFFFF;" version="1.1" viewBox="0 0 908 663" width="908px" zoomAndPan="magnify"><title>Configuration file syntax</title><defs><filter height="300%" id="fsfbndj8dutw1" width="300%" x="-1" y="-1"><feGaussianBlur result="blurOut" stdDeviation="2"/><feColorMatrix in="blurOut" result="blurOut2" type="matrix" values="0 0 0 0 0 0 0 0 0 0 0 0 0 0 0 0 0 0 .4 0"/><feOffset dx="4" dy="4" in="blurOut2" result="blurOut3"/><feBlend in="SourceGraphic" in2="blurOut3" mode="normal"/></filter></defs><g><g class="title" data-source-line="6"><text fill="#000000" font-family="sans-serif" font-size="14" font-weight="bold" lengthAdjust="spacing" textLength="195.6924" x="353.3174" y="32.9951">Configuration file syntax</text></g><text fill="#000000" font-family="sans-serif" font-size="14" font-weight="bold" lengthAdjust="spacing" textLength="79.4268" x="10" y="60.292">ConfigFile</text><line style="stroke:#A80036;stroke-width:1.5;" x1="40" x2="863.3271" y1="83.5938" y2="83.5938"/><path d="M367.3309,83.5938 L367.3309,80.5938 L373.3309,83.5938 L367.3309,86.5938 L367.3309,83.5938" fill="#A80036"/><path d="M40,83.5938 C49,83.5938 52,92.168 52,101.168 C52,110.168 55,118.7422 64,118.7422" fill="none" style="stroke:#A80036;stroke-width:1.5;"/><path d="M839.3271,118.7422 C848.3271,118.7422 851.3271,110.168 851.3271,101.168 C851.3271,92.168 854.3271,83.5938 863.3271,83.5938" fill="none" style="stroke:#A80036;stroke-width:1.5;"/><path d="M72,110.7422 C72,116.7422 74,118.7422 80,118.7422" fill="none" style="stroke:#A80036;stroke-width:1.5;"/><line style="stroke:#A80036;stroke-width:1.5;" x1="72" x2="72" y1="106.5938" y2="110.7422"/><path d="M72,106.5938 C72,100.5938 74,98.5938 80,98.5938" fill="none" style="stroke:#A80036;stroke-width:1.5;"/><line style="stroke:#A80036;stroke-width:1.5;" x1="79" x2="824.3271" y1="98.5938" y2="98.5938"/><path d="M524.1963,98.5938 L524.1963,95.5938 L518.1963,98.5938 L524.1963,101.5938 L524.1963,98.5938" fill="#A80036"/><path d="M831.3271,110.7422 C831.3271,116.7422 829.3271,118.7422 823.3271,118.7422" fill="none" style="stroke:#A80036;stroke-width:1.5;"/><line style="stroke:#A80036;stroke-width:1.5;" x1="831.3271" x2="831.3271" y1="106.5938" y2="110.7422"/><path d="M823.3271,98.5938 C829.3271,98.5938 831.3271,100.5938 831.3271,106.5938" fill="none" style="stroke:#A80036;stroke-width:1.5;"/><line style="stroke:#A80036;stroke-width:1.5;" x1="64" x2="79" y1="118.7422" y2="118.7422"/><line style="stroke:#A80036;stroke-width:1.5;" x1="824.3271" x2="839.3271" y1="118.7422" y2="118.7422"/><line style="stroke:#A80036;stroke-width:1.5;" x1="79" x2="79" y1="118.7422" y2="118.7422"/><line style="stroke:#A80036;stroke-width:1.5;" x1="79" x2="248.7783" y1="118.7422" y2="118.7422"/><path d="M144.9113,118.7422 L144.9113,115.7422 L150.9113,118.7422 L144.9113,121.7422 L144.9113,118.7422" fill="#A80036"/><path d="M79,118.7422 C88,118.7422 91,127.3164 91,136.3164 C91,145.3164 94,153.8906 103,153.8906" fill="none" style="stroke:#A80036;stroke-width:1.5;"/><path d="M224.7783,153.8906 C233.7783,153.8906 236.7783,145.3164 236.7783,136.3164 C236.7783,127.3164 239.7783,118.7422 248.7783,118.7422" fill="none" style="stroke:#A80036;stroke-width:1.5;"/><path d="M111,145.8906 C111,151.8906 113,153.8906 119,153.8906" fill="none" style="stroke:#A80036;stroke-width:1.5;"/><line style="stroke:#A80036;stroke-width:1.5;" x1="111" x2="111" y1="141.7422" y2="145.8906"/><path d="M111,141.7422 C111,135.7422 113,133.7422 119,133.7422" fill="none" style="stroke:#A80036;stroke-width:1.5;"/><line style="stroke:#A80036;stroke-width:1.5;" x1="118" x2="209.7783" y1="133.7422" y2="133.7422"/><path d="M171.067,133.7422 L171.067,130.7422 L165.067,133.7422 L171.067,136.7422 L171.067,133.7422" fill="#A80036"/><path d="M216.7783,145.8906 C216.7783,151.8906 214.7783,153.8906 208.7783,153.8906" fill="none" style="stroke:#A80036;stroke-width:1.5;"/><line style="stroke:#A80036;stroke-width:1.5;" x1="216.7783" x2="216.7783" y1="141.7422" y2="145.8906"/><path d="M208.7783,133.7422 C214.7783,133.7422 216.7783,135.7422 216.7783,141.7422" fill="none" style="stroke:#A80036;stroke-width:1.5;"/><line style="stroke:#A80036;stroke-width:1.5;" x1="103" x2="118" y1="153.8906" y2="153.8906"/><line style="stroke:#A80036;stroke-width:1.5;" x1="209.7783" x2="224.7783" y1="153.8906" y2="153.8906"/><rect fill="#FEFECE" height="26.2969" rx="5" ry="5" style="stroke:#A80036;stroke-width:1.5;" width="91.7783" x="118" y="140.7422"/><text fill="#000000" font-family="sans-serif" font-size="14" lengthAdjust="spacing" textLength="81.7783" x="123" y="158.7373">Whitespace</text><line style="stroke:#A80036;stroke-width:1.5;" x1="248.7783" x2="268.7783" y1="118.7422" y2="118.7422"/><line style="stroke:#A80036;stroke-width:1.5;" x1="268.7783" x2="561.4756" y1="118.7422" y2="118.7422"/><path d="M383.8572,118.7422 L383.8572,115.7422 L389.8572,118.7422 L383.8572,121.7422 L383.8572,118.7422" fill="#A80036"/><path d="M268.7783,118.7422 C277.7783,118.7422 280.7783,121.3164 280.7783,130.3164 C280.7783,139.3164 283.7783,141.8906 292.7783,141.8906" fill="none" style="stroke:#A80036;stroke-width:1.5;"/><path d="M537.4756,141.8906 C546.4756,141.8906 549.4756,139.3164 549.4756,130.3164 C549.4756,121.3164 552.4756,118.7422 561.4756,118.7422" fill="none" style="stroke:#A80036;stroke-width:1.5;"/><line style="stroke:#A80036;stroke-width:1.5;" x1="292.7783" x2="292.7783" y1="141.8906" y2="141.8906"/><rect fill="#FEFECE" height="26.2969" rx="5" ry="5" style="stroke:#A80036;stroke-width:1.5;" width="54.9189" x="292.7783" y="128.7422"/><text fill="#000000" font-family="sans-serif" font-size="14" lengthAdjust="spacing" textLength="44.9189" x="297.7783" y="146.7373">Config</text><line style="stroke:#A80036;stroke-width:1.5;" x1="347.6973" x2="367.6973" y1="141.8906" y2="141.8906"/><line style="stroke:#A80036;stroke-width:1.5;" x1="367.6973" x2="537.4756" y1="141.8906" y2="141.8906"/><path d="M433.6086,141.8906 L433.6086,138.8906 L439.6086,141.8906 L433.6086,144.8906 L433.6086,141.8906" fill="#A80036"/><path d="M367.6973,141.8906 C376.6973,141.8906 379.6973,150.4648 379.6973,159.4648 C379.6973,168.4648 382.6973,177.0391 391.6973,177.0391" fill="none" style="stroke:#A80036;stroke-width:1.5;"/><path d="M513.4756,177.0391 C522.4756,177.0391 525.4756,168.4648 525.4756,159.4648 C525.4756,150.4648 528.4756,141.8906 537.4756,141.8906" fill="none" style="stroke:#A80036;stroke-width:1.5;"/><path d="M399.6973,169.0391 C399.6973,175.0391 401.6973,177.0391 407.6973,177.0391" fill="none" style="stroke:#A80036;stroke-width:1.5;"/><line style="stroke:#A80036;stroke-width:1.5;" x1="399.6973" x2="399.6973" y1="164.8906" y2="169.0391"/><path d="M399.6973,164.8906 C399.6973,158.8906 401.6973,156.8906 407.6973,156.8906" fill="none" style="stroke:#A80036;stroke-width:1.5;"/><line style="stroke:#A80036;stroke-width:1.5;" x1="406.6973" x2="498.4756" y1="156.8906" y2="156.8906"/><path d="M459.7643,156.8906 L459.7643,153.8906 L453.7643,156.8906 L459.7643,159.8906 L459.7643,156.8906" fill="#A80036"/><path d="M505.4756,169.0391 C505.4756,175.0391 503.4756,177.0391 497.4756,177.0391" fill="none" style="stroke:#A80036;stroke-width:1.5;"/><line style="stroke:#A80036;stroke-width:1.5;" x1="505.4756" x2="505.4756" y1="164.8906" y2="169.0391"/><path d="M497.4756,156.8906 C503.4756,156.8906 505.4756,158.8906 505.4756,164.8906" fill="none" style="stroke:#A80036;stroke-width:1.5;"/><line style="stroke:#A80036;stroke-width:1.5;" x1="391.6973" x2="406.6973" y1="177.0391" y2="177.0391"/><line style="stroke:#A80036;stroke-width:1.5;" x1="498.4756" x2="513.4756" y1="177.0391" y2="177.0391"/><rect fill="#FEFECE" height="26.2969" rx="5" ry="5" style="stroke:#A80036;stroke-width:1.5;" width="91.7783" x="406.6973" y="163.8906"/><text fill="#000000" font-family="sans-serif" font-size="14" lengthAdjust="spacing" textLength="81.7783" x="411.6973" y="181.8857">Whitespace</text><line style="stroke:#A80036;stroke-width:1.5;" x1="561.4756" x2="581.4756" y1="118.7422" y2="118.7422"/><line style="stroke:#A80036;stroke-width:1.5;" x1="581.4756" x2="780.7373" y1="118.7422" y2="118.7422"/><path d="M659.1803,118.7422 L659.1803,115.7422 L665.1803,118.7422 L659.1803,121.7422 L659.1803,118.7422" fill="#A80036"/><path d="M581.4756,118.7422 C590.4756,118.7422 593.4756,121.3164 593.4756,130.3164 C593.4756,139.3164 596.4756,141.8906 605.4756,141.8906" fill="none" style="stroke:#A80036;stroke-width:1.5;"/><path d="M756.7373,141.8906 C765.7373,141.8906 768.7373,139.3164 768.7373,130.3164 C768.7373,121.3164 771.7373,118.7422 780.7373,118.7422" fill="none" style="stroke:#A80036;stroke-width:1.5;"/><line style="stroke:#A80036;stroke-width:1.5;" x1="605.4756" x2="605.4756" y1="141.8906" y2="141.8906"/><rect fill="none" height="26.2969" style="stroke:#A80036;stroke-width:0.5;" width="21.7305" x="605.4756" y="128.7422"/><text fill="#000000" font-family="sans-serif" font-size="14" lengthAdjust="spacing" textLength="11.7305" x="610.4756" y="146.7373">#</text><line style="stroke:#A80036;stroke-width:1.5;" x1="627.2061" x2="647.2061" y1="141.8906" y2="141.8906"/><rect fill="#FEFECE" height="26.2969" rx="5" ry="5" style="stroke:#A80036;stroke-width:1.5;" width="109.5313" x="647.2061" y="128.7422"/><text fill="#000000" font-family="sans-serif" font-size="14" lengthAdjust="spacing" textLength="99.5313" x="652.2061" y="146.7373">CommentText</text><line style="stroke:#A80036;stroke-width:1.5;" x1="780.7373" x2="800.7373" y1="118.7422" y2="118.7422"/><rect fill="none" height="26.2969" style="stroke:#A80036;stroke-width:0.5;" width="23.5898" x="800.7373" y="105.5938"/><text fill="#000000" font-family="sans-serif" font-size="14" lengthAdjust="spacing" textLength="13.5898" x="805.7373" y="123.5889">\n</text><ellipse cx="14" cy="83.5938" fill="none" rx="4" ry="4" style="stroke:#A80036;stroke-width:2;"/><ellipse cx="893.3271" cy="83.5938" fill="#A80036" rx="4" ry="4" style="stroke:#A80036;stroke-width:1;"/><line style="stroke:#A80036;stroke-width:1.5;" x1="18" x2="40" y1="83.5938" y2="83.5938"/><line style="stroke:#A80036;stroke-width:1.5;" x1="863.3271" x2="889.3271" y1="83.5938" y2="83.5938"/><path d="M874.3271,83.5938 L874.3271,80.5938 L880.3271,83.5938 L874.3271,86.5938 L874.3271,83.5938" fill="#A80036"/><text fill="#000000" font-family="sans-serif" font-size="14" font-weight="bold" lengthAdjust="spacing" textLength="50.7705" x="10" y="218.1826">Config</text><line style="stroke:#A80036;stroke-width:1.5;" x1="64" x2="64" y1="256.6328" y2="256.6328"/><rect fill="#FEFECE" height="26.2969" rx="5" ry="5" style="stroke:#A80036;stroke-width:1.5;" width="47.7686" x="178.1719" y="243.4844"/><text fill="#000000" font-family="sans-serif" font-size="14" lengthAdjust="spacing" textLength="37.7686" x="183.1719" y="261.4795">Label</text><path d="M64,289.7813 L64,314.9141 A0,0 0 0 0 64,314.9141 L340.1123,314.9141 A0,0 0 0 0 340.1123,314.9141 L340.1123,299.7813 L330.1123,289.7813 L206.0562,289.7813 L202.0562,269.7813 L198.0562,289.7813 L64,289.7813 A0,0 0 0 0 64,289.7813" fill="#FBFB77" filter="url(#fsfbndj8dutw1)" style="stroke:#A80036;stroke-width:1;"/><path d="M330.1123,289.7813 L330.1123,299.7813 L340.1123,299.7813 L330.1123,289.7813" fill="#FBFB77" style="stroke:#A80036;stroke-width:1;"/><text fill="#000000" font-family="sans-serif" font-size="13" lengthAdjust="spacing" textLength="255.1123" x="70" y="306.8481">Must not contain Whitespace, '#' or '='</text><line style="stroke:#A80036;stroke-width:1.5;" x1="64" x2="178.1719" y1="256.6328" y2="256.6328"/><path d="M119.0859,256.6328 L119.0859,253.6328 L125.0859,256.6328 L119.0859,259.6328 L119.0859,256.6328" fill="#A80036"/><line style="stroke:#A80036;stroke-width:1.5;" x1="225.9404" x2="340.1123" y1="256.6328" y2="256.6328"/><path d="M281.0264,256.6328 L281.0264,253.6328 L287.0264,256.6328 L281.0264,259.6328 L281.0264,256.6328" fill="#A80036"/><line style="stroke:#A80036;stroke-width:1.5;" x1="340.1123" x2="360.1123" y1="256.6328" y2="256.6328"/><path d="M368.1123,248.6328 C368.1123,254.6328 370.1123,256.6328 376.1123,256.6328" fill="none" style="stroke:#A80036;stroke-width:1.5;"/><line style="stroke:#A80036;stroke-width:1.5;" x1="368.1123" x2="368.1123" y1="244.4844" y2="248.6328"/><path d="M368.1123,244.4844 C368.1123,238.4844 370.1123,236.4844 376.1123,236.4844" fill="none" style="stroke:#A80036;stroke-width:1.5;"/><line style="stroke:#A80036;stroke-width:1.5;" x1="375.1123" x2="466.8906" y1="236.4844" y2="236.4844"/><path d="M428.1793,236.4844 L428.1793,233.4844 L422.1793,236.4844 L428.1793,239.4844 L428.1793,236.4844" fill="#A80036"/><path d="M473.8906,248.6328 C473.8906,254.6328 471.8906,256.6328 465.8906,256.6328" fill="none" style="stroke:#A80036;stroke-width:1.5;"/><line style="stroke:#A80036;stroke-width:1.5;" x1="473.8906" x2="473.8906" y1="244.4844" y2="248.6328"/><path d="M465.8906,236.4844 C471.8906,236.4844 473.8906,238.4844 473.8906,244.4844" fill="none" style="stroke:#A80036;stroke-width:1.5;"/><line style="stroke:#A80036;stroke-width:1.5;" x1="360.1123" x2="375.1123" y1="256.6328" y2="256.6328"/><line style="stroke:#A80036;stroke-width:1.5;" x1="466.8906" x2="481.8906" y1="256.6328" y2="256.6328"/><rect fill="#FEFECE" height="26.2969" rx="5" ry="5" style="stroke:#A80036;stroke-width:1.5;" width="91.7783" x="375.1123" y="243.4844"/><text fill="#000000" font-family="sans-serif" font-size="14" lengthAdjust="spacing" textLength="81.7783" x="380.1123" y="261.4795">Whitespace</text><line style="stroke:#A80036;stroke-width:1.5;" x1="481.8906" x2="501.8906" y1="256.6328" y2="256.6328"/><rect fill="#FEFECE" height="26.2969" rx="5" ry="5" style="stroke:#A80036;stroke-width:1.5;" width="108.5742" x="523.7573" y="243.4844"/><text fill="#000000" font-family="sans-serif" font-size="14" lengthAdjust="spacing" textLength="98.5742" x="528.7573" y="261.4795">SyncDirectory</text><path d="M501.8906,289.7813 L501.8906,314.9141 A0,0 0 0 0 501.8906,314.9141 L654.1982,314.9141 A0,0 0 0 0 654.1982,314.9141 L654.1982,299.7813 L644.1982,289.7813 L582.0444,289.7813 L578.0444,269.7813 L574.0444,289.7813 L501.8906,289.7813 A0,0 0 0 0 501.8906,289.7813" fill="#FBFB77" filter="url(#fsfbndj8dutw1)" style="stroke:#A80036;stroke-width:1;"/><path d="M644.1982,289.7813 L644.1982,299.7813 L654.1982,299.7813 L644.1982,289.7813" fill="#FBFB77" style="stroke:#A80036;stroke-width:1;"/><text fill="#000000" font-family="sans-serif" font-size="13" lengthAdjust="spacing" textLength="131.3076" x="507.8906" y="306.8481">Must not contain '#'</text><line style="stroke:#A80036;stroke-width:1.5;" x1="501.8906" x2="523.7573" y1="256.6328" y2="256.6328"/><line style="stroke:#A80036;stroke-width:1.5;" x1="632.3315" x2="654.1982" y1="256.6328" y2="256.6328"/><line style="stroke:#A80036;stroke-width:1.5;" x1="40" x2="64" y1="256.6328" y2="256.6328"/><line style="stroke:#A80036;stroke-width:1.5;" x1="654.1982" x2="678.1982" y1="256.6328" y2="256.6328"/><line style="stroke:#A80036;stroke-width:1.5;" x1="64" x2="64" y1="338.0625" y2="338.0625"/><rect fill="none" height="26.2969" style="stroke:#A80036;stroke-width:0.5;" width="54.0439" x="88" y="324.9141"/><text fill="#000000" font-family="sans-serif" font-size="14" lengthAdjust="spacing" textLength="44.0439" x="93" y="342.9092">expire</text><line style="stroke:#A80036;stroke-width:1.5;" x1="64" x2="88" y1="338.0625" y2="338.0625"/><line style="stroke:#A80036;stroke-width:1.5;" x1="142.0439" x2="173.0303" y1="338.0625" y2="338.0625"/><rect fill="none" height="26.2969" style="stroke:#A80036;stroke-width:0.5;" width="61.0303" x="88" y="361.2109"/><text fill="#000000" font-family="sans-serif" font-size="14" lengthAdjust="spacing" textLength="51.0303" x="93" y="379.2061">backup</text><line style="stroke:#A80036;stroke-width:1.5;" x1="149.0303" x2="149.0303" y1="374.3594" y2="374.3594"/><path d="M76,362.3594 C76,371.3594 79,374.3594 88,374.3594" fill="none" style="stroke:#A80036;stroke-width:1.5;"/><line style="stroke:#A80036;stroke-width:1.5;" x1="76" x2="76" y1="350.0625" y2="362.3594"/><path d="M64,338.0625 C73,338.0625 76,341.0625 76,350.0625" fill="none" style="stroke:#A80036;stroke-width:1.5;"/><path d="M161.0303,362.3594 C161.0303,371.3594 158.0303,374.3594 149.0303,374.3594" fill="none" style="stroke:#A80036;stroke-width:1.5;"/><line style="stroke:#A80036;stroke-width:1.5;" x1="161.0303" x2="161.0303" y1="350.0625" y2="362.3594"/><path d="M161.0303,350.0625 C161.0303,341.0625 164.0303,338.0625 173.0303,338.0625" fill="none" style="stroke:#A80036;stroke-width:1.5;"/><line style="stroke:#A80036;stroke-width:1.5;" x1="173.0303" x2="193.0303" y1="338.0625" y2="338.0625"/><rect fill="none" height="26.2969" style="stroke:#A80036;stroke-width:0.5;" width="21.7305" x="193.0303" y="324.9141"/><text fill="#000000" font-family="sans-serif" font-size="14" lengthAdjust="spacing" textLength="11.7305" x="198.0303" y="342.9092">=</text><line style="stroke:#A80036;stroke-width:1.5;" x1="214.7607" x2="234.7607" y1="338.0625" y2="338.0625"/><rect fill="none" height="26.2969" style="stroke:#A80036;stroke-width:0.5;" width="32.8662" x="234.7607" y="324.9141"/><text fill="#000000" font-family="sans-serif" font-size="14" lengthAdjust="spacing" textLength="22.8662" x="239.7607" y="342.9092">1-9</text><line style="stroke:#A80036;stroke-width:1.5;" x1="267.627" x2="287.627" y1="338.0625" y2="338.0625"/><line style="stroke:#A80036;stroke-width:1.5;" x1="287.627" x2="398.4932" y1="338.0625" y2="338.0625"/><path d="M329.9734,338.0625 L329.9734,335.0625 L335.9734,338.0625 L329.9734,341.0625 L329.9734,338.0625" fill="#A80036"/><path d="M287.627,338.0625 C296.627,338.0625 299.627,346.6367 299.627,355.6367 C299.627,364.6367 302.627,373.2109 311.627,373.2109" fill="none" style="stroke:#A80036;stroke-width:1.5;"/><path d="M374.4932,373.2109 C383.4932,373.2109 386.4932,364.6367 386.4932,355.6367 C386.4932,346.6367 389.4932,338.0625 398.4932,338.0625" fill="none" style="stroke:#A80036;stroke-width:1.5;"/><path d="M319.627,365.2109 C319.627,371.2109 321.627,373.2109 327.627,373.2109" fill="none" style="stroke:#A80036;stroke-width:1.5;"/><line style="stroke:#A80036;stroke-width:1.5;" x1="319.627" x2="319.627" y1="361.0625" y2="365.2109"/><path d="M319.627,361.0625 C319.627,355.0625 321.627,353.0625 327.627,353.0625" fill="none" style="stroke:#A80036;stroke-width:1.5;"/><line style="stroke:#A80036;stroke-width:1.5;" x1="326.627" x2="359.4932" y1="353.0625" y2="353.0625"/><path d="M344.3467,353.0625 L344.3467,350.0625 L338.3467,353.0625 L344.3467,356.0625 L344.3467,353.0625" fill="#A80036"/><path d="M366.4932,365.2109 C366.4932,371.2109 364.4932,373.2109 358.4932,373.2109" fill="none" style="stroke:#A80036;stroke-width:1.5;"/><line style="stroke:#A80036;stroke-width:1.5;" x1="366.4932" x2="366.4932" y1="361.0625" y2="365.2109"/><path d="M358.4932,353.0625 C364.4932,353.0625 366.4932,355.0625 366.4932,361.0625" fill="none" style="stroke:#A80036;stroke-width:1.5;"/><line style="stroke:#A80036;stroke-width:1.5;" x1="311.627" x2="326.627" y1="373.2109" y2="373.2109"/><line style="stroke:#A80036;stroke-width:1.5;" x1="359.4932" x2="374.4932" y1="373.2109" y2="373.2109"/><rect fill="none" height="26.2969" style="stroke:#A80036;stroke-width:0.5;" width="32.8662" x="326.627" y="360.0625"/><text fill="#000000" font-family="sans-serif" font-size="14" lengthAdjust="spacing" textLength="22.8662" x="331.627" y="378.0576">0-9</text><line style="stroke:#A80036;stroke-width:1.5;" x1="398.4932" x2="654.1982" y1="338.0625" y2="338.0625"/><path d="M524.3457,338.0625 L524.3457,335.0625 L530.3457,338.0625 L524.3457,341.0625 L524.3457,338.0625" fill="#A80036"/><path d="M52,326.0625 C52,335.0625 55,338.0625 64,338.0625" fill="none" style="stroke:#A80036;stroke-width:1.5;"/><line style="stroke:#A80036;stroke-width:1.5;" x1="52" x2="52" y1="268.6328" y2="326.0625"/><path d="M40,256.6328 C49,256.6328 52,259.6328 52,268.6328" fill="none" style="stroke:#A80036;stroke-width:1.5;"/><path d="M666.1982,326.0625 C666.1982,335.0625 663.1982,338.0625 654.1982,338.0625" fill="none" style="stroke:#A80036;stroke-width:1.5;"/><line style="stroke:#A80036;stroke-width:1.5;" x1="666.1982" x2="666.1982" y1="268.6328" y2="326.0625"/><path d="M666.1982,268.6328 C666.1982,259.6328 669.1982,256.6328 678.1982,256.6328" fill="none" style="stroke:#A80036;stroke-width:1.5;"/><ellipse cx="14" cy="256.6328" fill="none" rx="4" ry="4" style="stroke:#A80036;stroke-width:2;"/><ellipse cx="708.1982" cy="256.6328" fill="#A80036" rx="4" ry="4" style="stroke:#A80036;stroke-width:1;"/><line style="stroke:#A80036;stroke-width:1.5;" x1="18" x2="40" y1="256.6328" y2="256.6328"/><line style="stroke:#A80036;stroke-width:1.5;" x1="678.1982" x2="704.1982" y1="256.6328" y2="256.6328"/><path d="M689.1982,256.6328 L689.1982,253.6328 L695.1982,256.6328 L689.1982,259.6328 L689.1982,256.6328" fill="#A80036"/><text fill="#000000" font-family="sans-serif" font-size="14" font-weight="bold" lengthAdjust="spacing" textLength="91.9912" x="10" y="415.5029">Whitespace</text><rect fill="none" height="26.2969" style="stroke:#A80036;stroke-width:0.5;" width="40.8164" x="64" y="428.8047"/><text fill="#000000" font-family="sans-serif" font-size="14" lengthAdjust="spacing" textLength="30.8164" x="69" y="446.7998">\x20</text><line style="stroke:#A80036;stroke-width:1.5;" x1="40" x2="64" y1="441.9531" y2="441.9531"/><line style="stroke:#A80036;stroke-width:1.5;" x1="104.8164" x2="128.8164" y1="441.9531" y2="441.9531"/><rect fill="none" height="26.2969" style="stroke:#A80036;stroke-width:0.5;" width="20.2061" x="64" y="465.1016"/><text fill="#000000" font-family="sans-serif" font-size="14" lengthAdjust="spacing" textLength="10.2061" x="69" y="483.0967">\t</text><path d="M52,466.25 C52,475.25 55,478.25 64,478.25" fill="none" style="stroke:#A80036;stroke-width:1.5;"/><line style="stroke:#A80036;stroke-width:1.5;" x1="84.2061" x2="104.8164" y1="478.25" y2="478.25"/><path d="M116.8164,466.25 C116.8164,475.25 113.8164,478.25 104.8164,478.25" fill="none" style="stroke:#A80036;stroke-width:1.5;"/><rect fill="none" height="26.2969" style="stroke:#A80036;stroke-width:0.5;" width="20.4727" x="64" y="501.3984"/><text fill="#000000" font-family="sans-serif" font-size="14" lengthAdjust="spacing" textLength="10.4727" x="69" y="519.3936">\r</text><path d="M52,502.5469 C52,511.5469 55,514.5469 64,514.5469" fill="none" style="stroke:#A80036;stroke-width:1.5;"/><line style="stroke:#A80036;stroke-width:1.5;" x1="84.4727" x2="104.8164" y1="514.5469" y2="514.5469"/><path d="M116.8164,502.5469 C116.8164,511.5469 113.8164,514.5469 104.8164,514.5469" fill="none" style="stroke:#A80036;stroke-width:1.5;"/><rect fill="none" height="26.2969" style="stroke:#A80036;stroke-width:0.5;" width="23.5898" x="64" y="537.6953"/><text fill="#000000" font-family="sans-serif" font-size="14" lengthAdjust="spacing" textLength="13.5898" x="69" y="555.6904">\n</text><path d="M52,538.8438 C52,547.8438 55,550.8438 64,550.8438" fill="none" style="stroke:#A80036;stroke-width:1.5;"/><line style="stroke:#A80036;stroke-width:1.5;" x1="87.5898" x2="104.8164" y1="550.8438" y2="550.8438"/><path d="M116.8164,538.8438 C116.8164,547.8438 113.8164,550.8438 104.8164,550.8438" fill="none" style="stroke:#A80036;stroke-width:1.5;"/><rect fill="none" height="26.2969" style="stroke:#A80036;stroke-width:0.5;" width="23.002" x="64" y="573.9922"/><text fill="#000000" font-family="sans-serif" font-size="14" lengthAdjust="spacing" textLength="13.002" x="69" y="591.9873">\v</text><path d="M52,575.1406 C52,584.1406 55,587.1406 64,587.1406" fill="none" style="stroke:#A80036;stroke-width:1.5;"/><line style="stroke:#A80036;stroke-width:1.5;" x1="87.002" x2="104.8164" y1="587.1406" y2="587.1406"/><path d="M116.8164,575.1406 C116.8164,584.1406 113.8164,587.1406 104.8164,587.1406" fill="none" style="stroke:#A80036;stroke-width:1.5;"/><rect fill="none" height="26.2969" style="stroke:#A80036;stroke-width:0.5;" width="19.6455" x="64" y="610.2891"/><text fill="#000000" font-family="sans-serif" font-size="14" lengthAdjust="spacing" textLength="9.6455" x="69" y="628.2842">\f</text><line style="stroke:#A80036;stroke-width:1.5;" x1="83.6455" x2="104.8164" y1="623.4375" y2="623.4375"/><path d="M52,611.4375 C52,620.4375 55,623.4375 64,623.4375" fill="none" style="stroke:#A80036;stroke-width:1.5;"/><line style="stroke:#A80036;stroke-width:1.5;" x1="52" x2="52" y1="453.9531" y2="611.4375"/><path d="M40,441.9531 C49,441.9531 52,444.9531 52,453.9531" fill="none" style="stroke:#A80036;stroke-width:1.5;"/><path d="M116.8164,611.4375 C116.8164,620.4375 113.8164,623.4375 104.8164,623.4375" fill="none" style="stroke:#A80036;stroke-width:1.5;"/><line style="stroke:#A80036;stroke-width:1.5;" x1="116.8164" x2="116.8164" y1="453.9531" y2="611.4375"/><path d="M116.8164,453.9531 C116.8164,444.9531 119.8164,441.9531 128.8164,441.9531" fill="none" style="stroke:#A80036;stroke-width:1.5;"/><ellipse cx="14" cy="441.9531" fill="none" rx="4" ry="4" style="stroke:#A80036;stroke-width:2;"/><ellipse cx="158.8164" cy="441.9531" fill="#A80036" rx="4" ry="4" style="stroke:#A80036;stroke-width:1;"/><line style="stroke:#A80036;stroke-width:1.5;" x1="18" x2="40" y1="441.9531" y2="441.9531"/><line style="stroke:#A80036;stroke-width:1.5;" x1="128.8164" x2="154.8164" y1="441.9531" y2="441.9531"/><path d="M139.8164,441.9531 L139.8164,438.9531 L145.8164,441.9531 L139.8164,444.9531 L139.8164,441.9531" fill="#A80036"/><!--SRC=[xP51Rnen48Nl_XMMSzXTP28MjLKRj18AD9Keg549wI7au5syMulTySex9Y32V- -uQKKhvTHpBsDhtiodv-TnXygXpg5aQB3MV6AXD9Lt2eq5NXfgTGT0jMUisnhWpdQQHU7QAgSQVgsARUMiXyt4rjPnT0ewaZGWOo-m6u9an-EtxmOrIOK-oOSNHVxPV9GFuaB8YMqQMhxJUtoKOWtYDFh5oUAvodKTznQ-GmuMUM796PawKoIFBY9EFg8iwYL_yVjoUO1YQfmkqBh3AnXQxINFiT3xbgR4iyZfSRuLYHIPa2BjVn3oA0Pqd98HEwCpiTuF1pI_nb1SA13ABfHIZ1WRQzZyJ9cD_odn_r6-4kLjhG1NYpdVQTU5yDBBuM3uzZ9DSuqg7SGhs89z0dBLj25ND8rEMFpfTiuxwrsX-SPqw4pkG_O9cwcTubyzXBah_gNLC9j-_jtW7s5dd8KGAPlTByu3xzxqhmtofNPaXDyls5INojT86uNT6AYk-Ehkfl-UpHLKNbN4ra0_GLnt86tv0m00]--></g></svg>