<svg xmlns="http://www.w3.org/2000/svg" xmlns:xlink="http://www.w3.org/1999/xlink" contentStyleType="text/css" data-diagram-type="ACTIVITY" height="392px" preserveAspectRatio="none" style="width:1251px;height:392px;background:#FFFFFF;" version="1.1" viewBox="0 0 1251 392" width="1251px" zoomAndPan="magnify"><title>&#12501;&#12449;&#12452;&#12523;&#12398;&#21516;&#26399;&#26041;&#21521;&#27770;&#23450;&#12450;&#12523;&#12468;&#12522;&#12474;&#12512;</title><defs/><g><text fill="#000000" font-family="sans-serif" font-size="14" font-weight="bold" lengthAdjust="spacing" textLength="238" x="505.2749" y="33.5352">&#12501;&#12449;&#12452;&#12523;&#12398;&#21516;&#26399;&#26041;&#21521;&#27770;&#23450;&#12450;&#12523;&#12468;&#12522;&#12474;&#12512;</text><ellipse cx="624.9407" cy="57.4883" fill="#222222" rx="10" ry="10" style="stroke:#222222;stroke-width:1;"/><polygon fill="#F1F1F1" points="574.7881,87.4883,675.0933,87.4883,687.0933,100.4434,675.0933,113.3984,574.7881,113.3984,562.7881,100.4434,574.7881,87.4883" style="stroke:#181818;stroke-width:0.5;"/><text fill="#000000" font-family="sans-serif" font-size="11" lengthAdjust="spacing" textLength="100.3052" x="574.7881" y="98.123">Local &#12392; Remote &#12398;</text><text fill="#000000" font-family="sans-serif" font-size="11" lengthAdjust="spacing" textLength="77" x="574.7881" y="111.0781">&#12501;&#12449;&#12452;&#12523;&#12434;&#27604;&#36611;</text><polygon fill="#F1F1F1" points="173.6665,149.3086,273.9717,149.3086,285.9717,162.2637,273.9717,175.2188,173.6665,175.2188,161.6665,162.2637,173.6665,149.3086" style="stroke:#181818;stroke-width:0.5;"/><text fill="#000000" font-family="sans-serif" font-size="11" lengthAdjust="spacing" textLength="100.3052" x="173.6665" y="159.9434">Local &#12392; Remote &#12398;</text><text fill="#000000" font-family="sans-serif" font-size="11" lengthAdjust="spacing" textLength="77" x="173.6665" y="172.8984">&#26356;&#26032;&#26085;&#26178;&#12434;&#27604;&#36611;</text><rect fill="#F1F1F1" height="48.2656" style="stroke:#181818;stroke-width:0.5;" width="149.8086" x="11" y="211.1289"/><text fill="#000000" font-family="sans-serif" font-size="12" lengthAdjust="spacing" textLength="129.8086" x="21" y="232.7305">Local &#12398;&#12501;&#12449;&#12452;&#12523;&#20869;&#23481;&#12434;</text><text fill="#000000" font-family="sans-serif" font-size="12" lengthAdjust="spacing" textLength="119.8184" x="21" y="246.8633">Remote &#12398;&#20869;&#23481;&#12395;&#26356;&#26032;</text><rect fill="#F1F1F1" height="48.2656" style="stroke:#181818;stroke-width:0.5;" width="163.8184" x="215.7378" y="211.1289"/><text fill="#000000" font-family="sans-serif" font-size="12" lengthAdjust="spacing" textLength="143.8184" x="225.7378" y="232.7305">Remote &#12398;&#12501;&#12449;&#12452;&#12523;&#20869;&#23481;&#12434;</text><text fill="#000000" font-family="sans-serif" font-size="12" lengthAdjust="spacing" textLength="105.8086" x="225.7378" y="246.8633">Local &#12398;&#20869;&#23481;&#12395;&#26356;&#26032;</text><polygon fill="#F1F1F1" points="223.8191,273.4844,223.8191,273.4844,235.8191,285.4844,223.8191,297.4844,223.8191,297.4844,211.8191,285.4844,223.8191,273.4844" style="stroke:#181818;stroke-width:0.5;"/><polygon fill="#F1F1F1" points="558.4717,149.3086,690.3052,149.3086,702.3052,162.2637,690.3052,175.2188,558.4717,175.2188,546.4717,162.2637,558.4717,149.3086" style="stroke:#181818;stroke-width:0.5;"/><text fill="#000000" font-family="sans-serif" font-size="11" lengthAdjust="spacing" textLength="96.9912" x="558.4717" y="159.9434">Local &#12398;&#26356;&#26032;&#26085;&#26178;&#12392;</text><text fill="#000000" font-family="sans-serif" font-size="11" lengthAdjust="spacing" textLength="131.8335" x="558.4717" y="172.8984">Remote &#12398;&#21066;&#38500;&#26085;&#26178;&#12434;&#27604;&#36611;</text><text fill="#000000" font-family="sans-serif" font-size="11" lengthAdjust="spacing" textLength="109.8335" x="436.6382" y="159.9434">Remote &#12398;&#26041;&#12364;&#26032;&#12375;&#12356;</text><text fill="#000000" font-family="sans-serif" font-size="11" lengthAdjust="spacing" textLength="135.314" x="702.3052" y="146.9883">Remote &#12398;&#21066;&#38500;&#35352;&#37682;&#12364;&#12394;&#12356;,</text><text fill="#000000" font-family="sans-serif" font-size="11" lengthAdjust="spacing" textLength="137.21" x="702.3052" y="159.9434">Local &#12398;&#26041;&#12364;&#26032;&#12375;&#12356; or &#21516;&#26178;</text><rect fill="#F1F1F1" height="34.1328" style="stroke:#181818;stroke-width:0.5;" width="149.8086" x="461.5674" y="185.2188"/><text fill="#000000" font-family="sans-serif" font-size="12" lengthAdjust="spacing" textLength="129.8086" x="471.5674" y="206.8203">Local &#12398;&#12501;&#12449;&#12452;&#12523;&#12434;&#21066;&#38500;</text><rect fill="#F1F1F1" height="48.2656" style="stroke:#181818;stroke-width:0.5;" width="125.8086" x="649.4009" y="185.2188"/><text fill="#000000" font-family="sans-serif" font-size="12" lengthAdjust="spacing" textLength="105.8086" x="659.4009" y="206.8203">Local &#12398;&#12501;&#12449;&#12452;&#12523;&#12434;</text><text fill="#000000" font-family="sans-serif" font-size="12" lengthAdjust="spacing" textLength="83.8184" x="659.4009" y="220.9531">Remote &#12408;&#36861;&#21152;</text><polygon fill="#F1F1F1" points="624.3884,239.4844,636.3884,251.4844,624.3884,263.4844,612.3884,251.4844,624.3884,239.4844" style="stroke:#181818;stroke-width:0.5;"/><polygon fill="#F1F1F1" points="958.5063,149.3086,1077.4976,149.3086,1089.4976,162.2637,1077.4976,175.2188,958.5063,175.2188,946.5063,162.2637,958.5063,149.3086" style="stroke:#181818;stroke-width:0.5;"/><text fill="#000000" font-family="sans-serif" font-size="11" lengthAdjust="spacing" textLength="109.8335" x="958.5063" y="159.9434">Remote &#12398;&#26356;&#26032;&#26085;&#26178;&#12392;</text><text fill="#000000" font-family="sans-serif" font-size="11" lengthAdjust="spacing" textLength="118.9912" x="958.5063" y="172.8984">Local &#12398;&#21066;&#38500;&#26085;&#26178;&#12434;&#27604;&#36611;</text><text fill="#000000" font-family="sans-serif" font-size="11" lengthAdjust="spacing" textLength="96.9912" x="849.5151" y="159.9434">Local &#12398;&#26041;&#12364;&#26032;&#12375;&#12356;</text><text fill="#000000" font-family="sans-serif" font-size="11" lengthAdjust="spacing" textLength="122.4717" x="1089.4976" y="146.9883">Local &#12398;&#21066;&#38500;&#35352;&#37682;&#12364;&#12394;&#12356;,</text><text fill="#000000" font-family="sans-serif" font-size="11" lengthAdjust="spacing" textLength="150.0522" x="1089.4976" y="159.9434">Remote &#12398;&#26041;&#12364;&#26032;&#12375;&#12356; or &#21516;&#26178;</text><rect fill="#F1F1F1" height="34.1328" style="stroke:#181818;stroke-width:0.5;" width="163.8184" x="850.1836" y="185.2188"/><text fill="#000000" font-family="sans-serif" font-size="12" lengthAdjust="spacing" textLength="143.8184" x="860.1836" y="206.8203">Remote &#12398;&#12501;&#12449;&#12452;&#12523;&#12434;&#21066;&#38500;</text><rect fill="#F1F1F1" height="48.2656" style="stroke:#181818;stroke-width:0.5;" width="139.8184" x="1034.002" y="185.2188"/><text fill="#000000" font-family="sans-serif" font-size="12" lengthAdjust="spacing" textLength="119.8184" x="1044.002" y="206.8203">Remote &#12398;&#12501;&#12449;&#12452;&#12523;&#12434;</text><text fill="#000000" font-family="sans-serif" font-size="12" lengthAdjust="spacing" textLength="69.8086" x="1044.002" y="220.9531">Local &#12408;&#36861;&#21152;</text><polygon fill="#F1F1F1" points="1018.002,239.4844,1030.002,251.4844,1018.002,263.4844,1006.002,251.4844,1018.002,239.4844" style="stroke:#181818;stroke-width:0.5;"/><polygon fill="#F1F1F1" points="624.9407,317.4844,624.9407,317.4844,636.9407,329.4844,624.9407,341.4844,624.9407,341.4844,612.9407,329.4844,624.9407,317.4844" style="stroke:#181818;stroke-width:0.5;"/><ellipse cx="624.9407" cy="371.4844" fill="transparent" rx="10" ry="10" style="stroke:#222222;stroke-width:1.5;"/><line style="stroke:#222222;stroke-width:2.5;" x1="618.7535" x2="631.1279" y1="365.2972" y2="377.6716"/><line style="stroke:#222222;stroke-width:2.5;" x1="631.1279" x2="618.7535" y1="365.2972" y2="377.6716"/><line style="stroke:#181818;stroke-width:1;" x1="161.6665" x2="85.9043" y1="162.2637" y2="162.2637"/><line style="stroke:#181818;stroke-width:1;" x1="85.9043" x2="85.9043" y1="162.2637" y2="211.1289"/><polygon fill="#181818" points="81.9043,201.1289,85.9043,211.1289,89.9043,201.1289,85.9043,205.1289" style="stroke:#181818;stroke-width:1;"/><text fill="#000000" font-family="sans-serif" font-size="11" lengthAdjust="spacing" textLength="109.8335" x="85.9043" y="190.8535">Remote &#12398;&#26041;&#12364;&#26032;&#12375;&#12356;</text><line style="stroke:#181818;stroke-width:1;" x1="285.9717" x2="400.6382" y1="162.2637" y2="162.2637"/><line style="stroke:#181818;stroke-width:1;" x1="400.6382" x2="400.6382" y1="162.2637" y2="285.4844"/><line style="stroke:#181818;stroke-width:1;" x1="400.6382" x2="235.8191" y1="285.4844" y2="285.4844"/><polygon fill="#181818" points="245.8191,281.4844,235.8191,285.4844,245.8191,289.4844,241.8191,285.4844" style="stroke:#181818;stroke-width:1;"/><text fill="#000000" font-family="sans-serif" font-size="11" lengthAdjust="spacing" textLength="22" x="404.6382" y="166.4209">&#21516;&#12376;</text><line style="stroke:#181818;stroke-width:1;" x1="297.647" x2="297.647" y1="162.2637" y2="211.1289"/><polygon fill="#181818" points="293.647,201.1289,297.647,211.1289,301.647,201.1289,297.647,205.1289" style="stroke:#181818;stroke-width:1;"/><text fill="#000000" font-family="sans-serif" font-size="11" lengthAdjust="spacing" textLength="96.9912" x="297.647" y="185.8535">Local &#12398;&#26041;&#12364;&#26032;&#12375;&#12356;</text><line style="stroke:#181818;stroke-width:1;" x1="85.9043" x2="85.9043" y1="259.3945" y2="285.4844"/><line style="stroke:#181818;stroke-width:1;" x1="85.9043" x2="211.8191" y1="285.4844" y2="285.4844"/><polygon fill="#181818" points="201.8191,281.4844,211.8191,285.4844,201.8191,289.4844,205.8191,285.4844" style="stroke:#181818;stroke-width:1;"/><line style="stroke:#181818;stroke-width:1;" x1="297.647" x2="297.647" y1="259.3945" y2="285.4844"/><polygon fill="#181818" points="293.647,275.4844,297.647,285.4844,301.647,275.4844,297.647,279.4844" style="stroke:#181818;stroke-width:1;"/><line style="stroke:#181818;stroke-width:1;" x1="546.4717" x2="536.4717" y1="162.2637" y2="162.2637"/><line style="stroke:#181818;stroke-width:1;" x1="536.4717" x2="536.4717" y1="162.2637" y2="185.2188"/><polygon fill="#181818" points="532.4717,175.2188,536.4717,185.2188,540.4717,175.2188,536.4717,179.2188" style="stroke:#181818;stroke-width:1;"/><line style="stroke:#181818;stroke-width:1;" x1="702.3052" x2="712.3052" y1="162.2637" y2="162.2637"/><line style="stroke:#181818;stroke-width:1;" x1="712.3052" x2="712.3052" y1="162.2637" y2="185.2188"/><polygon fill="#181818" points="708.3052,175.2188,712.3052,185.2188,716.3052,175.2188,712.3052,179.2188" style="stroke:#181818;stroke-width:1;"/><line style="stroke:#181818;stroke-width:1;" x1="536.4717" x2="536.4717" y1="219.3516" y2="251.4844"/><line style="stroke:#181818;stroke-width:1;" x1="536.4717" x2="612.3884" y1="251.4844" y2="251.4844"/><polygon fill="#181818" points="602.3884,247.4844,612.3884,251.4844,602.3884,255.4844,606.3884,251.4844" style="stroke:#181818;stroke-width:1;"/><line style="stroke:#181818;stroke-width:1;" x1="712.3052" x2="712.3052" y1="233.4844" y2="251.4844"/><line style="stroke:#181818;stroke-width:1;" x1="712.3052" x2="636.3884" y1="251.4844" y2="251.4844"/><polygon fill="#181818" points="646.3884,247.4844,636.3884,251.4844,646.3884,255.4844,642.3884,251.4844" style="stroke:#181818;stroke-width:1;"/><line style="stroke:#181818;stroke-width:1;" x1="946.5063" x2="932.0928" y1="162.2637" y2="162.2637"/><line style="stroke:#181818;stroke-width:1;" x1="932.0928" x2="932.0928" y1="162.2637" y2="185.2188"/><polygon fill="#181818" points="928.0928,175.2188,932.0928,185.2188,936.0928,175.2188,932.0928,179.2188" style="stroke:#181818;stroke-width:1;"/><line style="stroke:#181818;stroke-width:1;" x1="1089.4976" x2="1103.9111" y1="162.2637" y2="162.2637"/><line style="stroke:#181818;stroke-width:1;" x1="1103.9111" x2="1103.9111" y1="162.2637" y2="185.2188"/><polygon fill="#181818" points="1099.9111,175.2188,1103.9111,185.2188,1107.9111,175.2188,1103.9111,179.2188" style="stroke:#181818;stroke-width:1;"/><line style="stroke:#181818;stroke-width:1;" x1="932.0928" x2="932.0928" y1="219.3516" y2="251.4844"/><line style="stroke:#181818;stroke-width:1;" x1="932.0928" x2="1006.002" y1="251.4844" y2="251.4844"/><polygon fill="#181818" points="996.002,247.4844,1006.002,251.4844,996.002,255.4844,1000.002,251.4844" style="stroke:#181818;stroke-width:1;"/><line style="stroke:#181818;stroke-width:1;" x1="1103.9111" x2="1103.9111" y1="233.4844" y2="251.4844"/><line style="stroke:#181818;stroke-width:1;" x1="1103.9111" x2="1030.002" y1="251.4844" y2="251.4844"/><polygon fill="#181818" points="1040.002,247.4844,1030.002,251.4844,1040.002,255.4844,1036.002,251.4844" style="stroke:#181818;stroke-width:1;"/><line style="stroke:#181818;stroke-width:1;" x1="562.7881" x2="223.8191" y1="100.4434" y2="100.4434"/><line style="stroke:#181818;stroke-width:1;" x1="223.8191" x2="223.8191" y1="100.4434" y2="149.3086"/><polygon fill="#181818" points="219.8191,139.3086,223.8191,149.3086,227.8191,139.3086,223.8191,143.3086" style="stroke:#181818;stroke-width:1;"/><text fill="#000000" font-family="sans-serif" font-size="11" lengthAdjust="spacing" textLength="55" x="223.8191" y="129.0332">&#20001;&#26041;&#12395;&#23384;&#22312;</text><line style="stroke:#181818;stroke-width:1;" x1="687.0933" x2="1018.002" y1="100.4434" y2="100.4434"/><line style="stroke:#181818;stroke-width:1;" x1="1018.002" x2="1018.002" y1="100.4434" y2="149.3086"/><polygon fill="#181818" points="1014.002,139.3086,1018.002,149.3086,1022.002,139.3086,1018.002,143.3086" style="stroke:#181818;stroke-width:1;"/><text fill="#000000" font-family="sans-serif" font-size="11" lengthAdjust="spacing" textLength="98.8335" x="1018.002" y="129.0332">Remote &#12395;&#12398;&#12415;&#23384;&#22312;</text><line style="stroke:#181818;stroke-width:1;" x1="624.9407" x2="624.9407" y1="113.3984" y2="125.3685"/><line style="stroke:#181818;stroke-width:1;" x1="624.9407" x2="624.3884" y1="125.3685" y2="125.3685"/><line style="stroke:#181818;stroke-width:1;" x1="624.3884" x2="624.3884" y1="125.3685" y2="149.3086"/><polygon fill="#181818" points="620.3884,139.3086,624.3884,149.3086,628.3884,139.3086,624.3884,143.3086" style="stroke:#181818;stroke-width:1;"/><text fill="#000000" font-family="sans-serif" font-size="11" lengthAdjust="spacing" textLength="85.9912" x="624.3884" y="130.5107">Local &#12395;&#12398;&#12415;&#23384;&#22312;</text><line style="stroke:#181818;stroke-width:1;" x1="223.8191" x2="223.8191" y1="297.4844" y2="329.4844"/><line style="stroke:#181818;stroke-width:1;" x1="223.8191" x2="612.9407" y1="329.4844" y2="329.4844"/><polygon fill="#181818" points="602.9407,325.4844,612.9407,329.4844,602.9407,333.4844,606.9407,329.4844" style="stroke:#181818;stroke-width:1;"/><line style="stroke:#181818;stroke-width:1;" x1="1018.002" x2="1018.002" y1="263.4844" y2="329.4844"/><line style="stroke:#181818;stroke-width:1;" x1="1018.002" x2="636.9407" y1="329.4844" y2="329.4844"/><polygon fill="#181818" points="646.9407,325.4844,636.9407,329.4844,646.9407,333.4844,642.9407,329.4844" style="stroke:#181818;stroke-width:1;"/><line style="stroke:#181818;stroke-width:1;" x1="624.3884" x2="624.3884" y1="263.4844" y2="287.5293"/><line style="stroke:#181818;stroke-width:1;" x1="624.3884" x2="624.9407" y1="287.5293" y2="287.5293"/><line style="stroke:#181818;stroke-width:1;" x1="624.9407" x2="624.9407" y1="287.5293" y2="317.4844"/><polygon fill="#181818" points="620.9407,307.4844,624.9407,317.4844,628.9407,307.4844,624.9407,311.4844" style="stroke:#181818;stroke-width:1;"/><line style="stroke:#181818;stroke-width:1;" x1="624.9407" x2="624.9407" y1="67.4883" y2="87.4883"/><polygon fill="#181818" points="620.9407,77.4883,624.9407,87.4883,628.9407,77.4883,624.9407,81.4883" style="stroke:#181818;stroke-width:1;"/><line style="stroke:#181818;stroke-width:1;" x1="624.9407" x2="624.9407" y1="341.4844" y2="361.4844"/><polygon fill="#181818" points="620.9407,351.4844,624.9407,361.4844,628.9407,351.4844,624.9407,355.4844" style="stroke:#181818;stroke-width:1;"/><!--SRC=[dPBDJi904CVl-nHpXCGdy1ayUOO3mHAQO4bW4y-xLHC81pJAXv881fC6Olq81o0Q7cRS3Ro5Mwlijb1Ck3NTtTz_vZT3RLgo0DrRv0FaGtJ7o7pHRCZUWspDHFDAlis5VuVyCJZY4tH7oEVezWcfqbo5akgPJVD5I1sLyxaI8FFWs3ejKyLaViQ9WFcrVBbPVhXfaizLBKXzJGSg0zbOF7T4pqiJWDqqUJ-HhLVPVf9TRj00Gfw- -eDjgBl8siZEWoi0XtzGtwnAN5u8VwPe6KU___t9nc5YTXsnHcnFq8I4YFNxn0Jb7badu5dEIQY3HBE32I5RQ6bsmIpCTCIyI5Ur-gexZEi3MhISFUKfIWWDwhTAqI649qklisgyAo2oaQ8T60vYGL2kGB1vNVvFfD7JTBdu5FL-DjHb5qXi4xQwCbgDozBpsULghotOuYgMjgagSIWRhX8pTKyRhlI2gQzl]--></g></svg>